####
#
# OBJ File Generated by Meshlab
#
####
# Object ncube_rot.obj
#
# Vertices: 150
# Faces: 192
#
####
mtllib materials.mtl

vn -0.538874 0.613825 -0.576917
vt 0.211325 0.211325
v -0.577350 0.577350 -0.577350
vn -0.334821 0.701000 -0.629678
vt 0.355662 0.161498
v -0.288675 0.677003 -0.677003
vn 0.000000 0.707107 -0.707107
vt 0.500000 0.146446
v 0.000000 0.707107 -0.707107
vn 0.334821 0.629678 -0.701000
vt 0.644338 0.161498
v 0.288675 0.677003 -0.677003
vn 0.538874 0.613826 -0.576917
vt 0.788675 0.211325
v 0.577350 0.577350 -0.577350
vn -0.629678 0.701000 -0.334821
vt 0.161498 0.355662
v -0.677003 0.677003 -0.288675
vn -0.415206 0.789127 -0.452640
vt 0.330749 0.330749
v -0.338502 0.877971 -0.338502
vn 0.000000 0.940094 -0.340915
vt 0.500000 0.323224
v 0.000000 0.935414 -0.353553
vn 0.409514 0.815228 -0.409514
vt 0.669251 0.330749
v 0.338502 0.877971 -0.338502
vn 0.701000 0.629678 -0.334821
vt 0.838502 0.355662
v 0.677003 0.677003 -0.288675
vn -0.707107 0.707107 0.000000
vt 0.146446 0.500000
v -0.707107 0.707107 0.000000
vn -0.340915 0.940094 0.000000
vt 0.323224 0.500000
v -0.353553 0.935414 0.000000
vn 0.046686 0.997818 0.046686
vt 0.500000 0.500000
v 0.000000 1.000000 0.000000
vn 0.340915 0.940094 0.000000
vt 0.676777 0.500000
v 0.353553 0.935414 0.000000
vn 0.707107 0.707107 0.000000
vt 0.853554 0.500000
v 0.707107 0.707107 0.000000
vn -0.701000 0.629678 0.334821
vt 0.161498 0.644338
v -0.677003 0.677003 0.288675
vn -0.452640 0.789127 0.415206
vt 0.330749 0.669251
v -0.338502 0.877971 0.338502
vn 0.000000 0.940094 0.340915
vt 0.500000 0.676777
v 0.000000 0.935414 0.353553
vn 0.415206 0.789127 0.452640
vt 0.669251 0.669251
v 0.338502 0.877971 0.338502
vn 0.629678 0.701000 0.334821
vt 0.838502 0.644338
v 0.677003 0.677003 0.288675
vn -0.576917 0.613826 0.538874
vt 0.211325 0.788675
v -0.577350 0.577350 0.577350
vn -0.334821 0.701000 0.629678
vt 0.355662 0.838502
v -0.288675 0.677003 0.677003
vn 0.000000 0.707107 0.707107
vt 0.500000 0.853554
v 0.000000 0.707107 0.707107
vn 0.334821 0.629678 0.701000
vt 0.644338 0.838502
v 0.288675 0.677003 0.677003
vn 0.538874 0.576917 0.613826
vt 0.788675 0.788675
v 0.577350 0.577350 0.577350
vn 0.538874 0.613826 -0.576917
vt 0.788675 0.211325
v 0.577350 0.577350 -0.577350
vn 0.629678 0.334821 -0.701000
vt 0.838502 0.161498
v 0.677003 0.288675 -0.677003
vn 0.707107 0.000000 -0.707107
vt 0.853554 0.146446
v 0.707107 0.000000 -0.707107
vn 0.629678 -0.334821 -0.701000
vt 0.838502 0.161498
v 0.677003 -0.288675 -0.677003
vn 0.538874 -0.613826 -0.576917
vt 0.788675 0.211325
v 0.577350 -0.577350 -0.577350
vn 0.701000 0.629678 -0.334821
vt 0.838502 0.355662
v 0.677003 0.677003 -0.288675
vn 0.789127 0.452640 -0.415206
vt 0.938985 0.330749
v 0.877971 0.338502 -0.338502
vn 0.940094 0.000000 -0.340915
vt 0.967707 0.323224
v 0.935414 0.000000 -0.353553
vn 0.815228 -0.409514 -0.409514
vt 0.938985 0.330749
v 0.877971 -0.338502 -0.338502
vn 0.701000 -0.629678 -0.334821
vt 0.838502 0.355662
v 0.677003 -0.677003 -0.288675
vn 0.707107 0.707107 0.000000
vt 0.853554 0.500000
v 0.707107 0.707107 0.000000
vn 0.940094 0.340915 0.000000
vt 0.967707 0.500000
v 0.935414 0.353553 0.000000
vn 0.997818 -0.046686 0.046686
vt 1.000000 0.500000
v 1.000000 0.000000 0.000000
vn 0.940094 -0.340915 -0.000000
vt 0.967707 0.500000
v 0.935414 -0.353553 -0.000000
vn 0.707107 -0.707107 -0.000000
vt 0.853554 0.500000
v 0.707107 -0.707107 -0.000000
vn 0.629678 0.701000 0.334821
vt 0.838502 0.644338
v 0.677003 0.677003 0.288675
vn 0.789127 0.415206 0.452640
vt 0.938985 0.669251
v 0.877971 0.338502 0.338502
vn 0.940094 -0.000000 0.340915
vt 0.967707 0.676777
v 0.935414 -0.000000 0.353553
vn 0.789127 -0.415206 0.452640
vt 0.938985 0.669251
v 0.877971 -0.338502 0.338502
vn 0.629678 -0.701000 0.334821
vt 0.838502 0.644338
v 0.677003 -0.677003 0.288675
vn 0.538874 0.576917 0.613826
vt 0.788675 0.788675
v 0.577350 0.577350 0.577350
vn 0.629678 0.334821 0.701000
vt 0.838502 0.838502
v 0.677003 0.288675 0.677003
vn 0.707107 -0.000000 0.707107
vt 0.853554 0.853554
v 0.707107 -0.000000 0.707107
vn 0.701000 -0.334821 0.629678
vt 0.838502 0.838502
v 0.677003 -0.288675 0.677003
vn 0.576917 -0.613826 0.538874
vt 0.788675 0.788675
v 0.577350 -0.577350 0.577350
vn 0.538874 -0.613826 -0.576917
vt 0.788675 0.211325
v 0.577350 -0.577350 -0.577350
vn 0.334821 -0.701000 -0.629678
vt 0.644338 0.161498
v 0.288675 -0.677003 -0.677003
vn 0.000000 -0.707107 -0.707107
vt 0.500000 0.146446
v 0.000000 -0.707107 -0.707107
vn -0.334821 -0.701000 -0.629678
vt 0.355662 0.161498
v -0.288675 -0.677003 -0.677003
vn -0.538874 -0.576917 -0.613825
vt 0.211325 0.211325
v -0.577350 -0.577350 -0.577350
vn 0.701000 -0.629678 -0.334821
vt 0.838502 0.355662
v 0.677003 -0.677003 -0.288675
vn 0.452640 -0.789127 -0.415206
vt 0.669251 0.330749
v 0.338502 -0.877971 -0.338502
vn 0.000000 -0.940094 -0.340915
vt 0.500000 0.323224
v 0.000000 -0.935414 -0.353553
vn -0.409514 -0.815228 -0.409514
vt 0.330749 0.330749
v -0.338502 -0.877971 -0.338502
vn -0.629678 -0.701000 -0.334821
vt 0.161498 0.355662
v -0.677003 -0.677003 -0.288675
vn 0.707107 -0.707107 -0.000000
vt 0.853554 0.500000
v 0.707107 -0.707107 -0.000000
vn 0.340915 -0.940094 -0.000000
vt 0.676777 0.500000
v 0.353553 -0.935414 -0.000000
vn 0.046686 -0.997818 0.046686
vt 0.500000 0.500000
v 0.000000 -1.000000 -0.000000
vn -0.340915 -0.940094 -0.000000
vt 0.323224 0.500000
v -0.353553 -0.935414 -0.000000
vn -0.707107 -0.707107 -0.000000
vt 0.146446 0.500000
v -0.707107 -0.707107 -0.000000
vn 0.629678 -0.701000 0.334821
vt 0.838502 0.644338
v 0.677003 -0.677003 0.288675
vn 0.409514 -0.815228 0.409514
vt 0.669251 0.669251
v 0.338502 -0.877971 0.338502
vn 0.000000 -0.940094 0.340915
vt 0.500000 0.676777
v 0.000000 -0.935414 0.353553
vn -0.415206 -0.789127 0.452640
vt 0.330749 0.669251
v -0.338502 -0.877971 0.338502
vn -0.629678 -0.701000 0.334821
vt 0.161498 0.644338
v -0.677003 -0.677003 0.288675
vn 0.576917 -0.613826 0.538874
vt 0.788675 0.788675
v 0.577350 -0.577350 0.577350
vn 0.334821 -0.701000 0.629678
vt 0.644338 0.838502
v 0.288675 -0.677003 0.677003
vn 0.000000 -0.707107 0.707107
vt 0.500000 0.853554
v 0.000000 -0.707107 0.707107
vn -0.334821 -0.629678 0.701000
vt 0.355662 0.838502
v -0.288675 -0.677003 0.677003
vn -0.576917 -0.613825 0.538874
vt 0.211325 0.788675
v -0.577350 -0.577350 0.577350
vn -0.538874 -0.576917 -0.613825
vt 0.211325 0.211325
v -0.577350 -0.577350 -0.577350
vn -0.629678 -0.334821 -0.701000
vt 0.161498 0.161498
v -0.677003 -0.288675 -0.677003
vn -0.707107 0.000000 -0.707107
vt 0.146446 0.146446
v -0.707107 0.000000 -0.707107
vn -0.701000 0.334821 -0.629678
vt 0.161498 0.161498
v -0.677003 0.288675 -0.677003
vn -0.538874 0.613825 -0.576917
vt 0.211325 0.211325
v -0.577350 0.577350 -0.577350
vn -0.629678 -0.701000 -0.334821
vt 0.161498 0.355662
v -0.677003 -0.677003 -0.288675
vn -0.789127 -0.452640 -0.415206
vt 0.061015 0.330749
v -0.877971 -0.338502 -0.338502
vn -0.940094 0.000000 -0.340915
vt 0.032293 0.323224
v -0.935414 0.000000 -0.353553
vn -0.789127 0.452640 -0.415206
vt 0.061015 0.330749
v -0.877971 0.338502 -0.338502
vn -0.629678 0.701000 -0.334821
vt 0.161498 0.355662
v -0.677003 0.677003 -0.288675
vn -0.707107 -0.707107 -0.000000
vt 0.146446 0.500000
v -0.707107 -0.707107 -0.000000
vn -0.940094 -0.340915 -0.000000
vt 0.032293 0.500000
v -0.935414 -0.353553 -0.000000
vn -0.997818 -0.046686 0.046686
vt 0.000000 0.500000
v -1.000000 0.000000 0.000000
vn -0.940094 0.340915 0.000000
vt 0.032293 0.500000
v -0.935414 0.353553 0.000000
vn -0.707107 0.707107 0.000000
vt 0.146446 0.500000
v -0.707107 0.707107 0.000000
vn -0.629678 -0.701000 0.334821
vt 0.161498 0.644338
v -0.677003 -0.677003 0.288675
vn -0.789127 -0.452640 0.415206
vt 0.061015 0.669251
v -0.877971 -0.338502 0.338502
vn -0.940094 -0.000000 0.340915
vt 0.032293 0.676777
v -0.935414 -0.000000 0.353553
vn -0.789127 0.452640 0.415206
vt 0.061015 0.669251
v -0.877971 0.338502 0.338502
vn -0.701000 0.629678 0.334821
vt 0.161498 0.644338
v -0.677003 0.677003 0.288675
vn -0.576917 -0.613825 0.538874
vt 0.211325 0.788675
v -0.577350 -0.577350 0.577350
vn -0.629678 -0.334821 0.701000
vt 0.161498 0.838502
v -0.677003 -0.288675 0.677003
vn -0.707107 -0.000000 0.707107
vt 0.146446 0.853554
v -0.707107 -0.000000 0.707107
vn -0.701000 0.334821 0.629678
vt 0.161498 0.838502
v -0.677003 0.288675 0.677003
vn -0.576917 0.613826 0.538874
vt 0.211325 0.788675
v -0.577350 0.577350 0.577350
vn -0.576917 0.613826 0.538874
vt 0.211325 0.788675
v -0.577350 0.577350 0.577350
vn -0.334821 0.701000 0.629678
vt 0.355662 0.838502
v -0.288675 0.677003 0.677003
vn 0.000000 0.707107 0.707107
vt 0.500000 0.853554
v 0.000000 0.707107 0.707107
vn 0.334821 0.629678 0.701000
vt 0.644338 0.838502
v 0.288675 0.677003 0.677003
vn 0.538874 0.576917 0.613826
vt 0.788675 0.788675
v 0.577350 0.577350 0.577350
vn -0.701000 0.334821 0.629678
vt 0.161498 0.838502
v -0.677003 0.288675 0.677003
vn -0.409514 0.409514 0.815228
vt 0.330749 0.938985
v -0.338502 0.338502 0.877971
vn 0.000000 0.340915 0.940094
vt 0.500000 0.967707
v 0.000000 0.353553 0.935414
vn 0.409514 0.409514 0.815228
vt 0.669251 0.938985
v 0.338502 0.338502 0.877971
vn 0.629678 0.334821 0.701000
vt 0.838502 0.838502
v 0.677003 0.288675 0.677003
vn -0.707107 -0.000000 0.707107
vt 0.146446 0.853554
v -0.707107 -0.000000 0.707107
vn -0.340915 -0.000000 0.940094
vt 0.323224 0.967707
v -0.353553 -0.000000 0.935414
vn 0.046686 -0.046686 0.997818
vt 0.500000 1.000000
v 0.000000 -0.000000 1.000000
vn 0.340915 -0.000000 0.940094
vt 0.676777 0.967707
v 0.353553 -0.000000 0.935414
vn 0.707107 -0.000000 0.707107
vt 0.853554 0.853554
v 0.707107 -0.000000 0.707107
vn -0.629678 -0.334821 0.701000
vt 0.161498 0.838502
v -0.677003 -0.288675 0.677003
vn -0.409514 -0.409514 0.815228
vt 0.330749 0.938985
v -0.338502 -0.338502 0.877971
vn 0.000000 -0.340915 0.940094
vt 0.500000 0.967707
v 0.000000 -0.353553 0.935414
vn 0.409514 -0.409514 0.815228
vt 0.669251 0.938985
v 0.338502 -0.338502 0.877971
vn 0.701000 -0.334821 0.629678
vt 0.838502 0.838502
v 0.677003 -0.288675 0.677003
vn -0.576917 -0.613825 0.538874
vt 0.211325 0.788675
v -0.577350 -0.577350 0.577350
vn -0.334821 -0.629678 0.701000
vt 0.355662 0.838502
v -0.288675 -0.677003 0.677003
vn 0.000000 -0.707107 0.707107
vt 0.500000 0.853554
v 0.000000 -0.707107 0.707107
vn 0.334821 -0.701000 0.629678
vt 0.644338 0.838502
v 0.288675 -0.677003 0.677003
vn 0.576917 -0.613826 0.538874
vt 0.788675 0.788675
v 0.577350 -0.577350 0.577350
vn -0.538874 -0.576917 -0.613825
vt 0.211325 0.211325
v -0.577350 -0.577350 -0.577350
vn -0.334821 -0.701000 -0.629678
vt 0.355662 0.161498
v -0.288675 -0.677003 -0.677003
vn 0.000000 -0.707107 -0.707107
vt 0.500000 0.146446
v 0.000000 -0.707107 -0.707107
vn 0.334821 -0.701000 -0.629678
vt 0.644338 0.161498
v 0.288675 -0.677003 -0.677003
vn 0.538874 -0.613826 -0.576917
vt 0.788675 0.211325
v 0.577350 -0.577350 -0.577350
vn -0.629678 -0.334821 -0.701000
vt 0.161498 0.161498
v -0.677003 -0.288675 -0.677003
vn -0.415206 -0.452640 -0.789127
vt 0.330749 0.061015
v -0.338502 -0.338502 -0.877971
vn 0.000000 -0.340915 -0.940094
vt 0.500000 0.032293
v 0.000000 -0.353553 -0.935414
vn 0.452640 -0.415206 -0.789127
vt 0.669251 0.061015
v 0.338502 -0.338502 -0.877971
vn 0.629678 -0.334821 -0.701000
vt 0.838502 0.161498
v 0.677003 -0.288675 -0.677003
vn -0.707107 0.000000 -0.707107
vt 0.146446 0.146446
v -0.707107 0.000000 -0.707107
vn -0.340915 0.000000 -0.940094
vt 0.323224 0.032293
v -0.353553 0.000000 -0.935414
vn 0.046686 -0.046686 -0.997818
vt 0.500000 0.000000
v 0.000000 0.000000 -1.000000
vn 0.340915 0.000000 -0.940094
vt 0.676777 0.032293
v 0.353553 0.000000 -0.935414
vn 0.707107 0.000000 -0.707107
vt 0.853554 0.146446
v 0.707107 0.000000 -0.707107
vn -0.701000 0.334821 -0.629678
vt 0.161498 0.161498
v -0.677003 0.288675 -0.677003
vn -0.415206 0.452640 -0.789127
vt 0.330749 0.061015
v -0.338502 0.338502 -0.877971
vn 0.000000 0.340915 -0.940094
vt 0.500000 0.032293
v 0.000000 0.353553 -0.935414
vn 0.452640 0.415206 -0.789127
vt 0.669251 0.061015
v 0.338502 0.338502 -0.877971
vn 0.629678 0.334821 -0.701000
vt 0.838502 0.161498
v 0.677003 0.288675 -0.677003
vn -0.538874 0.613825 -0.576917
vt 0.211325 0.211325
v -0.577350 0.577350 -0.577350
vn -0.334821 0.701000 -0.629678
vt 0.355662 0.161498
v -0.288675 0.677003 -0.677003
vn 0.000000 0.707107 -0.707107
vt 0.500000 0.146446
v 0.000000 0.707107 -0.707107
vn 0.334821 0.629678 -0.701000
vt 0.644338 0.161498
v 0.288675 0.677003 -0.677003
vn 0.538874 0.613826 -0.576917
vt 0.788675 0.211325
v 0.577350 0.577350 -0.577350
# 150 vertices, 0 vertices normals

usemtl FocalTexture
f 1/1/1 6/6/6 7/7/7
f 1/1/1 7/7/7 2/2/2
f 2/2/2 7/7/7 8/8/8
f 2/2/2 8/8/8 3/3/3
f 3/3/3 8/8/8 4/4/4
f 8/8/8 9/9/9 4/4/4
f 4/4/4 9/9/9 5/5/5
f 9/9/9 10/10/10 5/5/5
f 6/6/6 11/11/11 12/12/12
f 6/6/6 12/12/12 7/7/7
f 7/7/7 12/12/12 13/13/13
f 7/7/7 13/13/13 8/8/8
f 8/8/8 13/13/13 9/9/9
f 13/13/13 14/14/14 9/9/9
f 9/9/9 14/14/14 10/10/10
f 14/14/14 15/15/15 10/10/10
f 11/11/11 16/16/16 12/12/12
f 16/16/16 17/17/17 12/12/12
f 12/12/12 17/17/17 13/13/13
f 17/17/17 18/18/18 13/13/13
f 13/13/13 18/18/18 19/19/19
f 13/13/13 19/19/19 14/14/14
f 14/14/14 19/19/19 20/20/20
f 14/14/14 20/20/20 15/15/15
f 16/16/16 21/21/21 17/17/17
f 21/21/21 22/22/22 17/17/17
f 17/17/17 22/22/22 18/18/18
f 22/22/22 23/23/23 18/18/18
f 18/18/18 23/23/23 24/24/24
f 18/18/18 24/24/24 19/19/19
f 19/19/19 24/24/24 25/25/25
f 19/19/19 25/25/25 20/20/20
f 26/26/26 31/31/31 32/32/32
f 26/26/26 32/32/32 27/27/27
f 27/27/27 32/32/32 33/33/33
f 27/27/27 33/33/33 28/28/28
f 28/28/28 33/33/33 29/29/29
f 33/33/33 34/34/34 29/29/29
f 29/29/29 34/34/34 30/30/30
f 34/34/34 35/35/35 30/30/30
f 31/31/31 36/36/36 37/37/37
f 31/31/31 37/37/37 32/32/32
f 32/32/32 37/37/37 38/38/38
f 32/32/32 38/38/38 33/33/33
f 33/33/33 38/38/38 34/34/34
f 38/38/38 39/39/39 34/34/34
f 34/34/34 39/39/39 35/35/35
f 39/39/39 40/40/40 35/35/35
f 36/36/36 41/41/41 37/37/37
f 41/41/41 42/42/42 37/37/37
f 37/37/37 42/42/42 38/38/38
f 42/42/42 43/43/43 38/38/38
f 38/38/38 43/43/43 44/44/44
f 38/38/38 44/44/44 39/39/39
f 39/39/39 44/44/44 45/45/45
f 39/39/39 45/45/45 40/40/40
f 41/41/41 46/46/46 42/42/42
f 46/46/46 47/47/47 42/42/42
f 42/42/42 47/47/47 43/43/43
f 47/47/47 48/48/48 43/43/43
f 43/43/43 48/48/48 49/49/49
f 43/43/43 49/49/49 44/44/44
f 44/44/44 49/49/49 50/50/50
f 44/44/44 50/50/50 45/45/45
f 51/51/51 56/56/56 57/57/57
f 51/51/51 57/57/57 52/52/52
f 52/52/52 57/57/57 58/58/58
f 52/52/52 58/58/58 53/53/53
f 53/53/53 58/58/58 54/54/54
f 58/58/58 59/59/59 54/54/54
f 54/54/54 59/59/59 55/55/55
f 59/59/59 60/60/60 55/55/55
f 56/56/56 61/61/61 62/62/62
f 56/56/56 62/62/62 57/57/57
f 57/57/57 62/62/62 63/63/63
f 57/57/57 63/63/63 58/58/58
f 58/58/58 63/63/63 59/59/59
f 63/63/63 64/64/64 59/59/59
f 59/59/59 64/64/64 60/60/60
f 64/64/64 65/65/65 60/60/60
f 61/61/61 66/66/66 62/62/62
f 66/66/66 67/67/67 62/62/62
f 62/62/62 67/67/67 63/63/63
f 67/67/67 68/68/68 63/63/63
f 63/63/63 68/68/68 69/69/69
f 63/63/63 69/69/69 64/64/64
f 64/64/64 69/69/69 70/70/70
f 64/64/64 70/70/70 65/65/65
f 66/66/66 71/71/71 67/67/67
f 71/71/71 72/72/72 67/67/67
f 67/67/67 72/72/72 68/68/68
f 72/72/72 73/73/73 68/68/68
f 68/68/68 73/73/73 74/74/74
f 68/68/68 74/74/74 69/69/69
f 69/69/69 74/74/74 75/75/75
f 69/69/69 75/75/75 70/70/70
f 76/76/76 81/81/81 82/82/82
f 76/76/76 82/82/82 77/77/77
f 77/77/77 82/82/82 83/83/83
f 77/77/77 83/83/83 78/78/78
f 78/78/78 83/83/83 79/79/79
f 83/83/83 84/84/84 79/79/79
f 79/79/79 84/84/84 80/80/80
f 84/84/84 85/85/85 80/80/80
f 81/81/81 86/86/86 87/87/87
f 81/81/81 87/87/87 82/82/82
f 82/82/82 87/87/87 88/88/88
f 82/82/82 88/88/88 83/83/83
f 83/83/83 88/88/88 84/84/84
f 88/88/88 89/89/89 84/84/84
f 84/84/84 89/89/89 85/85/85
f 89/89/89 90/90/90 85/85/85
f 86/86/86 91/91/91 87/87/87
f 91/91/91 92/92/92 87/87/87
f 87/87/87 92/92/92 88/88/88
f 92/92/92 93/93/93 88/88/88
f 88/88/88 93/93/93 94/94/94
f 88/88/88 94/94/94 89/89/89
f 89/89/89 94/94/94 95/95/95
f 89/89/89 95/95/95 90/90/90
f 91/91/91 96/96/96 92/92/92
f 96/96/96 97/97/97 92/92/92
f 92/92/92 97/97/97 93/93/93
f 97/97/97 98/98/98 93/93/93
f 93/93/93 98/98/98 99/99/99
f 93/93/93 99/99/99 94/94/94
f 94/94/94 99/99/99 100/100/100
f 94/94/94 100/100/100 95/95/95
f 101/101/101 106/106/106 107/107/107
f 101/101/101 107/107/107 102/102/102
f 102/102/102 107/107/107 108/108/108
f 102/102/102 108/108/108 103/103/103
f 103/103/103 108/108/108 104/104/104
f 108/108/108 109/109/109 104/104/104
f 104/104/104 109/109/109 105/105/105
f 109/109/109 110/110/110 105/105/105
f 106/106/106 111/111/111 112/112/112
f 106/106/106 112/112/112 107/107/107
f 107/107/107 112/112/112 113/113/113
f 107/107/107 113/113/113 108/108/108
f 108/108/108 113/113/113 109/109/109
f 113/113/113 114/114/114 109/109/109
f 109/109/109 114/114/114 110/110/110
f 114/114/114 115/115/115 110/110/110
f 111/111/111 116/116/116 112/112/112
f 116/116/116 117/117/117 112/112/112
f 112/112/112 117/117/117 113/113/113
f 117/117/117 118/118/118 113/113/113
f 113/113/113 118/118/118 119/119/119
f 113/113/113 119/119/119 114/114/114
f 114/114/114 119/119/119 120/120/120
f 114/114/114 120/120/120 115/115/115
f 116/116/116 121/121/121 117/117/117
f 121/121/121 122/122/122 117/117/117
f 117/117/117 122/122/122 118/118/118
f 122/122/122 123/123/123 118/118/118
f 118/118/118 123/123/123 124/124/124
f 118/118/118 124/124/124 119/119/119
f 119/119/119 124/124/124 125/125/125
f 119/119/119 125/125/125 120/120/120
f 126/126/126 131/131/131 132/132/132
f 126/126/126 132/132/132 127/127/127
f 127/127/127 132/132/132 133/133/133
f 127/127/127 133/133/133 128/128/128
f 128/128/128 133/133/133 129/129/129
f 133/133/133 134/134/134 129/129/129
f 129/129/129 134/134/134 130/130/130
f 134/134/134 135/135/135 130/130/130
f 131/131/131 136/136/136 137/137/137
f 131/131/131 137/137/137 132/132/132
f 132/132/132 137/137/137 138/138/138
f 132/132/132 138/138/138 133/133/133
f 133/133/133 138/138/138 134/134/134
f 138/138/138 139/139/139 134/134/134
f 134/134/134 139/139/139 135/135/135
f 139/139/139 140/140/140 135/135/135
f 136/136/136 141/141/141 137/137/137
f 141/141/141 142/142/142 137/137/137
f 137/137/137 142/142/142 138/138/138
f 142/142/142 143/143/143 138/138/138
f 138/138/138 143/143/143 144/144/144
f 138/138/138 144/144/144 139/139/139
f 139/139/139 144/144/144 145/145/145
f 139/139/139 145/145/145 140/140/140
f 141/141/141 146/146/146 142/142/142
f 146/146/146 147/147/147 142/142/142
f 142/142/142 147/147/147 143/143/143
f 147/147/147 148/148/148 143/143/143
f 143/143/143 148/148/148 149/149/149
f 143/143/143 149/149/149 144/144/144
f 144/144/144 149/149/149 150/150/150
f 144/144/144 150/150/150 145/145/145
# 192 faces, 0 coords texture

# End of File
