# Blender v2.93.0 OBJ File: ''
# www.blender.org
mtllib capitalP.mtl
o Text
v 0.070000 0.000000 -0.682000
v 0.070000 0.000000 0.000000
v 0.168000 0.000000 0.000000
v 0.168000 0.000000 -0.295000
v 0.270000 0.000000 -0.295000
v 0.307716 0.000000 -0.296715
v 0.341898 0.000000 -0.301718
v 0.372594 0.000000 -0.309797
v 0.399852 0.000000 -0.320741
v 0.423721 0.000000 -0.334337
v 0.444250 0.000000 -0.350375
v 0.461487 0.000000 -0.368642
v 0.475481 0.000000 -0.388926
v 0.486281 0.000000 -0.411016
v 0.493935 0.000000 -0.434699
v 0.498492 0.000000 -0.459765
v 0.500000 0.000000 -0.486000
v 0.498576 0.000000 -0.512544
v 0.494273 0.000000 -0.538019
v 0.487047 0.000000 -0.562188
v 0.476852 0.000000 -0.584815
v 0.463643 0.000000 -0.605664
v 0.447375 0.000000 -0.624500
v 0.428003 0.000000 -0.641086
v 0.405482 0.000000 -0.655185
v 0.379766 0.000000 -0.666563
v 0.350810 0.000000 -0.674982
v 0.318570 0.000000 -0.680206
v 0.283000 0.000000 -0.682000
v 0.168000 0.000000 -0.594000
v 0.283000 0.000000 -0.594000
v 0.303979 0.000000 -0.592909
v 0.322495 0.000000 -0.589769
v 0.338672 0.000000 -0.584781
v 0.352630 0.000000 -0.578148
v 0.364490 0.000000 -0.570071
v 0.374375 0.000000 -0.560750
v 0.382406 0.000000 -0.550388
v 0.388704 0.000000 -0.539185
v 0.393391 0.000000 -0.527344
v 0.396588 0.000000 -0.515065
v 0.398417 0.000000 -0.502550
v 0.399000 0.000000 -0.490000
v 0.398033 0.000000 -0.473610
v 0.395181 0.000000 -0.458463
v 0.390516 0.000000 -0.444594
v 0.384111 0.000000 -0.432037
v 0.376040 0.000000 -0.420828
v 0.366375 0.000000 -0.411000
v 0.355189 0.000000 -0.402589
v 0.342556 0.000000 -0.395630
v 0.328547 0.000000 -0.390156
v 0.313236 0.000000 -0.386204
v 0.296696 0.000000 -0.383807
v 0.279000 0.000000 -0.383000
v 0.168000 0.000000 -0.383000
vt 0.018182 0.000000
vt 0.527273 0.000000
vt 0.000000 0.000000
vt 0.509091 0.000000
vt 0.490909 0.000000
vt 0.472727 0.000000
vt 0.454545 0.000000
vt 0.436364 0.000000
vt 0.418182 0.000000
vt 0.400000 0.000000
vt 0.381818 0.000000
vt 0.545455 0.000000
vt 0.363636 0.000000
vt 1.000000 0.000000
vt 0.563636 0.000000
vt 0.581818 0.000000
vt 0.600000 0.000000
vt 0.345455 0.000000
vt 0.618182 0.000000
vt 0.636364 0.000000
vt 0.654545 0.000000
vt 0.327273 0.000000
vt 0.672727 0.000000
vt 0.690909 0.000000
vt 0.709091 0.000000
vt 0.309091 0.000000
vt 0.727273 0.000000
vt 0.745455 0.000000
vt 0.290909 0.000000
vt 0.763636 0.000000
vt 0.781818 0.000000
vt 0.272727 0.000000
vt 0.800000 0.000000
vt 0.254545 0.000000
vt 0.818182 0.000000
vt 0.836364 0.000000
vt 0.236364 0.000000
vt 0.854545 0.000000
vt 0.872727 0.000000
vt 0.218182 0.000000
vt 0.890909 0.000000
vt 0.909091 0.000000
vt 0.927273 0.000000
vt 0.945455 0.000000
vt 0.200000 0.000000
vt 0.963636 0.000000
vt 0.981818 0.000000
vt 0.054545 0.000000
vt 0.181818 0.000000
vt 0.163636 0.000000
vt 0.145455 0.000000
vt 0.127273 0.000000
vt 0.109091 0.000000
vt 0.090909 0.000000
vt 0.072727 0.000000
vt 0.036364 0.000000
vn 0.0000 1.0000 0.0000
usemtl None
s off
f 2/1/1 30/2/1 1/3/1
f 30/2/1 29/4/1 1/3/1
f 30/2/1 28/5/1 29/4/1
f 30/2/1 27/6/1 28/5/1
f 30/2/1 26/7/1 27/6/1
f 30/2/1 25/8/1 26/7/1
f 30/2/1 24/9/1 25/8/1
f 30/2/1 23/10/1 24/9/1
f 30/2/1 22/11/1 23/10/1
f 30/2/1 31/12/1 22/11/1
f 31/12/1 21/13/1 22/11/1
f 2/1/1 56/14/1 30/2/1
f 32/15/1 21/13/1 31/12/1
f 33/16/1 21/13/1 32/15/1
f 34/17/1 21/13/1 33/16/1
f 34/17/1 20/18/1 21/13/1
f 35/19/1 20/18/1 34/17/1
f 36/20/1 20/18/1 35/19/1
f 37/21/1 20/18/1 36/20/1
f 37/21/1 19/22/1 20/18/1
f 38/23/1 19/22/1 37/21/1
f 39/24/1 19/22/1 38/23/1
f 40/25/1 19/22/1 39/24/1
f 40/25/1 18/26/1 19/22/1
f 41/27/1 18/26/1 40/25/1
f 42/28/1 18/26/1 41/27/1
f 42/28/1 17/29/1 18/26/1
f 43/30/1 17/29/1 42/28/1
f 44/31/1 17/29/1 43/30/1
f 44/31/1 16/32/1 17/29/1
f 45/33/1 16/32/1 44/31/1
f 45/33/1 15/34/1 16/32/1
f 46/35/1 15/34/1 45/33/1
f 47/36/1 15/34/1 46/35/1
f 47/36/1 14/37/1 15/34/1
f 48/38/1 14/37/1 47/36/1
f 49/39/1 14/37/1 48/38/1
f 49/39/1 13/40/1 14/37/1
f 50/41/1 13/40/1 49/39/1
f 51/42/1 13/40/1 50/41/1
f 52/43/1 13/40/1 51/42/1
f 53/44/1 13/40/1 52/43/1
f 53/44/1 12/45/1 13/40/1
f 54/46/1 12/45/1 53/44/1
f 55/47/1 12/45/1 54/46/1
f 2/1/1 4/48/1 56/14/1
f 4/48/1 55/47/1 56/14/1
f 4/48/1 12/45/1 55/47/1
f 4/48/1 11/49/1 12/45/1
f 4/48/1 10/50/1 11/49/1
f 4/48/1 9/51/1 10/50/1
f 4/48/1 8/52/1 9/51/1
f 4/48/1 7/53/1 8/52/1
f 4/48/1 6/54/1 7/53/1
f 4/48/1 5/55/1 6/54/1
f 2/1/1 3/56/1 4/48/1
