# Blender v2.93.0 OBJ File: ''
# www.blender.org
mtllib capitalO.mtl
o Text
v 0.045000 0.000000 -0.341000
v 0.047903 0.000000 -0.295251
v 0.056477 0.000000 -0.250838
v 0.070516 0.000000 -0.208266
v 0.089815 0.000000 -0.168037
v 0.114170 0.000000 -0.130656
v 0.143375 0.000000 -0.096625
v 0.177226 0.000000 -0.066448
v 0.215519 0.000000 -0.040630
v 0.258047 0.000000 -0.019672
v 0.304606 0.000000 -0.004079
v 0.354992 0.000000 0.005646
v 0.409000 0.000000 0.009000
v 0.464786 0.000000 0.005627
v 0.516542 0.000000 -0.004148
v 0.564109 0.000000 -0.019813
v 0.607333 0.000000 -0.040852
v 0.646057 0.000000 -0.066752
v 0.680125 0.000000 -0.097000
v 0.709380 0.000000 -0.131081
v 0.733667 0.000000 -0.168481
v 0.752828 0.000000 -0.208688
v 0.766708 0.000000 -0.251185
v 0.775151 0.000000 -0.295461
v 0.778000 0.000000 -0.341000
v 0.775076 0.000000 -0.387800
v 0.766440 0.000000 -0.432898
v 0.752297 0.000000 -0.475844
v 0.732852 0.000000 -0.516185
v 0.708310 0.000000 -0.553471
v 0.678875 0.000000 -0.587250
v 0.644753 0.000000 -0.617071
v 0.606148 0.000000 -0.642482
v 0.563266 0.000000 -0.663031
v 0.516310 0.000000 -0.678269
v 0.465487 0.000000 -0.687742
v 0.411000 0.000000 -0.691000
v 0.357373 0.000000 -0.687723
v 0.307153 0.000000 -0.678199
v 0.260578 0.000000 -0.662891
v 0.217889 0.000000 -0.642259
v 0.179325 0.000000 -0.616767
v 0.145125 0.000000 -0.586875
v 0.115530 0.000000 -0.553046
v 0.090778 0.000000 -0.515741
v 0.071109 0.000000 -0.475422
v 0.056764 0.000000 -0.432551
v 0.047981 0.000000 -0.387590
v 0.146000 0.000000 -0.341000
v 0.148311 0.000000 -0.377626
v 0.155074 0.000000 -0.412343
v 0.166031 0.000000 -0.444906
v 0.180926 0.000000 -0.475074
v 0.199501 0.000000 -0.502603
v 0.221500 0.000000 -0.527250
v 0.246666 0.000000 -0.548772
v 0.274741 0.000000 -0.566926
v 0.305469 0.000000 -0.581469
v 0.338593 0.000000 -0.592157
v 0.373855 0.000000 -0.598749
v 0.411000 0.000000 -0.601000
v 0.448374 0.000000 -0.598749
v 0.483829 0.000000 -0.592157
v 0.517109 0.000000 -0.581469
v 0.547963 0.000000 -0.566926
v 0.576136 0.000000 -0.548772
v 0.601375 0.000000 -0.527250
v 0.623426 0.000000 -0.502603
v 0.642037 0.000000 -0.475074
v 0.656953 0.000000 -0.444906
v 0.667921 0.000000 -0.412343
v 0.674688 0.000000 -0.377626
v 0.677000 0.000000 -0.341000
v 0.674688 0.000000 -0.304584
v 0.667921 0.000000 -0.270005
v 0.656953 0.000000 -0.237516
v 0.642037 0.000000 -0.207370
v 0.623427 0.000000 -0.179822
v 0.601375 0.000000 -0.155125
v 0.576136 0.000000 -0.133532
v 0.547963 0.000000 -0.115296
v 0.517109 0.000000 -0.100672
v 0.483829 0.000000 -0.089912
v 0.448375 0.000000 -0.083270
v 0.411000 0.000000 -0.081000
v 0.373855 0.000000 -0.083270
v 0.338593 0.000000 -0.089912
v 0.305469 0.000000 -0.100672
v 0.274741 0.000000 -0.115296
v 0.246666 0.000000 -0.133532
v 0.221500 0.000000 -0.155125
v 0.199501 0.000000 -0.179822
v 0.180926 0.000000 -0.207370
v 0.166031 0.000000 -0.237516
v 0.155074 0.000000 -0.270005
v 0.148311 0.000000 -0.304584
vt 0.389474 0.000000
vt 0.368421 0.000000
vt 0.378947 0.000000
vt 0.357895 0.000000
vt 0.400000 0.000000
vt 0.347368 0.000000
vt 0.410526 0.000000
vt 0.336842 0.000000
vt 0.421053 0.000000
vt 0.326316 0.000000
vt 0.431579 0.000000
vt 0.315789 0.000000
vt 0.442105 0.000000
vt 0.631579 0.000000
vt 0.621053 0.000000
vt 0.642105 0.000000
vt 0.652632 0.000000
vt 0.610526 0.000000
vt 0.663158 0.000000
vt 0.600000 0.000000
vt 0.305263 0.000000
vt 0.452632 0.000000
vt 0.673684 0.000000
vt 0.589474 0.000000
vt 0.684211 0.000000
vt 0.578947 0.000000
vt 0.294737 0.000000
vt 0.463158 0.000000
vt 0.694737 0.000000
vt 0.568421 0.000000
vt 0.705263 0.000000
vt 0.557895 0.000000
vt 0.284211 0.000000
vt 0.473684 0.000000
vt 0.715789 0.000000
vt 0.547368 0.000000
vt 0.273684 0.000000
vt 0.484211 0.000000
vt 0.726316 0.000000
vt 0.536842 0.000000
vt 0.736842 0.000000
vt 0.526316 0.000000
vt 0.263158 0.000000
vt 0.494737 0.000000
vt 0.747368 0.000000
vt 0.515789 0.000000
vt 0.252632 0.000000
vt 0.000000 0.000000
vt 0.757895 0.000000
vt 0.505263 0.000000
vt 0.010526 0.000000
vt 1.000000 0.000000
vt 0.768421 0.000000
vt 0.242105 0.000000
vt 0.989474 0.000000
vt 0.778947 0.000000
vt 0.231579 0.000000
vt 0.021053 0.000000
vt 0.978947 0.000000
vt 0.789474 0.000000
vt 0.221053 0.000000
vt 0.031579 0.000000
vt 0.800000 0.000000
vt 0.968421 0.000000
vt 0.210526 0.000000
vt 0.042105 0.000000
vt 0.810526 0.000000
vt 0.957895 0.000000
vt 0.821053 0.000000
vt 0.947368 0.000000
vt 0.200000 0.000000
vt 0.052632 0.000000
vt 0.831579 0.000000
vt 0.936842 0.000000
vt 0.842105 0.000000
vt 0.926316 0.000000
vt 0.189474 0.000000
vt 0.063158 0.000000
vt 0.852632 0.000000
vt 0.915789 0.000000
vt 0.863158 0.000000
vt 0.905263 0.000000
vt 0.178947 0.000000
vt 0.073684 0.000000
vt 0.873684 0.000000
vt 0.894737 0.000000
vt 0.884211 0.000000
vt 0.168421 0.000000
vt 0.084211 0.000000
vt 0.157895 0.000000
vt 0.094737 0.000000
vt 0.147368 0.000000
vt 0.105263 0.000000
vt 0.136842 0.000000
vt 0.115789 0.000000
vt 0.126316 0.000000
vn 0.0000 1.0000 0.0000
usemtl None
s off
f 38/1/1 36/2/1 37/3/1
f 38/1/1 35/4/1 36/2/1
f 39/5/1 35/4/1 38/1/1
f 39/5/1 34/6/1 35/4/1
f 40/7/1 34/6/1 39/5/1
f 40/7/1 33/8/1 34/6/1
f 41/9/1 33/8/1 40/7/1
f 41/9/1 32/10/1 33/8/1
f 42/11/1 32/10/1 41/9/1
f 42/11/1 31/12/1 32/10/1
f 43/13/1 61/14/1 42/11/1
f 61/14/1 31/12/1 42/11/1
f 43/13/1 60/15/1 61/14/1
f 62/16/1 31/12/1 61/14/1
f 63/17/1 31/12/1 62/16/1
f 43/13/1 59/18/1 60/15/1
f 64/19/1 31/12/1 63/17/1
f 43/13/1 58/20/1 59/18/1
f 64/19/1 30/21/1 31/12/1
f 44/22/1 58/20/1 43/13/1
f 65/23/1 30/21/1 64/19/1
f 44/22/1 57/24/1 58/20/1
f 66/25/1 30/21/1 65/23/1
f 44/22/1 56/26/1 57/24/1
f 66/25/1 29/27/1 30/21/1
f 45/28/1 56/26/1 44/22/1
f 67/29/1 29/27/1 66/25/1
f 45/28/1 55/30/1 56/26/1
f 68/31/1 29/27/1 67/29/1
f 45/28/1 54/32/1 55/30/1
f 68/31/1 28/33/1 29/27/1
f 46/34/1 54/32/1 45/28/1
f 69/35/1 28/33/1 68/31/1
f 46/34/1 53/36/1 54/32/1
f 69/35/1 27/37/1 28/33/1
f 47/38/1 53/36/1 46/34/1
f 70/39/1 27/37/1 69/35/1
f 47/38/1 52/40/1 53/36/1
f 71/41/1 27/37/1 70/39/1
f 47/38/1 51/42/1 52/40/1
f 71/41/1 26/43/1 27/37/1
f 48/44/1 51/42/1 47/38/1
f 72/45/1 26/43/1 71/41/1
f 48/44/1 50/46/1 51/42/1
f 72/45/1 25/47/1 26/43/1
f 1/48/1 50/46/1 48/44/1
f 73/49/1 25/47/1 72/45/1
f 1/48/1 49/50/1 50/46/1
f 2/51/1 49/50/1 1/48/1
f 2/51/1 96/52/1 49/50/1
f 74/53/1 25/47/1 73/49/1
f 74/53/1 24/54/1 25/47/1
f 2/51/1 95/55/1 96/52/1
f 75/56/1 24/54/1 74/53/1
f 75/56/1 23/57/1 24/54/1
f 3/58/1 95/55/1 2/51/1
f 3/58/1 94/59/1 95/55/1
f 76/60/1 23/57/1 75/56/1
f 76/60/1 22/61/1 23/57/1
f 4/62/1 94/59/1 3/58/1
f 77/63/1 22/61/1 76/60/1
f 4/62/1 93/64/1 94/59/1
f 77/63/1 21/65/1 22/61/1
f 5/66/1 93/64/1 4/62/1
f 78/67/1 21/65/1 77/63/1
f 5/66/1 92/68/1 93/64/1
f 79/69/1 21/65/1 78/67/1
f 5/66/1 91/70/1 92/68/1
f 79/69/1 20/71/1 21/65/1
f 6/72/1 91/70/1 5/66/1
f 80/73/1 20/71/1 79/69/1
f 6/72/1 90/74/1 91/70/1
f 81/75/1 20/71/1 80/73/1
f 6/72/1 89/76/1 90/74/1
f 81/75/1 19/77/1 20/71/1
f 7/78/1 89/76/1 6/72/1
f 82/79/1 19/77/1 81/75/1
f 7/78/1 88/80/1 89/76/1
f 83/81/1 19/77/1 82/79/1
f 7/78/1 87/82/1 88/80/1
f 83/81/1 18/83/1 19/77/1
f 8/84/1 87/82/1 7/78/1
f 84/85/1 18/83/1 83/81/1
f 8/84/1 86/86/1 87/82/1
f 85/87/1 18/83/1 84/85/1
f 8/84/1 85/87/1 86/86/1
f 8/84/1 18/83/1 85/87/1
f 8/84/1 17/88/1 18/83/1
f 9/89/1 17/88/1 8/84/1
f 9/89/1 16/90/1 17/88/1
f 10/91/1 16/90/1 9/89/1
f 10/91/1 15/92/1 16/90/1
f 11/93/1 15/92/1 10/91/1
f 11/93/1 14/94/1 15/92/1
f 12/95/1 14/94/1 11/93/1
f 12/95/1 13/96/1 14/94/1
