# Blender v2.93.0 OBJ File: ''
# www.blender.org
mtllib capitalD.mtl
o Text
v 0.076000 0.000000 0.000000
v 0.342000 0.000000 0.000000
v 0.396388 0.000000 -0.003367
v 0.446940 0.000000 -0.013106
v 0.493484 0.000000 -0.028672
v 0.535852 0.000000 -0.049519
v 0.573872 0.000000 -0.075101
v 0.607375 0.000000 -0.104875
v 0.636190 0.000000 -0.138295
v 0.660148 0.000000 -0.174815
v 0.679078 0.000000 -0.213891
v 0.692810 0.000000 -0.254977
v 0.701174 0.000000 -0.297528
v 0.704000 0.000000 -0.341000
v 0.701670 0.000000 -0.381531
v 0.694611 0.000000 -0.422162
v 0.682719 0.000000 -0.462203
v 0.665889 0.000000 -0.500963
v 0.644017 0.000000 -0.537751
v 0.617000 0.000000 -0.571875
v 0.584733 0.000000 -0.602645
v 0.547111 0.000000 -0.629370
v 0.504031 0.000000 -0.651359
v 0.455389 0.000000 -0.667921
v 0.401080 0.000000 -0.678365
v 0.341000 0.000000 -0.682000
v 0.076000 0.000000 -0.682000
v 0.174000 0.000000 -0.594000
v 0.325000 0.000000 -0.594000
v 0.370593 0.000000 -0.591638
v 0.411912 0.000000 -0.584773
v 0.449016 0.000000 -0.573734
v 0.481963 0.000000 -0.558852
v 0.510813 0.000000 -0.540455
v 0.535625 0.000000 -0.518875
v 0.556458 0.000000 -0.494440
v 0.573370 0.000000 -0.467481
v 0.586422 0.000000 -0.438328
v 0.595671 0.000000 -0.407310
v 0.601178 0.000000 -0.374758
v 0.603000 0.000000 -0.341000
v 0.601868 0.000000 -0.318376
v 0.598194 0.000000 -0.293093
v 0.591563 0.000000 -0.266031
v 0.581556 0.000000 -0.238074
v 0.567757 0.000000 -0.210103
v 0.549750 0.000000 -0.183000
v 0.527118 0.000000 -0.157647
v 0.499444 0.000000 -0.134926
v 0.466313 0.000000 -0.115719
v 0.427306 0.000000 -0.100907
v 0.382007 0.000000 -0.091374
v 0.330000 0.000000 -0.088000
v 0.174000 0.000000 -0.088000
vt 0.000000 0.000000
vt 0.509434 0.000000
vt 0.490566 0.000000
vt 0.471698 0.000000
vt 0.452830 0.000000
vt 0.433962 0.000000
vt 0.415094 0.000000
vt 0.396226 0.000000
vt 0.377358 0.000000
vt 0.528302 0.000000
vt 0.547170 0.000000
vt 0.358491 0.000000
vt 1.000000 0.000000
vt 0.566038 0.000000
vt 0.584906 0.000000
vt 0.603774 0.000000
vt 0.339623 0.000000
vt 0.622642 0.000000
vt 0.641509 0.000000
vt 0.320755 0.000000
vt 0.660377 0.000000
vt 0.301887 0.000000
vt 0.679245 0.000000
vt 0.698113 0.000000
vt 0.283019 0.000000
vt 0.716981 0.000000
vt 0.264151 0.000000
vt 0.735849 0.000000
vt 0.245283 0.000000
vt 0.754717 0.000000
vt 0.773585 0.000000
vt 0.226415 0.000000
vt 0.792453 0.000000
vt 0.207547 0.000000
vt 0.811321 0.000000
vt 0.830189 0.000000
vt 0.188679 0.000000
vt 0.849057 0.000000
vt 0.169811 0.000000
vt 0.867925 0.000000
vt 0.886792 0.000000
vt 0.150943 0.000000
vt 0.905660 0.000000
vt 0.132075 0.000000
vt 0.924528 0.000000
vt 0.943396 0.000000
vt 0.113208 0.000000
vt 0.962264 0.000000
vt 0.981132 0.000000
vt 0.094340 0.000000
vt 0.075472 0.000000
vt 0.056604 0.000000
vt 0.037736 0.000000
vt 0.018868 0.000000
vn 0.0000 1.0000 0.0000
usemtl None
s off
f 1/1/1 28/2/1 27/3/1
f 28/2/1 26/4/1 27/3/1
f 28/2/1 25/5/1 26/4/1
f 28/2/1 24/6/1 25/5/1
f 28/2/1 23/7/1 24/6/1
f 28/2/1 22/8/1 23/7/1
f 28/2/1 21/9/1 22/8/1
f 28/2/1 29/10/1 21/9/1
f 29/10/1 30/11/1 21/9/1
f 30/11/1 20/12/1 21/9/1
f 1/1/1 54/13/1 28/2/1
f 31/14/1 20/12/1 30/11/1
f 32/15/1 20/12/1 31/14/1
f 33/16/1 20/12/1 32/15/1
f 33/16/1 19/17/1 20/12/1
f 34/18/1 19/17/1 33/16/1
f 35/19/1 19/17/1 34/18/1
f 35/19/1 18/20/1 19/17/1
f 36/21/1 18/20/1 35/19/1
f 36/21/1 17/22/1 18/20/1
f 37/23/1 17/22/1 36/21/1
f 38/24/1 17/22/1 37/23/1
f 38/24/1 16/25/1 17/22/1
f 39/26/1 16/25/1 38/24/1
f 39/26/1 15/27/1 16/25/1
f 40/28/1 15/27/1 39/26/1
f 40/28/1 14/29/1 15/27/1
f 41/30/1 14/29/1 40/28/1
f 42/31/1 14/29/1 41/30/1
f 42/31/1 13/32/1 14/29/1
f 43/33/1 13/32/1 42/31/1
f 43/33/1 12/34/1 13/32/1
f 44/35/1 12/34/1 43/33/1
f 45/36/1 12/34/1 44/35/1
f 45/36/1 11/37/1 12/34/1
f 46/38/1 11/37/1 45/36/1
f 46/38/1 10/39/1 11/37/1
f 47/40/1 10/39/1 46/38/1
f 48/41/1 10/39/1 47/40/1
f 48/41/1 9/42/1 10/39/1
f 49/43/1 9/42/1 48/41/1
f 49/43/1 8/44/1 9/42/1
f 50/45/1 8/44/1 49/43/1
f 51/46/1 8/44/1 50/45/1
f 51/46/1 7/47/1 8/44/1
f 52/48/1 7/47/1 51/46/1
f 53/49/1 7/47/1 52/48/1
f 1/1/1 53/49/1 54/13/1
f 1/1/1 7/47/1 53/49/1
f 1/1/1 6/50/1 7/47/1
f 1/1/1 5/51/1 6/50/1
f 1/1/1 4/52/1 5/51/1
f 1/1/1 3/53/1 4/52/1
f 1/1/1 2/54/1 3/53/1
