# Blender v2.93.0 OBJ File: ''
# www.blender.org
mtllib capitalR.mtl
o Text
v 0.077000 0.000000 -0.682000
v 0.077000 0.000000 0.000000
v 0.175000 0.000000 0.000000
v 0.175000 0.000000 -0.296000
v 0.216000 0.000000 -0.296000
v 0.228346 0.000000 -0.295604
v 0.240519 0.000000 -0.294167
v 0.252719 0.000000 -0.291313
v 0.265148 0.000000 -0.286667
v 0.278008 0.000000 -0.279854
v 0.291500 0.000000 -0.270500
v 0.305825 0.000000 -0.258229
v 0.321185 0.000000 -0.242667
v 0.337781 0.000000 -0.223437
v 0.355815 0.000000 -0.200167
v 0.375487 0.000000 -0.172479
v 0.397000 0.000000 -0.140000
v 0.487000 0.000000 0.000000
v 0.604000 0.000000 0.000000
v 0.592851 0.000000 -0.015413
v 0.582806 0.000000 -0.029306
v 0.573719 0.000000 -0.041906
v 0.565445 0.000000 -0.053444
v 0.557837 0.000000 -0.064149
v 0.550750 0.000000 -0.074250
v 0.544038 0.000000 -0.083976
v 0.537556 0.000000 -0.093556
v 0.531156 0.000000 -0.103219
v 0.524695 0.000000 -0.113194
v 0.518024 0.000000 -0.123712
v 0.511000 0.000000 -0.135000
v 0.498270 0.000000 -0.155792
v 0.485991 0.000000 -0.175667
v 0.474031 0.000000 -0.194625
v 0.462259 0.000000 -0.212667
v 0.450543 0.000000 -0.229792
v 0.438750 0.000000 -0.246000
v 0.426749 0.000000 -0.261292
v 0.414407 0.000000 -0.275667
v 0.401594 0.000000 -0.289125
v 0.388176 0.000000 -0.301667
v 0.374022 0.000000 -0.313292
v 0.359000 0.000000 -0.324000
v 0.376578 0.000000 -0.331869
v 0.392792 0.000000 -0.340954
v 0.407609 0.000000 -0.351219
v 0.421000 0.000000 -0.362630
v 0.432932 0.000000 -0.375152
v 0.443375 0.000000 -0.388750
v 0.452297 0.000000 -0.403390
v 0.459667 0.000000 -0.419037
v 0.465453 0.000000 -0.435656
v 0.469625 0.000000 -0.453213
v 0.472151 0.000000 -0.471673
v 0.473000 0.000000 -0.491000
v 0.471228 0.000000 -0.519546
v 0.465991 0.000000 -0.546120
v 0.457406 0.000000 -0.570625
v 0.445593 0.000000 -0.592963
v 0.430668 0.000000 -0.613037
v 0.412750 0.000000 -0.630750
v 0.391957 0.000000 -0.646005
v 0.368407 0.000000 -0.658704
v 0.342219 0.000000 -0.668750
v 0.313509 0.000000 -0.676046
v 0.282397 0.000000 -0.680495
v 0.249000 0.000000 -0.682000
v 0.175000 0.000000 -0.598000
v 0.238000 0.000000 -0.598000
v 0.260574 0.000000 -0.597196
v 0.280843 0.000000 -0.594815
v 0.298875 0.000000 -0.590906
v 0.314741 0.000000 -0.585519
v 0.328509 0.000000 -0.578700
v 0.340250 0.000000 -0.570500
v 0.350032 0.000000 -0.560966
v 0.357926 0.000000 -0.550148
v 0.364000 0.000000 -0.538094
v 0.368324 0.000000 -0.524852
v 0.370968 0.000000 -0.510471
v 0.372000 0.000000 -0.495000
v 0.371579 0.000000 -0.480842
v 0.369713 0.000000 -0.466986
v 0.366250 0.000000 -0.453609
v 0.361037 0.000000 -0.440889
v 0.353921 0.000000 -0.429002
v 0.344750 0.000000 -0.418125
v 0.333370 0.000000 -0.408436
v 0.319630 0.000000 -0.400111
v 0.303375 0.000000 -0.393328
v 0.284454 0.000000 -0.388264
v 0.262713 0.000000 -0.385095
v 0.238000 0.000000 -0.384000
v 0.175000 0.000000 -0.384000
vt 0.010753 0.000000
vt 0.720430 0.000000
vt 0.000000 0.000000
vt 0.709677 0.000000
vt 0.698925 0.000000
vt 0.688172 0.000000
vt 0.677419 0.000000
vt 0.666667 0.000000
vt 0.655914 0.000000
vt 0.645161 0.000000
vt 0.634409 0.000000
vt 0.731183 0.000000
vt 0.623656 0.000000
vt 1.000000 0.000000
vt 0.741935 0.000000
vt 0.752688 0.000000
vt 0.763441 0.000000
vt 0.612903 0.000000
vt 0.774194 0.000000
vt 0.784946 0.000000
vt 0.795699 0.000000
vt 0.602151 0.000000
vt 0.806452 0.000000
vt 0.817204 0.000000
vt 0.827957 0.000000
vt 0.591398 0.000000
vt 0.838710 0.000000
vt 0.849462 0.000000
vt 0.580645 0.000000
vt 0.860215 0.000000
vt 0.870968 0.000000
vt 0.569892 0.000000
vt 0.881720 0.000000
vt 0.559140 0.000000
vt 0.892473 0.000000
vt 0.903226 0.000000
vt 0.548387 0.000000
vt 0.913979 0.000000
vt 0.537634 0.000000
vt 0.924731 0.000000
vt 0.526882 0.000000
vt 0.935484 0.000000
vt 0.946237 0.000000
vt 0.516129 0.000000
vt 0.956989 0.000000
vt 0.967742 0.000000
vt 0.505376 0.000000
vt 0.978495 0.000000
vt 0.989247 0.000000
vt 0.032258 0.000000
vt 0.494624 0.000000
vt 0.483871 0.000000
vt 0.473118 0.000000
vt 0.462366 0.000000
vt 0.451613 0.000000
vt 0.440860 0.000000
vt 0.430108 0.000000
vt 0.043011 0.000000
vt 0.053763 0.000000
vt 0.419355 0.000000
vt 0.021505 0.000000
vt 0.064516 0.000000
vt 0.075269 0.000000
vt 0.086022 0.000000
vt 0.408602 0.000000
vt 0.096774 0.000000
vt 0.107527 0.000000
vt 0.397849 0.000000
vt 0.118280 0.000000
vt 0.387097 0.000000
vt 0.129032 0.000000
vt 0.376344 0.000000
vt 0.139785 0.000000
vt 0.365591 0.000000
vt 0.150538 0.000000
vt 0.354839 0.000000
vt 0.161290 0.000000
vt 0.344086 0.000000
vt 0.333333 0.000000
vt 0.172043 0.000000
vt 0.322581 0.000000
vt 0.182796 0.000000
vt 0.311828 0.000000
vt 0.301075 0.000000
vt 0.290323 0.000000
vt 0.279570 0.000000
vt 0.268817 0.000000
vt 0.258065 0.000000
vt 0.247312 0.000000
vt 0.236559 0.000000
vt 0.225806 0.000000
vt 0.215054 0.000000
vt 0.204301 0.000000
vt 0.193548 0.000000
vn 0.0000 1.0000 0.0000
usemtl None
s off
f 2/1/1 68/2/1 1/3/1
f 68/2/1 67/4/1 1/3/1
f 68/2/1 66/5/1 67/4/1
f 68/2/1 65/6/1 66/5/1
f 68/2/1 64/7/1 65/6/1
f 68/2/1 63/8/1 64/7/1
f 68/2/1 62/9/1 63/8/1
f 68/2/1 61/10/1 62/9/1
f 68/2/1 60/11/1 61/10/1
f 68/2/1 69/12/1 60/11/1
f 69/12/1 59/13/1 60/11/1
f 2/1/1 94/14/1 68/2/1
f 70/15/1 59/13/1 69/12/1
f 71/16/1 59/13/1 70/15/1
f 72/17/1 59/13/1 71/16/1
f 72/17/1 58/18/1 59/13/1
f 73/19/1 58/18/1 72/17/1
f 74/20/1 58/18/1 73/19/1
f 75/21/1 58/18/1 74/20/1
f 75/21/1 57/22/1 58/18/1
f 76/23/1 57/22/1 75/21/1
f 77/24/1 57/22/1 76/23/1
f 78/25/1 57/22/1 77/24/1
f 78/25/1 56/26/1 57/22/1
f 79/27/1 56/26/1 78/25/1
f 80/28/1 56/26/1 79/27/1
f 80/28/1 55/29/1 56/26/1
f 81/30/1 55/29/1 80/28/1
f 82/31/1 55/29/1 81/30/1
f 82/31/1 54/32/1 55/29/1
f 83/33/1 54/32/1 82/31/1
f 83/33/1 53/34/1 54/32/1
f 84/35/1 53/34/1 83/33/1
f 85/36/1 53/34/1 84/35/1
f 85/36/1 52/37/1 53/34/1
f 86/38/1 52/37/1 85/36/1
f 86/38/1 51/39/1 52/37/1
f 87/40/1 51/39/1 86/38/1
f 87/40/1 50/41/1 51/39/1
f 88/42/1 50/41/1 87/40/1
f 89/43/1 50/41/1 88/42/1
f 89/43/1 49/44/1 50/41/1
f 90/45/1 49/44/1 89/43/1
f 91/46/1 49/44/1 90/45/1
f 91/46/1 48/47/1 49/44/1
f 92/48/1 48/47/1 91/46/1
f 93/49/1 48/47/1 92/48/1
f 2/1/1 4/50/1 94/14/1
f 4/50/1 93/49/1 94/14/1
f 4/50/1 48/47/1 93/49/1
f 4/50/1 47/51/1 48/47/1
f 4/50/1 46/52/1 47/51/1
f 4/50/1 45/53/1 46/52/1
f 4/50/1 44/54/1 45/53/1
f 4/50/1 43/55/1 44/54/1
f 4/50/1 42/56/1 43/55/1
f 4/50/1 41/57/1 42/56/1
f 4/50/1 5/58/1 41/57/1
f 5/58/1 6/59/1 41/57/1
f 6/59/1 40/60/1 41/57/1
f 2/1/1 3/61/1 4/50/1
f 7/62/1 40/60/1 6/59/1
f 8/63/1 40/60/1 7/62/1
f 9/64/1 40/60/1 8/63/1
f 9/64/1 39/65/1 40/60/1
f 10/66/1 39/65/1 9/64/1
f 11/67/1 39/65/1 10/66/1
f 11/67/1 38/68/1 39/65/1
f 12/69/1 38/68/1 11/67/1
f 12/69/1 37/70/1 38/68/1
f 13/71/1 37/70/1 12/69/1
f 13/71/1 36/72/1 37/70/1
f 14/73/1 36/72/1 13/71/1
f 14/73/1 35/74/1 36/72/1
f 15/75/1 35/74/1 14/73/1
f 15/75/1 34/76/1 35/74/1
f 16/77/1 34/76/1 15/75/1
f 16/77/1 33/78/1 34/76/1
f 16/77/1 32/79/1 33/78/1
f 17/80/1 32/79/1 16/77/1
f 17/80/1 31/81/1 32/79/1
f 18/82/1 31/81/1 17/80/1
f 18/82/1 30/83/1 31/81/1
f 18/82/1 29/84/1 30/83/1
f 18/82/1 28/85/1 29/84/1
f 18/82/1 27/86/1 28/85/1
f 18/82/1 26/87/1 27/86/1
f 18/82/1 25/88/1 26/87/1
f 18/82/1 24/89/1 25/88/1
f 18/82/1 23/90/1 24/89/1
f 18/82/1 22/91/1 23/90/1
f 18/82/1 21/92/1 22/91/1
f 18/82/1 20/93/1 21/92/1
f 18/82/1 19/94/1 20/93/1
