# Blender v2.93.0 OBJ File: ''
# www.blender.org
mtllib capitalF.mtl
o Text
v 0.440000 0.000000 -0.682000
v 0.076000 0.000000 -0.682000
v 0.076000 0.000000 0.000000
v 0.174000 0.000000 0.000000
v 0.174000 0.000000 -0.317000
v 0.440000 0.000000 -0.317000
v 0.440000 0.000000 -0.405000
v 0.174000 0.000000 -0.405000
v 0.174000 0.000000 -0.594000
v 0.440000 0.000000 -0.594000
vt 0.222222 0.000000
vt 0.888889 0.000000
vt 0.111111 0.000000
vt 0.000000 0.000000
vt 1.000000 0.000000
vt 0.777778 0.000000
vt 0.444444 0.000000
vt 0.666667 0.000000
vt 0.555556 0.000000
vt 0.333333 0.000000
vn 0.0000 1.0000 0.0000
usemtl None
s off
f 3/1/1 9/2/1 2/3/1
f 9/2/1 1/4/1 2/3/1
f 9/2/1 10/5/1 1/4/1
f 3/1/1 8/6/1 9/2/1
f 3/1/1 5/7/1 8/6/1
f 5/7/1 7/8/1 8/6/1
f 5/7/1 6/9/1 7/8/1
f 3/1/1 4/10/1 5/7/1
