# Blender v2.93.0 OBJ File: ''
# www.blender.org
mtllib capitalT.mtl
o Text
v 0.587000 0.000000 -0.682000
v 0.017000 0.000000 -0.682000
v 0.017000 0.000000 -0.594000
v 0.253000 0.000000 -0.594000
v 0.253000 0.000000 0.000000
v 0.351000 0.000000 0.000000
v 0.351000 0.000000 -0.594000
v 0.587000 0.000000 -0.594000
vt 0.285714 0.000000
vt 0.000000 0.000000
vt 0.142857 0.000000
vt 1.000000 0.000000
vt 0.428571 0.000000
vt 0.571429 0.000000
vt 0.857143 0.000000
vt 0.714286 0.000000
vn 0.0000 1.0000 0.0000
vn 0.0000 0.0000 1.0000
usemtl None
s off
f 3/1/1 1/2/1 2/3/1
f 3/1/1 8/4/1 1/2/1
f 4/5/2 8/4/2 3/1/2
f 5/6/1 7/7/1 4/5/1
f 7/7/2 8/4/2 4/5/2
f 5/6/1 6/8/1 7/7/1
