# Blender v2.93.0 OBJ File: ''
# www.blender.org
mtllib capitalG.mtl
o Text
v 0.673000 0.000000 -0.336000
v 0.444000 0.000000 -0.336000
v 0.444000 0.000000 -0.248000
v 0.575000 0.000000 -0.248000
v 0.575000 0.000000 -0.108000
v 0.563227 0.000000 -0.104318
v 0.551398 0.000000 -0.100792
v 0.539500 0.000000 -0.097453
v 0.527519 0.000000 -0.094333
v 0.515440 0.000000 -0.091464
v 0.503250 0.000000 -0.088875
v 0.490935 0.000000 -0.086599
v 0.478481 0.000000 -0.084667
v 0.465875 0.000000 -0.083109
v 0.453102 0.000000 -0.081958
v 0.440148 0.000000 -0.081245
v 0.427000 0.000000 -0.081000
v 0.387538 0.000000 -0.083193
v 0.350306 0.000000 -0.089630
v 0.315531 0.000000 -0.100094
v 0.283444 0.000000 -0.114370
v 0.254274 0.000000 -0.132244
v 0.228250 0.000000 -0.153500
v 0.205601 0.000000 -0.177922
v 0.186556 0.000000 -0.205296
v 0.171344 0.000000 -0.235406
v 0.160194 0.000000 -0.268037
v 0.153337 0.000000 -0.302973
v 0.151000 0.000000 -0.340000
v 0.153348 0.000000 -0.376226
v 0.160204 0.000000 -0.410722
v 0.171281 0.000000 -0.443219
v 0.186296 0.000000 -0.473444
v 0.204964 0.000000 -0.501129
v 0.227000 0.000000 -0.526000
v 0.252119 0.000000 -0.547788
v 0.280037 0.000000 -0.566222
v 0.310469 0.000000 -0.581031
v 0.343130 0.000000 -0.591945
v 0.377735 0.000000 -0.598691
v 0.414000 0.000000 -0.601000
v 0.434519 0.000000 -0.600522
v 0.455065 0.000000 -0.599093
v 0.475625 0.000000 -0.596719
v 0.496185 0.000000 -0.593407
v 0.516732 0.000000 -0.589166
v 0.537250 0.000000 -0.584000
v 0.557727 0.000000 -0.577918
v 0.578148 0.000000 -0.570926
v 0.598500 0.000000 -0.563031
v 0.618769 0.000000 -0.554241
v 0.638940 0.000000 -0.544561
v 0.659000 0.000000 -0.534000
v 0.659000 0.000000 -0.633000
v 0.633269 0.000000 -0.643594
v 0.609403 0.000000 -0.652921
v 0.587141 0.000000 -0.661047
v 0.566222 0.000000 -0.668037
v 0.546387 0.000000 -0.673958
v 0.527375 0.000000 -0.678875
v 0.508925 0.000000 -0.682855
v 0.490778 0.000000 -0.685963
v 0.472672 0.000000 -0.688266
v 0.454347 0.000000 -0.689829
v 0.435543 0.000000 -0.690718
v 0.416000 0.000000 -0.691000
v 0.365104 0.000000 -0.687873
v 0.316667 0.000000 -0.678736
v 0.271062 0.000000 -0.663953
v 0.228667 0.000000 -0.643889
v 0.189854 0.000000 -0.618908
v 0.155000 0.000000 -0.589375
v 0.124479 0.000000 -0.555655
v 0.098667 0.000000 -0.518111
v 0.077937 0.000000 -0.477109
v 0.062667 0.000000 -0.433014
v 0.053229 0.000000 -0.386189
v 0.050000 0.000000 -0.337000
v 0.053151 0.000000 -0.288178
v 0.062375 0.000000 -0.241926
v 0.077328 0.000000 -0.198563
v 0.097667 0.000000 -0.158407
v 0.123047 0.000000 -0.121780
v 0.153125 0.000000 -0.089000
v 0.187557 0.000000 -0.060387
v 0.226000 0.000000 -0.036259
v 0.268109 0.000000 -0.016938
v 0.313542 0.000000 -0.002741
v 0.361953 0.000000 0.006011
v 0.413000 0.000000 0.009000
v 0.436335 0.000000 0.008662
v 0.458926 0.000000 0.007630
v 0.480906 0.000000 0.005875
v 0.502407 0.000000 0.003370
v 0.523561 0.000000 0.000088
v 0.544500 0.000000 -0.004000
v 0.565355 0.000000 -0.008921
v 0.586259 0.000000 -0.014704
v 0.607344 0.000000 -0.021375
v 0.628741 0.000000 -0.028963
v 0.650582 0.000000 -0.037495
v 0.673000 0.000000 -0.047000
vt 0.653465 0.000000
vt 0.633663 0.000000
vt 0.643564 0.000000
vt 0.623762 0.000000
vt 0.613861 0.000000
vt 0.603960 0.000000
vt 0.663366 0.000000
vt 0.594059 0.000000
vt 0.584158 0.000000
vt 0.574257 0.000000
vt 0.673267 0.000000
vt 0.564356 0.000000
vt 0.554455 0.000000
vt 0.683168 0.000000
vt 0.544554 0.000000
vt 0.534653 0.000000
vt 0.693069 0.000000
vt 0.524752 0.000000
vt 0.415842 0.000000
vt 0.425743 0.000000
vt 0.435644 0.000000
vt 0.445545 0.000000
vt 0.455446 0.000000
vt 0.465347 0.000000
vt 0.475248 0.000000
vt 0.485149 0.000000
vt 0.495050 0.000000
vt 0.504951 0.000000
vt 0.514852 0.000000
vt 0.702970 0.000000
vt 0.396040 0.000000
vt 0.405941 0.000000
vt 0.386139 0.000000
vt 0.376238 0.000000
vt 0.366337 0.000000
vt 0.712871 0.000000
vt 0.356436 0.000000
vt 0.346535 0.000000
vt 0.722772 0.000000
vt 0.336634 0.000000
vt 0.326733 0.000000
vt 0.732673 0.000000
vt 0.316832 0.000000
vt 0.742574 0.000000
vt 0.306931 0.000000
vt 0.297030 0.000000
vt 0.752475 0.000000
vt 0.287129 0.000000
vt 0.762376 0.000000
vt 0.277228 0.000000
vt 0.267327 0.000000
vt 0.772277 0.000000
vt 0.019802 0.000000
vt 0.000000 0.000000
vt 0.009901 0.000000
vt 0.029703 0.000000
vt 1.000000 0.000000
vt 0.257426 0.000000
vt 0.782178 0.000000
vt 0.247525 0.000000
vt 0.039604 0.000000
vt 0.792079 0.000000
vt 0.237624 0.000000
vt 0.227723 0.000000
vt 0.801980 0.000000
vt 0.217822 0.000000
vt 0.811881 0.000000
vt 0.207921 0.000000
vt 0.198020 0.000000
vt 0.821782 0.000000
vt 0.188119 0.000000
vt 0.049505 0.000000
vt 0.059406 0.000000
vt 0.069307 0.000000
vt 0.178218 0.000000
vt 0.079208 0.000000
vt 0.089109 0.000000
vt 0.099010 0.000000
vt 0.168317 0.000000
vt 0.831683 0.000000
vt 0.108911 0.000000
vt 0.118812 0.000000
vt 0.128713 0.000000
vt 0.158416 0.000000
vt 0.138614 0.000000
vt 0.148515 0.000000
vt 0.841584 0.000000
vt 0.990099 0.000000
vt 0.980198 0.000000
vt 0.851485 0.000000
vt 0.970297 0.000000
vt 0.960396 0.000000
vt 0.861386 0.000000
vt 0.950495 0.000000
vt 0.940594 0.000000
vt 0.930693 0.000000
vt 0.871287 0.000000
vt 0.920792 0.000000
vt 0.910891 0.000000
vt 0.900990 0.000000
vt 0.881188 0.000000
vt 0.891089 0.000000
vn 0.0000 1.0000 0.0000
usemtl None
s off
f 67/1/1 65/2/1 66/3/1
f 67/1/1 64/4/1 65/2/1
f 67/1/1 63/5/1 64/4/1
f 67/1/1 62/6/1 63/5/1
f 68/7/1 62/6/1 67/1/1
f 68/7/1 61/8/1 62/6/1
f 68/7/1 60/9/1 61/8/1
f 68/7/1 59/10/1 60/9/1
f 69/11/1 59/10/1 68/7/1
f 69/11/1 58/12/1 59/10/1
f 69/11/1 57/13/1 58/12/1
f 70/14/1 57/13/1 69/11/1
f 70/14/1 56/15/1 57/13/1
f 70/14/1 55/16/1 56/15/1
f 71/17/1 55/16/1 70/14/1
f 71/17/1 54/18/1 55/16/1
f 71/17/1 43/19/1 54/18/1
f 43/19/1 44/20/1 54/18/1
f 44/20/1 45/21/1 54/18/1
f 45/21/1 46/22/1 54/18/1
f 46/22/1 47/23/1 54/18/1
f 47/23/1 48/24/1 54/18/1
f 48/24/1 49/25/1 54/18/1
f 49/25/1 50/26/1 54/18/1
f 50/26/1 51/27/1 54/18/1
f 51/27/1 52/28/1 54/18/1
f 52/28/1 53/29/1 54/18/1
f 72/30/1 41/31/1 71/17/1
f 41/31/1 42/32/1 71/17/1
f 42/32/1 43/19/1 71/17/1
f 72/30/1 40/33/1 41/31/1
f 72/30/1 39/34/1 40/33/1
f 72/30/1 38/35/1 39/34/1
f 73/36/1 38/35/1 72/30/1
f 73/36/1 37/37/1 38/35/1
f 73/36/1 36/38/1 37/37/1
f 74/39/1 36/38/1 73/36/1
f 74/39/1 35/40/1 36/38/1
f 74/39/1 34/41/1 35/40/1
f 75/42/1 34/41/1 74/39/1
f 75/42/1 33/43/1 34/41/1
f 76/44/1 33/43/1 75/42/1
f 76/44/1 32/45/1 33/43/1
f 76/44/1 31/46/1 32/45/1
f 77/47/1 31/46/1 76/44/1
f 77/47/1 30/48/1 31/46/1
f 78/49/1 30/48/1 77/47/1
f 78/49/1 29/50/1 30/48/1
f 78/49/1 28/51/1 29/50/1
f 79/52/1 28/51/1 78/49/1
f 3/53/1 1/54/1 2/55/1
f 3/53/1 4/56/1 1/54/1
f 4/56/1 102/57/1 1/54/1
f 79/52/1 27/58/1 28/51/1
f 80/59/1 27/58/1 79/52/1
f 80/59/1 26/60/1 27/58/1
f 5/61/1 102/57/1 4/56/1
f 81/62/1 26/60/1 80/59/1
f 81/62/1 25/63/1 26/60/1
f 81/62/1 24/64/1 25/63/1
f 82/65/1 24/64/1 81/62/1
f 82/65/1 23/66/1 24/64/1
f 83/67/1 23/66/1 82/65/1
f 83/67/1 22/68/1 23/66/1
f 83/67/1 21/69/1 22/68/1
f 84/70/1 21/69/1 83/67/1
f 84/70/1 20/71/1 21/69/1
f 6/72/1 102/57/1 5/61/1
f 7/73/1 102/57/1 6/72/1
f 8/74/1 102/57/1 7/73/1
f 84/70/1 19/75/1 20/71/1
f 9/76/1 102/57/1 8/74/1
f 10/77/1 102/57/1 9/76/1
f 11/78/1 102/57/1 10/77/1
f 84/70/1 18/79/1 19/75/1
f 85/80/1 18/79/1 84/70/1
f 12/81/1 102/57/1 11/78/1
f 13/82/1 102/57/1 12/81/1
f 14/83/1 102/57/1 13/82/1
f 85/80/1 17/84/1 18/79/1
f 15/85/1 102/57/1 14/83/1
f 16/86/1 102/57/1 15/85/1
f 17/84/1 102/57/1 16/86/1
f 85/80/1 102/57/1 17/84/1
f 86/87/1 102/57/1 85/80/1
f 86/87/1 101/88/1 102/57/1
f 86/87/1 100/89/1 101/88/1
f 87/90/1 100/89/1 86/87/1
f 87/90/1 99/91/1 100/89/1
f 87/90/1 98/92/1 99/91/1
f 88/93/1 98/92/1 87/90/1
f 88/93/1 97/94/1 98/92/1
f 88/93/1 96/95/1 97/94/1
f 88/93/1 95/96/1 96/95/1
f 89/97/1 95/96/1 88/93/1
f 89/97/1 94/98/1 95/96/1
f 89/97/1 93/99/1 94/98/1
f 89/97/1 92/100/1 93/99/1
f 90/101/1 92/100/1 89/97/1
f 90/101/1 91/102/1 92/100/1
