# Blender v2.93.0 OBJ File: ''
# www.blender.org
mtllib capitalU.mtl
o Text
v 0.648000 0.000000 -0.682000
v 0.550000 0.000000 -0.682000
v 0.550000 0.000000 -0.285000
v 0.549822 0.000000 -0.269292
v 0.549245 0.000000 -0.254171
v 0.548203 0.000000 -0.239641
v 0.546630 0.000000 -0.225704
v 0.544459 0.000000 -0.212364
v 0.541625 0.000000 -0.199625
v 0.538062 0.000000 -0.187490
v 0.533704 0.000000 -0.175963
v 0.528484 0.000000 -0.165047
v 0.522338 0.000000 -0.154745
v 0.515198 0.000000 -0.145062
v 0.507000 0.000000 -0.136000
v 0.498772 0.000000 -0.128406
v 0.489593 0.000000 -0.121162
v 0.479469 0.000000 -0.114328
v 0.468407 0.000000 -0.107963
v 0.456416 0.000000 -0.102126
v 0.443500 0.000000 -0.096875
v 0.429668 0.000000 -0.092270
v 0.414926 0.000000 -0.088370
v 0.399281 0.000000 -0.085234
v 0.382741 0.000000 -0.082921
v 0.365311 0.000000 -0.081490
v 0.347000 0.000000 -0.081000
v 0.332458 0.000000 -0.081396
v 0.318333 0.000000 -0.082588
v 0.304625 0.000000 -0.084578
v 0.291333 0.000000 -0.087370
v 0.278458 0.000000 -0.090968
v 0.266000 0.000000 -0.095375
v 0.253958 0.000000 -0.100594
v 0.242333 0.000000 -0.106630
v 0.231125 0.000000 -0.113484
v 0.220333 0.000000 -0.121162
v 0.209958 0.000000 -0.129666
v 0.200000 0.000000 -0.139000
v 0.192681 0.000000 -0.146796
v 0.186199 0.000000 -0.154787
v 0.180516 0.000000 -0.163125
v 0.175593 0.000000 -0.171963
v 0.171392 0.000000 -0.181454
v 0.167875 0.000000 -0.191750
v 0.165004 0.000000 -0.203005
v 0.162741 0.000000 -0.215370
v 0.161047 0.000000 -0.229000
v 0.159884 0.000000 -0.244046
v 0.159215 0.000000 -0.260662
v 0.159000 0.000000 -0.279000
v 0.159000 0.000000 -0.682000
v 0.061000 0.000000 -0.682000
v 0.061000 0.000000 -0.258000
v 0.063838 0.000000 -0.213674
v 0.072037 0.000000 -0.173639
v 0.085125 0.000000 -0.137812
v 0.102630 0.000000 -0.106111
v 0.124079 0.000000 -0.078451
v 0.149000 0.000000 -0.054750
v 0.176921 0.000000 -0.034924
v 0.207370 0.000000 -0.018889
v 0.239875 0.000000 -0.006562
v 0.273963 0.000000 0.002139
v 0.309162 0.000000 0.007299
v 0.345000 0.000000 0.009000
v 0.393606 0.000000 0.006739
v 0.437931 0.000000 0.000079
v 0.477984 0.000000 -0.010797
v 0.513778 0.000000 -0.025704
v 0.545321 0.000000 -0.044458
v 0.572625 0.000000 -0.066875
v 0.595700 0.000000 -0.092771
v 0.614555 0.000000 -0.121963
v 0.629203 0.000000 -0.154266
v 0.639653 0.000000 -0.189495
v 0.645915 0.000000 -0.227468
v 0.648000 0.000000 -0.268000
vt 0.688312 0.000000
vt 0.662338 0.000000
vt 0.675325 0.000000
vt 0.649351 0.000000
vt 0.025974 0.000000
vt 0.000000 0.000000
vt 0.012987 0.000000
vt 1.000000 0.000000
vt 0.038961 0.000000
vt 0.636364 0.000000
vt 0.051948 0.000000
vt 0.987013 0.000000
vt 0.623377 0.000000
vt 0.701299 0.000000
vt 0.064935 0.000000
vt 0.610390 0.000000
vt 0.077922 0.000000
vt 0.597403 0.000000
vt 0.974026 0.000000
vt 0.090909 0.000000
vt 0.584416 0.000000
vt 0.714286 0.000000
vt 0.103896 0.000000
vt 0.571429 0.000000
vt 0.116883 0.000000
vt 0.558442 0.000000
vt 0.961039 0.000000
vt 0.129870 0.000000
vt 0.545455 0.000000
vt 0.142857 0.000000
vt 0.727273 0.000000
vt 0.532468 0.000000
vt 0.155844 0.000000
vt 0.519481 0.000000
vt 0.506494 0.000000
vt 0.168831 0.000000
vt 0.948052 0.000000
vt 0.493506 0.000000
vt 0.181818 0.000000
vt 0.480519 0.000000
vt 0.740260 0.000000
vt 0.194805 0.000000
vt 0.467532 0.000000
vt 0.207792 0.000000
vt 0.935065 0.000000
vt 0.454545 0.000000
vt 0.220779 0.000000
vt 0.233766 0.000000
vt 0.441558 0.000000
vt 0.246753 0.000000
vt 0.428571 0.000000
vt 0.753247 0.000000
vt 0.259740 0.000000
vt 0.415584 0.000000
vt 0.272727 0.000000
vt 0.402597 0.000000
vt 0.922078 0.000000
vt 0.285714 0.000000
vt 0.389610 0.000000
vt 0.298701 0.000000
vt 0.376623 0.000000
vt 0.311688 0.000000
vt 0.363636 0.000000
vt 0.324675 0.000000
vt 0.350649 0.000000
vt 0.337662 0.000000
vt 0.766234 0.000000
vt 0.909091 0.000000
vt 0.779221 0.000000
vt 0.896104 0.000000
vt 0.792208 0.000000
vt 0.883117 0.000000
vt 0.805195 0.000000
vt 0.870130 0.000000
vt 0.818182 0.000000
vt 0.857143 0.000000
vt 0.831169 0.000000
vt 0.844156 0.000000
vn 0.0000 1.0000 0.0000
usemtl None
s off
f 54/1/1 52/2/1 53/3/1
f 54/1/1 51/4/1 52/2/1
f 3/5/1 1/6/1 2/7/1
f 3/5/1 78/8/1 1/6/1
f 4/9/1 78/8/1 3/5/1
f 54/1/1 50/10/1 51/4/1
f 5/11/1 78/8/1 4/9/1
f 5/11/1 77/12/1 78/8/1
f 54/1/1 49/13/1 50/10/1
f 55/14/1 49/13/1 54/1/1
f 6/15/1 77/12/1 5/11/1
f 55/14/1 48/16/1 49/13/1
f 7/17/1 77/12/1 6/15/1
f 55/14/1 47/18/1 48/16/1
f 7/17/1 76/19/1 77/12/1
f 8/20/1 76/19/1 7/17/1
f 55/14/1 46/21/1 47/18/1
f 56/22/1 46/21/1 55/14/1
f 9/23/1 76/19/1 8/20/1
f 56/22/1 45/24/1 46/21/1
f 10/25/1 76/19/1 9/23/1
f 56/22/1 44/26/1 45/24/1
f 10/25/1 75/27/1 76/19/1
f 11/28/1 75/27/1 10/25/1
f 56/22/1 43/29/1 44/26/1
f 12/30/1 75/27/1 11/28/1
f 57/31/1 43/29/1 56/22/1
f 57/31/1 42/32/1 43/29/1
f 13/33/1 75/27/1 12/30/1
f 57/31/1 41/34/1 42/32/1
f 57/31/1 40/35/1 41/34/1
f 14/36/1 75/27/1 13/33/1
f 14/36/1 74/37/1 75/27/1
f 57/31/1 39/38/1 40/35/1
f 15/39/1 74/37/1 14/36/1
f 57/31/1 38/40/1 39/38/1
f 58/41/1 38/40/1 57/31/1
f 16/42/1 74/37/1 15/39/1
f 58/41/1 37/43/1 38/40/1
f 17/44/1 74/37/1 16/42/1
f 17/44/1 73/45/1 74/37/1
f 58/41/1 36/46/1 37/43/1
f 18/47/1 73/45/1 17/44/1
f 19/48/1 73/45/1 18/47/1
f 58/41/1 35/49/1 36/46/1
f 20/50/1 73/45/1 19/48/1
f 58/41/1 34/51/1 35/49/1
f 59/52/1 34/51/1 58/41/1
f 21/53/1 73/45/1 20/50/1
f 59/52/1 33/54/1 34/51/1
f 22/55/1 73/45/1 21/53/1
f 59/52/1 32/56/1 33/54/1
f 22/55/1 72/57/1 73/45/1
f 23/58/1 72/57/1 22/55/1
f 59/52/1 31/59/1 32/56/1
f 24/60/1 72/57/1 23/58/1
f 59/52/1 30/61/1 31/59/1
f 25/62/1 72/57/1 24/60/1
f 59/52/1 29/63/1 30/61/1
f 26/64/1 72/57/1 25/62/1
f 59/52/1 28/65/1 29/63/1
f 27/66/1 72/57/1 26/64/1
f 59/52/1 27/66/1 28/65/1
f 59/52/1 72/57/1 27/66/1
f 60/67/1 72/57/1 59/52/1
f 60/67/1 71/68/1 72/57/1
f 61/69/1 71/68/1 60/67/1
f 61/69/1 70/70/1 71/68/1
f 62/71/1 70/70/1 61/69/1
f 62/71/1 69/72/1 70/70/1
f 63/73/1 69/72/1 62/71/1
f 63/73/1 68/74/1 69/72/1
f 64/75/1 68/74/1 63/73/1
f 64/75/1 67/76/1 68/74/1
f 65/77/1 67/76/1 64/75/1
f 65/77/1 66/78/1 67/76/1
