# Blender v2.93.0 OBJ File: ''
# www.blender.org
mtllib lowere.mtl
o Text
v 0.438000 0.000000 -0.130000
v 0.425019 0.000000 -0.121795
v 0.412065 0.000000 -0.114194
v 0.399125 0.000000 -0.107219
v 0.386185 0.000000 -0.100889
v 0.373232 0.000000 -0.095226
v 0.360250 0.000000 -0.090250
v 0.347227 0.000000 -0.085983
v 0.334148 0.000000 -0.082444
v 0.321000 0.000000 -0.079656
v 0.307769 0.000000 -0.077639
v 0.294440 0.000000 -0.076413
v 0.281000 0.000000 -0.076000
v 0.260230 0.000000 -0.076957
v 0.240926 0.000000 -0.079819
v 0.223094 0.000000 -0.084578
v 0.206741 0.000000 -0.091222
v 0.191874 0.000000 -0.099741
v 0.178500 0.000000 -0.110125
v 0.166626 0.000000 -0.122363
v 0.156259 0.000000 -0.136444
v 0.147406 0.000000 -0.152359
v 0.140074 0.000000 -0.170097
v 0.134270 0.000000 -0.189648
v 0.130000 0.000000 -0.211000
v 0.446000 0.000000 -0.211000
v 0.444436 0.000000 -0.250731
v 0.439819 0.000000 -0.286935
v 0.432266 0.000000 -0.319625
v 0.421889 0.000000 -0.348815
v 0.408804 0.000000 -0.374519
v 0.393125 0.000000 -0.396750
v 0.374967 0.000000 -0.415523
v 0.354444 0.000000 -0.430852
v 0.331672 0.000000 -0.442750
v 0.306764 0.000000 -0.451232
v 0.279835 0.000000 -0.456310
v 0.251000 0.000000 -0.458000
v 0.220819 0.000000 -0.456111
v 0.192389 0.000000 -0.450556
v 0.165875 0.000000 -0.441500
v 0.141444 0.000000 -0.429111
v 0.119264 0.000000 -0.413556
v 0.099500 0.000000 -0.395000
v 0.082319 0.000000 -0.373611
v 0.067889 0.000000 -0.349556
v 0.056375 0.000000 -0.323000
v 0.047944 0.000000 -0.294111
v 0.042764 0.000000 -0.263056
v 0.041000 0.000000 -0.230000
v 0.042616 0.000000 -0.199249
v 0.047426 0.000000 -0.169241
v 0.055375 0.000000 -0.140344
v 0.066407 0.000000 -0.112926
v 0.080468 0.000000 -0.087355
v 0.097500 0.000000 -0.064000
v 0.117449 0.000000 -0.043228
v 0.140259 0.000000 -0.025407
v 0.165875 0.000000 -0.010906
v 0.194241 0.000000 -0.000093
v 0.225301 0.000000 0.006665
v 0.259000 0.000000 0.009000
v 0.277456 0.000000 0.008645
v 0.294898 0.000000 0.007574
v 0.311438 0.000000 0.005781
v 0.327185 0.000000 0.003259
v 0.342252 0.000000 0.000001
v 0.356750 0.000000 -0.004000
v 0.370789 0.000000 -0.008751
v 0.384482 0.000000 -0.014259
v 0.397938 0.000000 -0.020531
v 0.411269 0.000000 -0.027574
v 0.424586 0.000000 -0.035395
v 0.438000 0.000000 -0.044000
v 0.132000 0.000000 -0.270000
v 0.135603 0.000000 -0.287099
v 0.140407 0.000000 -0.302875
v 0.146406 0.000000 -0.317297
v 0.153593 0.000000 -0.330333
v 0.161959 0.000000 -0.341953
v 0.171500 0.000000 -0.352125
v 0.182207 0.000000 -0.360818
v 0.194074 0.000000 -0.368000
v 0.207094 0.000000 -0.373641
v 0.221259 0.000000 -0.377708
v 0.236564 0.000000 -0.380172
v 0.253000 0.000000 -0.381000
v 0.268243 0.000000 -0.380115
v 0.282444 0.000000 -0.377500
v 0.295563 0.000000 -0.373219
v 0.307556 0.000000 -0.367333
v 0.318382 0.000000 -0.359906
v 0.328000 0.000000 -0.351000
v 0.336368 0.000000 -0.340677
v 0.343444 0.000000 -0.329000
v 0.349187 0.000000 -0.316031
v 0.353556 0.000000 -0.301833
v 0.356507 0.000000 -0.286469
v 0.358000 0.000000 -0.270000
vt 0.387755 0.000000
vt 0.367347 0.000000
vt 0.377551 0.000000
vt 0.357143 0.000000
vt 0.397959 0.000000
vt 0.346939 0.000000
vt 0.408163 0.000000
vt 0.336735 0.000000
vt 0.418367 0.000000
vt 0.326531 0.000000
vt 0.428571 0.000000
vt 0.316327 0.000000
vt 0.438776 0.000000
vt 0.306122 0.000000
vt 0.448980 0.000000
vt 0.877551 0.000000
vt 0.867347 0.000000
vt 0.887755 0.000000
vt 0.857143 0.000000
vt 0.897959 0.000000
vt 0.846939 0.000000
vt 0.908163 0.000000
vt 0.295918 0.000000
vt 0.836735 0.000000
vt 0.459184 0.000000
vt 0.918367 0.000000
vt 0.826531 0.000000
vt 0.928571 0.000000
vt 0.816327 0.000000
vt 0.938776 0.000000
vt 0.806122 0.000000
vt 0.948980 0.000000
vt 0.469388 0.000000
vt 0.285714 0.000000
vt 0.795918 0.000000
vt 0.959184 0.000000
vt 0.785714 0.000000
vt 0.969388 0.000000
vt 0.479592 0.000000
vt 0.275510 0.000000
vt 0.775510 0.000000
vt 0.979592 0.000000
vt 0.765306 0.000000
vt 0.989796 0.000000
vt 0.489796 0.000000
vt 0.755102 0.000000
vt 0.265306 0.000000
vt 1.000000 0.000000
vt 0.500000 0.000000
vt 0.255102 0.000000
vt 0.510204 0.000000
vt 0.244898 0.000000
vt 0.234694 0.000000
vt 0.520408 0.000000
vt 0.224490 0.000000
vt 0.214286 0.000000
vt 0.530612 0.000000
vt 0.204082 0.000000
vt 0.540816 0.000000
vt 0.193878 0.000000
vt 0.010204 0.000000
vt 0.744898 0.000000
vt 0.000000 0.000000
vt 0.183673 0.000000
vt 0.020408 0.000000
vt 0.030612 0.000000
vt 0.551020 0.000000
vt 0.173469 0.000000
vt 0.040816 0.000000
vt 0.051020 0.000000
vt 0.163265 0.000000
vt 0.061224 0.000000
vt 0.153061 0.000000
vt 0.071429 0.000000
vt 0.561224 0.000000
vt 0.081633 0.000000
vt 0.142857 0.000000
vt 0.091837 0.000000
vt 0.132653 0.000000
vt 0.102041 0.000000
vt 0.112245 0.000000
vt 0.122449 0.000000
vt 0.571429 0.000000
vt 0.734694 0.000000
vt 0.581633 0.000000
vt 0.724490 0.000000
vt 0.714286 0.000000
vt 0.591837 0.000000
vt 0.704082 0.000000
vt 0.693878 0.000000
vt 0.602041 0.000000
vt 0.683673 0.000000
vt 0.673469 0.000000
vt 0.612245 0.000000
vt 0.663265 0.000000
vt 0.653061 0.000000
vt 0.642857 0.000000
vt 0.622449 0.000000
vt 0.632653 0.000000
vn 0.0000 1.0000 0.0000
usemtl None
s off
f 39/1/1 37/2/1 38/3/1
f 39/1/1 36/4/1 37/2/1
f 40/5/1 36/4/1 39/1/1
f 40/5/1 35/6/1 36/4/1
f 41/7/1 35/6/1 40/5/1
f 41/7/1 34/8/1 35/6/1
f 42/9/1 34/8/1 41/7/1
f 42/9/1 33/10/1 34/8/1
f 43/11/1 33/10/1 42/9/1
f 43/11/1 32/12/1 33/10/1
f 44/13/1 32/12/1 43/11/1
f 44/13/1 31/14/1 32/12/1
f 45/15/1 87/16/1 44/13/1
f 87/16/1 31/14/1 44/13/1
f 45/15/1 86/17/1 87/16/1
f 88/18/1 31/14/1 87/16/1
f 45/15/1 85/19/1 86/17/1
f 89/20/1 31/14/1 88/18/1
f 45/15/1 84/21/1 85/19/1
f 90/22/1 31/14/1 89/20/1
f 90/22/1 30/23/1 31/14/1
f 45/15/1 83/24/1 84/21/1
f 46/25/1 83/24/1 45/15/1
f 91/26/1 30/23/1 90/22/1
f 46/25/1 82/27/1 83/24/1
f 92/28/1 30/23/1 91/26/1
f 46/25/1 81/29/1 82/27/1
f 93/30/1 30/23/1 92/28/1
f 46/25/1 80/31/1 81/29/1
f 94/32/1 30/23/1 93/30/1
f 47/33/1 80/31/1 46/25/1
f 94/32/1 29/34/1 30/23/1
f 47/33/1 79/35/1 80/31/1
f 95/36/1 29/34/1 94/32/1
f 47/33/1 78/37/1 79/35/1
f 96/38/1 29/34/1 95/36/1
f 48/39/1 78/37/1 47/33/1
f 96/38/1 28/40/1 29/34/1
f 48/39/1 77/41/1 78/37/1
f 97/42/1 28/40/1 96/38/1
f 48/39/1 76/43/1 77/41/1
f 98/44/1 28/40/1 97/42/1
f 49/45/1 76/43/1 48/39/1
f 49/45/1 75/46/1 76/43/1
f 98/44/1 27/47/1 28/40/1
f 99/48/1 27/47/1 98/44/1
f 49/45/1 99/48/1 75/46/1
f 49/45/1 27/47/1 99/48/1
f 50/49/1 27/47/1 49/45/1
f 50/49/1 26/50/1 27/47/1
f 51/51/1 25/52/1 50/49/1
f 25/52/1 26/50/1 50/49/1
f 51/51/1 24/53/1 25/52/1
f 52/54/1 24/53/1 51/51/1
f 52/54/1 23/55/1 24/53/1
f 52/54/1 22/56/1 23/55/1
f 53/57/1 22/56/1 52/54/1
f 53/57/1 21/58/1 22/56/1
f 54/59/1 21/58/1 53/57/1
f 54/59/1 20/60/1 21/58/1
f 2/61/1 74/62/1 1/63/1
f 54/59/1 19/64/1 20/60/1
f 3/65/1 74/62/1 2/61/1
f 4/66/1 74/62/1 3/65/1
f 55/67/1 19/64/1 54/59/1
f 55/67/1 18/68/1 19/64/1
f 5/69/1 74/62/1 4/66/1
f 6/70/1 74/62/1 5/69/1
f 55/67/1 17/71/1 18/68/1
f 7/72/1 74/62/1 6/70/1
f 55/67/1 16/73/1 17/71/1
f 8/74/1 74/62/1 7/72/1
f 56/75/1 16/73/1 55/67/1
f 9/76/1 74/62/1 8/74/1
f 56/75/1 15/77/1 16/73/1
f 10/78/1 74/62/1 9/76/1
f 56/75/1 14/79/1 15/77/1
f 11/80/1 74/62/1 10/78/1
f 12/81/1 74/62/1 11/80/1
f 56/75/1 13/82/1 14/79/1
f 13/82/1 74/62/1 12/81/1
f 56/75/1 74/62/1 13/82/1
f 57/83/1 74/62/1 56/75/1
f 57/83/1 73/84/1 74/62/1
f 58/85/1 73/84/1 57/83/1
f 58/85/1 72/86/1 73/84/1
f 58/85/1 71/87/1 72/86/1
f 59/88/1 71/87/1 58/85/1
f 59/88/1 70/89/1 71/87/1
f 59/88/1 69/90/1 70/89/1
f 60/91/1 69/90/1 59/88/1
f 60/91/1 68/92/1 69/90/1
f 60/91/1 67/93/1 68/92/1
f 61/94/1 67/93/1 60/91/1
f 61/94/1 66/95/1 67/93/1
f 61/94/1 65/96/1 66/95/1
f 61/94/1 64/97/1 65/96/1
f 62/98/1 64/97/1 61/94/1
f 62/98/1 63/99/1 64/97/1
