# Blender v2.93.0 OBJ File: ''
# www.blender.org
mtllib lowerd.mtl
o Text
v 0.451000 0.000000 -0.682000
v 0.362000 0.000000 -0.682000
v 0.362000 0.000000 -0.440000
v 0.353161 0.000000 -0.443085
v 0.344620 0.000000 -0.445847
v 0.336344 0.000000 -0.448297
v 0.328296 0.000000 -0.450444
v 0.320443 0.000000 -0.452300
v 0.312750 0.000000 -0.453875
v 0.305182 0.000000 -0.455179
v 0.297704 0.000000 -0.456222
v 0.290281 0.000000 -0.457016
v 0.282880 0.000000 -0.457569
v 0.275464 0.000000 -0.457894
v 0.268000 0.000000 -0.458000
v 0.236073 0.000000 -0.456095
v 0.205921 0.000000 -0.450509
v 0.177734 0.000000 -0.441438
v 0.151704 0.000000 -0.429074
v 0.128020 0.000000 -0.413613
v 0.106875 0.000000 -0.395250
v 0.088459 0.000000 -0.374178
v 0.072963 0.000000 -0.350593
v 0.060578 0.000000 -0.324688
v 0.051495 0.000000 -0.296657
v 0.045906 0.000000 -0.266697
v 0.044000 0.000000 -0.235000
v 0.045730 0.000000 -0.200126
v 0.050843 0.000000 -0.167593
v 0.059219 0.000000 -0.137531
v 0.070741 0.000000 -0.110074
v 0.085291 0.000000 -0.085353
v 0.102750 0.000000 -0.063500
v 0.123001 0.000000 -0.044647
v 0.145926 0.000000 -0.028926
v 0.171406 0.000000 -0.016469
v 0.199324 0.000000 -0.007407
v 0.229561 0.000000 -0.001874
v 0.262000 0.000000 0.000000
v 0.451000 0.000000 0.000000
v 0.362000 0.000000 -0.075000
v 0.272000 0.000000 -0.075000
v 0.247667 0.000000 -0.076288
v 0.226088 0.000000 -0.080056
v 0.207141 0.000000 -0.086156
v 0.190704 0.000000 -0.094444
v 0.176656 0.000000 -0.104774
v 0.164875 0.000000 -0.117000
v 0.155240 0.000000 -0.130976
v 0.147630 0.000000 -0.146556
v 0.141922 0.000000 -0.163594
v 0.137995 0.000000 -0.181944
v 0.135729 0.000000 -0.201462
v 0.135000 0.000000 -0.222000
v 0.136191 0.000000 -0.244816
v 0.139694 0.000000 -0.266194
v 0.145406 0.000000 -0.286031
v 0.153222 0.000000 -0.304222
v 0.163038 0.000000 -0.320663
v 0.174750 0.000000 -0.335250
v 0.188253 0.000000 -0.347878
v 0.203444 0.000000 -0.358444
v 0.220219 0.000000 -0.366844
v 0.238472 0.000000 -0.372972
v 0.258101 0.000000 -0.376726
v 0.279000 0.000000 -0.378000
v 0.286362 0.000000 -0.377895
v 0.293481 0.000000 -0.377574
v 0.300406 0.000000 -0.377031
v 0.307185 0.000000 -0.376259
v 0.313867 0.000000 -0.375251
v 0.320500 0.000000 -0.374000
v 0.327133 0.000000 -0.372499
v 0.333815 0.000000 -0.370741
v 0.340594 0.000000 -0.368719
v 0.347519 0.000000 -0.366426
v 0.354638 0.000000 -0.363855
v 0.362000 0.000000 -0.361000
vt 0.025974 0.000000
vt 0.000000 0.000000
vt 0.012987 0.000000
vt 0.506494 0.000000
vt 0.194805 0.000000
vt 0.168831 0.000000
vt 0.181818 0.000000
vt 0.155844 0.000000
vt 0.142857 0.000000
vt 0.129870 0.000000
vt 0.116883 0.000000
vt 0.207792 0.000000
vt 0.103896 0.000000
vt 0.090909 0.000000
vt 0.077922 0.000000
vt 0.220779 0.000000
vt 0.064935 0.000000
vt 0.051948 0.000000
vt 0.038961 0.000000
vt 0.233766 0.000000
vt 0.961039 0.000000
vt 0.974026 0.000000
vt 0.987013 0.000000
vt 1.000000 0.000000
vt 0.246753 0.000000
vt 0.922078 0.000000
vt 0.935065 0.000000
vt 0.948052 0.000000
vt 0.259740 0.000000
vt 0.883117 0.000000
vt 0.896104 0.000000
vt 0.909091 0.000000
vt 0.272727 0.000000
vt 0.844156 0.000000
vt 0.857143 0.000000
vt 0.870130 0.000000
vt 0.831169 0.000000
vt 0.818182 0.000000
vt 0.285714 0.000000
vt 0.805195 0.000000
vt 0.792208 0.000000
vt 0.519481 0.000000
vt 0.779221 0.000000
vt 0.298701 0.000000
vt 0.766234 0.000000
vt 0.753247 0.000000
vt 0.311688 0.000000
vt 0.740260 0.000000
vt 0.727273 0.000000
vt 0.324675 0.000000
vt 0.714286 0.000000
vt 0.337662 0.000000
vt 0.701299 0.000000
vt 0.688312 0.000000
vt 0.350649 0.000000
vt 0.675325 0.000000
vt 0.662338 0.000000
vt 0.363636 0.000000
vt 0.649351 0.000000
vt 0.376623 0.000000
vt 0.636364 0.000000
vt 0.623377 0.000000
vt 0.389610 0.000000
vt 0.610390 0.000000
vt 0.597403 0.000000
vt 0.402597 0.000000
vt 0.584416 0.000000
vt 0.571429 0.000000
vt 0.558442 0.000000
vt 0.415584 0.000000
vt 0.545455 0.000000
vt 0.532468 0.000000
vt 0.428571 0.000000
vt 0.441558 0.000000
vt 0.454545 0.000000
vt 0.467532 0.000000
vt 0.480519 0.000000
vt 0.493506 0.000000
vn 0.0000 1.0000 0.0000
usemtl None
s off
f 3/1/1 1/2/1 2/3/1
f 3/1/1 40/4/1 1/2/1
f 16/5/1 14/6/1 15/7/1
f 16/5/1 13/8/1 14/6/1
f 16/5/1 12/9/1 13/8/1
f 16/5/1 11/10/1 12/9/1
f 16/5/1 10/11/1 11/10/1
f 17/12/1 10/11/1 16/5/1
f 17/12/1 9/13/1 10/11/1
f 17/12/1 8/14/1 9/13/1
f 17/12/1 7/15/1 8/14/1
f 18/16/1 7/15/1 17/12/1
f 18/16/1 6/17/1 7/15/1
f 18/16/1 5/18/1 6/17/1
f 18/16/1 4/19/1 5/18/1
f 18/16/1 3/1/1 4/19/1
f 19/20/1 3/1/1 18/16/1
f 19/20/1 75/21/1 3/1/1
f 75/21/1 76/22/1 3/1/1
f 76/22/1 77/23/1 3/1/1
f 77/23/1 78/24/1 3/1/1
f 78/24/1 40/4/1 3/1/1
f 20/25/1 72/26/1 19/20/1
f 72/26/1 73/27/1 19/20/1
f 73/27/1 74/28/1 19/20/1
f 74/28/1 75/21/1 19/20/1
f 21/29/1 69/30/1 20/25/1
f 69/30/1 70/31/1 20/25/1
f 70/31/1 71/32/1 20/25/1
f 71/32/1 72/26/1 20/25/1
f 22/33/1 66/34/1 21/29/1
f 66/34/1 67/35/1 21/29/1
f 67/35/1 68/36/1 21/29/1
f 68/36/1 69/30/1 21/29/1
f 22/33/1 65/37/1 66/34/1
f 22/33/1 64/38/1 65/37/1
f 23/39/1 64/38/1 22/33/1
f 23/39/1 63/40/1 64/38/1
f 23/39/1 62/41/1 63/40/1
f 41/42/1 40/4/1 78/24/1
f 23/39/1 61/43/1 62/41/1
f 24/44/1 61/43/1 23/39/1
f 24/44/1 60/45/1 61/43/1
f 24/44/1 59/46/1 60/45/1
f 25/47/1 59/46/1 24/44/1
f 25/47/1 58/48/1 59/46/1
f 25/47/1 57/49/1 58/48/1
f 26/50/1 57/49/1 25/47/1
f 26/50/1 56/51/1 57/49/1
f 27/52/1 56/51/1 26/50/1
f 27/52/1 55/53/1 56/51/1
f 27/52/1 54/54/1 55/53/1
f 28/55/1 54/54/1 27/52/1
f 28/55/1 53/56/1 54/54/1
f 28/55/1 52/57/1 53/56/1
f 29/58/1 52/57/1 28/55/1
f 29/58/1 51/59/1 52/57/1
f 30/60/1 51/59/1 29/58/1
f 30/60/1 50/61/1 51/59/1
f 30/60/1 49/62/1 50/61/1
f 31/63/1 49/62/1 30/60/1
f 31/63/1 48/64/1 49/62/1
f 31/63/1 47/65/1 48/64/1
f 32/66/1 47/65/1 31/63/1
f 32/66/1 46/67/1 47/65/1
f 32/66/1 45/68/1 46/67/1
f 32/66/1 44/69/1 45/68/1
f 33/70/1 44/69/1 32/66/1
f 33/70/1 43/71/1 44/69/1
f 33/70/1 42/72/1 43/71/1
f 33/70/1 41/42/1 42/72/1
f 33/70/1 40/4/1 41/42/1
f 34/73/1 40/4/1 33/70/1
f 35/74/1 40/4/1 34/73/1
f 36/75/1 40/4/1 35/74/1
f 37/76/1 40/4/1 36/75/1
f 38/77/1 40/4/1 37/76/1
f 39/78/1 40/4/1 38/77/1
