# Blender v2.93.0 OBJ File: ''
# www.blender.org
mtllib lowery.mtl
o Text
v 0.438000 0.000000 -0.449000
v 0.338000 0.000000 -0.449000
v 0.222000 0.000000 -0.196000
v 0.101000 0.000000 -0.449000
v 0.000000 0.000000 -0.449000
v 0.174000 0.000000 -0.096000
v 0.021000 0.000000 0.230000
v 0.120000 0.000000 0.230000
vt 0.714286 0.000000
vt 0.428571 0.000000
vt 0.571429 0.000000
vt 0.285714 0.000000
vt 0.000000 0.000000
vt 0.142857 0.000000
vt 1.000000 0.000000
vt 0.857143 0.000000
vn 0.0000 1.0000 0.0000
usemtl None
s off
f 6/1/1 4/2/1 5/3/1
f 6/1/1 3/4/1 4/2/1
f 3/4/1 1/5/1 2/6/1
f 3/4/1 8/7/1 1/5/1
f 6/1/1 8/7/1 3/4/1
f 7/8/1 8/7/1 6/1/1
