# Blender v2.93.0 OBJ File: ''
# www.blender.org
mtllib lowerw.mtl
o Text
v 0.393000 0.000000 -0.449000
v 0.327000 0.000000 -0.449000
v 0.213000 0.000000 -0.177000
v 0.095000 0.000000 -0.449000
v 0.000000 0.000000 -0.449000
v 0.200000 0.000000 0.009000
v 0.228000 0.000000 0.009000
v 0.360000 0.000000 -0.305000
v 0.493000 0.000000 0.009000
v 0.521000 0.000000 0.009000
v 0.719000 0.000000 -0.449000
v 0.624000 0.000000 -0.449000
v 0.507000 0.000000 -0.177000
vt 0.416667 0.000000
vt 0.250000 0.000000
vt 0.333333 0.000000
vt 0.166667 0.000000
vt 0.000000 0.000000
vt 0.083333 0.000000
vt 0.583333 0.000000
vt 1.000000 0.000000
vt 0.833333 0.000000
vt 0.916667 0.000000
vt 0.750000 0.000000
vt 0.500000 0.000000
vt 0.666667 0.000000
vn 0.0000 1.0000 0.0000
usemtl None
s off
f 6/1/1 4/2/1 5/3/1
f 6/1/1 3/4/1 4/2/1
f 3/4/1 1/5/1 2/6/1
f 3/4/1 8/7/1 1/5/1
f 8/7/1 13/8/1 1/5/1
f 13/8/1 11/9/1 12/10/1
f 13/8/1 10/11/1 11/9/1
f 3/4/1 7/12/1 8/7/1
f 9/13/1 13/8/1 8/7/1
f 6/1/1 7/12/1 3/4/1
f 9/13/1 10/11/1 13/8/1
