# Blender v2.93.0 OBJ File: ''
# www.blender.org
mtllib lowerv.mtl
o Text
v 0.206000 0.000000 0.009000
v 0.236000 0.000000 0.009000
v 0.434000 0.000000 -0.449000
v 0.339000 0.000000 -0.449000
v 0.221000 0.000000 -0.173000
v 0.100000 0.000000 -0.449000
v 0.003000 0.000000 -0.449000
vt 0.000000 0.000000
vt 0.833333 0.000000
vt 1.000000 0.000000
vt 0.666667 0.000000
vt 0.333333 0.000000
vt 0.500000 0.000000
vt 0.166667 0.000000
vn 0.0000 1.0000 0.0000
usemtl None
s off
f 1/1/1 6/2/1 7/3/1
f 1/1/1 5/4/1 6/2/1
f 5/4/1 3/5/1 4/6/1
f 5/4/1 2/7/1 3/5/1
f 1/1/1 2/7/1 5/4/1
