# Blender v2.93.0 OBJ File: ''
# www.blender.org
mtllib lowerg.mtl
o Text
v 0.421000 0.000000 -0.449000
v 0.236000 0.000000 -0.449000
v 0.206725 0.000000 -0.447784
v 0.179468 0.000000 -0.444185
v 0.154328 0.000000 -0.438281
v 0.131407 0.000000 -0.430148
v 0.110806 0.000000 -0.419862
v 0.092625 0.000000 -0.407500
v 0.076965 0.000000 -0.393138
v 0.063926 0.000000 -0.376852
v 0.053609 0.000000 -0.358719
v 0.046116 0.000000 -0.338815
v 0.041546 0.000000 -0.317216
v 0.040000 0.000000 -0.294000
v 0.040167 0.000000 -0.285854
v 0.040667 0.000000 -0.277917
v 0.041500 0.000000 -0.270187
v 0.042667 0.000000 -0.262667
v 0.044167 0.000000 -0.255354
v 0.046000 0.000000 -0.248250
v 0.048167 0.000000 -0.241354
v 0.050667 0.000000 -0.234667
v 0.053500 0.000000 -0.228188
v 0.056667 0.000000 -0.221917
v 0.060167 0.000000 -0.215854
v 0.064000 0.000000 -0.210000
v 0.068417 0.000000 -0.204104
v 0.073167 0.000000 -0.198417
v 0.078250 0.000000 -0.192937
v 0.083667 0.000000 -0.187667
v 0.089417 0.000000 -0.182604
v 0.095500 0.000000 -0.177750
v 0.101917 0.000000 -0.173104
v 0.108667 0.000000 -0.168667
v 0.115750 0.000000 -0.164437
v 0.123167 0.000000 -0.160417
v 0.130917 0.000000 -0.156604
v 0.139000 0.000000 -0.153000
v 0.139000 0.000000 -0.151000
v 0.128570 0.000000 -0.148194
v 0.118810 0.000000 -0.144801
v 0.109766 0.000000 -0.140859
v 0.101481 0.000000 -0.136407
v 0.094003 0.000000 -0.131483
v 0.087375 0.000000 -0.126125
v 0.081643 0.000000 -0.120371
v 0.076852 0.000000 -0.114259
v 0.073047 0.000000 -0.107828
v 0.070273 0.000000 -0.101116
v 0.068576 0.000000 -0.094160
v 0.068000 0.000000 -0.087000
v 0.068293 0.000000 -0.082040
v 0.069181 0.000000 -0.077153
v 0.070672 0.000000 -0.072328
v 0.072778 0.000000 -0.067556
v 0.075509 0.000000 -0.062825
v 0.078875 0.000000 -0.058125
v 0.082887 0.000000 -0.053446
v 0.087556 0.000000 -0.048778
v 0.092891 0.000000 -0.044109
v 0.098903 0.000000 -0.039431
v 0.105602 0.000000 -0.034731
v 0.113000 0.000000 -0.030000
v 0.094391 0.000000 -0.024829
v 0.077546 0.000000 -0.018801
v 0.062438 0.000000 -0.011891
v 0.049037 0.000000 -0.004074
v 0.037317 0.000000 0.004673
v 0.027250 0.000000 0.014375
v 0.018808 0.000000 0.025056
v 0.011963 0.000000 0.036741
v 0.006687 0.000000 0.049453
v 0.002954 0.000000 0.063218
v 0.000734 0.000000 0.078058
v 0.000000 0.000000 0.094000
v 0.001762 0.000000 0.113271
v 0.006931 0.000000 0.131505
v 0.015328 0.000000 0.148578
v 0.026778 0.000000 0.164370
v 0.041102 0.000000 0.178760
v 0.058125 0.000000 0.191625
v 0.077668 0.000000 0.202844
v 0.099556 0.000000 0.212296
v 0.123609 0.000000 0.219859
v 0.149653 0.000000 0.225412
v 0.177509 0.000000 0.228833
v 0.207000 0.000000 0.230000
v 0.239111 0.000000 0.228886
v 0.268884 0.000000 0.225588
v 0.296234 0.000000 0.220172
v 0.321074 0.000000 0.212704
v 0.343317 0.000000 0.203249
v 0.362875 0.000000 0.191875
v 0.379663 0.000000 0.178646
v 0.393593 0.000000 0.163630
v 0.404578 0.000000 0.146891
v 0.412532 0.000000 0.128495
v 0.417369 0.000000 0.108510
v 0.419000 0.000000 0.087000
v 0.418276 0.000000 0.072929
v 0.416037 0.000000 0.059269
v 0.412188 0.000000 0.046094
v 0.406630 0.000000 0.033481
v 0.399266 0.000000 0.021508
v 0.390000 0.000000 0.010250
v 0.378734 0.000000 -0.000216
v 0.365370 0.000000 -0.009815
v 0.349813 0.000000 -0.018469
v 0.331963 0.000000 -0.026102
v 0.311725 0.000000 -0.032638
v 0.289000 0.000000 -0.038000
v 0.267398 0.000000 -0.042445
v 0.247602 0.000000 -0.046810
v 0.229625 0.000000 -0.051141
v 0.213481 0.000000 -0.055481
v 0.199185 0.000000 -0.059878
v 0.186750 0.000000 -0.064375
v 0.176190 0.000000 -0.069018
v 0.167519 0.000000 -0.073852
v 0.160750 0.000000 -0.078922
v 0.155898 0.000000 -0.084273
v 0.152977 0.000000 -0.089951
v 0.152000 0.000000 -0.096000
v 0.154435 0.000000 -0.107584
v 0.161315 0.000000 -0.116255
v 0.172000 0.000000 -0.122641
v 0.185852 0.000000 -0.127370
v 0.202231 0.000000 -0.131072
v 0.220500 0.000000 -0.134375
v 0.240019 0.000000 -0.137907
v 0.260148 0.000000 -0.142296
v 0.280250 0.000000 -0.148172
v 0.299685 0.000000 -0.156162
v 0.317815 0.000000 -0.166895
v 0.334000 0.000000 -0.181000
v 0.339238 0.000000 -0.186692
v 0.344403 0.000000 -0.193204
v 0.349422 0.000000 -0.200438
v 0.354222 0.000000 -0.208296
v 0.358731 0.000000 -0.216683
v 0.362875 0.000000 -0.225500
v 0.366582 0.000000 -0.234650
v 0.369778 0.000000 -0.244037
v 0.372391 0.000000 -0.253562
v 0.374347 0.000000 -0.263130
v 0.375575 0.000000 -0.272641
v 0.376000 0.000000 -0.282000
v 0.375744 0.000000 -0.291242
v 0.374949 0.000000 -0.300023
v 0.373578 0.000000 -0.308422
v 0.371593 0.000000 -0.316519
v 0.368954 0.000000 -0.324393
v 0.365625 0.000000 -0.332125
v 0.361567 0.000000 -0.339795
v 0.356741 0.000000 -0.347482
v 0.351109 0.000000 -0.355266
v 0.344634 0.000000 -0.363227
v 0.337277 0.000000 -0.371445
v 0.329000 0.000000 -0.380000
v 0.421000 0.000000 -0.380000
v 0.296000 0.000000 -0.293000
v 0.295263 0.000000 -0.281054
v 0.293102 0.000000 -0.269764
v 0.289594 0.000000 -0.259203
v 0.284815 0.000000 -0.249444
v 0.278841 0.000000 -0.240561
v 0.271750 0.000000 -0.232625
v 0.263617 0.000000 -0.225710
v 0.254519 0.000000 -0.219889
v 0.244531 0.000000 -0.215234
v 0.233732 0.000000 -0.211819
v 0.222196 0.000000 -0.209717
v 0.210000 0.000000 -0.209000
v 0.196885 0.000000 -0.209678
v 0.184583 0.000000 -0.211671
v 0.173156 0.000000 -0.214922
v 0.162667 0.000000 -0.219370
v 0.153177 0.000000 -0.224958
v 0.144750 0.000000 -0.231625
v 0.137448 0.000000 -0.239313
v 0.131333 0.000000 -0.247963
v 0.126469 0.000000 -0.257516
v 0.122917 0.000000 -0.267912
v 0.120740 0.000000 -0.279093
v 0.120000 0.000000 -0.291000
v 0.120815 0.000000 -0.301837
v 0.123190 0.000000 -0.312278
v 0.127016 0.000000 -0.322219
v 0.132185 0.000000 -0.331556
v 0.138591 0.000000 -0.340184
v 0.146125 0.000000 -0.348000
v 0.154680 0.000000 -0.354899
v 0.164148 0.000000 -0.360778
v 0.174422 0.000000 -0.365531
v 0.185393 0.000000 -0.369056
v 0.196955 0.000000 -0.371247
v 0.209000 0.000000 -0.372000
v 0.220585 0.000000 -0.371267
v 0.231764 0.000000 -0.369134
v 0.242422 0.000000 -0.365703
v 0.252444 0.000000 -0.361074
v 0.261717 0.000000 -0.355348
v 0.270125 0.000000 -0.348625
v 0.277554 0.000000 -0.341006
v 0.283889 0.000000 -0.332593
v 0.289016 0.000000 -0.323484
v 0.292819 0.000000 -0.313782
v 0.295186 0.000000 -0.303587
v 0.333000 0.000000 0.094000
v 0.332050 0.000000 0.103892
v 0.329232 0.000000 0.113051
v 0.324594 0.000000 0.121453
v 0.318185 0.000000 0.129074
v 0.310054 0.000000 0.135889
v 0.300250 0.000000 0.141875
v 0.288821 0.000000 0.147006
v 0.275815 0.000000 0.151259
v 0.261281 0.000000 0.154609
v 0.245269 0.000000 0.157032
v 0.227825 0.000000 0.158504
v 0.209000 0.000000 0.159000
v 0.189525 0.000000 0.158502
v 0.171616 0.000000 0.157014
v 0.155297 0.000000 0.154547
v 0.140593 0.000000 0.151111
v 0.127527 0.000000 0.146717
v 0.116125 0.000000 0.141375
v 0.106410 0.000000 0.135095
v 0.098407 0.000000 0.127889
v 0.092141 0.000000 0.119766
v 0.087634 0.000000 0.110736
v 0.084913 0.000000 0.100811
v 0.084000 0.000000 0.090000
v 0.084861 0.000000 0.080259
v 0.087389 0.000000 0.071074
v 0.091500 0.000000 0.062500
v 0.097111 0.000000 0.054593
v 0.104139 0.000000 0.047407
v 0.112500 0.000000 0.041000
v 0.122111 0.000000 0.035426
v 0.132889 0.000000 0.030741
v 0.144750 0.000000 0.027000
v 0.157611 0.000000 0.024259
v 0.171389 0.000000 0.022574
v 0.186000 0.000000 0.022000
v 0.200446 0.000000 0.022328
v 0.215986 0.000000 0.023375
v 0.232172 0.000000 0.025234
v 0.248556 0.000000 0.028000
v 0.264689 0.000000 0.031766
v 0.280125 0.000000 0.036625
v 0.294415 0.000000 0.042672
v 0.307111 0.000000 0.050000
v 0.317766 0.000000 0.058703
v 0.325931 0.000000 0.068875
v 0.331158 0.000000 0.080609
vt 0.007843 0.000000
vt 0.000000 0.000000
vt 0.003922 0.000000
vt 0.623529 0.000000
vt 0.011765 0.000000
vt 0.015686 0.000000
vt 0.019608 0.000000
vt 0.023529 0.000000
vt 0.027451 0.000000
vt 0.031373 0.000000
vt 0.035294 0.000000
vt 0.619608 0.000000
vt 0.615686 0.000000
vt 0.039216 0.000000
vt 0.764706 0.000000
vt 0.768627 0.000000
vt 0.772549 0.000000
vt 0.611765 0.000000
vt 0.776471 0.000000
vt 0.760784 0.000000
vt 0.780392 0.000000
vt 0.756863 0.000000
vt 0.784314 0.000000
vt 0.752941 0.000000
vt 0.607843 0.000000
vt 0.788235 0.000000
vt 0.749020 0.000000
vt 0.043137 0.000000
vt 0.792157 0.000000
vt 0.603922 0.000000
vt 0.745098 0.000000
vt 0.796078 0.000000
vt 0.741176 0.000000
vt 0.600000 0.000000
vt 0.800000 0.000000
vt 0.737255 0.000000
vt 0.596078 0.000000
vt 0.047059 0.000000
vt 0.803922 0.000000
vt 0.592157 0.000000
vt 0.733333 0.000000
vt 0.588235 0.000000
vt 0.807843 0.000000
vt 0.729412 0.000000
vt 0.050980 0.000000
vt 0.584314 0.000000
vt 0.811765 0.000000
vt 0.725490 0.000000
vt 0.580392 0.000000
vt 0.627451 0.000000
vt 0.721569 0.000000
vt 0.576471 0.000000
vt 0.054902 0.000000
vt 0.631373 0.000000
vt 0.572549 0.000000
vt 0.717647 0.000000
vt 0.058824 0.000000
vt 0.568627 0.000000
vt 0.635294 0.000000
vt 0.713726 0.000000
vt 0.062745 0.000000
vt 0.564706 0.000000
vt 0.066667 0.000000
vt 0.639216 0.000000
vt 0.709804 0.000000
vt 0.560784 0.000000
vt 0.070588 0.000000
vt 0.643137 0.000000
vt 0.705882 0.000000
vt 0.074510 0.000000
vt 0.556863 0.000000
vt 0.647059 0.000000
vt 0.078431 0.000000
vt 0.701961 0.000000
vt 0.552941 0.000000
vt 0.082353 0.000000
vt 0.650980 0.000000
vt 0.698039 0.000000
vt 0.086275 0.000000
vt 0.549020 0.000000
vt 0.654902 0.000000
vt 0.694118 0.000000
vt 0.090196 0.000000
vt 0.658824 0.000000
vt 0.545098 0.000000
vt 0.690196 0.000000
vt 0.094118 0.000000
vt 0.662745 0.000000
vt 0.686275 0.000000
vt 0.541176 0.000000
vt 0.098039 0.000000
vt 0.666667 0.000000
vt 0.682353 0.000000
vt 0.670588 0.000000
vt 0.678431 0.000000
vt 0.101961 0.000000
vt 0.674510 0.000000
vt 0.537255 0.000000
vt 0.105882 0.000000
vt 0.533333 0.000000
vt 0.109804 0.000000
vt 0.529412 0.000000
vt 0.113725 0.000000
vt 0.117647 0.000000
vt 0.525490 0.000000
vt 0.121569 0.000000
vt 0.521569 0.000000
vt 0.125490 0.000000
vt 0.129412 0.000000
vt 0.133333 0.000000
vt 0.517647 0.000000
vt 0.137255 0.000000
vt 0.141176 0.000000
vt 0.145098 0.000000
vt 0.513726 0.000000
vt 0.149020 0.000000
vt 0.152941 0.000000
vt 0.156863 0.000000
vt 0.509804 0.000000
vt 0.160784 0.000000
vt 0.505882 0.000000
vt 0.164706 0.000000
vt 0.501961 0.000000
vt 0.168627 0.000000
vt 0.498039 0.000000
vt 0.172549 0.000000
vt 0.494118 0.000000
vt 0.490196 0.000000
vt 0.176471 0.000000
vt 0.486275 0.000000
vt 0.180392 0.000000
vt 0.482353 0.000000
vt 0.184314 0.000000
vt 0.188235 0.000000
vt 0.478431 0.000000
vt 0.192157 0.000000
vt 0.474510 0.000000
vt 0.196078 0.000000
vt 0.470588 0.000000
vt 0.200000 0.000000
vt 0.466667 0.000000
vt 0.203922 0.000000
vt 0.462745 0.000000
vt 0.207843 0.000000
vt 0.458824 0.000000
vt 0.211765 0.000000
vt 0.454902 0.000000
vt 0.215686 0.000000
vt 0.450980 0.000000
vt 0.219608 0.000000
vt 0.447059 0.000000
vt 0.223529 0.000000
vt 0.443137 0.000000
vt 0.227451 0.000000
vt 0.439216 0.000000
vt 0.231373 0.000000
vt 0.435294 0.000000
vt 0.235294 0.000000
vt 0.431373 0.000000
vt 0.239216 0.000000
vt 0.427451 0.000000
vt 0.243137 0.000000
vt 0.423529 0.000000
vt 0.247059 0.000000
vt 0.419608 0.000000
vt 0.250980 0.000000
vt 0.254902 0.000000
vt 0.415686 0.000000
vt 0.258824 0.000000
vt 0.411765 0.000000
vt 0.262745 0.000000
vt 0.407843 0.000000
vt 0.266667 0.000000
vt 0.403922 0.000000
vt 0.270588 0.000000
vt 0.956863 0.000000
vt 0.960784 0.000000
vt 0.400000 0.000000
vt 0.952941 0.000000
vt 0.964706 0.000000
vt 0.949020 0.000000
vt 0.968627 0.000000
vt 0.945098 0.000000
vt 0.274510 0.000000
vt 0.972549 0.000000
vt 0.941176 0.000000
vt 0.976471 0.000000
vt 0.937255 0.000000
vt 0.980392 0.000000
vt 0.396078 0.000000
vt 0.933333 0.000000
vt 0.984314 0.000000
vt 0.278431 0.000000
vt 0.929412 0.000000
vt 0.988235 0.000000
vt 0.392157 0.000000
vt 0.925490 0.000000
vt 0.282353 0.000000
vt 0.992157 0.000000
vt 0.921569 0.000000
vt 0.996078 0.000000
vt 0.388235 0.000000
vt 0.917647 0.000000
vt 0.286275 0.000000
vt 1.000000 0.000000
vt 0.913725 0.000000
vt 0.384314 0.000000
vt 0.290196 0.000000
vt 0.909804 0.000000
vt 0.815686 0.000000
vt 0.380392 0.000000
vt 0.905882 0.000000
vt 0.294118 0.000000
vt 0.819608 0.000000
vt 0.901961 0.000000
vt 0.823529 0.000000
vt 0.376471 0.000000
vt 0.898039 0.000000
vt 0.827451 0.000000
vt 0.298039 0.000000
vt 0.894118 0.000000
vt 0.831373 0.000000
vt 0.890196 0.000000
vt 0.372549 0.000000
vt 0.835294 0.000000
vt 0.301961 0.000000
vt 0.886275 0.000000
vt 0.839216 0.000000
vt 0.882353 0.000000
vt 0.843137 0.000000
vt 0.878431 0.000000
vt 0.368627 0.000000
vt 0.847059 0.000000
vt 0.305882 0.000000
vt 0.874510 0.000000
vt 0.850980 0.000000
vt 0.870588 0.000000
vt 0.854902 0.000000
vt 0.866667 0.000000
vt 0.858824 0.000000
vt 0.862745 0.000000
vt 0.364706 0.000000
vt 0.309804 0.000000
vt 0.360784 0.000000
vt 0.313726 0.000000
vt 0.317647 0.000000
vt 0.356863 0.000000
vt 0.321569 0.000000
vt 0.352941 0.000000
vt 0.325490 0.000000
vt 0.349020 0.000000
vt 0.329412 0.000000
vt 0.345098 0.000000
vt 0.333333 0.000000
vt 0.341176 0.000000
vt 0.337255 0.000000
vn 0.0000 1.0000 0.0000
usemtl None
s off
f 3/1/1 1/2/1 2/3/1
f 3/1/1 160/4/1 1/2/1
f 4/5/1 160/4/1 3/1/1
f 5/6/1 160/4/1 4/5/1
f 6/7/1 160/4/1 5/6/1
f 7/8/1 160/4/1 6/7/1
f 8/9/1 160/4/1 7/8/1
f 9/10/1 160/4/1 8/9/1
f 10/11/1 159/12/1 9/10/1
f 159/12/1 160/4/1 9/10/1
f 10/11/1 158/13/1 159/12/1
f 11/14/1 196/15/1 10/11/1
f 196/15/1 197/16/1 10/11/1
f 197/16/1 158/13/1 10/11/1
f 198/17/1 158/13/1 197/16/1
f 198/17/1 157/18/1 158/13/1
f 199/19/1 157/18/1 198/17/1
f 11/14/1 195/20/1 196/15/1
f 200/21/1 157/18/1 199/19/1
f 11/14/1 194/22/1 195/20/1
f 201/23/1 157/18/1 200/21/1
f 11/14/1 193/24/1 194/22/1
f 201/23/1 156/25/1 157/18/1
f 202/26/1 156/25/1 201/23/1
f 11/14/1 192/27/1 193/24/1
f 12/28/1 192/27/1 11/14/1
f 203/29/1 156/25/1 202/26/1
f 203/29/1 155/30/1 156/25/1
f 12/28/1 191/31/1 192/27/1
f 204/32/1 155/30/1 203/29/1
f 12/28/1 190/33/1 191/31/1
f 204/32/1 154/34/1 155/30/1
f 205/35/1 154/34/1 204/32/1
f 12/28/1 189/36/1 190/33/1
f 205/35/1 153/37/1 154/34/1
f 13/38/1 189/36/1 12/28/1
f 206/39/1 153/37/1 205/35/1
f 206/39/1 152/40/1 153/37/1
f 13/38/1 188/41/1 189/36/1
f 206/39/1 151/42/1 152/40/1
f 207/43/1 151/42/1 206/39/1
f 13/38/1 187/44/1 188/41/1
f 14/45/1 187/44/1 13/38/1
f 207/43/1 150/46/1 151/42/1
f 208/47/1 150/46/1 207/43/1
f 14/45/1 186/48/1 187/44/1
f 208/47/1 149/49/1 150/46/1
f 161/50/1 149/49/1 208/47/1
f 14/45/1 185/51/1 186/48/1
f 161/50/1 148/52/1 149/49/1
f 15/53/1 185/51/1 14/45/1
f 162/54/1 148/52/1 161/50/1
f 162/54/1 147/55/1 148/52/1
f 15/53/1 184/56/1 185/51/1
f 16/57/1 184/56/1 15/53/1
f 162/54/1 146/58/1 147/55/1
f 163/59/1 146/58/1 162/54/1
f 16/57/1 183/60/1 184/56/1
f 17/61/1 183/60/1 16/57/1
f 163/59/1 145/62/1 146/58/1
f 18/63/1 183/60/1 17/61/1
f 164/64/1 145/62/1 163/59/1
f 18/63/1 182/65/1 183/60/1
f 164/64/1 144/66/1 145/62/1
f 19/67/1 182/65/1 18/63/1
f 165/68/1 144/66/1 164/64/1
f 19/67/1 181/69/1 182/65/1
f 20/70/1 181/69/1 19/67/1
f 165/68/1 143/71/1 144/66/1
f 166/72/1 143/71/1 165/68/1
f 21/73/1 181/69/1 20/70/1
f 21/73/1 180/74/1 181/69/1
f 166/72/1 142/75/1 143/71/1
f 22/76/1 180/74/1 21/73/1
f 167/77/1 142/75/1 166/72/1
f 22/76/1 179/78/1 180/74/1
f 23/79/1 179/78/1 22/76/1
f 167/77/1 141/80/1 142/75/1
f 168/81/1 141/80/1 167/77/1
f 23/79/1 178/82/1 179/78/1
f 24/83/1 178/82/1 23/79/1
f 169/84/1 141/80/1 168/81/1
f 169/84/1 140/85/1 141/80/1
f 24/83/1 177/86/1 178/82/1
f 25/87/1 177/86/1 24/83/1
f 170/88/1 140/85/1 169/84/1
f 25/87/1 176/89/1 177/86/1
f 170/88/1 139/90/1 140/85/1
f 26/91/1 176/89/1 25/87/1
f 171/92/1 139/90/1 170/88/1
f 26/91/1 175/93/1 176/89/1
f 172/94/1 139/90/1 171/92/1
f 26/91/1 174/95/1 175/93/1
f 27/96/1 174/95/1 26/91/1
f 173/97/1 139/90/1 172/94/1
f 27/96/1 173/97/1 174/95/1
f 27/96/1 139/90/1 173/97/1
f 27/96/1 138/98/1 139/90/1
f 28/99/1 138/98/1 27/96/1
f 28/99/1 137/100/1 138/98/1
f 29/101/1 137/100/1 28/99/1
f 29/101/1 136/102/1 137/100/1
f 30/103/1 136/102/1 29/101/1
f 31/104/1 136/102/1 30/103/1
f 31/104/1 135/105/1 136/102/1
f 32/106/1 135/105/1 31/104/1
f 32/106/1 134/107/1 135/105/1
f 33/108/1 134/107/1 32/106/1
f 34/109/1 134/107/1 33/108/1
f 35/110/1 134/107/1 34/109/1
f 35/110/1 133/111/1 134/107/1
f 36/112/1 133/111/1 35/110/1
f 37/113/1 133/111/1 36/112/1
f 38/114/1 133/111/1 37/113/1
f 38/114/1 132/115/1 133/111/1
f 39/116/1 132/115/1 38/114/1
f 40/117/1 132/115/1 39/116/1
f 41/118/1 132/115/1 40/117/1
f 41/118/1 131/119/1 132/115/1
f 42/120/1 131/119/1 41/118/1
f 42/120/1 130/121/1 131/119/1
f 43/122/1 130/121/1 42/120/1
f 43/122/1 129/123/1 130/121/1
f 44/124/1 129/123/1 43/122/1
f 44/124/1 128/125/1 129/123/1
f 45/126/1 128/125/1 44/124/1
f 45/126/1 127/127/1 128/125/1
f 45/126/1 126/128/1 127/127/1
f 46/129/1 126/128/1 45/126/1
f 46/129/1 125/130/1 126/128/1
f 47/131/1 125/130/1 46/129/1
f 47/131/1 124/132/1 125/130/1
f 48/133/1 124/132/1 47/131/1
f 49/134/1 124/132/1 48/133/1
f 49/134/1 123/135/1 124/132/1
f 50/136/1 123/135/1 49/134/1
f 50/136/1 122/137/1 123/135/1
f 51/138/1 122/137/1 50/136/1
f 51/138/1 121/139/1 122/137/1
f 52/140/1 121/139/1 51/138/1
f 52/140/1 120/141/1 121/139/1
f 53/142/1 120/141/1 52/140/1
f 53/142/1 119/143/1 120/141/1
f 54/144/1 119/143/1 53/142/1
f 54/144/1 118/145/1 119/143/1
f 55/146/1 118/145/1 54/144/1
f 55/146/1 117/147/1 118/145/1
f 56/148/1 117/147/1 55/146/1
f 56/148/1 116/149/1 117/147/1
f 57/150/1 116/149/1 56/148/1
f 57/150/1 115/151/1 116/149/1
f 58/152/1 115/151/1 57/150/1
f 58/152/1 114/153/1 115/151/1
f 59/154/1 114/153/1 58/152/1
f 59/154/1 113/155/1 114/153/1
f 60/156/1 113/155/1 59/154/1
f 60/156/1 112/157/1 113/155/1
f 61/158/1 112/157/1 60/156/1
f 61/158/1 111/159/1 112/157/1
f 62/160/1 111/159/1 61/158/1
f 62/160/1 110/161/1 111/159/1
f 63/162/1 110/161/1 62/160/1
f 63/162/1 109/163/1 110/161/1
f 64/164/1 109/163/1 63/162/1
f 64/164/1 108/165/1 109/163/1
f 65/166/1 108/165/1 64/164/1
f 66/167/1 108/165/1 65/166/1
f 66/167/1 107/168/1 108/165/1
f 67/169/1 107/168/1 66/167/1
f 67/169/1 106/170/1 107/168/1
f 68/171/1 106/170/1 67/169/1
f 68/171/1 105/172/1 106/170/1
f 69/173/1 105/172/1 68/171/1
f 69/173/1 104/174/1 105/172/1
f 70/175/1 245/176/1 69/173/1
f 245/176/1 104/174/1 69/173/1
f 245/176/1 246/177/1 104/174/1
f 246/177/1 103/178/1 104/174/1
f 70/175/1 244/179/1 245/176/1
f 247/180/1 103/178/1 246/177/1
f 70/175/1 243/181/1 244/179/1
f 248/182/1 103/178/1 247/180/1
f 70/175/1 242/183/1 243/181/1
f 71/184/1 242/183/1 70/175/1
f 249/185/1 103/178/1 248/182/1
f 71/184/1 241/186/1 242/183/1
f 250/187/1 103/178/1 249/185/1
f 71/184/1 240/188/1 241/186/1
f 251/189/1 103/178/1 250/187/1
f 251/189/1 102/190/1 103/178/1
f 71/184/1 239/191/1 240/188/1
f 252/192/1 102/190/1 251/189/1
f 72/193/1 239/191/1 71/184/1
f 72/193/1 238/194/1 239/191/1
f 253/195/1 102/190/1 252/192/1
f 253/195/1 101/196/1 102/190/1
f 72/193/1 237/197/1 238/194/1
f 73/198/1 237/197/1 72/193/1
f 254/199/1 101/196/1 253/195/1
f 73/198/1 236/200/1 237/197/1
f 255/201/1 101/196/1 254/199/1
f 255/201/1 100/202/1 101/196/1
f 73/198/1 235/203/1 236/200/1
f 74/204/1 235/203/1 73/198/1
f 256/205/1 100/202/1 255/201/1
f 74/204/1 234/206/1 235/203/1
f 256/205/1 99/207/1 100/202/1
f 75/208/1 234/206/1 74/204/1
f 75/208/1 233/209/1 234/206/1
f 209/210/1 99/207/1 256/205/1
f 209/210/1 98/211/1 99/207/1
f 75/208/1 232/212/1 233/209/1
f 76/213/1 232/212/1 75/208/1
f 210/214/1 98/211/1 209/210/1
f 76/213/1 231/215/1 232/212/1
f 211/216/1 98/211/1 210/214/1
f 211/216/1 97/217/1 98/211/1
f 76/213/1 230/218/1 231/215/1
f 212/219/1 97/217/1 211/216/1
f 77/220/1 230/218/1 76/213/1
f 77/220/1 229/221/1 230/218/1
f 213/222/1 97/217/1 212/219/1
f 77/220/1 228/223/1 229/221/1
f 213/222/1 96/224/1 97/217/1
f 214/225/1 96/224/1 213/222/1
f 78/226/1 228/223/1 77/220/1
f 78/226/1 227/227/1 228/223/1
f 215/228/1 96/224/1 214/225/1
f 78/226/1 226/229/1 227/227/1
f 216/230/1 96/224/1 215/228/1
f 78/226/1 225/231/1 226/229/1
f 216/230/1 95/232/1 96/224/1
f 217/233/1 95/232/1 216/230/1
f 79/234/1 225/231/1 78/226/1
f 79/234/1 224/235/1 225/231/1
f 218/236/1 95/232/1 217/233/1
f 79/234/1 223/237/1 224/235/1
f 219/238/1 95/232/1 218/236/1
f 79/234/1 222/239/1 223/237/1
f 220/240/1 95/232/1 219/238/1
f 79/234/1 221/241/1 222/239/1
f 221/241/1 95/232/1 220/240/1
f 79/234/1 95/232/1 221/241/1
f 79/234/1 94/242/1 95/232/1
f 80/243/1 94/242/1 79/234/1
f 80/243/1 93/244/1 94/242/1
f 81/245/1 93/244/1 80/243/1
f 82/246/1 93/244/1 81/245/1
f 82/246/1 92/247/1 93/244/1
f 83/248/1 92/247/1 82/246/1
f 83/248/1 91/249/1 92/247/1
f 84/250/1 91/249/1 83/248/1
f 84/250/1 90/251/1 91/249/1
f 85/252/1 90/251/1 84/250/1
f 85/252/1 89/253/1 90/251/1
f 86/254/1 89/253/1 85/252/1
f 86/254/1 88/255/1 89/253/1
f 87/256/1 88/255/1 86/254/1
