# Blender v2.93.0 OBJ File: ''
# www.blender.org
mtllib lowero.mtl
o Text
v 0.273000 0.000000 -0.458000
v 0.240187 0.000000 -0.455958
v 0.208917 0.000000 -0.449995
v 0.179438 0.000000 -0.440359
v 0.152000 0.000000 -0.427296
v 0.126854 0.000000 -0.411053
v 0.104250 0.000000 -0.391875
v 0.084438 0.000000 -0.370010
v 0.067667 0.000000 -0.345704
v 0.054188 0.000000 -0.319203
v 0.044250 0.000000 -0.290755
v 0.038104 0.000000 -0.260605
v 0.036000 0.000000 -0.229000
v 0.038028 0.000000 -0.195328
v 0.043972 0.000000 -0.163454
v 0.053625 0.000000 -0.133594
v 0.066778 0.000000 -0.105963
v 0.083222 0.000000 -0.080777
v 0.102750 0.000000 -0.058250
v 0.125153 0.000000 -0.038598
v 0.150222 0.000000 -0.022037
v 0.177750 0.000000 -0.008781
v 0.207528 0.000000 0.000954
v 0.239347 0.000000 0.006953
v 0.273000 0.000000 0.009000
v 0.308031 0.000000 0.007029
v 0.341000 0.000000 0.001231
v 0.371719 0.000000 -0.008219
v 0.400000 0.000000 -0.021148
v 0.425656 0.000000 -0.037383
v 0.448500 0.000000 -0.056750
v 0.468344 0.000000 -0.079075
v 0.485000 0.000000 -0.104185
v 0.498281 0.000000 -0.131906
v 0.508000 0.000000 -0.162065
v 0.513969 0.000000 -0.194487
v 0.516000 0.000000 -0.229000
v 0.513911 0.000000 -0.261445
v 0.507792 0.000000 -0.292144
v 0.497859 0.000000 -0.320891
v 0.484333 0.000000 -0.347482
v 0.467432 0.000000 -0.371711
v 0.447375 0.000000 -0.393375
v 0.424380 0.000000 -0.412268
v 0.398667 0.000000 -0.428185
v 0.370453 0.000000 -0.440922
v 0.339958 0.000000 -0.450273
v 0.307401 0.000000 -0.456034
v 0.272000 0.000000 -0.378000
v 0.293707 0.000000 -0.376710
v 0.314236 0.000000 -0.372931
v 0.333453 0.000000 -0.366797
v 0.351222 0.000000 -0.358444
v 0.367408 0.000000 -0.348009
v 0.381875 0.000000 -0.335625
v 0.394488 0.000000 -0.321429
v 0.405111 0.000000 -0.305556
v 0.413609 0.000000 -0.288141
v 0.419847 0.000000 -0.269320
v 0.423689 0.000000 -0.249227
v 0.425000 0.000000 -0.228000
v 0.423785 0.000000 -0.204534
v 0.420194 0.000000 -0.182690
v 0.414313 0.000000 -0.162547
v 0.406222 0.000000 -0.144185
v 0.396007 0.000000 -0.127685
v 0.383750 0.000000 -0.113125
v 0.369535 0.000000 -0.100586
v 0.353444 0.000000 -0.090148
v 0.335562 0.000000 -0.081891
v 0.315972 0.000000 -0.075894
v 0.294757 0.000000 -0.072237
v 0.272000 0.000000 -0.071000
v 0.251081 0.000000 -0.072295
v 0.231398 0.000000 -0.076106
v 0.213062 0.000000 -0.082328
v 0.196185 0.000000 -0.090852
v 0.180877 0.000000 -0.101570
v 0.167250 0.000000 -0.114375
v 0.155414 0.000000 -0.129159
v 0.145481 0.000000 -0.145815
v 0.137562 0.000000 -0.164234
v 0.131769 0.000000 -0.184310
v 0.128211 0.000000 -0.205935
v 0.127000 0.000000 -0.229000
v 0.128249 0.000000 -0.249998
v 0.131907 0.000000 -0.269898
v 0.137844 0.000000 -0.288563
v 0.145926 0.000000 -0.305852
v 0.156022 0.000000 -0.321627
v 0.168000 0.000000 -0.335750
v 0.181728 0.000000 -0.348081
v 0.197074 0.000000 -0.358482
v 0.213906 0.000000 -0.366813
v 0.232093 0.000000 -0.372935
v 0.251501 0.000000 -0.376711
vt 0.010526 0.000000
vt 0.494737 0.000000
vt 0.000000 0.000000
vt 0.484211 0.000000
vt 0.021053 0.000000
vt 0.473684 0.000000
vt 0.031579 0.000000
vt 0.463158 0.000000
vt 0.042105 0.000000
vt 0.452632 0.000000
vt 0.052632 0.000000
vt 0.442105 0.000000
vt 0.063158 0.000000
vt 0.431579 0.000000
vt 0.073684 0.000000
vt 0.505263 0.000000
vt 1.000000 0.000000
vt 0.515789 0.000000
vt 0.989474 0.000000
vt 0.526316 0.000000
vt 0.978947 0.000000
vt 0.536842 0.000000
vt 0.421053 0.000000
vt 0.084211 0.000000
vt 0.968421 0.000000
vt 0.547368 0.000000
vt 0.957895 0.000000
vt 0.557895 0.000000
vt 0.947368 0.000000
vt 0.568421 0.000000
vt 0.410526 0.000000
vt 0.094737 0.000000
vt 0.936842 0.000000
vt 0.578947 0.000000
vt 0.926316 0.000000
vt 0.589474 0.000000
vt 0.400000 0.000000
vt 0.105263 0.000000
vt 0.915789 0.000000
vt 0.600000 0.000000
vt 0.389474 0.000000
vt 0.115789 0.000000
vt 0.905263 0.000000
vt 0.610526 0.000000
vt 0.894737 0.000000
vt 0.621053 0.000000
vt 0.378947 0.000000
vt 0.126316 0.000000
vt 0.884211 0.000000
vt 0.631579 0.000000
vt 0.136842 0.000000
vt 0.873684 0.000000
vt 0.368421 0.000000
vt 0.642105 0.000000
vt 0.863158 0.000000
vt 0.652632 0.000000
vt 0.147368 0.000000
vt 0.357895 0.000000
vt 0.852632 0.000000
vt 0.663158 0.000000
vt 0.842105 0.000000
vt 0.157895 0.000000
vt 0.673684 0.000000
vt 0.347368 0.000000
vt 0.831579 0.000000
vt 0.684211 0.000000
vt 0.168421 0.000000
vt 0.336842 0.000000
vt 0.821053 0.000000
vt 0.694737 0.000000
vt 0.810526 0.000000
vt 0.705263 0.000000
vt 0.178947 0.000000
vt 0.326316 0.000000
vt 0.800000 0.000000
vt 0.715789 0.000000
vt 0.789474 0.000000
vt 0.726316 0.000000
vt 0.778947 0.000000
vt 0.736842 0.000000
vt 0.189474 0.000000
vt 0.315789 0.000000
vt 0.768421 0.000000
vt 0.747368 0.000000
vt 0.757895 0.000000
vt 0.200000 0.000000
vt 0.305263 0.000000
vt 0.210526 0.000000
vt 0.294737 0.000000
vt 0.221053 0.000000
vt 0.284211 0.000000
vt 0.231579 0.000000
vt 0.273684 0.000000
vt 0.242105 0.000000
vt 0.263158 0.000000
vt 0.252632 0.000000
vn 0.0000 1.0000 0.0000
usemtl None
s off
f 2/1/1 48/2/1 1/3/1
f 2/1/1 47/4/1 48/2/1
f 3/5/1 47/4/1 2/1/1
f 3/5/1 46/6/1 47/4/1
f 4/7/1 46/6/1 3/5/1
f 4/7/1 45/8/1 46/6/1
f 5/9/1 45/8/1 4/7/1
f 5/9/1 44/10/1 45/8/1
f 6/11/1 44/10/1 5/9/1
f 6/11/1 43/12/1 44/10/1
f 7/13/1 43/12/1 6/11/1
f 7/13/1 42/14/1 43/12/1
f 8/15/1 49/16/1 7/13/1
f 49/16/1 42/14/1 7/13/1
f 8/15/1 96/17/1 49/16/1
f 50/18/1 42/14/1 49/16/1
f 8/15/1 95/19/1 96/17/1
f 51/20/1 42/14/1 50/18/1
f 8/15/1 94/21/1 95/19/1
f 52/22/1 42/14/1 51/20/1
f 52/22/1 41/23/1 42/14/1
f 9/24/1 94/21/1 8/15/1
f 9/24/1 93/25/1 94/21/1
f 53/26/1 41/23/1 52/22/1
f 9/24/1 92/27/1 93/25/1
f 54/28/1 41/23/1 53/26/1
f 9/24/1 91/29/1 92/27/1
f 55/30/1 41/23/1 54/28/1
f 55/30/1 40/31/1 41/23/1
f 10/32/1 91/29/1 9/24/1
f 10/32/1 90/33/1 91/29/1
f 56/34/1 40/31/1 55/30/1
f 10/32/1 89/35/1 90/33/1
f 57/36/1 40/31/1 56/34/1
f 57/36/1 39/37/1 40/31/1
f 11/38/1 89/35/1 10/32/1
f 11/38/1 88/39/1 89/35/1
f 58/40/1 39/37/1 57/36/1
f 58/40/1 38/41/1 39/37/1
f 12/42/1 88/39/1 11/38/1
f 12/42/1 87/43/1 88/39/1
f 59/44/1 38/41/1 58/40/1
f 12/42/1 86/45/1 87/43/1
f 60/46/1 38/41/1 59/44/1
f 60/46/1 37/47/1 38/41/1
f 13/48/1 86/45/1 12/42/1
f 13/48/1 85/49/1 86/45/1
f 61/50/1 37/47/1 60/46/1
f 14/51/1 85/49/1 13/48/1
f 14/51/1 84/52/1 85/49/1
f 61/50/1 36/53/1 37/47/1
f 62/54/1 36/53/1 61/50/1
f 14/51/1 83/55/1 84/52/1
f 63/56/1 36/53/1 62/54/1
f 15/57/1 83/55/1 14/51/1
f 63/56/1 35/58/1 36/53/1
f 15/57/1 82/59/1 83/55/1
f 64/60/1 35/58/1 63/56/1
f 15/57/1 81/61/1 82/59/1
f 16/62/1 81/61/1 15/57/1
f 65/63/1 35/58/1 64/60/1
f 65/63/1 34/64/1 35/58/1
f 16/62/1 80/65/1 81/61/1
f 66/66/1 34/64/1 65/63/1
f 17/67/1 80/65/1 16/62/1
f 66/66/1 33/68/1 34/64/1
f 17/67/1 79/69/1 80/65/1
f 67/70/1 33/68/1 66/66/1
f 17/67/1 78/71/1 79/69/1
f 68/72/1 33/68/1 67/70/1
f 18/73/1 78/71/1 17/67/1
f 68/72/1 32/74/1 33/68/1
f 18/73/1 77/75/1 78/71/1
f 69/76/1 32/74/1 68/72/1
f 18/73/1 76/77/1 77/75/1
f 70/78/1 32/74/1 69/76/1
f 18/73/1 75/79/1 76/77/1
f 71/80/1 32/74/1 70/78/1
f 19/81/1 75/79/1 18/73/1
f 71/80/1 31/82/1 32/74/1
f 19/81/1 74/83/1 75/79/1
f 72/84/1 31/82/1 71/80/1
f 19/81/1 73/85/1 74/83/1
f 73/85/1 31/82/1 72/84/1
f 19/81/1 31/82/1 73/85/1
f 20/86/1 31/82/1 19/81/1
f 20/86/1 30/87/1 31/82/1
f 21/88/1 30/87/1 20/86/1
f 21/88/1 29/89/1 30/87/1
f 22/90/1 29/89/1 21/88/1
f 22/90/1 28/91/1 29/89/1
f 23/92/1 28/91/1 22/90/1
f 23/92/1 27/93/1 28/91/1
f 24/94/1 27/93/1 23/92/1
f 24/94/1 26/95/1 27/93/1
f 25/96/1 26/95/1 24/94/1
