# Blender v2.93.0 OBJ File: ''
# www.blender.org
mtllib lowers.mtl
o Text
v 0.324000 0.000000 -0.421000
v 0.312332 0.000000 -0.426980
v 0.300819 0.000000 -0.432421
v 0.289453 0.000000 -0.437328
v 0.278222 0.000000 -0.441704
v 0.267116 0.000000 -0.445552
v 0.256125 0.000000 -0.448875
v 0.245238 0.000000 -0.451678
v 0.234444 0.000000 -0.453963
v 0.223734 0.000000 -0.455734
v 0.213097 0.000000 -0.456995
v 0.202523 0.000000 -0.457749
v 0.192000 0.000000 -0.458000
v 0.170182 0.000000 -0.457051
v 0.149787 0.000000 -0.454241
v 0.130906 0.000000 -0.449625
v 0.113630 0.000000 -0.443259
v 0.098047 0.000000 -0.435199
v 0.084250 0.000000 -0.425500
v 0.072328 0.000000 -0.414218
v 0.062370 0.000000 -0.401407
v 0.054469 0.000000 -0.387125
v 0.048713 0.000000 -0.371426
v 0.045193 0.000000 -0.354366
v 0.044000 0.000000 -0.336000
v 0.048132 0.000000 -0.307516
v 0.059556 0.000000 -0.282292
v 0.076813 0.000000 -0.259922
v 0.098444 0.000000 -0.240000
v 0.122993 0.000000 -0.222120
v 0.149000 0.000000 -0.205875
v 0.175007 0.000000 -0.190859
v 0.199556 0.000000 -0.176667
v 0.221188 0.000000 -0.162891
v 0.238444 0.000000 -0.149125
v 0.249868 0.000000 -0.134964
v 0.254000 0.000000 -0.120000
v 0.253389 0.000000 -0.112313
v 0.251611 0.000000 -0.105250
v 0.248750 0.000000 -0.098812
v 0.244889 0.000000 -0.093000
v 0.240111 0.000000 -0.087812
v 0.234500 0.000000 -0.083250
v 0.228139 0.000000 -0.079313
v 0.221111 0.000000 -0.076000
v 0.213500 0.000000 -0.073313
v 0.205389 0.000000 -0.071250
v 0.196861 0.000000 -0.069813
v 0.188000 0.000000 -0.069000
v 0.178653 0.000000 -0.069397
v 0.168639 0.000000 -0.070593
v 0.158000 0.000000 -0.072594
v 0.146778 0.000000 -0.075407
v 0.135014 0.000000 -0.079041
v 0.122750 0.000000 -0.083500
v 0.110028 0.000000 -0.088793
v 0.096889 0.000000 -0.094926
v 0.083375 0.000000 -0.101906
v 0.069528 0.000000 -0.109741
v 0.055389 0.000000 -0.118436
v 0.041000 0.000000 -0.128000
v 0.041000 0.000000 -0.032000
v 0.055203 0.000000 -0.024891
v 0.068875 0.000000 -0.018546
v 0.082109 0.000000 -0.012938
v 0.095000 0.000000 -0.008037
v 0.107641 0.000000 -0.003817
v 0.120125 0.000000 -0.000250
v 0.132547 0.000000 0.002692
v 0.145000 0.000000 0.005037
v 0.157578 0.000000 0.006812
v 0.170375 0.000000 0.008046
v 0.183484 0.000000 0.008766
v 0.197000 0.000000 0.009000
v 0.217768 0.000000 0.007911
v 0.237477 0.000000 0.004708
v 0.255984 0.000000 -0.000516
v 0.273148 0.000000 -0.007667
v 0.288826 0.000000 -0.016651
v 0.302875 0.000000 -0.027375
v 0.315153 0.000000 -0.039745
v 0.325519 0.000000 -0.053667
v 0.333828 0.000000 -0.069047
v 0.339940 0.000000 -0.085792
v 0.343711 0.000000 -0.103807
v 0.345000 0.000000 -0.123000
v 0.344426 0.000000 -0.134207
v 0.342657 0.000000 -0.144903
v 0.339625 0.000000 -0.155203
v 0.335259 0.000000 -0.165222
v 0.329491 0.000000 -0.175075
v 0.322250 0.000000 -0.184875
v 0.313468 0.000000 -0.194738
v 0.303074 0.000000 -0.204778
v 0.291000 0.000000 -0.215109
v 0.277176 0.000000 -0.225847
v 0.261532 0.000000 -0.237106
v 0.244000 0.000000 -0.249000
v 0.225260 0.000000 -0.260052
v 0.208495 0.000000 -0.270250
v 0.193641 0.000000 -0.279656
v 0.180630 0.000000 -0.288333
v 0.169396 0.000000 -0.296344
v 0.159875 0.000000 -0.303750
v 0.151999 0.000000 -0.310615
v 0.145704 0.000000 -0.317000
v 0.140922 0.000000 -0.322969
v 0.137588 0.000000 -0.328583
v 0.135636 0.000000 -0.333906
v 0.135000 0.000000 -0.339000
v 0.135473 0.000000 -0.344848
v 0.136870 0.000000 -0.350370
v 0.139156 0.000000 -0.355531
v 0.142296 0.000000 -0.360296
v 0.146256 0.000000 -0.364631
v 0.151000 0.000000 -0.368500
v 0.156494 0.000000 -0.371869
v 0.162704 0.000000 -0.374704
v 0.169594 0.000000 -0.376969
v 0.177130 0.000000 -0.378630
v 0.185277 0.000000 -0.379652
v 0.194000 0.000000 -0.380000
v 0.202535 0.000000 -0.379705
v 0.211616 0.000000 -0.378810
v 0.221203 0.000000 -0.377297
v 0.231259 0.000000 -0.375148
v 0.241746 0.000000 -0.372347
v 0.252625 0.000000 -0.368875
v 0.263858 0.000000 -0.364716
v 0.275407 0.000000 -0.359852
v 0.287234 0.000000 -0.354266
v 0.299301 0.000000 -0.347940
v 0.311569 0.000000 -0.340857
v 0.324000 0.000000 -0.333000
vt 0.097744 0.000000
vt 0.082707 0.000000
vt 0.090226 0.000000
vt 0.075188 0.000000
vt 0.105263 0.000000
vt 0.067669 0.000000
vt 0.060150 0.000000
vt 0.112782 0.000000
vt 0.052632 0.000000
vt 0.045113 0.000000
vt 0.120301 0.000000
vt 0.037594 0.000000
vt 0.030075 0.000000
vt 0.127820 0.000000
vt 0.022556 0.000000
vt 0.015038 0.000000
vt 0.135338 0.000000
vt 0.007519 0.000000
vt 0.000000 0.000000
vt 0.142857 0.000000
vt 0.939850 0.000000
vt 0.947368 0.000000
vt 0.954887 0.000000
vt 0.962406 0.000000
vt 0.969925 0.000000
vt 0.977444 0.000000
vt 0.984962 0.000000
vt 0.992481 0.000000
vt 1.000000 0.000000
vt 0.150376 0.000000
vt 0.924812 0.000000
vt 0.932331 0.000000
vt 0.157895 0.000000
vt 0.917293 0.000000
vt 0.165414 0.000000
vt 0.902256 0.000000
vt 0.909774 0.000000
vt 0.894737 0.000000
vt 0.887218 0.000000
vt 0.879699 0.000000
vt 0.872180 0.000000
vt 0.864662 0.000000
vt 0.172932 0.000000
vt 0.857143 0.000000
vt 0.849624 0.000000
vt 0.842105 0.000000
vt 0.834586 0.000000
vt 0.180451 0.000000
vt 0.827068 0.000000
vt 0.819549 0.000000
vt 0.812030 0.000000
vt 0.187970 0.000000
vt 0.804511 0.000000
vt 0.796992 0.000000
vt 0.789474 0.000000
vt 0.781955 0.000000
vt 0.774436 0.000000
vt 0.195489 0.000000
vt 0.766917 0.000000
vt 0.759399 0.000000
vt 0.751880 0.000000
vt 0.203008 0.000000
vt 0.744361 0.000000
vt 0.736842 0.000000
vt 0.729323 0.000000
vt 0.210526 0.000000
vt 0.721804 0.000000
vt 0.218045 0.000000
vt 0.714286 0.000000
vt 0.706767 0.000000
vt 0.225564 0.000000
vt 0.699248 0.000000
vt 0.233083 0.000000
vt 0.691729 0.000000
vt 0.684211 0.000000
vt 0.240602 0.000000
vt 0.676692 0.000000
vt 0.248120 0.000000
vt 0.669173 0.000000
vt 0.661654 0.000000
vt 0.255639 0.000000
vt 0.654135 0.000000
vt 0.263158 0.000000
vt 0.646617 0.000000
vt 0.270677 0.000000
vt 0.639098 0.000000
vt 0.458647 0.000000
vt 0.443609 0.000000
vt 0.451128 0.000000
vt 0.631579 0.000000
vt 0.278196 0.000000
vt 0.436090 0.000000
vt 0.285714 0.000000
vt 0.428571 0.000000
vt 0.293233 0.000000
vt 0.624060 0.000000
vt 0.421053 0.000000
vt 0.300752 0.000000
vt 0.413534 0.000000
vt 0.308271 0.000000
vt 0.406015 0.000000
vt 0.315789 0.000000
vt 0.616541 0.000000
vt 0.398496 0.000000
vt 0.323308 0.000000
vt 0.330827 0.000000
vt 0.390977 0.000000
vt 0.338346 0.000000
vt 0.383459 0.000000
vt 0.345865 0.000000
vt 0.375940 0.000000
vt 0.353383 0.000000
vt 0.368421 0.000000
vt 0.360902 0.000000
vt 0.609023 0.000000
vt 0.601504 0.000000
vt 0.593985 0.000000
vt 0.466165 0.000000
vt 0.586466 0.000000
vt 0.473684 0.000000
vt 0.481203 0.000000
vt 0.578947 0.000000
vt 0.488722 0.000000
vt 0.496241 0.000000
vt 0.571429 0.000000
vt 0.503759 0.000000
vt 0.563910 0.000000
vt 0.511278 0.000000
vt 0.518797 0.000000
vt 0.556391 0.000000
vt 0.526316 0.000000
vt 0.533835 0.000000
vt 0.548872 0.000000
vt 0.541353 0.000000
vn 0.0000 1.0000 0.0000
usemtl None
s off
f 14/1/1 12/2/1 13/3/1
f 14/1/1 11/4/1 12/2/1
f 15/5/1 11/4/1 14/1/1
f 15/5/1 10/6/1 11/4/1
f 15/5/1 9/7/1 10/6/1
f 16/8/1 9/7/1 15/5/1
f 16/8/1 8/9/1 9/7/1
f 16/8/1 7/10/1 8/9/1
f 17/11/1 7/10/1 16/8/1
f 17/11/1 6/12/1 7/10/1
f 17/11/1 5/13/1 6/12/1
f 18/14/1 5/13/1 17/11/1
f 18/14/1 4/15/1 5/13/1
f 18/14/1 3/16/1 4/15/1
f 19/17/1 3/16/1 18/14/1
f 19/17/1 2/18/1 3/16/1
f 19/17/1 1/19/1 2/18/1
f 20/20/1 1/19/1 19/17/1
f 20/20/1 126/21/1 1/19/1
f 126/21/1 127/22/1 1/19/1
f 127/22/1 128/23/1 1/19/1
f 128/23/1 129/24/1 1/19/1
f 129/24/1 130/25/1 1/19/1
f 130/25/1 131/26/1 1/19/1
f 131/26/1 132/27/1 1/19/1
f 132/27/1 133/28/1 1/19/1
f 133/28/1 134/29/1 1/19/1
f 21/30/1 124/31/1 20/20/1
f 124/31/1 125/32/1 20/20/1
f 125/32/1 126/21/1 20/20/1
f 22/33/1 123/34/1 21/30/1
f 123/34/1 124/31/1 21/30/1
f 23/35/1 121/36/1 22/33/1
f 121/36/1 122/37/1 22/33/1
f 122/37/1 123/34/1 22/33/1
f 23/35/1 120/38/1 121/36/1
f 23/35/1 119/39/1 120/38/1
f 23/35/1 118/40/1 119/39/1
f 23/35/1 117/41/1 118/40/1
f 23/35/1 116/42/1 117/41/1
f 24/43/1 116/42/1 23/35/1
f 24/43/1 115/44/1 116/42/1
f 24/43/1 114/45/1 115/44/1
f 24/43/1 113/46/1 114/45/1
f 24/43/1 112/47/1 113/46/1
f 25/48/1 112/47/1 24/43/1
f 25/48/1 111/49/1 112/47/1
f 25/48/1 110/50/1 111/49/1
f 25/48/1 109/51/1 110/50/1
f 26/52/1 109/51/1 25/48/1
f 26/52/1 108/53/1 109/51/1
f 26/52/1 107/54/1 108/53/1
f 26/52/1 106/55/1 107/54/1
f 26/52/1 105/56/1 106/55/1
f 26/52/1 104/57/1 105/56/1
f 27/58/1 104/57/1 26/52/1
f 27/58/1 103/59/1 104/57/1
f 27/58/1 102/60/1 103/59/1
f 27/58/1 101/61/1 102/60/1
f 28/62/1 101/61/1 27/58/1
f 28/62/1 100/63/1 101/61/1
f 28/62/1 99/64/1 100/63/1
f 28/62/1 98/65/1 99/64/1
f 29/66/1 98/65/1 28/62/1
f 29/66/1 97/67/1 98/65/1
f 30/68/1 97/67/1 29/66/1
f 30/68/1 96/69/1 97/67/1
f 30/68/1 95/70/1 96/69/1
f 31/71/1 95/70/1 30/68/1
f 31/71/1 94/72/1 95/70/1
f 32/73/1 94/72/1 31/71/1
f 32/73/1 93/74/1 94/72/1
f 32/73/1 92/75/1 93/74/1
f 33/76/1 92/75/1 32/73/1
f 33/76/1 91/77/1 92/75/1
f 34/78/1 91/77/1 33/76/1
f 34/78/1 90/79/1 91/77/1
f 34/78/1 89/80/1 90/79/1
f 35/81/1 89/80/1 34/78/1
f 35/81/1 88/82/1 89/80/1
f 36/83/1 88/82/1 35/81/1
f 36/83/1 87/84/1 88/82/1
f 37/85/1 87/84/1 36/83/1
f 37/85/1 86/86/1 87/84/1
f 62/87/1 60/88/1 61/89/1
f 37/85/1 85/90/1 86/86/1
f 38/91/1 85/90/1 37/85/1
f 62/87/1 59/92/1 60/88/1
f 39/93/1 85/90/1 38/91/1
f 62/87/1 58/94/1 59/92/1
f 40/95/1 85/90/1 39/93/1
f 40/95/1 84/96/1 85/90/1
f 62/87/1 57/97/1 58/94/1
f 41/98/1 84/96/1 40/95/1
f 62/87/1 56/99/1 57/97/1
f 42/100/1 84/96/1 41/98/1
f 62/87/1 55/101/1 56/99/1
f 43/102/1 84/96/1 42/100/1
f 43/102/1 83/103/1 84/96/1
f 62/87/1 54/104/1 55/101/1
f 44/105/1 83/103/1 43/102/1
f 45/106/1 83/103/1 44/105/1
f 62/87/1 53/107/1 54/104/1
f 46/108/1 83/103/1 45/106/1
f 62/87/1 52/109/1 53/107/1
f 47/110/1 83/103/1 46/108/1
f 62/87/1 51/111/1 52/109/1
f 48/112/1 83/103/1 47/110/1
f 62/87/1 50/113/1 51/111/1
f 49/114/1 83/103/1 48/112/1
f 62/87/1 49/114/1 50/113/1
f 49/114/1 82/115/1 83/103/1
f 62/87/1 82/115/1 49/114/1
f 62/87/1 81/116/1 82/115/1
f 62/87/1 80/117/1 81/116/1
f 63/118/1 80/117/1 62/87/1
f 63/118/1 79/119/1 80/117/1
f 64/120/1 79/119/1 63/118/1
f 65/121/1 79/119/1 64/120/1
f 65/121/1 78/122/1 79/119/1
f 66/123/1 78/122/1 65/121/1
f 67/124/1 78/122/1 66/123/1
f 67/124/1 77/125/1 78/122/1
f 68/126/1 77/125/1 67/124/1
f 68/126/1 76/127/1 77/125/1
f 69/128/1 76/127/1 68/126/1
f 70/129/1 76/127/1 69/128/1
f 70/129/1 75/130/1 76/127/1
f 71/131/1 75/130/1 70/129/1
f 72/132/1 75/130/1 71/131/1
f 72/132/1 74/133/1 75/130/1
f 73/134/1 74/133/1 72/132/1
