# Blender v2.93.0 OBJ File: ''
# www.blender.org
mtllib lowerb.mtl
o Text
v 0.148000 0.000000 -0.682000
v 0.059000 0.000000 -0.682000
v 0.059000 0.000000 -0.025000
v 0.070402 0.000000 -0.019920
v 0.082551 0.000000 -0.015190
v 0.095359 0.000000 -0.010828
v 0.108741 0.000000 -0.006852
v 0.122608 0.000000 -0.003278
v 0.136875 0.000000 -0.000125
v 0.151454 0.000000 0.002591
v 0.166259 0.000000 0.004852
v 0.181203 0.000000 0.006641
v 0.196199 0.000000 0.007940
v 0.211160 0.000000 0.008732
v 0.226000 0.000000 0.009000
v 0.262233 0.000000 0.007122
v 0.295861 0.000000 0.001556
v 0.326781 0.000000 -0.007594
v 0.354889 0.000000 -0.020222
v 0.380080 0.000000 -0.036226
v 0.402250 0.000000 -0.055500
v 0.421295 0.000000 -0.077941
v 0.437111 0.000000 -0.103444
v 0.449594 0.000000 -0.131906
v 0.458639 0.000000 -0.163222
v 0.464142 0.000000 -0.197288
v 0.466000 0.000000 -0.234000
v 0.464322 0.000000 -0.265506
v 0.459407 0.000000 -0.295384
v 0.451438 0.000000 -0.323422
v 0.440593 0.000000 -0.349407
v 0.427053 0.000000 -0.373129
v 0.411000 0.000000 -0.394375
v 0.392613 0.000000 -0.412933
v 0.372074 0.000000 -0.428593
v 0.349563 0.000000 -0.441141
v 0.325259 0.000000 -0.450366
v 0.299345 0.000000 -0.456056
v 0.272000 0.000000 -0.458000
v 0.260852 0.000000 -0.457728
v 0.249898 0.000000 -0.456907
v 0.239125 0.000000 -0.455531
v 0.228519 0.000000 -0.453593
v 0.218065 0.000000 -0.451084
v 0.207750 0.000000 -0.448000
v 0.197560 0.000000 -0.444332
v 0.187481 0.000000 -0.440074
v 0.177500 0.000000 -0.435219
v 0.167602 0.000000 -0.429759
v 0.157773 0.000000 -0.423689
v 0.148000 0.000000 -0.417000
v 0.148000 0.000000 -0.332000
v 0.157283 0.000000 -0.340047
v 0.166181 0.000000 -0.347213
v 0.174766 0.000000 -0.353531
v 0.183111 0.000000 -0.359037
v 0.191290 0.000000 -0.363765
v 0.199375 0.000000 -0.367750
v 0.207439 0.000000 -0.371027
v 0.215556 0.000000 -0.373630
v 0.223797 0.000000 -0.375594
v 0.232236 0.000000 -0.376954
v 0.240946 0.000000 -0.377744
v 0.250000 0.000000 -0.378000
v 0.268215 0.000000 -0.376725
v 0.285301 0.000000 -0.372968
v 0.301172 0.000000 -0.366828
v 0.315741 0.000000 -0.358407
v 0.328921 0.000000 -0.347806
v 0.340625 0.000000 -0.335125
v 0.350767 0.000000 -0.320465
v 0.359259 0.000000 -0.303926
v 0.366016 0.000000 -0.285609
v 0.370949 0.000000 -0.265616
v 0.373973 0.000000 -0.244046
v 0.375000 0.000000 -0.221000
v 0.373832 0.000000 -0.200271
v 0.370407 0.000000 -0.180671
v 0.364844 0.000000 -0.162328
v 0.357259 0.000000 -0.145370
v 0.347772 0.000000 -0.129927
v 0.336500 0.000000 -0.116125
v 0.323561 0.000000 -0.104094
v 0.309074 0.000000 -0.093963
v 0.293156 0.000000 -0.085859
v 0.275926 0.000000 -0.079912
v 0.257501 0.000000 -0.076249
v 0.238000 0.000000 -0.075000
v 0.231264 0.000000 -0.075123
v 0.224111 0.000000 -0.075481
v 0.216625 0.000000 -0.076063
v 0.208889 0.000000 -0.076852
v 0.200986 0.000000 -0.077836
v 0.193000 0.000000 -0.079000
v 0.185014 0.000000 -0.080331
v 0.177111 0.000000 -0.081815
v 0.169375 0.000000 -0.083438
v 0.161889 0.000000 -0.085185
v 0.154736 0.000000 -0.087044
v 0.148000 0.000000 -0.089000
vt 0.020202 0.000000
vt 0.000000 0.000000
vt 0.010101 0.000000
vt 0.505050 0.000000
vt 0.393939 0.000000
vt 0.373737 0.000000
vt 0.383838 0.000000
vt 0.404040 0.000000
vt 0.414141 0.000000
vt 0.363636 0.000000
vt 0.424242 0.000000
vt 0.434343 0.000000
vt 0.444444 0.000000
vt 0.353535 0.000000
vt 0.454545 0.000000
vt 0.464646 0.000000
vt 0.343434 0.000000
vt 0.474747 0.000000
vt 0.484848 0.000000
vt 0.494949 0.000000
vt 0.333333 0.000000
vt 0.515152 0.000000
vt 0.525253 0.000000
vt 0.535354 0.000000
vt 0.545455 0.000000
vt 0.555556 0.000000
vt 0.565657 0.000000
vt 0.575758 0.000000
vt 0.585859 0.000000
vt 0.595960 0.000000
vt 0.606061 0.000000
vt 0.616162 0.000000
vt 0.323232 0.000000
vt 0.626263 0.000000
vt 0.636364 0.000000
vt 0.313131 0.000000
vt 0.646465 0.000000
vt 0.656566 0.000000
vt 0.303030 0.000000
vt 0.666667 0.000000
vt 0.676768 0.000000
vt 0.686869 0.000000
vt 0.292929 0.000000
vt 0.696970 0.000000
vt 0.707071 0.000000
vt 1.000000 0.000000
vt 0.282828 0.000000
vt 0.717172 0.000000
vt 0.727273 0.000000
vt 0.272727 0.000000
vt 0.737374 0.000000
vt 0.747475 0.000000
vt 0.262626 0.000000
vt 0.757576 0.000000
vt 0.252525 0.000000
vt 0.767677 0.000000
vt 0.777778 0.000000
vt 0.242424 0.000000
vt 0.787879 0.000000
vt 0.232323 0.000000
vt 0.797980 0.000000
vt 0.808081 0.000000
vt 0.222222 0.000000
vt 0.818182 0.000000
vt 0.828283 0.000000
vt 0.838384 0.000000
vt 0.212121 0.000000
vt 0.848485 0.000000
vt 0.989899 0.000000
vt 0.979798 0.000000
vt 0.858586 0.000000
vt 0.969697 0.000000
vt 0.959596 0.000000
vt 0.949495 0.000000
vt 0.939394 0.000000
vt 0.868687 0.000000
vt 0.929293 0.000000
vt 0.202020 0.000000
vt 0.919192 0.000000
vt 0.909091 0.000000
vt 0.878788 0.000000
vt 0.898990 0.000000
vt 0.888889 0.000000
vt 0.191919 0.000000
vt 0.181818 0.000000
vt 0.030303 0.000000
vt 0.171717 0.000000
vt 0.040404 0.000000
vt 0.050505 0.000000
vt 0.060606 0.000000
vt 0.161616 0.000000
vt 0.070707 0.000000
vt 0.080808 0.000000
vt 0.090909 0.000000
vt 0.151515 0.000000
vt 0.101010 0.000000
vt 0.111111 0.000000
vt 0.121212 0.000000
vt 0.141414 0.000000
vt 0.131313 0.000000
vn 0.0000 1.0000 0.0000
usemtl None
s off
f 3/1/1 1/2/1 2/3/1
f 3/1/1 51/4/1 1/2/1
f 40/5/1 38/6/1 39/7/1
f 41/8/1 38/6/1 40/5/1
f 42/9/1 38/6/1 41/8/1
f 42/9/1 37/10/1 38/6/1
f 43/11/1 37/10/1 42/9/1
f 44/12/1 37/10/1 43/11/1
f 45/13/1 37/10/1 44/12/1
f 45/13/1 36/14/1 37/10/1
f 46/15/1 36/14/1 45/13/1
f 47/16/1 36/14/1 46/15/1
f 47/16/1 35/17/1 36/14/1
f 48/18/1 35/17/1 47/16/1
f 49/19/1 35/17/1 48/18/1
f 50/20/1 35/17/1 49/19/1
f 50/20/1 34/21/1 35/17/1
f 51/4/1 34/21/1 50/20/1
f 3/1/1 52/22/1 51/4/1
f 52/22/1 53/23/1 51/4/1
f 53/23/1 54/24/1 51/4/1
f 54/24/1 55/25/1 51/4/1
f 55/25/1 56/26/1 51/4/1
f 56/26/1 57/27/1 51/4/1
f 57/27/1 58/28/1 51/4/1
f 58/28/1 59/29/1 51/4/1
f 59/29/1 60/30/1 51/4/1
f 60/30/1 61/31/1 51/4/1
f 61/31/1 34/21/1 51/4/1
f 61/31/1 62/32/1 34/21/1
f 62/32/1 33/33/1 34/21/1
f 62/32/1 63/34/1 33/33/1
f 63/34/1 64/35/1 33/33/1
f 64/35/1 32/36/1 33/33/1
f 65/37/1 32/36/1 64/35/1
f 66/38/1 32/36/1 65/37/1
f 66/38/1 31/39/1 32/36/1
f 67/40/1 31/39/1 66/38/1
f 68/41/1 31/39/1 67/40/1
f 69/42/1 31/39/1 68/41/1
f 69/42/1 30/43/1 31/39/1
f 70/44/1 30/43/1 69/42/1
f 71/45/1 30/43/1 70/44/1
f 3/1/1 100/46/1 52/22/1
f 71/45/1 29/47/1 30/43/1
f 72/48/1 29/47/1 71/45/1
f 73/49/1 29/47/1 72/48/1
f 73/49/1 28/50/1 29/47/1
f 74/51/1 28/50/1 73/49/1
f 75/52/1 28/50/1 74/51/1
f 75/52/1 27/53/1 28/50/1
f 76/54/1 27/53/1 75/52/1
f 76/54/1 26/55/1 27/53/1
f 77/56/1 26/55/1 76/54/1
f 78/57/1 26/55/1 77/56/1
f 78/57/1 25/58/1 26/55/1
f 79/59/1 25/58/1 78/57/1
f 79/59/1 24/60/1 25/58/1
f 80/61/1 24/60/1 79/59/1
f 81/62/1 24/60/1 80/61/1
f 81/62/1 23/63/1 24/60/1
f 82/64/1 23/63/1 81/62/1
f 83/65/1 23/63/1 82/64/1
f 84/66/1 23/63/1 83/65/1
f 84/66/1 22/67/1 23/63/1
f 85/68/1 22/67/1 84/66/1
f 3/1/1 99/69/1 100/46/1
f 3/1/1 98/70/1 99/69/1
f 86/71/1 22/67/1 85/68/1
f 3/1/1 97/72/1 98/70/1
f 3/1/1 96/73/1 97/72/1
f 3/1/1 95/74/1 96/73/1
f 3/1/1 94/75/1 95/74/1
f 87/76/1 22/67/1 86/71/1
f 3/1/1 93/77/1 94/75/1
f 87/76/1 21/78/1 22/67/1
f 3/1/1 92/79/1 93/77/1
f 3/1/1 91/80/1 92/79/1
f 88/81/1 21/78/1 87/76/1
f 3/1/1 90/82/1 91/80/1
f 3/1/1 89/83/1 90/82/1
f 3/1/1 88/81/1 89/83/1
f 3/1/1 21/78/1 88/81/1
f 3/1/1 20/84/1 21/78/1
f 3/1/1 19/85/1 20/84/1
f 4/86/1 19/85/1 3/1/1
f 4/86/1 18/87/1 19/85/1
f 5/88/1 18/87/1 4/86/1
f 6/89/1 18/87/1 5/88/1
f 7/90/1 18/87/1 6/89/1
f 7/90/1 17/91/1 18/87/1
f 8/92/1 17/91/1 7/90/1
f 9/93/1 17/91/1 8/92/1
f 10/94/1 17/91/1 9/93/1
f 10/94/1 16/95/1 17/91/1
f 11/96/1 16/95/1 10/94/1
f 12/97/1 16/95/1 11/96/1
f 13/98/1 16/95/1 12/97/1
f 13/98/1 15/99/1 16/95/1
f 14/100/1 15/99/1 13/98/1
