# Blender v2.93.0 OBJ File: ''
# www.blender.org
mtllib lowerk.mtl
o Text
v 0.460000 0.000000 -0.449000
v 0.354000 0.000000 -0.449000
v 0.155000 0.000000 -0.229000
v 0.380000 0.000000 0.000000
v 0.500000 0.000000 0.000000
v 0.268000 0.000000 -0.229000
v 0.151000 0.000000 -0.682000
v 0.062000 0.000000 -0.682000
v 0.062000 0.000000 0.000000
v 0.151000 0.000000 0.000000
vt 0.888889 0.000000
vt 0.666667 0.000000
vt 0.777778 0.000000
vt 1.000000 0.000000
vt 0.222222 0.000000
vt 0.000000 0.000000
vt 0.111111 0.000000
vt 0.555556 0.000000
vt 0.333333 0.000000
vt 0.444444 0.000000
vn 0.0000 1.0000 0.0000
usemtl None
s off
f 9/1/1 7/2/1 8/3/1
f 9/1/1 10/4/1 7/2/1
f 3/5/1 1/6/1 2/7/1
f 3/5/1 6/8/1 1/6/1
f 4/9/1 6/8/1 3/5/1
f 4/9/1 5/10/1 6/8/1
