# Blender v2.93.0 OBJ File: ''
# www.blender.org
mtllib lowern.mtl
o Text
v 0.150000 0.000000 -0.449000
v 0.061000 0.000000 -0.449000
v 0.061000 0.000000 0.000000
v 0.150000 0.000000 0.000000
v 0.150000 0.000000 -0.322000
v 0.160282 0.000000 -0.333152
v 0.170171 0.000000 -0.343134
v 0.179734 0.000000 -0.351984
v 0.189037 0.000000 -0.359741
v 0.198145 0.000000 -0.366442
v 0.207125 0.000000 -0.372125
v 0.216042 0.000000 -0.376829
v 0.224963 0.000000 -0.380593
v 0.233953 0.000000 -0.383453
v 0.243079 0.000000 -0.385449
v 0.252406 0.000000 -0.386619
v 0.262000 0.000000 -0.387000
v 0.275075 0.000000 -0.386116
v 0.287269 0.000000 -0.383509
v 0.298531 0.000000 -0.379250
v 0.308815 0.000000 -0.373407
v 0.318071 0.000000 -0.366051
v 0.326250 0.000000 -0.357250
v 0.333304 0.000000 -0.347074
v 0.339185 0.000000 -0.335593
v 0.343844 0.000000 -0.322875
v 0.347232 0.000000 -0.308991
v 0.349300 0.000000 -0.294009
v 0.350000 0.000000 -0.278000
v 0.350000 0.000000 0.000000
v 0.439000 0.000000 0.000000
v 0.439000 0.000000 -0.277000
v 0.437613 0.000000 -0.306400
v 0.433569 0.000000 -0.333116
v 0.427047 0.000000 -0.357172
v 0.418222 0.000000 -0.378593
v 0.407273 0.000000 -0.397402
v 0.394375 0.000000 -0.413625
v 0.379707 0.000000 -0.427285
v 0.363444 0.000000 -0.438407
v 0.345766 0.000000 -0.447016
v 0.326847 0.000000 -0.453134
v 0.306866 0.000000 -0.456788
v 0.286000 0.000000 -0.458000
v 0.273509 0.000000 -0.457483
v 0.261074 0.000000 -0.455949
v 0.248750 0.000000 -0.453422
v 0.236593 0.000000 -0.449926
v 0.224657 0.000000 -0.445486
v 0.213000 0.000000 -0.440125
v 0.201676 0.000000 -0.433869
v 0.190741 0.000000 -0.426741
v 0.180250 0.000000 -0.418766
v 0.170259 0.000000 -0.409968
v 0.160824 0.000000 -0.400371
v 0.152000 0.000000 -0.390000
v 0.150000 0.000000 -0.390000
vt 0.785714 0.000000
vt 0.750000 0.000000
vt 0.767857 0.000000
vt 0.803571 0.000000
vt 0.732143 0.000000
vt 0.821429 0.000000
vt 0.839286 0.000000
vt 0.714286 0.000000
vt 0.857143 0.000000
vt 0.035714 0.000000
vt 0.000000 0.000000
vt 0.017857 0.000000
vt 1.000000 0.000000
vt 0.696429 0.000000
vt 0.875000 0.000000
vt 0.892857 0.000000
vt 0.678571 0.000000
vt 0.910714 0.000000
vt 0.660714 0.000000
vt 0.928571 0.000000
vt 0.946429 0.000000
vt 0.642857 0.000000
vt 0.964286 0.000000
vt 0.982143 0.000000
vt 0.285714 0.000000
vt 0.625000 0.000000
vt 0.071429 0.000000
vt 0.089286 0.000000
vt 0.107143 0.000000
vt 0.125000 0.000000
vt 0.142857 0.000000
vt 0.160714 0.000000
vt 0.178571 0.000000
vt 0.196429 0.000000
vt 0.214286 0.000000
vt 0.232143 0.000000
vt 0.250000 0.000000
vt 0.267857 0.000000
vt 0.303571 0.000000
vt 0.321429 0.000000
vt 0.339286 0.000000
vt 0.357143 0.000000
vt 0.607143 0.000000
vt 0.375000 0.000000
vt 0.392857 0.000000
vt 0.410714 0.000000
vt 0.589286 0.000000
vt 0.428571 0.000000
vt 0.446429 0.000000
vt 0.571429 0.000000
vt 0.464286 0.000000
vt 0.053571 0.000000
vt 0.482143 0.000000
vt 0.553571 0.000000
vt 0.500000 0.000000
vt 0.517857 0.000000
vt 0.535714 0.000000
vn 0.0000 1.0000 0.0000
usemtl None
s off
f 45/1/1 43/2/1 44/3/1
f 46/4/1 43/2/1 45/1/1
f 46/4/1 42/5/1 43/2/1
f 47/6/1 42/5/1 46/4/1
f 48/7/1 42/5/1 47/6/1
f 48/7/1 41/8/1 42/5/1
f 49/9/1 41/8/1 48/7/1
f 3/10/1 1/11/1 2/12/1
f 3/10/1 57/13/1 1/11/1
f 49/9/1 40/14/1 41/8/1
f 50/15/1 40/14/1 49/9/1
f 51/16/1 40/14/1 50/15/1
f 51/16/1 39/17/1 40/14/1
f 52/18/1 39/17/1 51/16/1
f 52/18/1 38/19/1 39/17/1
f 53/20/1 38/19/1 52/18/1
f 54/21/1 38/19/1 53/20/1
f 54/21/1 37/22/1 38/19/1
f 55/23/1 37/22/1 54/21/1
f 56/24/1 37/22/1 55/23/1
f 56/24/1 17/25/1 37/22/1
f 17/25/1 36/26/1 37/22/1
f 3/10/1 56/24/1 57/13/1
f 3/10/1 5/27/1 56/24/1
f 5/27/1 6/28/1 56/24/1
f 6/28/1 7/29/1 56/24/1
f 7/29/1 8/30/1 56/24/1
f 8/30/1 9/31/1 56/24/1
f 9/31/1 10/32/1 56/24/1
f 10/32/1 11/33/1 56/24/1
f 11/33/1 12/34/1 56/24/1
f 12/34/1 13/35/1 56/24/1
f 13/35/1 14/36/1 56/24/1
f 14/36/1 15/37/1 56/24/1
f 15/37/1 16/38/1 56/24/1
f 16/38/1 17/25/1 56/24/1
f 18/39/1 36/26/1 17/25/1
f 19/40/1 36/26/1 18/39/1
f 20/41/1 36/26/1 19/40/1
f 21/42/1 36/26/1 20/41/1
f 21/42/1 35/43/1 36/26/1
f 22/44/1 35/43/1 21/42/1
f 23/45/1 35/43/1 22/44/1
f 24/46/1 35/43/1 23/45/1
f 24/46/1 34/47/1 35/43/1
f 25/48/1 34/47/1 24/46/1
f 26/49/1 34/47/1 25/48/1
f 26/49/1 33/50/1 34/47/1
f 27/51/1 33/50/1 26/49/1
f 3/10/1 4/52/1 5/27/1
f 28/53/1 33/50/1 27/51/1
f 28/53/1 32/54/1 33/50/1
f 29/55/1 32/54/1 28/53/1
f 30/56/1 32/54/1 29/55/1
f 30/56/1 31/57/1 32/54/1
