# Blender v2.93.0 OBJ File: ''
# www.blender.org
mtllib lowert.mtl
o Text
v 0.167000 0.000000 -0.542000
v 0.000000 0.000000 -0.379000
v 0.000000 0.000000 -0.369000
v 0.078000 0.000000 -0.369000
v 0.078000 0.000000 -0.132000
v 0.079020 0.000000 -0.112210
v 0.082079 0.000000 -0.093431
v 0.087172 0.000000 -0.075797
v 0.094296 0.000000 -0.059444
v 0.103448 0.000000 -0.044509
v 0.114625 0.000000 -0.031125
v 0.127822 0.000000 -0.019429
v 0.143037 0.000000 -0.009556
v 0.160266 0.000000 -0.001641
v 0.179505 0.000000 0.004181
v 0.200751 0.000000 0.007773
v 0.224000 0.000000 0.009000
v 0.231625 0.000000 0.008734
v 0.239917 0.000000 0.007958
v 0.248750 0.000000 0.006703
v 0.258000 0.000000 0.005000
v 0.267542 0.000000 0.002880
v 0.277250 0.000000 0.000375
v 0.287000 0.000000 -0.002484
v 0.296667 0.000000 -0.005667
v 0.306125 0.000000 -0.009141
v 0.315250 0.000000 -0.012875
v 0.323917 0.000000 -0.016839
v 0.332000 0.000000 -0.021000
v 0.332000 0.000000 -0.104000
v 0.323061 0.000000 -0.098729
v 0.314241 0.000000 -0.093917
v 0.305531 0.000000 -0.089563
v 0.296926 0.000000 -0.085667
v 0.288418 0.000000 -0.082229
v 0.280000 0.000000 -0.079250
v 0.271666 0.000000 -0.076729
v 0.263407 0.000000 -0.074667
v 0.255219 0.000000 -0.073063
v 0.247093 0.000000 -0.071917
v 0.239022 0.000000 -0.071229
v 0.231000 0.000000 -0.071000
v 0.224279 0.000000 -0.071326
v 0.217231 0.000000 -0.072356
v 0.210031 0.000000 -0.074172
v 0.202852 0.000000 -0.076852
v 0.195867 0.000000 -0.080476
v 0.189250 0.000000 -0.085125
v 0.183175 0.000000 -0.090878
v 0.177815 0.000000 -0.097815
v 0.173344 0.000000 -0.106016
v 0.169935 0.000000 -0.115560
v 0.167763 0.000000 -0.126528
v 0.167000 0.000000 -0.139000
v 0.167000 0.000000 -0.369000
v 0.309000 0.000000 -0.369000
v 0.309000 0.000000 -0.449000
v 0.167000 0.000000 -0.449000
vt 0.017544 0.000000
vt 1.000000 0.000000
vt 0.000000 0.000000
vt 0.982456 0.000000
vt 0.964912 0.000000
vt 0.035088 0.000000
vt 0.052632 0.000000
vt 0.070175 0.000000
vt 0.947368 0.000000
vt 0.929825 0.000000
vt 0.912281 0.000000
vt 0.087719 0.000000
vt 0.894737 0.000000
vt 0.877193 0.000000
vt 0.105263 0.000000
vt 0.859649 0.000000
vt 0.526316 0.000000
vt 0.491228 0.000000
vt 0.508772 0.000000
vt 0.543860 0.000000
vt 0.842105 0.000000
vt 0.561404 0.000000
vt 0.122807 0.000000
vt 0.824561 0.000000
vt 0.578947 0.000000
vt 0.596491 0.000000
vt 0.807018 0.000000
vt 0.614035 0.000000
vt 0.789474 0.000000
vt 0.631579 0.000000
vt 0.771930 0.000000
vt 0.649123 0.000000
vt 0.140351 0.000000
vt 0.666667 0.000000
vt 0.754386 0.000000
vt 0.684211 0.000000
vt 0.736842 0.000000
vt 0.701754 0.000000
vt 0.719298 0.000000
vt 0.157895 0.000000
vt 0.175439 0.000000
vt 0.192982 0.000000
vt 0.473684 0.000000
vt 0.210526 0.000000
vt 0.456140 0.000000
vt 0.438596 0.000000
vt 0.228070 0.000000
vt 0.421053 0.000000
vt 0.403509 0.000000
vt 0.385965 0.000000
vt 0.245614 0.000000
vt 0.368421 0.000000
vt 0.350877 0.000000
vt 0.263158 0.000000
vt 0.333333 0.000000
vt 0.315789 0.000000
vt 0.280702 0.000000
vt 0.298246 0.000000
vn 0.0000 1.0000 0.0000
vn 0.0000 0.0000 1.0000
usemtl None
s off
f 2/1/1 58/2/1 1/3/1
f 2/1/1 57/4/1 58/2/1
f 2/1/1 56/5/1 57/4/1
f 3/6/1 56/5/1 2/1/1
f 4/7/2 56/5/2 3/6/2
f 5/8/1 55/9/1 4/7/1
f 55/9/2 56/5/2 4/7/2
f 5/8/1 54/10/1 55/9/1
f 5/8/1 53/11/1 54/10/1
f 6/12/1 53/11/1 5/8/1
f 6/12/1 52/13/1 53/11/1
f 6/12/1 51/14/1 52/13/1
f 7/15/1 51/14/1 6/12/1
f 7/15/1 50/16/1 51/14/1
f 31/17/1 29/18/1 30/19/1
f 32/20/1 29/18/1 31/17/1
f 7/15/1 49/21/1 50/16/1
f 33/22/1 29/18/1 32/20/1
f 8/23/1 49/21/1 7/15/1
f 8/23/1 48/24/1 49/21/1
f 34/25/1 29/18/1 33/22/1
f 35/26/1 29/18/1 34/25/1
f 8/23/1 47/27/1 48/24/1
f 36/28/1 29/18/1 35/26/1
f 8/23/1 46/29/1 47/27/1
f 37/30/1 29/18/1 36/28/1
f 8/23/1 45/31/1 46/29/1
f 38/32/1 29/18/1 37/30/1
f 9/33/1 45/31/1 8/23/1
f 39/34/1 29/18/1 38/32/1
f 9/33/1 44/35/1 45/31/1
f 40/36/1 29/18/1 39/34/1
f 9/33/1 43/37/1 44/35/1
f 41/38/1 29/18/1 40/36/1
f 9/33/1 42/39/1 43/37/1
f 42/39/1 29/18/1 41/38/1
f 9/33/1 29/18/1 42/39/1
f 10/40/1 29/18/1 9/33/1
f 11/41/1 29/18/1 10/40/1
f 12/42/1 29/18/1 11/41/1
f 12/42/1 28/43/1 29/18/1
f 13/44/1 28/43/1 12/42/1
f 13/44/1 27/45/1 28/43/1
f 13/44/1 26/46/1 27/45/1
f 14/47/1 26/46/1 13/44/1
f 14/47/1 25/48/1 26/46/1
f 14/47/1 24/49/1 25/48/1
f 14/47/1 23/50/1 24/49/1
f 15/51/1 23/50/1 14/47/1
f 15/51/1 22/52/1 23/50/1
f 15/51/1 21/53/1 22/52/1
f 16/54/1 21/53/1 15/51/1
f 16/54/1 20/55/1 21/53/1
f 16/54/1 19/56/1 20/55/1
f 17/57/1 19/56/1 16/54/1
f 17/57/1 18/58/1 19/56/1
