# Blender v2.93.0 OBJ File: ''
# www.blender.org
mtllib loweru.mtl
o Text
v 0.437000 0.000000 0.000000
v 0.437000 0.000000 -0.449000
v 0.348000 0.000000 -0.449000
v 0.348000 0.000000 -0.128000
v 0.340567 0.000000 -0.118148
v 0.332782 0.000000 -0.109097
v 0.324672 0.000000 -0.100859
v 0.316259 0.000000 -0.093444
v 0.307569 0.000000 -0.086863
v 0.298625 0.000000 -0.081125
v 0.289452 0.000000 -0.076241
v 0.280074 0.000000 -0.072222
v 0.270516 0.000000 -0.069078
v 0.260801 0.000000 -0.066819
v 0.250954 0.000000 -0.065457
v 0.241000 0.000000 -0.065000
v 0.226376 0.000000 -0.065745
v 0.213005 0.000000 -0.067958
v 0.200891 0.000000 -0.071609
v 0.190037 0.000000 -0.076667
v 0.180447 0.000000 -0.083099
v 0.172125 0.000000 -0.090875
v 0.165074 0.000000 -0.099964
v 0.159296 0.000000 -0.110333
v 0.154797 0.000000 -0.121953
v 0.151579 0.000000 -0.134792
v 0.149645 0.000000 -0.148818
v 0.149000 0.000000 -0.164000
v 0.149000 0.000000 -0.449000
v 0.060000 0.000000 -0.449000
v 0.060000 0.000000 -0.170000
v 0.061312 0.000000 -0.142530
v 0.065162 0.000000 -0.117157
v 0.071422 0.000000 -0.093938
v 0.079963 0.000000 -0.072926
v 0.090657 0.000000 -0.054178
v 0.103375 0.000000 -0.037750
v 0.117989 0.000000 -0.023697
v 0.134370 0.000000 -0.012074
v 0.152391 0.000000 -0.002938
v 0.171921 0.000000 0.003657
v 0.192834 0.000000 0.007655
v 0.215000 0.000000 0.009000
v 0.226153 0.000000 0.008465
v 0.237560 0.000000 0.006889
v 0.249141 0.000000 0.004312
v 0.260815 0.000000 0.000778
v 0.272503 0.000000 -0.003674
v 0.284125 0.000000 -0.009000
v 0.295601 0.000000 -0.015160
v 0.306852 0.000000 -0.022111
v 0.317797 0.000000 -0.029812
v 0.328357 0.000000 -0.038222
v 0.338451 0.000000 -0.047299
v 0.348000 0.000000 -0.057000
v 0.348000 0.000000 0.000000
vt 0.545455 0.000000
vt 0.509091 0.000000
vt 0.527273 0.000000
vt 0.490909 0.000000
vt 0.054545 0.000000
vt 0.018182 0.000000
vt 0.036364 0.000000
vt 0.000000 0.000000
vt 0.563636 0.000000
vt 0.472727 0.000000
vt 0.454545 0.000000
vt 0.581818 0.000000
vt 0.436364 0.000000
vt 0.072727 0.000000
vt 0.418182 0.000000
vt 0.090909 0.000000
vt 0.600000 0.000000
vt 0.400000 0.000000
vt 0.109091 0.000000
vt 0.127273 0.000000
vt 0.381818 0.000000
vt 0.618182 0.000000
vt 0.145455 0.000000
vt 0.363636 0.000000
vt 0.163636 0.000000
vt 0.981818 0.000000
vt 0.345455 0.000000
vt 0.181818 0.000000
vt 0.327273 0.000000
vt 0.200000 0.000000
vt 0.636364 0.000000
vt 0.218182 0.000000
vt 0.309091 0.000000
vt 0.236364 0.000000
vt 0.290909 0.000000
vt 0.254545 0.000000
vt 0.272727 0.000000
vt 0.963636 0.000000
vt 1.000000 0.000000
vt 0.654545 0.000000
vt 0.945455 0.000000
vt 0.927273 0.000000
vt 0.672727 0.000000
vt 0.909091 0.000000
vt 0.690909 0.000000
vt 0.890909 0.000000
vt 0.872727 0.000000
vt 0.709091 0.000000
vt 0.854545 0.000000
vt 0.836364 0.000000
vt 0.727273 0.000000
vt 0.818182 0.000000
vt 0.745455 0.000000
vt 0.800000 0.000000
vt 0.781818 0.000000
vt 0.763636 0.000000
vn 0.0000 1.0000 0.0000
usemtl None
s off
f 31/1/1 29/2/1 30/3/1
f 31/1/1 28/4/1 29/2/1
f 4/5/1 2/6/1 3/7/1
f 4/5/1 1/8/1 2/6/1
f 32/9/1 28/4/1 31/1/1
f 32/9/1 27/10/1 28/4/1
f 32/9/1 26/11/1 27/10/1
f 33/12/1 26/11/1 32/9/1
f 33/12/1 25/13/1 26/11/1
f 5/14/1 1/8/1 4/5/1
f 33/12/1 24/15/1 25/13/1
f 6/16/1 1/8/1 5/14/1
f 34/17/1 24/15/1 33/12/1
f 34/17/1 23/18/1 24/15/1
f 7/19/1 1/8/1 6/16/1
f 8/20/1 1/8/1 7/19/1
f 34/17/1 22/21/1 23/18/1
f 35/22/1 22/21/1 34/17/1
f 9/23/1 1/8/1 8/20/1
f 35/22/1 21/24/1 22/21/1
f 10/25/1 55/26/1 9/23/1
f 55/26/1 1/8/1 9/23/1
f 35/22/1 20/27/1 21/24/1
f 11/28/1 55/26/1 10/25/1
f 35/22/1 19/29/1 20/27/1
f 12/30/1 55/26/1 11/28/1
f 36/31/1 19/29/1 35/22/1
f 13/32/1 55/26/1 12/30/1
f 36/31/1 18/33/1 19/29/1
f 14/34/1 55/26/1 13/32/1
f 36/31/1 17/35/1 18/33/1
f 15/36/1 55/26/1 14/34/1
f 36/31/1 16/37/1 17/35/1
f 16/37/1 55/26/1 15/36/1
f 36/31/1 55/26/1 16/37/1
f 36/31/1 54/38/1 55/26/1
f 56/39/1 1/8/1 55/26/1
f 37/40/1 54/38/1 36/31/1
f 37/40/1 53/41/1 54/38/1
f 37/40/1 52/42/1 53/41/1
f 38/43/1 52/42/1 37/40/1
f 38/43/1 51/44/1 52/42/1
f 39/45/1 51/44/1 38/43/1
f 39/45/1 50/46/1 51/44/1
f 39/45/1 49/47/1 50/46/1
f 40/48/1 49/47/1 39/45/1
f 40/48/1 48/49/1 49/47/1
f 40/48/1 47/50/1 48/49/1
f 41/51/1 47/50/1 40/48/1
f 41/51/1 46/52/1 47/50/1
f 42/53/1 46/52/1 41/51/1
f 42/53/1 45/54/1 46/52/1
f 42/53/1 44/55/1 45/54/1
f 43/56/1 44/55/1 42/53/1
