# Blender v2.93.0 OBJ File: ''
# www.blender.org
mtllib lowerr.mtl
o Text
v 0.069000 0.000000 -0.449000
v 0.069000 0.000000 0.000000
v 0.158000 0.000000 0.000000
v 0.158000 0.000000 -0.235000
v 0.158980 0.000000 -0.253891
v 0.161838 0.000000 -0.271958
v 0.166453 0.000000 -0.289047
v 0.172704 0.000000 -0.305000
v 0.180468 0.000000 -0.319661
v 0.189625 0.000000 -0.332875
v 0.200053 0.000000 -0.344484
v 0.211630 0.000000 -0.354333
v 0.224234 0.000000 -0.362266
v 0.237745 0.000000 -0.368125
v 0.252041 0.000000 -0.371755
v 0.267000 0.000000 -0.373000
v 0.272529 0.000000 -0.372631
v 0.278565 0.000000 -0.371546
v 0.285031 0.000000 -0.369781
v 0.291852 0.000000 -0.367370
v 0.298950 0.000000 -0.364348
v 0.306250 0.000000 -0.360750
v 0.313675 0.000000 -0.356610
v 0.321148 0.000000 -0.351963
v 0.328594 0.000000 -0.346844
v 0.335935 0.000000 -0.341287
v 0.343096 0.000000 -0.335328
v 0.350000 0.000000 -0.329000
v 0.397000 0.000000 -0.406000
v 0.387810 0.000000 -0.414376
v 0.378727 0.000000 -0.422005
v 0.369734 0.000000 -0.428891
v 0.360815 0.000000 -0.435037
v 0.351951 0.000000 -0.440447
v 0.343125 0.000000 -0.445125
v 0.334320 0.000000 -0.449074
v 0.325519 0.000000 -0.452296
v 0.316703 0.000000 -0.454797
v 0.307857 0.000000 -0.456579
v 0.298961 0.000000 -0.457645
v 0.290000 0.000000 -0.458000
v 0.279479 0.000000 -0.457305
v 0.268912 0.000000 -0.455190
v 0.258297 0.000000 -0.451609
v 0.247630 0.000000 -0.446519
v 0.236907 0.000000 -0.439872
v 0.226125 0.000000 -0.431625
v 0.215281 0.000000 -0.421732
v 0.204370 0.000000 -0.410148
v 0.193391 0.000000 -0.396828
v 0.182338 0.000000 -0.381727
v 0.171209 0.000000 -0.364799
v 0.160000 0.000000 -0.346000
v 0.158000 0.000000 -0.346000
v 0.158000 0.000000 -0.449000
vt 0.759259 0.000000
vt 0.722222 0.000000
vt 0.740741 0.000000
vt 0.703704 0.000000
vt 0.777778 0.000000
vt 0.685185 0.000000
vt 0.796296 0.000000
vt 0.666667 0.000000
vt 0.648148 0.000000
vt 0.814815 0.000000
vt 0.629630 0.000000
vt 0.018519 0.000000
vt 1.000000 0.000000
vt 0.000000 0.000000
vt 0.981481 0.000000
vt 0.833333 0.000000
vt 0.611111 0.000000
vt 0.592593 0.000000
vt 0.851852 0.000000
vt 0.574074 0.000000
vt 0.870370 0.000000
vt 0.555556 0.000000
vt 0.537037 0.000000
vt 0.888889 0.000000
vt 0.518519 0.000000
vt 0.907407 0.000000
vt 0.333333 0.000000
vt 0.351852 0.000000
vt 0.370370 0.000000
vt 0.388889 0.000000
vt 0.407407 0.000000
vt 0.425926 0.000000
vt 0.444444 0.000000
vt 0.462963 0.000000
vt 0.481481 0.000000
vt 0.500000 0.000000
vt 0.925926 0.000000
vt 0.296296 0.000000
vt 0.314815 0.000000
vt 0.944444 0.000000
vt 0.259259 0.000000
vt 0.277778 0.000000
vt 0.240741 0.000000
vt 0.222222 0.000000
vt 0.962963 0.000000
vt 0.203704 0.000000
vt 0.185185 0.000000
vt 0.111111 0.000000
vt 0.129630 0.000000
vt 0.148148 0.000000
vt 0.166667 0.000000
vt 0.092593 0.000000
vt 0.074074 0.000000
vt 0.055556 0.000000
vt 0.037037 0.000000
vn 0.0000 1.0000 0.0000
usemtl None
s off
f 42/1/1 40/2/1 41/3/1
f 42/1/1 39/4/1 40/2/1
f 43/5/1 39/4/1 42/1/1
f 43/5/1 38/6/1 39/4/1
f 44/7/1 38/6/1 43/5/1
f 44/7/1 37/8/1 38/6/1
f 44/7/1 36/9/1 37/8/1
f 45/10/1 36/9/1 44/7/1
f 45/10/1 35/11/1 36/9/1
f 2/12/1 55/13/1 1/14/1
f 2/12/1 54/15/1 55/13/1
f 46/16/1 35/11/1 45/10/1
f 46/16/1 34/17/1 35/11/1
f 46/16/1 33/18/1 34/17/1
f 47/19/1 33/18/1 46/16/1
f 47/19/1 32/20/1 33/18/1
f 48/21/1 32/20/1 47/19/1
f 48/21/1 31/22/1 32/20/1
f 48/21/1 30/23/1 31/22/1
f 49/24/1 30/23/1 48/21/1
f 49/24/1 29/25/1 30/23/1
f 50/26/1 29/25/1 49/24/1
f 50/26/1 19/27/1 29/25/1
f 19/27/1 20/28/1 29/25/1
f 20/28/1 21/29/1 29/25/1
f 21/29/1 22/30/1 29/25/1
f 22/30/1 23/31/1 29/25/1
f 23/31/1 24/32/1 29/25/1
f 24/32/1 25/33/1 29/25/1
f 25/33/1 26/34/1 29/25/1
f 26/34/1 27/35/1 29/25/1
f 27/35/1 28/36/1 29/25/1
f 51/37/1 17/38/1 50/26/1
f 17/38/1 18/39/1 50/26/1
f 18/39/1 19/27/1 50/26/1
f 52/40/1 15/41/1 51/37/1
f 15/41/1 16/42/1 51/37/1
f 16/42/1 17/38/1 51/37/1
f 52/40/1 14/43/1 15/41/1
f 52/40/1 13/44/1 14/43/1
f 53/45/1 13/44/1 52/40/1
f 53/45/1 12/46/1 13/44/1
f 53/45/1 11/47/1 12/46/1
f 2/12/1 53/45/1 54/15/1
f 2/12/1 7/48/1 53/45/1
f 7/48/1 8/49/1 53/45/1
f 8/49/1 9/50/1 53/45/1
f 9/50/1 10/51/1 53/45/1
f 10/51/1 11/47/1 53/45/1
f 2/12/1 6/52/1 7/48/1
f 2/12/1 5/53/1 6/52/1
f 2/12/1 4/54/1 5/53/1
f 2/12/1 3/55/1 4/54/1
