# Blender v2.93.0 OBJ File: ''
# www.blender.org
mtllib lowerq.mtl
o Text
v 0.354000 0.000000 0.230000
v 0.443000 0.000000 0.230000
v 0.443000 0.000000 -0.449000
v 0.279000 0.000000 -0.449000
v 0.230734 0.000000 -0.445889
v 0.189125 0.000000 -0.437111
v 0.153703 0.000000 -0.423500
v 0.124000 0.000000 -0.405889
v 0.099547 0.000000 -0.385111
v 0.079875 0.000000 -0.362000
v 0.064516 0.000000 -0.337389
v 0.053000 0.000000 -0.312111
v 0.044859 0.000000 -0.287000
v 0.039625 0.000000 -0.262889
v 0.036828 0.000000 -0.240611
v 0.036000 0.000000 -0.221000
v 0.037946 0.000000 -0.188115
v 0.043653 0.000000 -0.157088
v 0.052922 0.000000 -0.128109
v 0.065556 0.000000 -0.101370
v 0.081356 0.000000 -0.077062
v 0.100125 0.000000 -0.055375
v 0.121665 0.000000 -0.036501
v 0.145778 0.000000 -0.020630
v 0.172266 0.000000 -0.007953
v 0.200931 0.000000 0.001338
v 0.231575 0.000000 0.007053
v 0.264000 0.000000 0.009000
v 0.270392 0.000000 0.008876
v 0.277056 0.000000 0.008509
v 0.283969 0.000000 0.007906
v 0.291111 0.000000 0.007074
v 0.298462 0.000000 0.006020
v 0.306000 0.000000 0.004750
v 0.313705 0.000000 0.003272
v 0.321556 0.000000 0.001593
v 0.329531 0.000000 -0.000281
v 0.337611 0.000000 -0.002343
v 0.345774 0.000000 -0.004584
v 0.354000 0.000000 -0.007000
v 0.354000 0.000000 -0.369000
v 0.354000 0.000000 -0.086000
v 0.347210 0.000000 -0.082876
v 0.340347 0.000000 -0.080005
v 0.333422 0.000000 -0.077391
v 0.326444 0.000000 -0.075037
v 0.319425 0.000000 -0.072947
v 0.312375 0.000000 -0.071125
v 0.305304 0.000000 -0.069573
v 0.298222 0.000000 -0.068296
v 0.291141 0.000000 -0.067297
v 0.284069 0.000000 -0.066579
v 0.277019 0.000000 -0.066145
v 0.270000 0.000000 -0.066000
v 0.249751 0.000000 -0.067408
v 0.230588 0.000000 -0.071514
v 0.212641 0.000000 -0.078141
v 0.196037 0.000000 -0.087111
v 0.180906 0.000000 -0.098248
v 0.167375 0.000000 -0.111375
v 0.155573 0.000000 -0.126314
v 0.145630 0.000000 -0.142889
v 0.137672 0.000000 -0.160922
v 0.131829 0.000000 -0.180236
v 0.128229 0.000000 -0.200655
v 0.127000 0.000000 -0.222000
v 0.128517 0.000000 -0.246319
v 0.132884 0.000000 -0.268306
v 0.139828 0.000000 -0.288000
v 0.149074 0.000000 -0.305444
v 0.160348 0.000000 -0.320681
v 0.173375 0.000000 -0.333750
v 0.187881 0.000000 -0.344694
v 0.203593 0.000000 -0.353556
v 0.220234 0.000000 -0.360375
v 0.237532 0.000000 -0.365194
v 0.255212 0.000000 -0.368055
v 0.273000 0.000000 -0.369000
vt 0.051948 0.000000
vt 0.025974 0.000000
vt 0.038961 0.000000
vt 0.519481 0.000000
vt 0.012987 0.000000
vt 0.064935 0.000000
vt 0.077922 0.000000
vt 0.090909 0.000000
vt 0.103896 0.000000
vt 0.116883 0.000000
vt 1.000000 0.000000
vt 0.987013 0.000000
vt 0.532468 0.000000
vt 0.974026 0.000000
vt 0.961039 0.000000
vt 0.129870 0.000000
vt 0.948052 0.000000
vt 0.935065 0.000000
vt 0.922078 0.000000
vt 0.142857 0.000000
vt 0.909091 0.000000
vt 0.896104 0.000000
vt 0.155844 0.000000
vt 0.883117 0.000000
vt 0.870130 0.000000
vt 0.168831 0.000000
vt 0.857143 0.000000
vt 0.181818 0.000000
vt 0.844156 0.000000
vt 0.194805 0.000000
vt 0.831169 0.000000
vt 0.207792 0.000000
vt 0.818182 0.000000
vt 0.220779 0.000000
vt 0.805195 0.000000
vt 0.792208 0.000000
vt 0.233766 0.000000
vt 0.779221 0.000000
vt 0.246753 0.000000
vt 0.766234 0.000000
vt 0.753247 0.000000
vt 0.259740 0.000000
vt 0.740260 0.000000
vt 0.727273 0.000000
vt 0.545455 0.000000
vt 0.558442 0.000000
vt 0.571429 0.000000
vt 0.714286 0.000000
vt 0.584416 0.000000
vt 0.506494 0.000000
vt 0.272727 0.000000
vt 0.597403 0.000000
vt 0.610390 0.000000
vt 0.701299 0.000000
vt 0.623377 0.000000
vt 0.636364 0.000000
vt 0.649351 0.000000
vt 0.688312 0.000000
vt 0.662338 0.000000
vt 0.675325 0.000000
vt 0.285714 0.000000
vt 0.298701 0.000000
vt 0.311688 0.000000
vt 0.324675 0.000000
vt 0.493506 0.000000
vt 0.000000 0.000000
vt 0.480519 0.000000
vt 0.467532 0.000000
vt 0.454545 0.000000
vt 0.337662 0.000000
vt 0.441558 0.000000
vt 0.428571 0.000000
vt 0.415584 0.000000
vt 0.402597 0.000000
vt 0.350649 0.000000
vt 0.389610 0.000000
vt 0.376623 0.000000
vt 0.363636 0.000000
vn 0.0000 1.0000 0.0000
usemtl None
s off
f 5/1/1 3/2/1 4/3/1
f 5/1/1 41/4/1 3/2/1
f 41/4/1 2/5/1 3/2/1
f 6/6/1 41/4/1 5/1/1
f 7/7/1 41/4/1 6/6/1
f 8/8/1 41/4/1 7/7/1
f 9/9/1 41/4/1 8/8/1
f 10/10/1 78/11/1 9/9/1
f 78/11/1 41/4/1 9/9/1
f 10/10/1 77/12/1 78/11/1
f 42/13/1 2/5/1 41/4/1
f 10/10/1 76/14/1 77/12/1
f 10/10/1 75/15/1 76/14/1
f 11/16/1 75/15/1 10/10/1
f 11/16/1 74/17/1 75/15/1
f 11/16/1 73/18/1 74/17/1
f 11/16/1 72/19/1 73/18/1
f 12/20/1 72/19/1 11/16/1
f 12/20/1 71/21/1 72/19/1
f 12/20/1 70/22/1 71/21/1
f 13/23/1 70/22/1 12/20/1
f 13/23/1 69/24/1 70/22/1
f 13/23/1 68/25/1 69/24/1
f 14/26/1 68/25/1 13/23/1
f 14/26/1 67/27/1 68/25/1
f 15/28/1 67/27/1 14/26/1
f 15/28/1 66/29/1 67/27/1
f 16/30/1 66/29/1 15/28/1
f 16/30/1 65/31/1 66/29/1
f 17/32/1 65/31/1 16/30/1
f 17/32/1 64/33/1 65/31/1
f 18/34/1 64/33/1 17/32/1
f 18/34/1 63/35/1 64/33/1
f 18/34/1 62/36/1 63/35/1
f 19/37/1 62/36/1 18/34/1
f 19/37/1 61/38/1 62/36/1
f 20/39/1 61/38/1 19/37/1
f 20/39/1 60/40/1 61/38/1
f 20/39/1 59/41/1 60/40/1
f 21/42/1 59/41/1 20/39/1
f 21/42/1 58/43/1 59/41/1
f 21/42/1 57/44/1 58/43/1
f 43/45/1 2/5/1 42/13/1
f 44/46/1 2/5/1 43/45/1
f 45/47/1 2/5/1 44/46/1
f 21/42/1 56/48/1 57/44/1
f 46/49/1 40/50/1 45/47/1
f 40/50/1 2/5/1 45/47/1
f 22/51/1 56/48/1 21/42/1
f 47/52/1 40/50/1 46/49/1
f 48/53/1 40/50/1 47/52/1
f 22/51/1 55/54/1 56/48/1
f 49/55/1 40/50/1 48/53/1
f 50/56/1 40/50/1 49/55/1
f 51/57/1 40/50/1 50/56/1
f 22/51/1 54/58/1 55/54/1
f 52/59/1 40/50/1 51/57/1
f 53/60/1 40/50/1 52/59/1
f 54/58/1 40/50/1 53/60/1
f 22/51/1 40/50/1 54/58/1
f 23/61/1 40/50/1 22/51/1
f 24/62/1 40/50/1 23/61/1
f 25/63/1 40/50/1 24/62/1
f 26/64/1 40/50/1 25/63/1
f 26/64/1 39/65/1 40/50/1
f 1/66/1 2/5/1 40/50/1
f 26/64/1 38/67/1 39/65/1
f 26/64/1 37/68/1 38/67/1
f 26/64/1 36/69/1 37/68/1
f 27/70/1 36/69/1 26/64/1
f 27/70/1 35/71/1 36/69/1
f 27/70/1 34/72/1 35/71/1
f 27/70/1 33/73/1 34/72/1
f 27/70/1 32/74/1 33/73/1
f 28/75/1 32/74/1 27/70/1
f 28/75/1 31/76/1 32/74/1
f 28/75/1 30/77/1 31/76/1
f 28/75/1 29/78/1 30/77/1
