# Blender v2.93.0 OBJ File: ''
# www.blender.org
mtllib lowerx.mtl
o Text
v 0.487000 0.000000 -0.449000
v 0.373000 0.000000 -0.449000
v 0.245000 0.000000 -0.295000
v 0.112000 0.000000 -0.449000
v 0.000000 0.000000 -0.449000
v 0.189000 0.000000 -0.228000
v 0.000000 0.000000 0.000000
v 0.112000 0.000000 0.000000
v 0.245000 0.000000 -0.161000
v 0.386000 0.000000 0.000000
v 0.500000 0.000000 0.000000
v 0.302000 0.000000 -0.228000
vt 0.454545 0.000000
vt 0.272727 0.000000
vt 0.363636 0.000000
vt 0.181818 0.000000
vt 0.000000 0.000000
vt 0.090909 0.000000
vt 1.000000 0.000000
vt 0.545455 0.000000
vt 0.727273 0.000000
vt 0.909091 0.000000
vt 0.636364 0.000000
vt 0.818182 0.000000
vn 0.0000 1.0000 0.0000
usemtl None
s off
f 6/1/1 4/2/1 5/3/1
f 6/1/1 3/4/1 4/2/1
f 3/4/1 1/5/1 2/6/1
f 3/4/1 12/7/1 1/5/1
f 6/1/1 12/7/1 3/4/1
f 7/8/1 12/7/1 6/1/1
f 7/8/1 9/9/1 12/7/1
f 9/9/1 11/10/1 12/7/1
f 7/8/1 8/11/1 9/9/1
f 10/12/1 11/10/1 9/9/1
