# Blender v2.93.0 OBJ File: ''
# www.blender.org
mtllib loweru.mtl
o Text
v 0.348000 0.08 -0.057000
v 0.338451 0.08 -0.047299
v 0.328357 0.08 -0.038222
v 0.317797 0.08 -0.029812
v 0.306852 0.08 -0.022111
v 0.295601 0.08 -0.015160
v 0.284125 0.08 -0.009000
v 0.272503 0.08 -0.003674
v 0.260815 0.08 0.000778
v 0.249141 0.08 0.004312
v 0.237560 0.08 0.006889
v 0.226153 0.08 0.008465
v 0.215000 0.08 0.009000
v 0.192834 0.08 0.007655
v 0.171921 0.08 0.003657
v 0.152391 0.08 -0.002938
v 0.134370 0.08 -0.012074
v 0.117989 0.08 -0.023697
v 0.103375 0.08 -0.037750
v 0.090657 0.08 -0.054178
v 0.079963 0.08 -0.072926
v 0.071422 0.08 -0.093938
v 0.065162 0.08 -0.117157
v 0.061312 0.08 -0.142530
v 0.060000 0.08 -0.170000
v 0.060000 0.08 -0.449000
v 0.149000 0.08 -0.449000
v 0.149000 0.08 -0.164000
v 0.149645 0.08 -0.148818
v 0.151579 0.08 -0.134792
v 0.154797 0.08 -0.121953
v 0.159296 0.08 -0.110333
v 0.165074 0.08 -0.099964
v 0.172125 0.08 -0.090875
v 0.180447 0.08 -0.083099
v 0.190037 0.08 -0.076667
v 0.200891 0.08 -0.071609
v 0.213005 0.08 -0.067958
v 0.226376 0.08 -0.065745
v 0.241000 0.08 -0.065000
v 0.250954 0.08 -0.065457
v 0.260801 0.08 -0.066819
v 0.270516 0.08 -0.069078
v 0.280074 0.08 -0.072222
v 0.289452 0.08 -0.076241
v 0.298625 0.08 -0.081125
v 0.307569 0.08 -0.086863
v 0.316259 0.08 -0.093444
v 0.324672 0.08 -0.100859
v 0.332782 0.08 -0.109097
v 0.340567 0.08 -0.118148
v 0.348000 0.08 -0.128000
v 0.348000 0.08 -0.449000
v 0.437000 0.08 -0.449000
v 0.437000 0.08 0.000000
v 0.348000 0.08 0.000000
v 0.348000 0 -0.057000
v 0.338451 0 -0.047299
v 0.328357 0 -0.038222
v 0.317797 0 -0.029812
v 0.306852 0 -0.022111
v 0.295601 0 -0.015160
v 0.284125 0 -0.009000
v 0.272503 0 -0.003674
v 0.260815 0 0.000778
v 0.249141 0 0.004312
v 0.237560 0 0.006889
v 0.226153 0 0.008465
v 0.215000 0 0.009000
v 0.192834 0 0.007655
v 0.171921 0 0.003657
v 0.152391 0 -0.002938
v 0.134370 0 -0.012074
v 0.117989 0 -0.023697
v 0.103375 0 -0.037750
v 0.090657 0 -0.054178
v 0.079963 0 -0.072926
v 0.071422 0 -0.093938
v 0.065162 0 -0.117157
v 0.061312 0 -0.142530
v 0.060000 0 -0.170000
v 0.060000 0 -0.449000
v 0.149000 0 -0.449000
v 0.149000 0 -0.164000
v 0.149645 0 -0.148818
v 0.151579 0 -0.134792
v 0.154797 0 -0.121953
v 0.159296 0 -0.110333
v 0.165074 0 -0.099964
v 0.172125 0 -0.090875
v 0.180447 0 -0.083099
v 0.190037 0 -0.076667
v 0.200891 0 -0.071609
v 0.213005 0 -0.067958
v 0.226376 0 -0.065745
v 0.241000 0 -0.065000
v 0.250954 0 -0.065457
v 0.260801 0 -0.066819
v 0.270516 0 -0.069078
v 0.280074 0 -0.072222
v 0.289452 0 -0.076241
v 0.298625 0 -0.081125
v 0.307569 0 -0.086863
v 0.316259 0 -0.093444
v 0.324672 0 -0.100859
v 0.332782 0 -0.109097
v 0.340567 0 -0.118148
v 0.348000 0 -0.128000
v 0.348000 0 -0.449000
v 0.437000 0 -0.449000
v 0.437000 0 0.000000
v 0.348000 0 0.000000
v 0.348000 0 -0.057000
v 0.348000 0.08 -0.057000
v 0.338451 0 -0.047299
v 0.338451 0.08 -0.047299
v 0.328357 0 -0.038222
v 0.328357 0.08 -0.038222
v 0.317797 0 -0.029812
v 0.317797 0.08 -0.029812
v 0.306852 0 -0.022111
v 0.306852 0.08 -0.022111
v 0.295601 0 -0.015160
v 0.295601 0.08 -0.015160
v 0.284125 0 -0.009000
v 0.284125 0.08 -0.009000
v 0.272503 0 -0.003674
v 0.272503 0.08 -0.003674
v 0.260815 0 0.000778
v 0.260815 0.08 0.000778
v 0.249141 0 0.004312
v 0.249141 0.08 0.004312
v 0.237560 0 0.006889
v 0.237560 0.08 0.006889
v 0.226153 0 0.008465
v 0.226153 0.08 0.008465
v 0.215000 0 0.009000
v 0.215000 0.08 0.009000
v 0.192834 0 0.007655
v 0.192834 0.08 0.007655
v 0.171921 0 0.003657
v 0.171921 0.08 0.003657
v 0.152391 0 -0.002938
v 0.152391 0.08 -0.002938
v 0.134370 0 -0.012074
v 0.134370 0.08 -0.012074
v 0.117989 0 -0.023697
v 0.117989 0.08 -0.023697
v 0.103375 0 -0.037750
v 0.103375 0.08 -0.037750
v 0.090657 0 -0.054178
v 0.090657 0.08 -0.054178
v 0.079963 0 -0.072926
v 0.079963 0.08 -0.072926
v 0.071422 0 -0.093938
v 0.071422 0.08 -0.093938
v 0.065162 0 -0.117157
v 0.065162 0.08 -0.117157
v 0.061312 0 -0.142530
v 0.061312 0.08 -0.142530
v 0.060000 0 -0.170000
v 0.060000 0.08 -0.170000
v 0.060000 0 -0.449000
v 0.060000 0.08 -0.449000
v 0.149000 0 -0.449000
v 0.149000 0.08 -0.449000
v 0.149000 0 -0.164000
v 0.149000 0.08 -0.164000
v 0.149645 0 -0.148818
v 0.149645 0.08 -0.148818
v 0.151579 0 -0.134792
v 0.151579 0.08 -0.134792
v 0.154797 0 -0.121953
v 0.154797 0.08 -0.121953
v 0.159296 0 -0.110333
v 0.159296 0.08 -0.110333
v 0.165074 0 -0.099964
v 0.165074 0.08 -0.099964
v 0.172125 0 -0.090875
v 0.172125 0.08 -0.090875
v 0.180447 0 -0.083099
v 0.180447 0.08 -0.083099
v 0.190037 0 -0.076667
v 0.190037 0.08 -0.076667
v 0.200891 0 -0.071609
v 0.200891 0.08 -0.071609
v 0.213005 0 -0.067958
v 0.213005 0.08 -0.067958
v 0.226376 0 -0.065745
v 0.226376 0.08 -0.065745
v 0.241000 0 -0.065000
v 0.241000 0.08 -0.065000
v 0.250954 0 -0.065457
v 0.250954 0.08 -0.065457
v 0.260801 0 -0.066819
v 0.260801 0.08 -0.066819
v 0.270516 0 -0.069078
v 0.270516 0.08 -0.069078
v 0.280074 0 -0.072222
v 0.280074 0.08 -0.072222
v 0.289452 0 -0.076241
v 0.289452 0.08 -0.076241
v 0.298625 0 -0.081125
v 0.298625 0.08 -0.081125
v 0.307569 0 -0.086863
v 0.307569 0.08 -0.086863
v 0.316259 0 -0.093444
v 0.316259 0.08 -0.093444
v 0.324672 0 -0.100859
v 0.324672 0.08 -0.100859
v 0.332782 0 -0.109097
v 0.332782 0.08 -0.109097
v 0.340567 0 -0.118148
v 0.340567 0.08 -0.118148
v 0.348000 0 -0.128000
v 0.348000 0.08 -0.128000
v 0.348000 0 -0.449000
v 0.348000 0.08 -0.449000
v 0.437000 0 -0.449000
v 0.437000 0.08 -0.449000
v 0.437000 0 0.000000
v 0.437000 0.08 0.000000
v 0.348000 0 0.000000
v 0.348000 0.08 0.000000
vt 0.436364 0.000000
vt 0.472727 0.000000
vt 0.454545 0.000000
vt 0.490909 0.000000
vt 0.927273 0.000000
vt 0.963636 0.000000
vt 0.945455 0.000000
vt 0.981818 0.000000
vt 0.418182 0.000000
vt 0.509091 0.000000
vt 0.527273 0.000000
vt 0.400000 0.000000
vt 0.545455 0.000000
vt 0.909091 0.000000
vt 0.563636 0.000000
vt 0.890909 0.000000
vt 0.381818 0.000000
vt 0.581818 0.000000
vt 0.872727 0.000000
vt 0.854545 0.000000
vt 0.600000 0.000000
vt 0.363636 0.000000
vt 0.836364 0.000000
vt 0.618182 0.000000
vt 0.818182 0.000000
vt 0.000000 0.000000
vt 0.636364 0.000000
vt 0.800000 0.000000
vt 0.654545 0.000000
vt 0.781818 0.000000
vt 0.345455 0.000000
vt 0.763636 0.000000
vt 0.672727 0.000000
vt 0.745455 0.000000
vt 0.690909 0.000000
vt 0.727273 0.000000
vt 0.709091 0.000000
vt 0.018182 0.000000
vt 1.000000 0.000000
vt 0.327273 0.000000
vt 0.036364 0.000000
vt 0.054545 0.000000
vt 0.309091 0.000000
vt 0.072727 0.000000
vt 0.290909 0.000000
vt 0.090909 0.000000
vt 0.109091 0.000000
vt 0.272727 0.000000
vt 0.127273 0.000000
vt 0.145455 0.000000
vt 0.254545 0.000000
vt 0.163636 0.000000
vt 0.236364 0.000000
vt 0.181818 0.000000
vt 0.200000 0.000000
vt 0.218182 0.000000
vt 0.436364 0.000000
vt 0.454545 0.000000
vt 0.472727 0.000000
vt 0.490909 0.000000
vt 0.927273 0.000000
vt 0.945455 0.000000
vt 0.963636 0.000000
vt 0.981818 0.000000
vt 0.418182 0.000000
vt 0.509091 0.000000
vt 0.527273 0.000000
vt 0.400000 0.000000
vt 0.545455 0.000000
vt 0.909091 0.000000
vt 0.563636 0.000000
vt 0.890909 0.000000
vt 0.381818 0.000000
vt 0.581818 0.000000
vt 0.872727 0.000000
vt 0.854545 0.000000
vt 0.600000 0.000000
vt 0.363636 0.000000
vt 0.836364 0.000000
vt 0.618182 0.000000
vt 0.818182 0.000000
vt 0.000000 0.000000
vt 0.636364 0.000000
vt 0.800000 0.000000
vt 0.654545 0.000000
vt 0.781818 0.000000
vt 0.345455 0.000000
vt 0.763636 0.000000
vt 0.672727 0.000000
vt 0.745455 0.000000
vt 0.690909 0.000000
vt 0.727273 0.000000
vt 0.709091 0.000000
vt 0.018182 0.000000
vt 1.000000 0.000000
vt 0.327273 0.000000
vt 0.036364 0.000000
vt 0.054545 0.000000
vt 0.309091 0.000000
vt 0.072727 0.000000
vt 0.290909 0.000000
vt 0.090909 0.000000
vt 0.109091 0.000000
vt 0.272727 0.000000
vt 0.127273 0.000000
vt 0.145455 0.000000
vt 0.254545 0.000000
vt 0.163636 0.000000
vt 0.236364 0.000000
vt 0.181818 0.000000
vt 0.200000 0.000000
vt 0.218182 0.000000
vt 0.000000 1.000000
vt 0.017857 1.000000
vt 0.017857 0.000000
vt 0.000000 0.000000
vt 0.035714 1.000000
vt 0.035714 0.000000
vt 0.053571 1.000000
vt 0.053571 0.000000
vt 0.071429 1.000000
vt 0.071429 0.000000
vt 0.089286 1.000000
vt 0.089286 0.000000
vt 0.107143 1.000000
vt 0.107143 0.000000
vt 0.125000 1.000000
vt 0.125000 0.000000
vt 0.142857 1.000000
vt 0.142857 0.000000
vt 0.160714 1.000000
vt 0.160714 0.000000
vt 0.178571 1.000000
vt 0.178571 0.000000
vt 0.196429 1.000000
vt 0.196429 0.000000
vt 0.214286 1.000000
vt 0.214286 0.000000
vt 0.232143 1.000000
vt 0.232143 0.000000
vt 0.250000 1.000000
vt 0.250000 0.000000
vt 0.267857 1.000000
vt 0.267857 0.000000
vt 0.285714 1.000000
vt 0.285714 0.000000
vt 0.303571 1.000000
vt 0.303571 0.000000
vt 0.321429 1.000000
vt 0.321429 0.000000
vt 0.339286 1.000000
vt 0.339286 0.000000
vt 0.357143 1.000000
vt 0.357143 0.000000
vt 0.375000 1.000000
vt 0.375000 0.000000
vt 0.392857 1.000000
vt 0.392857 0.000000
vt 0.410714 1.000000
vt 0.410714 0.000000
vt 0.428571 1.000000
vt 0.428571 0.000000
vt 0.446429 1.000000
vt 0.446429 0.000000
vt 0.464286 1.000000
vt 0.464286 0.000000
vt 0.482143 1.000000
vt 0.482143 0.000000
vt 0.500000 1.000000
vt 0.500000 0.000000
vt 0.517857 1.000000
vt 0.517857 0.000000
vt 0.535714 1.000000
vt 0.535714 0.000000
vt 0.553571 1.000000
vt 0.553571 0.000000
vt 0.571429 1.000000
vt 0.571429 0.000000
vt 0.589286 1.000000
vt 0.589286 0.000000
vt 0.607143 1.000000
vt 0.607143 0.000000
vt 0.625000 1.000000
vt 0.625000 0.000000
vt 0.642857 1.000000
vt 0.642857 0.000000
vt 0.660714 1.000000
vt 0.660714 0.000000
vt 0.678571 1.000000
vt 0.678571 0.000000
vt 0.696429 1.000000
vt 0.696429 0.000000
vt 0.714286 1.000000
vt 0.714286 0.000000
vt 0.732143 1.000000
vt 0.732143 0.000000
vt 0.750000 1.000000
vt 0.750000 0.000000
vt 0.767857 1.000000
vt 0.767857 0.000000
vt 0.785714 1.000000
vt 0.785714 0.000000
vt 0.803571 1.000000
vt 0.803571 0.000000
vt 0.821429 1.000000
vt 0.821429 0.000000
vt 0.839286 1.000000
vt 0.839286 0.000000
vt 0.857143 1.000000
vt 0.857143 0.000000
vt 0.875000 1.000000
vt 0.875000 0.000000
vt 0.892857 1.000000
vt 0.892857 0.000000
vt 0.910714 1.000000
vt 0.910714 0.000000
vt 0.928571 1.000000
vt 0.928571 0.000000
vt 0.946429 1.000000
vt 0.946429 0.000000
vt 0.964286 1.000000
vt 0.964286 0.000000
vt 0.982143 1.000000
vt 0.982143 0.000000
vt 1.000000 1.000000
vt 1.000000 0.000000
vn 0.0000 1.0000 0.0000
vn 0.0000 -1.0000 0.0000
vn -0.3790 0.0000 0.9254
vn 0.6909 0.0000 0.7229
vn 0.6461 0.0000 0.7632
vn 0.5995 0.0000 0.8004
vn 0.5508 0.0000 0.8346
vn 0.4995 0.0000 0.8663
vn 0.4450 0.0000 0.8955
vn 0.3865 0.0000 0.9223
vn 0.3230 0.0000 0.9464
vn 0.2536 0.0000 0.9673
vn 0.1772 0.0000 0.9842
vn 0.0925 0.0000 0.9957
vn -0.0063 0.0000 1.0000
vn -0.1244 0.0000 0.9922
vn -0.2544 0.0000 0.9671
vn -0.3870 0.0000 0.9220
vn -0.5168 0.0000 0.8561
vn -0.6377 0.0000 0.7703
vn -0.7439 0.0000 0.6683
vn -0.8317 0.0000 0.5552
vn -0.8995 0.0000 0.4370
vn -0.9477 0.0000 0.3190
vn -0.9786 0.0000 0.2055
vn -0.9951 0.0000 0.0990
vn -0.9997 0.0000 0.0238
vn -0.7071 0.0000 -0.7071
vn 0.7071 0.0000 -0.7071
vn 0.9998 0.0000 -0.0212
vn 0.9960 0.0000 -0.0896
vn 0.9817 0.0000 -0.1901
vn 0.9531 0.0000 -0.3027
vn 0.9052 0.0000 -0.4249
vn 0.8342 0.0000 -0.5514
vn 0.7387 0.0000 -0.6740
vn 0.6219 0.0000 -0.7831
vn 0.4912 0.0000 -0.8711
vn 0.3564 0.0000 -0.9343
vn 0.2264 0.0000 -0.9740
vn 0.1072 0.0000 -0.9942
vn 0.0025 0.0000 -1.0000
vn -0.0916 0.0000 -0.9958
vn -0.1820 0.0000 -0.9833
vn -0.2697 0.0000 -0.9629
vn -0.3535 0.0000 -0.9354
vn -0.4323 0.0000 -0.9017
vn -0.5054 0.0000 -0.8629
vn -0.5723 0.0000 -0.8200
vn -0.6329 0.0000 -0.7742
vn -0.6873 0.0000 -0.7263
vn -0.7358 0.0000 -0.6772
vn -0.7786 0.0000 -0.6275
vn -0.9482 0.0000 -0.3176
vn 0.7071 0.0000 0.7071
vn -0.7071 0.0000 0.7071
usemtl None
s off
f 25/1/1 27/2/1 26/3/1
f 25/1/1 28/4/1 27/2/1
f 52/5/1 54/6/1 53/7/1
f 52/5/1 55/8/1 54/6/1
f 24/9/1 28/4/1 25/1/1
f 24/9/1 29/10/1 28/4/1
f 24/9/1 30/11/1 29/10/1
f 23/12/1 30/11/1 24/9/1
f 23/12/1 31/13/1 30/11/1
f 51/14/1 55/8/1 52/5/1
f 23/12/1 32/15/1 31/13/1
f 50/16/1 55/8/1 51/14/1
f 22/17/1 32/15/1 23/12/1
f 22/17/1 33/18/1 32/15/1
f 49/19/1 55/8/1 50/16/1
f 48/20/1 55/8/1 49/19/1
f 22/17/1 34/21/1 33/18/1
f 21/22/1 34/21/1 22/17/1
f 47/23/1 55/8/1 48/20/1
f 21/22/1 35/24/1 34/21/1
f 46/25/1 1/26/1 47/23/1
f 1/26/1 55/8/1 47/23/1
f 21/22/1 36/27/1 35/24/1
f 45/28/1 1/26/1 46/25/1
f 21/22/1 37/29/1 36/27/1
f 44/30/1 1/26/1 45/28/1
f 20/31/1 37/29/1 21/22/1
f 43/32/1 1/26/1 44/30/1
f 20/31/1 38/33/1 37/29/1
f 42/34/1 1/26/1 43/32/1
f 20/31/1 39/35/1 38/33/1
f 41/36/1 1/26/1 42/34/1
f 20/31/1 40/37/1 39/35/1
f 40/37/1 1/26/1 41/36/1
f 20/31/1 1/26/1 40/37/1
f 20/31/1 2/38/1 1/26/1
f 56/39/1 55/8/1 1/26/1
f 19/40/1 2/38/1 20/31/1
f 19/40/1 3/41/1 2/38/1
f 19/40/1 4/42/1 3/41/1
f 18/43/1 4/42/1 19/40/1
f 18/43/1 5/44/1 4/42/1
f 17/45/1 5/44/1 18/43/1
f 17/45/1 6/46/1 5/44/1
f 17/45/1 7/47/1 6/46/1
f 16/48/1 7/47/1 17/45/1
f 16/48/1 8/49/1 7/47/1
f 16/48/1 9/50/1 8/49/1
f 15/51/1 9/50/1 16/48/1
f 15/51/1 10/52/1 9/50/1
f 14/53/1 10/52/1 15/51/1
f 14/53/1 11/54/1 10/52/1
f 14/53/1 12/55/1 11/54/1
f 13/56/1 12/55/1 14/53/1
f 81/57/2 82/58/2 83/59/2
f 81/57/2 83/59/2 84/60/2
f 108/61/2 109/62/2 110/63/2
f 108/61/2 110/63/2 111/64/2
f 80/65/2 81/57/2 84/60/2
f 80/65/2 84/60/2 85/66/2
f 80/65/2 85/66/2 86/67/2
f 79/68/2 80/65/2 86/67/2
f 79/68/2 86/67/2 87/69/2
f 107/70/2 108/61/2 111/64/2
f 79/68/2 87/69/2 88/71/2
f 106/72/2 107/70/2 111/64/2
f 78/73/2 79/68/2 88/71/2
f 78/73/2 88/71/2 89/74/2
f 105/75/2 106/72/2 111/64/2
f 104/76/2 105/75/2 111/64/2
f 78/73/2 89/74/2 90/77/2
f 77/78/2 78/73/2 90/77/2
f 103/79/2 104/76/2 111/64/2
f 77/78/2 90/77/2 91/80/2
f 102/81/2 103/79/2 57/82/2
f 57/82/2 103/79/2 111/64/2
f 77/78/2 91/80/2 92/83/2
f 101/84/2 102/81/2 57/82/2
f 77/78/2 92/83/2 93/85/2
f 100/86/2 101/84/2 57/82/2
f 76/87/2 77/78/2 93/85/2
f 99/88/2 100/86/2 57/82/2
f 76/87/2 93/85/2 94/89/2
f 98/90/2 99/88/2 57/82/2
f 76/87/2 94/89/2 95/91/2
f 97/92/2 98/90/2 57/82/2
f 76/87/2 95/91/2 96/93/2
f 96/93/2 97/92/2 57/82/2
f 76/87/2 96/93/2 57/82/2
f 76/87/2 57/82/2 58/94/2
f 112/95/2 57/82/2 111/64/2
f 75/96/2 76/87/2 58/94/2
f 75/96/2 58/94/2 59/97/2
f 75/96/2 59/97/2 60/98/2
f 74/99/2 75/96/2 60/98/2
f 74/99/2 60/98/2 61/100/2
f 73/101/2 74/99/2 61/100/2
f 73/101/2 61/100/2 62/102/2
f 73/101/2 62/102/2 63/103/2
f 72/104/2 73/101/2 63/103/2
f 72/104/2 63/103/2 64/105/2
f 72/104/2 64/105/2 65/106/2
f 71/107/2 72/104/2 65/106/2
f 71/107/2 65/106/2 66/108/2
f 70/109/2 71/107/2 66/108/2
f 70/109/2 66/108/2 67/110/2
f 70/109/2 67/110/2 68/111/2
f 69/112/2 70/109/2 68/111/2
s 1
f 114/113/3 116/114/4 115/115/4 113/116/3
f 116/114/4 118/117/5 117/118/5 115/115/4
f 118/117/5 120/119/6 119/120/6 117/118/5
f 120/119/6 122/121/7 121/122/7 119/120/6
f 122/121/7 124/123/8 123/124/8 121/122/7
f 124/123/8 126/125/9 125/126/9 123/124/8
f 126/125/9 128/127/10 127/128/10 125/126/9
f 128/127/10 130/129/11 129/130/11 127/128/10
f 130/129/11 132/131/12 131/132/12 129/130/11
f 132/131/12 134/133/13 133/134/13 131/132/12
f 134/133/13 136/135/14 135/136/14 133/134/13
f 136/135/14 138/137/15 137/138/15 135/136/14
f 138/137/15 140/139/16 139/140/16 137/138/15
f 140/139/16 142/141/17 141/142/17 139/140/16
f 142/141/17 144/143/18 143/144/18 141/142/17
f 144/143/18 146/145/19 145/146/19 143/144/18
f 146/145/19 148/147/20 147/148/20 145/146/19
f 148/147/20 150/149/21 149/150/21 147/148/20
f 150/149/21 152/151/22 151/152/22 149/150/21
f 152/151/22 154/153/23 153/154/23 151/152/22
f 154/153/23 156/155/24 155/156/24 153/154/23
f 156/155/24 158/157/25 157/158/25 155/156/24
f 158/157/25 160/159/26 159/160/26 157/158/25
f 160/159/26 162/161/27 161/162/27 159/160/26
f 162/161/27 164/163/28 163/164/28 161/162/27
f 164/163/28 166/165/29 165/166/29 163/164/28
f 166/165/29 168/167/30 167/168/30 165/166/29
f 168/167/30 170/169/31 169/170/31 167/168/30
f 170/169/31 172/171/32 171/172/32 169/170/31
f 172/171/32 174/173/33 173/174/33 171/172/32
f 174/173/33 176/175/34 175/176/34 173/174/33
f 176/175/34 178/177/35 177/178/35 175/176/34
f 178/177/35 180/179/36 179/180/36 177/178/35
f 180/179/36 182/181/37 181/182/37 179/180/36
f 182/181/37 184/183/38 183/184/38 181/182/37
f 184/183/38 186/185/39 185/186/39 183/184/38
f 186/185/39 188/187/40 187/188/40 185/186/39
f 188/187/40 190/189/41 189/190/41 187/188/40
f 190/189/41 192/191/42 191/192/42 189/190/41
f 192/191/42 194/193/43 193/194/43 191/192/42
f 194/193/43 196/195/44 195/196/44 193/194/43
f 196/195/44 198/197/45 197/198/45 195/196/44
f 198/197/45 200/199/46 199/200/46 197/198/45
f 200/199/46 202/201/47 201/202/47 199/200/46
f 202/201/47 204/203/48 203/204/48 201/202/47
f 204/203/48 206/205/49 205/206/49 203/204/48
f 206/205/49 208/207/50 207/208/50 205/206/49
f 208/207/50 210/209/51 209/210/51 207/208/50
f 210/209/51 212/211/52 211/212/52 209/210/51
f 212/211/52 214/213/53 213/214/53 211/212/52
f 214/213/53 216/215/54 215/216/54 213/214/53
f 216/215/54 218/217/28 217/218/28 215/216/54
f 218/217/28 220/219/29 219/220/29 217/218/28
f 220/219/29 222/221/55 221/222/55 219/220/29
f 222/221/55 224/223/56 223/224/56 221/222/55
f 224/223/56 114/225/3 113/226/3 223/224/56
