# Blender v2.93.0 OBJ File: ''
# www.blender.org
mtllib capitalD.mtl
o Text
v 0.341000 0.08 -0.682000
v 0.401080 0.08 -0.678365
v 0.455389 0.08 -0.667921
v 0.504031 0.08 -0.651359
v 0.547111 0.08 -0.629370
v 0.584733 0.08 -0.602645
v 0.617000 0.08 -0.571875
v 0.644017 0.08 -0.537751
v 0.665889 0.08 -0.500963
v 0.682719 0.08 -0.462203
v 0.694611 0.08 -0.422162
v 0.701670 0.08 -0.381531
v 0.704000 0.08 -0.341000
v 0.701174 0.08 -0.297528
v 0.692810 0.08 -0.254977
v 0.679078 0.08 -0.213891
v 0.660148 0.08 -0.174815
v 0.636190 0.08 -0.138295
v 0.607375 0.08 -0.104875
v 0.573872 0.08 -0.075101
v 0.535852 0.08 -0.049519
v 0.493484 0.08 -0.028672
v 0.446940 0.08 -0.013106
v 0.396388 0.08 -0.003367
v 0.342000 0.08 0.000000
v 0.076000 0.08 0.000000
v 0.076000 0.08 -0.682000
v 0.330000 0.08 -0.088000
v 0.382007 0.08 -0.091374
v 0.427306 0.08 -0.100907
v 0.466313 0.08 -0.115719
v 0.499444 0.08 -0.134926
v 0.527118 0.08 -0.157647
v 0.549750 0.08 -0.183000
v 0.567757 0.08 -0.210103
v 0.581556 0.08 -0.238074
v 0.591563 0.08 -0.266031
v 0.598194 0.08 -0.293093
v 0.601868 0.08 -0.318376
v 0.603000 0.08 -0.341000
v 0.601178 0.08 -0.374758
v 0.595671 0.08 -0.407310
v 0.586422 0.08 -0.438328
v 0.573370 0.08 -0.467481
v 0.556458 0.08 -0.494440
v 0.535625 0.08 -0.518875
v 0.510813 0.08 -0.540455
v 0.481963 0.08 -0.558852
v 0.449016 0.08 -0.573734
v 0.411912 0.08 -0.584773
v 0.370593 0.08 -0.591638
v 0.325000 0.08 -0.594000
v 0.174000 0.08 -0.594000
v 0.174000 0.08 -0.088000
v 0.341000 0 -0.682000
v 0.401080 0 -0.678365
v 0.455389 0 -0.667921
v 0.504031 0 -0.651359
v 0.547111 0 -0.629370
v 0.584733 0 -0.602645
v 0.617000 0 -0.571875
v 0.644017 0 -0.537751
v 0.665889 0 -0.500963
v 0.682719 0 -0.462203
v 0.694611 0 -0.422162
v 0.701670 0 -0.381531
v 0.704000 0 -0.341000
v 0.701174 0 -0.297528
v 0.692810 0 -0.254977
v 0.679078 0 -0.213891
v 0.660148 0 -0.174815
v 0.636190 0 -0.138295
v 0.607375 0 -0.104875
v 0.573872 0 -0.075101
v 0.535852 0 -0.049519
v 0.493484 0 -0.028672
v 0.446940 0 -0.013106
v 0.396388 0 -0.003367
v 0.342000 0 0.000000
v 0.076000 0 0.000000
v 0.076000 0 -0.682000
v 0.330000 0 -0.088000
v 0.382007 0 -0.091374
v 0.427306 0 -0.100907
v 0.466313 0 -0.115719
v 0.499444 0 -0.134926
v 0.527118 0 -0.157647
v 0.549750 0 -0.183000
v 0.567757 0 -0.210103
v 0.581556 0 -0.238074
v 0.591563 0 -0.266031
v 0.598194 0 -0.293093
v 0.601868 0 -0.318376
v 0.603000 0 -0.341000
v 0.601178 0 -0.374758
v 0.595671 0 -0.407310
v 0.586422 0 -0.438328
v 0.573370 0 -0.467481
v 0.556458 0 -0.494440
v 0.535625 0 -0.518875
v 0.510813 0 -0.540455
v 0.481963 0 -0.558852
v 0.449016 0 -0.573734
v 0.411912 0 -0.584773
v 0.370593 0 -0.591638
v 0.325000 0 -0.594000
v 0.174000 0 -0.594000
v 0.174000 0 -0.088000
v 0.341000 0 -0.682000
v 0.341000 0.08 -0.682000
v 0.401080 0 -0.678365
v 0.401080 0.08 -0.678365
v 0.455389 0 -0.667921
v 0.455389 0.08 -0.667921
v 0.504031 0 -0.651359
v 0.504031 0.08 -0.651359
v 0.547111 0 -0.629370
v 0.547111 0.08 -0.629370
v 0.584733 0 -0.602645
v 0.584733 0.08 -0.602645
v 0.617000 0 -0.571875
v 0.617000 0.08 -0.571875
v 0.644017 0 -0.537751
v 0.644017 0.08 -0.537751
v 0.665889 0 -0.500963
v 0.665889 0.08 -0.500963
v 0.682719 0 -0.462203
v 0.682719 0.08 -0.462203
v 0.694611 0 -0.422162
v 0.694611 0.08 -0.422162
v 0.701670 0 -0.381531
v 0.701670 0.08 -0.381531
v 0.704000 0 -0.341000
v 0.704000 0.08 -0.341000
v 0.701174 0 -0.297528
v 0.701174 0.08 -0.297528
v 0.692810 0 -0.254977
v 0.692810 0.08 -0.254977
v 0.679078 0 -0.213891
v 0.679078 0.08 -0.213891
v 0.660148 0 -0.174815
v 0.660148 0.08 -0.174815
v 0.636190 0 -0.138295
v 0.636190 0.08 -0.138295
v 0.607375 0 -0.104875
v 0.607375 0.08 -0.104875
v 0.573872 0 -0.075101
v 0.573872 0.08 -0.075101
v 0.535852 0 -0.049519
v 0.535852 0.08 -0.049519
v 0.493484 0 -0.028672
v 0.493484 0.08 -0.028672
v 0.446940 0 -0.013106
v 0.446940 0.08 -0.013106
v 0.396388 0 -0.003367
v 0.396388 0.08 -0.003367
v 0.342000 0 0.000000
v 0.342000 0.08 0.000000
v 0.076000 0 0.000000
v 0.076000 0.08 0.000000
v 0.076000 0 -0.682000
v 0.076000 0.08 -0.682000
v 0.330000 0 -0.088000
v 0.330000 0.08 -0.088000
v 0.382007 0 -0.091374
v 0.382007 0.08 -0.091374
v 0.427306 0 -0.100907
v 0.427306 0.08 -0.100907
v 0.466313 0 -0.115719
v 0.466313 0.08 -0.115719
v 0.499444 0 -0.134926
v 0.499444 0.08 -0.134926
v 0.527118 0 -0.157647
v 0.527118 0.08 -0.157647
v 0.549750 0 -0.183000
v 0.549750 0.08 -0.183000
v 0.567757 0 -0.210103
v 0.567757 0.08 -0.210103
v 0.581556 0 -0.238074
v 0.581556 0.08 -0.238074
v 0.591563 0 -0.266031
v 0.591563 0.08 -0.266031
v 0.598194 0 -0.293093
v 0.598194 0.08 -0.293093
v 0.601868 0 -0.318376
v 0.601868 0.08 -0.318376
v 0.603000 0 -0.341000
v 0.603000 0.08 -0.341000
v 0.601178 0 -0.374758
v 0.601178 0.08 -0.374758
v 0.595671 0 -0.407310
v 0.595671 0.08 -0.407310
v 0.586422 0 -0.438328
v 0.586422 0.08 -0.438328
v 0.573370 0 -0.467481
v 0.573370 0.08 -0.467481
v 0.556458 0 -0.494440
v 0.556458 0.08 -0.494440
v 0.535625 0 -0.518875
v 0.535625 0.08 -0.518875
v 0.510813 0 -0.540455
v 0.510813 0.08 -0.540455
v 0.481963 0 -0.558852
v 0.481963 0.08 -0.558852
v 0.449016 0 -0.573734
v 0.449016 0.08 -0.573734
v 0.411912 0 -0.584773
v 0.411912 0.08 -0.584773
v 0.370593 0 -0.591638
v 0.370593 0.08 -0.591638
v 0.325000 0 -0.594000
v 0.325000 0.08 -0.594000
v 0.174000 0 -0.594000
v 0.174000 0.08 -0.594000
v 0.174000 0 -0.088000
v 0.174000 0.08 -0.088000
vt 0.471698 0.000000
vt 0.981132 0.000000
vt 0.490566 0.000000
vt 0.000000 0.000000
vt 0.018868 0.000000
vt 0.037736 0.000000
vt 0.056604 0.000000
vt 0.075472 0.000000
vt 0.094340 0.000000
vt 0.962264 0.000000
vt 0.943396 0.000000
vt 0.113208 0.000000
vt 1.000000 0.000000
vt 0.924528 0.000000
vt 0.905660 0.000000
vt 0.886792 0.000000
vt 0.132075 0.000000
vt 0.867925 0.000000
vt 0.849057 0.000000
vt 0.150943 0.000000
vt 0.830189 0.000000
vt 0.169811 0.000000
vt 0.811321 0.000000
vt 0.792453 0.000000
vt 0.188679 0.000000
vt 0.773585 0.000000
vt 0.207547 0.000000
vt 0.754717 0.000000
vt 0.226415 0.000000
vt 0.735849 0.000000
vt 0.716981 0.000000
vt 0.245283 0.000000
vt 0.698113 0.000000
vt 0.264151 0.000000
vt 0.679245 0.000000
vt 0.660377 0.000000
vt 0.283019 0.000000
vt 0.641509 0.000000
vt 0.301887 0.000000
vt 0.622642 0.000000
vt 0.603774 0.000000
vt 0.320755 0.000000
vt 0.584906 0.000000
vt 0.339623 0.000000
vt 0.566038 0.000000
vt 0.547170 0.000000
vt 0.358491 0.000000
vt 0.528302 0.000000
vt 0.509434 0.000000
vt 0.377358 0.000000
vt 0.396226 0.000000
vt 0.415094 0.000000
vt 0.433962 0.000000
vt 0.452830 0.000000
vt 0.471698 0.000000
vt 0.490566 0.000000
vt 0.981132 0.000000
vt 0.000000 0.000000
vt 0.018868 0.000000
vt 0.037736 0.000000
vt 0.056604 0.000000
vt 0.075472 0.000000
vt 0.094340 0.000000
vt 0.962264 0.000000
vt 0.943396 0.000000
vt 0.113208 0.000000
vt 1.000000 0.000000
vt 0.924528 0.000000
vt 0.905660 0.000000
vt 0.886792 0.000000
vt 0.132075 0.000000
vt 0.867925 0.000000
vt 0.849057 0.000000
vt 0.150943 0.000000
vt 0.830189 0.000000
vt 0.169811 0.000000
vt 0.811321 0.000000
vt 0.792453 0.000000
vt 0.188679 0.000000
vt 0.773585 0.000000
vt 0.207547 0.000000
vt 0.754717 0.000000
vt 0.226415 0.000000
vt 0.735849 0.000000
vt 0.716981 0.000000
vt 0.245283 0.000000
vt 0.698113 0.000000
vt 0.264151 0.000000
vt 0.679245 0.000000
vt 0.660377 0.000000
vt 0.283019 0.000000
vt 0.641509 0.000000
vt 0.301887 0.000000
vt 0.622642 0.000000
vt 0.603774 0.000000
vt 0.320755 0.000000
vt 0.584906 0.000000
vt 0.339623 0.000000
vt 0.566038 0.000000
vt 0.547170 0.000000
vt 0.358491 0.000000
vt 0.528302 0.000000
vt 0.509434 0.000000
vt 0.377358 0.000000
vt 0.396226 0.000000
vt 0.415094 0.000000
vt 0.433962 0.000000
vt 0.452830 0.000000
vt 0.000000 1.000000
vt 0.037037 1.000000
vt 0.037037 0.000000
vt 0.000000 0.000000
vt 0.074074 1.000000
vt 0.074074 0.000000
vt 0.111111 1.000000
vt 0.111111 0.000000
vt 0.148148 1.000000
vt 0.148148 0.000000
vt 0.185185 1.000000
vt 0.185185 0.000000
vt 0.222222 1.000000
vt 0.222222 0.000000
vt 0.259259 1.000000
vt 0.259259 0.000000
vt 0.296296 1.000000
vt 0.296296 0.000000
vt 0.333333 1.000000
vt 0.333333 0.000000
vt 0.370370 1.000000
vt 0.370370 0.000000
vt 0.407407 1.000000
vt 0.407407 0.000000
vt 0.444444 1.000000
vt 0.444444 0.000000
vt 0.481481 1.000000
vt 0.481481 0.000000
vt 0.518519 1.000000
vt 0.518519 0.000000
vt 0.555556 1.000000
vt 0.555556 0.000000
vt 0.592593 1.000000
vt 0.592593 0.000000
vt 0.629630 1.000000
vt 0.629630 0.000000
vt 0.666667 1.000000
vt 0.666667 0.000000
vt 0.703704 1.000000
vt 0.703704 0.000000
vt 0.740741 1.000000
vt 0.740741 0.000000
vt 0.777778 1.000000
vt 0.777778 0.000000
vt 0.814815 1.000000
vt 0.814815 0.000000
vt 0.851852 1.000000
vt 0.851852 0.000000
vt 0.888889 1.000000
vt 0.888889 0.000000
vt 0.925926 1.000000
vt 0.925926 0.000000
vt 0.962963 1.000000
vt 0.962963 0.000000
vt 1.000000 1.000000
vt 1.000000 0.000000
vt 0.000000 1.000000
vt 0.037037 1.000000
vt 0.037037 0.000000
vt 0.000000 0.000000
vt 0.074074 1.000000
vt 0.074074 0.000000
vt 0.111111 1.000000
vt 0.111111 0.000000
vt 0.148148 1.000000
vt 0.148148 0.000000
vt 0.185185 1.000000
vt 0.185185 0.000000
vt 0.222222 1.000000
vt 0.222222 0.000000
vt 0.259259 1.000000
vt 0.259259 0.000000
vt 0.296296 1.000000
vt 0.296296 0.000000
vt 0.333333 1.000000
vt 0.333333 0.000000
vt 0.370370 1.000000
vt 0.370370 0.000000
vt 0.407407 1.000000
vt 0.407407 0.000000
vt 0.444444 1.000000
vt 0.444444 0.000000
vt 0.481481 1.000000
vt 0.481481 0.000000
vt 0.518519 1.000000
vt 0.518519 0.000000
vt 0.555556 1.000000
vt 0.555556 0.000000
vt 0.592593 1.000000
vt 0.592593 0.000000
vt 0.629630 1.000000
vt 0.629630 0.000000
vt 0.666667 1.000000
vt 0.666667 0.000000
vt 0.703704 1.000000
vt 0.703704 0.000000
vt 0.740741 1.000000
vt 0.740741 0.000000
vt 0.777778 1.000000
vt 0.777778 0.000000
vt 0.814815 1.000000
vt 0.814815 0.000000
vt 0.851852 1.000000
vt 0.851852 0.000000
vt 0.888889 1.000000
vt 0.888889 0.000000
vt 0.925926 1.000000
vt 0.925926 0.000000
vt 0.962963 1.000000
vt 0.962963 0.000000
vt 1.000000 1.000000
vt 1.000000 0.000000
vn 0.0000 1.0000 0.0000
vn 0.0000 -1.0000 0.0000
vn 0.0302 0.0000 -0.9995
vn 0.1249 0.0000 -0.9922
vn 0.2562 0.0000 -0.9666
vn 0.3894 0.0000 -0.9210
vn 0.5182 0.0000 -0.8552
vn 0.6362 0.0000 -0.7714
vn 0.7389 0.0000 -0.6738
vn 0.8236 0.0000 -0.5671
vn 0.8902 0.0000 -0.4555
vn 0.9396 0.0000 -0.3421
vn 0.9736 0.0000 -0.2283
vn 0.9934 0.0000 -0.1144
vn 1.0000 0.0000 0.0037
vn 0.9916 0.0000 0.1291
vn 0.9668 0.0000 0.2554
vn 0.9261 0.0000 0.3772
vn 0.8699 0.0000 0.4933
vn 0.7984 0.0000 0.6020
vn 0.7124 0.0000 0.7018
vn 0.6126 0.0000 0.7903
vn 0.5010 0.0000 0.8654
vn 0.3802 0.0000 0.9249
vn 0.2537 0.0000 0.9673
vn 0.1257 0.0000 0.9920
vn 0.0309 0.0000 0.9995
vn -0.7071 0.0000 0.7071
vn -0.7071 0.0000 -0.7071
vn -0.0324 0.0000 -0.9995
vn -0.1357 0.0000 -0.9907
vn -0.2813 0.0000 -0.9596
vn -0.4297 0.0000 -0.9030
vn -0.5699 0.0000 -0.8217
vn -0.6923 0.0000 -0.7215
vn -0.7915 0.0000 -0.6112
vn -0.8666 0.0000 -0.4989
vn -0.9207 0.0000 -0.3903
vn -0.9576 0.0000 -0.2879
vn -0.9815 0.0000 -0.1911
vn -0.9953 0.0000 -0.0970
vn -1.0000 0.0000 0.0020
vn -0.9939 0.0000 0.1105
vn -0.9739 0.0000 0.2267
vn -0.9375 0.0000 0.3479
vn -0.8820 0.0000 0.4711
vn -0.8061 0.0000 0.5917
vn -0.7106 0.0000 0.7036
vn -0.5986 0.0000 0.8010
vn -0.4759 0.0000 0.8795
vn -0.3492 0.0000 0.9370
vn -0.2250 0.0000 0.9744
vn -0.1080 0.0000 0.9941
vn -0.0258 0.0000 0.9997
vn 0.7071 0.0000 0.7071
vn 0.7071 0.0000 -0.7071
usemtl None
s off
f 26/1/1 53/2/1 27/3/1
f 53/2/1 1/4/1 27/3/1
f 53/2/1 2/5/1 1/4/1
f 53/2/1 3/6/1 2/5/1
f 53/2/1 4/7/1 3/6/1
f 53/2/1 5/8/1 4/7/1
f 53/2/1 6/9/1 5/8/1
f 53/2/1 52/10/1 6/9/1
f 52/10/1 51/11/1 6/9/1
f 51/11/1 7/12/1 6/9/1
f 26/1/1 54/13/1 53/2/1
f 50/14/1 7/12/1 51/11/1
f 49/15/1 7/12/1 50/14/1
f 48/16/1 7/12/1 49/15/1
f 48/16/1 8/17/1 7/12/1
f 47/18/1 8/17/1 48/16/1
f 46/19/1 8/17/1 47/18/1
f 46/19/1 9/20/1 8/17/1
f 45/21/1 9/20/1 46/19/1
f 45/21/1 10/22/1 9/20/1
f 44/23/1 10/22/1 45/21/1
f 43/24/1 10/22/1 44/23/1
f 43/24/1 11/25/1 10/22/1
f 42/26/1 11/25/1 43/24/1
f 42/26/1 12/27/1 11/25/1
f 41/28/1 12/27/1 42/26/1
f 41/28/1 13/29/1 12/27/1
f 40/30/1 13/29/1 41/28/1
f 39/31/1 13/29/1 40/30/1
f 39/31/1 14/32/1 13/29/1
f 38/33/1 14/32/1 39/31/1
f 38/33/1 15/34/1 14/32/1
f 37/35/1 15/34/1 38/33/1
f 36/36/1 15/34/1 37/35/1
f 36/36/1 16/37/1 15/34/1
f 35/38/1 16/37/1 36/36/1
f 35/38/1 17/39/1 16/37/1
f 34/40/1 17/39/1 35/38/1
f 33/41/1 17/39/1 34/40/1
f 33/41/1 18/42/1 17/39/1
f 32/43/1 18/42/1 33/41/1
f 32/43/1 19/44/1 18/42/1
f 31/45/1 19/44/1 32/43/1
f 30/46/1 19/44/1 31/45/1
f 30/46/1 20/47/1 19/44/1
f 29/48/1 20/47/1 30/46/1
f 28/49/1 20/47/1 29/48/1
f 26/1/1 28/49/1 54/13/1
f 26/1/1 20/47/1 28/49/1
f 26/1/1 21/50/1 20/47/1
f 26/1/1 22/51/1 21/50/1
f 26/1/1 23/52/1 22/51/1
f 26/1/1 24/53/1 23/52/1
f 26/1/1 25/54/1 24/53/1
f 80/55/2 81/56/2 107/57/2
f 107/57/2 81/56/2 55/58/2
f 107/57/2 55/58/2 56/59/2
f 107/57/2 56/59/2 57/60/2
f 107/57/2 57/60/2 58/61/2
f 107/57/2 58/61/2 59/62/2
f 107/57/2 59/62/2 60/63/2
f 107/57/2 60/63/2 106/64/2
f 106/64/2 60/63/2 105/65/2
f 105/65/2 60/63/2 61/66/2
f 80/55/2 107/57/2 108/67/2
f 104/68/2 105/65/2 61/66/2
f 103/69/2 104/68/2 61/66/2
f 102/70/2 103/69/2 61/66/2
f 102/70/2 61/66/2 62/71/2
f 101/72/2 102/70/2 62/71/2
f 100/73/2 101/72/2 62/71/2
f 100/73/2 62/71/2 63/74/2
f 99/75/2 100/73/2 63/74/2
f 99/75/2 63/74/2 64/76/2
f 98/77/2 99/75/2 64/76/2
f 97/78/2 98/77/2 64/76/2
f 97/78/2 64/76/2 65/79/2
f 96/80/2 97/78/2 65/79/2
f 96/80/2 65/79/2 66/81/2
f 95/82/2 96/80/2 66/81/2
f 95/82/2 66/81/2 67/83/2
f 94/84/2 95/82/2 67/83/2
f 93/85/2 94/84/2 67/83/2
f 93/85/2 67/83/2 68/86/2
f 92/87/2 93/85/2 68/86/2
f 92/87/2 68/86/2 69/88/2
f 91/89/2 92/87/2 69/88/2
f 90/90/2 91/89/2 69/88/2
f 90/90/2 69/88/2 70/91/2
f 89/92/2 90/90/2 70/91/2
f 89/92/2 70/91/2 71/93/2
f 88/94/2 89/92/2 71/93/2
f 87/95/2 88/94/2 71/93/2
f 87/95/2 71/93/2 72/96/2
f 86/97/2 87/95/2 72/96/2
f 86/97/2 72/96/2 73/98/2
f 85/99/2 86/97/2 73/98/2
f 84/100/2 85/99/2 73/98/2
f 84/100/2 73/98/2 74/101/2
f 83/102/2 84/100/2 74/101/2
f 82/103/2 83/102/2 74/101/2
f 80/55/2 108/67/2 82/103/2
f 80/55/2 82/103/2 74/101/2
f 80/55/2 74/101/2 75/104/2
f 80/55/2 75/104/2 76/105/2
f 80/55/2 76/105/2 77/106/2
f 80/55/2 77/106/2 78/107/2
f 80/55/2 78/107/2 79/108/2
s 1
f 110/109/3 112/110/4 111/111/4 109/112/3
f 112/110/4 114/113/5 113/114/5 111/111/4
f 114/113/5 116/115/6 115/116/6 113/114/5
f 116/115/6 118/117/7 117/118/7 115/116/6
f 118/117/7 120/119/8 119/120/8 117/118/7
f 120/119/8 122/121/9 121/122/9 119/120/8
f 122/121/9 124/123/10 123/124/10 121/122/9
f 124/123/10 126/125/11 125/126/11 123/124/10
f 126/125/11 128/127/12 127/128/12 125/126/11
f 128/127/12 130/129/13 129/130/13 127/128/12
f 130/129/13 132/131/14 131/132/14 129/130/13
f 132/131/14 134/133/15 133/134/15 131/132/14
f 134/133/15 136/135/16 135/136/16 133/134/15
f 136/135/16 138/137/17 137/138/17 135/136/16
f 138/137/17 140/139/18 139/140/18 137/138/17
f 140/139/18 142/141/19 141/142/19 139/140/18
f 142/141/19 144/143/20 143/144/20 141/142/19
f 144/143/20 146/145/21 145/146/21 143/144/20
f 146/145/21 148/147/22 147/148/22 145/146/21
f 148/147/22 150/149/23 149/150/23 147/148/22
f 150/149/23 152/151/24 151/152/24 149/150/23
f 152/151/24 154/153/25 153/154/25 151/152/24
f 154/153/25 156/155/26 155/156/26 153/154/25
f 156/155/26 158/157/27 157/158/27 155/156/26
f 158/157/27 160/159/28 159/160/28 157/158/27
f 160/159/28 162/161/29 161/162/29 159/160/28
f 162/161/29 110/163/3 109/164/3 161/162/29
f 164/165/30 166/166/31 165/167/31 163/168/30
f 166/166/31 168/169/32 167/170/32 165/167/31
f 168/169/32 170/171/33 169/172/33 167/170/32
f 170/171/33 172/173/34 171/174/34 169/172/33
f 172/173/34 174/175/35 173/176/35 171/174/34
f 174/175/35 176/177/36 175/178/36 173/176/35
f 176/177/36 178/179/37 177/180/37 175/178/36
f 178/179/37 180/181/38 179/182/38 177/180/37
f 180/181/38 182/183/39 181/184/39 179/182/38
f 182/183/39 184/185/40 183/186/40 181/184/39
f 184/185/40 186/187/41 185/188/41 183/186/40
f 186/187/41 188/189/42 187/190/42 185/188/41
f 188/189/42 190/191/43 189/192/43 187/190/42
f 190/191/43 192/193/44 191/194/44 189/192/43
f 192/193/44 194/195/45 193/196/45 191/194/44
f 194/195/45 196/197/46 195/198/46 193/196/45
f 196/197/46 198/199/47 197/200/47 195/198/46
f 198/199/47 200/201/48 199/202/48 197/200/47
f 200/201/48 202/203/49 201/204/49 199/202/48
f 202/203/49 204/205/50 203/206/50 201/204/49
f 204/205/50 206/207/51 205/208/51 203/206/50
f 206/207/51 208/209/52 207/210/52 205/208/51
f 208/209/52 210/211/53 209/212/53 207/210/52
f 210/211/53 212/213/54 211/214/54 209/212/53
f 212/213/54 214/215/55 213/216/55 211/214/54
f 214/215/55 216/217/56 215/218/56 213/216/55
f 216/217/56 164/219/30 163/220/30 215/218/56
