# Blender v2.93.0 OBJ File: ''
# www.blender.org
mtllib lowerz.mtl
o Text
v 0.405000 0.08 -0.080000
v 0.405000 0.08 0.000000
v 0.011000 0.08 0.000000
v 0.249000 0.08 -0.369000
v 0.021000 0.08 -0.369000
v 0.021000 0.08 -0.449000
v 0.404000 0.08 -0.449000
v 0.165000 0.08 -0.080000
v 0.405000 0 -0.080000
v 0.405000 0 0.000000
v 0.011000 0 0.000000
v 0.249000 0 -0.369000
v 0.021000 0 -0.369000
v 0.021000 0 -0.449000
v 0.404000 0 -0.449000
v 0.165000 0 -0.080000
v 0.405000 0 -0.080000
v 0.405000 0.08 -0.080000
v 0.405000 0 0.000000
v 0.405000 0.08 0.000000
v 0.011000 0 0.000000
v 0.011000 0.08 0.000000
v 0.249000 0 -0.369000
v 0.249000 0.08 -0.369000
v 0.021000 0 -0.369000
v 0.021000 0.08 -0.369000
v 0.021000 0 -0.449000
v 0.021000 0.08 -0.449000
v 0.404000 0 -0.449000
v 0.404000 0.08 -0.449000
v 0.165000 0 -0.080000
v 0.165000 0.08 -0.080000
vt 0.571429 0.000000
vt 0.857143 0.000000
vt 0.714286 0.000000
vt 0.428571 0.000000
vt 1.000000 0.000000
vt 0.285714 0.000000
vt 0.000000 0.000000
vt 0.142857 0.000000
vt 0.571429 0.000000
vt 0.714286 0.000000
vt 0.857143 0.000000
vt 0.428571 0.000000
vt 1.000000 0.000000
vt 0.285714 0.000000
vt 0.000000 0.000000
vt 0.142857 0.000000
vt 0.000000 1.000000
vt 0.125000 1.000000
vt 0.125000 0.000000
vt 0.000000 0.000000
vt 0.250000 1.000000
vt 0.250000 0.000000
vt 0.375000 1.000000
vt 0.375000 0.000000
vt 0.500000 1.000000
vt 0.500000 0.000000
vt 0.625000 1.000000
vt 0.625000 0.000000
vt 0.750000 1.000000
vt 0.750000 0.000000
vt 0.875000 1.000000
vt 0.875000 0.000000
vt 1.000000 1.000000
vt 1.000000 0.000000
vn 0.0000 1.0000 0.0000
vn 0.0000 -1.0000 0.0000
vn 0.7071 0.0000 -0.7071
vn 0.7071 0.0000 0.7071
vn -0.8780 0.0000 0.4785
vn -0.7071 0.0000 0.7071
vn -0.7071 0.0000 -0.7071
vn 0.8785 0.0000 -0.4777
usemtl None
s off
f 5/1/1 7/2/1 6/3/1
f 5/1/1 4/4/1 7/2/1
f 4/4/1 8/5/1 7/2/1
f 3/6/1 8/5/1 4/4/1
f 3/6/1 1/7/1 8/5/1
f 3/6/1 2/8/1 1/7/1
f 13/9/2 14/10/2 15/11/2
f 13/9/2 15/11/2 12/12/2
f 12/12/2 15/11/2 16/13/2
f 11/14/2 12/12/2 16/13/2
f 11/14/2 16/13/2 9/15/2
f 11/14/2 9/15/2 10/16/2
s 1
f 18/17/3 20/18/4 19/19/4 17/20/3
f 20/18/4 22/21/5 21/22/5 19/19/4
f 22/21/5 24/23/5 23/24/5 21/22/5
f 24/23/5 26/25/6 25/26/6 23/24/5
f 26/25/6 28/27/7 27/28/7 25/26/6
f 28/27/7 30/29/8 29/30/8 27/28/7
f 30/29/8 32/31/8 31/32/8 29/30/8
f 32/31/8 18/33/3 17/34/3 31/32/8
