# Blender v2.93.0 OBJ File: ''
# www.blender.org
mtllib capitalM.mtl
o Text
v 0.611000 0.08 0.000000
v 0.611000 0.08 -0.531000
v 0.609000 0.08 -0.531000
v 0.399000 0.08 -0.267000
v 0.383000 0.08 -0.267000
v 0.173000 0.08 -0.531000
v 0.171000 0.08 -0.531000
v 0.171000 0.08 0.000000
v 0.073000 0.08 0.000000
v 0.073000 0.08 -0.682000
v 0.165000 0.08 -0.682000
v 0.391000 0.08 -0.402000
v 0.618000 0.08 -0.682000
v 0.709000 0.08 -0.682000
v 0.709000 0.08 0.000000
v 0.611000 0 0.000000
v 0.611000 0 -0.531000
v 0.609000 0 -0.531000
v 0.399000 0 -0.267000
v 0.383000 0 -0.267000
v 0.173000 0 -0.531000
v 0.171000 0 -0.531000
v 0.171000 0 0.000000
v 0.073000 0 0.000000
v 0.073000 0 -0.682000
v 0.165000 0 -0.682000
v 0.391000 0 -0.402000
v 0.618000 0 -0.682000
v 0.709000 0 -0.682000
v 0.709000 0 0.000000
v 0.611000 0 0.000000
v 0.611000 0.08 0.000000
v 0.611000 0 -0.531000
v 0.611000 0.08 -0.531000
v 0.609000 0 -0.531000
v 0.609000 0.08 -0.531000
v 0.399000 0 -0.267000
v 0.399000 0.08 -0.267000
v 0.383000 0 -0.267000
v 0.383000 0.08 -0.267000
v 0.173000 0 -0.531000
v 0.173000 0.08 -0.531000
v 0.171000 0 -0.531000
v 0.171000 0.08 -0.531000
v 0.171000 0 0.000000
v 0.171000 0.08 0.000000
v 0.073000 0 0.000000
v 0.073000 0.08 0.000000
v 0.073000 0 -0.682000
v 0.073000 0.08 -0.682000
v 0.165000 0 -0.682000
v 0.165000 0.08 -0.682000
v 0.391000 0 -0.402000
v 0.391000 0.08 -0.402000
v 0.618000 0 -0.682000
v 0.618000 0.08 -0.682000
v 0.709000 0 -0.682000
v 0.709000 0.08 -0.682000
v 0.709000 0 0.000000
v 0.709000 0.08 0.000000
vt 0.571429 0.000000
vt 0.714286 0.000000
vt 0.642857 0.000000
vt 0.428571 0.000000
vt 0.357143 0.000000
vt 0.785714 0.000000
vt 0.928571 0.000000
vt 0.857143 0.000000
vt 0.142857 0.000000
vt 0.071429 0.000000
vt 1.000000 0.000000
vt 0.500000 0.000000
vt 0.285714 0.000000
vt 0.214286 0.000000
vt 0.000000 0.000000
vt 0.571429 0.000000
vt 0.642857 0.000000
vt 0.714286 0.000000
vt 0.428571 0.000000
vt 0.357143 0.000000
vt 0.785714 0.000000
vt 0.857143 0.000000
vt 0.928571 0.000000
vt 0.142857 0.000000
vt 0.071429 0.000000
vt 1.000000 0.000000
vt 0.500000 0.000000
vt 0.285714 0.000000
vt 0.214286 0.000000
vt 0.000000 0.000000
vt 0.000000 1.000000
vt 0.066667 1.000000
vt 0.066667 0.000000
vt 0.000000 0.000000
vt 0.133333 1.000000
vt 0.133333 0.000000
vt 0.200000 1.000000
vt 0.200000 0.000000
vt 0.266667 1.000000
vt 0.266667 0.000000
vt 0.333333 1.000000
vt 0.333333 0.000000
vt 0.400000 1.000000
vt 0.400000 0.000000
vt 0.466667 1.000000
vt 0.466667 0.000000
vt 0.533333 1.000000
vt 0.533333 0.000000
vt 0.600000 1.000000
vt 0.600000 0.000000
vt 0.666667 1.000000
vt 0.666667 0.000000
vt 0.733333 1.000000
vt 0.733333 0.000000
vt 0.800000 1.000000
vt 0.800000 0.000000
vt 0.866667 1.000000
vt 0.866667 0.000000
vt 0.933333 1.000000
vt 0.933333 0.000000
vt 1.000000 1.000000
vt 1.000000 0.000000
vn 0.0000 1.0000 0.0000
vn 0.0000 -1.0000 0.0000
vn -0.7071 0.0000 0.7071
vn 0.4344 0.0000 0.9007
vn -0.4344 0.0000 0.9007
vn 0.7071 0.0000 0.7071
vn -0.7071 0.0000 -0.7071
vn 0.4312 0.0000 -0.9022
vn 0.0011 0.0000 -1.0000
vn -0.4302 0.0000 -0.9027
vn 0.7071 0.0000 -0.7071
usemtl None
s off
f 9/1/1 11/2/1 10/3/1
f 9/1/1 7/4/1 11/2/1
f 7/4/1 6/5/1 11/2/1
f 6/5/1 12/6/1 11/2/1
f 12/6/1 14/7/1 13/8/1
f 12/6/1 3/9/1 14/7/1
f 3/9/1 2/10/1 14/7/1
f 2/10/1 15/11/1 14/7/1
f 9/1/1 8/12/1 7/4/1
f 5/13/1 12/6/1 6/5/1
f 12/6/1 4/14/1 3/9/1
f 1/15/1 15/11/1 2/10/1
f 5/13/1 4/14/1 12/6/1
f 24/16/2 25/17/2 26/18/2
f 24/16/2 26/18/2 22/19/2
f 22/19/2 26/18/2 21/20/2
f 21/20/2 26/18/2 27/21/2
f 27/21/2 28/22/2 29/23/2
f 27/21/2 29/23/2 18/24/2
f 18/24/2 29/23/2 17/25/2
f 17/25/2 29/23/2 30/26/2
f 24/16/2 22/19/2 23/27/2
f 20/28/2 21/20/2 27/21/2
f 27/21/2 18/24/2 19/29/2
f 16/30/2 17/25/2 30/26/2
f 20/28/2 27/21/2 19/29/2
s 1
f 32/31/3 34/32/3 33/33/3 31/34/3
f 34/32/3 36/35/4 35/36/4 33/33/3
f 36/35/4 38/37/4 37/38/4 35/36/4
f 38/37/4 40/39/5 39/40/5 37/38/4
f 40/39/5 42/41/5 41/42/5 39/40/5
f 42/41/5 44/43/6 43/44/6 41/42/5
f 44/43/6 46/45/6 45/46/6 43/44/6
f 46/45/6 48/47/3 47/48/3 45/46/6
f 48/47/3 50/49/7 49/50/7 47/48/3
f 50/49/7 52/51/8 51/52/8 49/50/7
f 52/51/8 54/53/9 53/54/9 51/52/8
f 54/53/9 56/55/10 55/56/10 53/54/9
f 56/55/10 58/57/11 57/58/11 55/56/10
f 58/57/11 60/59/6 59/60/6 57/58/11
f 60/59/6 32/61/3 31/62/3 59/60/6
