# Blender v2.93.0 OBJ File: ''
# www.blender.org
mtllib lowerp.mtl
o Text
v 0.057000 0.08 0.230000
v 0.057000 0.08 -0.449000
v 0.211000 0.08 -0.449000
v 0.250429 0.08 -0.447340
v 0.286685 0.08 -0.442389
v 0.319719 0.08 -0.434188
v 0.349481 0.08 -0.422778
v 0.375925 0.08 -0.408201
v 0.399000 0.08 -0.390500
v 0.418659 0.08 -0.369715
v 0.434852 0.08 -0.345889
v 0.447531 0.08 -0.319063
v 0.456648 0.08 -0.289278
v 0.462154 0.08 -0.256576
v 0.464000 0.08 -0.221000
v 0.462054 0.08 -0.188115
v 0.456347 0.08 -0.157088
v 0.447078 0.08 -0.128109
v 0.434444 0.08 -0.101370
v 0.418644 0.08 -0.077062
v 0.399875 0.08 -0.055375
v 0.378335 0.08 -0.036501
v 0.354222 0.08 -0.020630
v 0.327734 0.08 -0.007953
v 0.299069 0.08 0.001338
v 0.268425 0.08 0.007053
v 0.236000 0.08 0.009000
v 0.228786 0.08 0.008874
v 0.221625 0.08 0.008491
v 0.214484 0.08 0.007844
v 0.207333 0.08 0.006926
v 0.200141 0.08 0.005730
v 0.192875 0.08 0.004250
v 0.185505 0.08 0.002478
v 0.178000 0.08 0.000407
v 0.170328 0.08 -0.001969
v 0.162458 0.08 -0.004657
v 0.154359 0.08 -0.007666
v 0.146000 0.08 -0.011000
v 0.146000 0.08 0.230000
v 0.152790 0.08 -0.087876
v 0.159653 0.08 -0.085005
v 0.166578 0.08 -0.082391
v 0.173556 0.08 -0.080037
v 0.180575 0.08 -0.077947
v 0.187625 0.08 -0.076125
v 0.194696 0.08 -0.074574
v 0.201778 0.08 -0.073296
v 0.208859 0.08 -0.072297
v 0.215931 0.08 -0.071579
v 0.222981 0.08 -0.071145
v 0.230000 0.08 -0.071000
v 0.250249 0.08 -0.072310
v 0.269412 0.08 -0.076144
v 0.287359 0.08 -0.082359
v 0.303963 0.08 -0.090815
v 0.319094 0.08 -0.101367
v 0.332625 0.08 -0.113875
v 0.344427 0.08 -0.128195
v 0.354370 0.08 -0.144185
v 0.362328 0.08 -0.161703
v 0.368171 0.08 -0.180606
v 0.371771 0.08 -0.200753
v 0.373000 0.08 -0.222000
v 0.371980 0.08 -0.244429
v 0.368921 0.08 -0.265181
v 0.363828 0.08 -0.284203
v 0.356704 0.08 -0.301445
v 0.347551 0.08 -0.316852
v 0.336375 0.08 -0.330375
v 0.323178 0.08 -0.341960
v 0.307963 0.08 -0.351556
v 0.290734 0.08 -0.359109
v 0.271495 0.08 -0.364569
v 0.250249 0.08 -0.367884
v 0.227000 0.08 -0.369000
v 0.146000 0.08 -0.369000
v 0.146000 0.08 -0.091000
v 0.057000 0 0.230000
v 0.057000 0 -0.449000
v 0.211000 0 -0.449000
v 0.250429 0 -0.447340
v 0.286685 0 -0.442389
v 0.319719 0 -0.434188
v 0.349481 0 -0.422778
v 0.375925 0 -0.408201
v 0.399000 0 -0.390500
v 0.418659 0 -0.369715
v 0.434852 0 -0.345889
v 0.447531 0 -0.319063
v 0.456648 0 -0.289278
v 0.462154 0 -0.256576
v 0.464000 0 -0.221000
v 0.462054 0 -0.188115
v 0.456347 0 -0.157088
v 0.447078 0 -0.128109
v 0.434444 0 -0.101370
v 0.418644 0 -0.077062
v 0.399875 0 -0.055375
v 0.378335 0 -0.036501
v 0.354222 0 -0.020630
v 0.327734 0 -0.007953
v 0.299069 0 0.001338
v 0.268425 0 0.007053
v 0.236000 0 0.009000
v 0.228786 0 0.008874
v 0.221625 0 0.008491
v 0.214484 0 0.007844
v 0.207333 0 0.006926
v 0.200141 0 0.005730
v 0.192875 0 0.004250
v 0.185505 0 0.002478
v 0.178000 0 0.000407
v 0.170328 0 -0.001969
v 0.162458 0 -0.004657
v 0.154359 0 -0.007666
v 0.146000 0 -0.011000
v 0.146000 0 0.230000
v 0.152790 0 -0.087876
v 0.159653 0 -0.085005
v 0.166578 0 -0.082391
v 0.173556 0 -0.080037
v 0.180575 0 -0.077947
v 0.187625 0 -0.076125
v 0.194696 0 -0.074574
v 0.201778 0 -0.073296
v 0.208859 0 -0.072297
v 0.215931 0 -0.071579
v 0.222981 0 -0.071145
v 0.230000 0 -0.071000
v 0.250249 0 -0.072310
v 0.269412 0 -0.076144
v 0.287359 0 -0.082359
v 0.303963 0 -0.090815
v 0.319094 0 -0.101367
v 0.332625 0 -0.113875
v 0.344427 0 -0.128195
v 0.354370 0 -0.144185
v 0.362328 0 -0.161703
v 0.368171 0 -0.180606
v 0.371771 0 -0.200753
v 0.373000 0 -0.222000
v 0.371980 0 -0.244429
v 0.368921 0 -0.265181
v 0.363828 0 -0.284203
v 0.356704 0 -0.301445
v 0.347551 0 -0.316852
v 0.336375 0 -0.330375
v 0.323178 0 -0.341960
v 0.307963 0 -0.351556
v 0.290734 0 -0.359109
v 0.271495 0 -0.364569
v 0.250249 0 -0.367884
v 0.227000 0 -0.369000
v 0.146000 0 -0.369000
v 0.146000 0 -0.091000
v 0.057000 0 0.230000
v 0.057000 0.08 0.230000
v 0.057000 0 -0.449000
v 0.057000 0.08 -0.449000
v 0.211000 0 -0.449000
v 0.211000 0.08 -0.449000
v 0.250429 0 -0.447340
v 0.250429 0.08 -0.447340
v 0.286685 0 -0.442389
v 0.286685 0.08 -0.442389
v 0.319719 0 -0.434188
v 0.319719 0.08 -0.434188
v 0.349481 0 -0.422778
v 0.349481 0.08 -0.422778
v 0.375925 0 -0.408201
v 0.375925 0.08 -0.408201
v 0.399000 0 -0.390500
v 0.399000 0.08 -0.390500
v 0.418659 0 -0.369715
v 0.418659 0.08 -0.369715
v 0.434852 0 -0.345889
v 0.434852 0.08 -0.345889
v 0.447531 0 -0.319063
v 0.447531 0.08 -0.319063
v 0.456648 0 -0.289278
v 0.456648 0.08 -0.289278
v 0.462154 0 -0.256576
v 0.462154 0.08 -0.256576
v 0.464000 0 -0.221000
v 0.464000 0.08 -0.221000
v 0.462054 0 -0.188115
v 0.462054 0.08 -0.188115
v 0.456347 0 -0.157088
v 0.456347 0.08 -0.157088
v 0.447078 0 -0.128109
v 0.447078 0.08 -0.128109
v 0.434444 0 -0.101370
v 0.434444 0.08 -0.101370
v 0.418644 0 -0.077062
v 0.418644 0.08 -0.077062
v 0.399875 0 -0.055375
v 0.399875 0.08 -0.055375
v 0.378335 0 -0.036501
v 0.378335 0.08 -0.036501
v 0.354222 0 -0.020630
v 0.354222 0.08 -0.020630
v 0.327734 0 -0.007953
v 0.327734 0.08 -0.007953
v 0.299069 0 0.001338
v 0.299069 0.08 0.001338
v 0.268425 0 0.007053
v 0.268425 0.08 0.007053
v 0.236000 0 0.009000
v 0.236000 0.08 0.009000
v 0.228786 0 0.008874
v 0.228786 0.08 0.008874
v 0.221625 0 0.008491
v 0.221625 0.08 0.008491
v 0.214484 0 0.007844
v 0.214484 0.08 0.007844
v 0.207333 0 0.006926
v 0.207333 0.08 0.006926
v 0.200141 0 0.005730
v 0.200141 0.08 0.005730
v 0.192875 0 0.004250
v 0.192875 0.08 0.004250
v 0.185505 0 0.002478
v 0.185505 0.08 0.002478
v 0.178000 0 0.000407
v 0.178000 0.08 0.000407
v 0.170328 0 -0.001969
v 0.170328 0.08 -0.001969
v 0.162458 0 -0.004657
v 0.162458 0.08 -0.004657
v 0.154359 0 -0.007666
v 0.154359 0.08 -0.007666
v 0.146000 0 -0.011000
v 0.146000 0.08 -0.011000
v 0.146000 0 0.230000
v 0.146000 0.08 0.230000
v 0.152790 0 -0.087876
v 0.152790 0.08 -0.087876
v 0.159653 0 -0.085005
v 0.159653 0.08 -0.085005
v 0.166578 0 -0.082391
v 0.166578 0.08 -0.082391
v 0.173556 0 -0.080037
v 0.173556 0.08 -0.080037
v 0.180575 0 -0.077947
v 0.180575 0.08 -0.077947
v 0.187625 0 -0.076125
v 0.187625 0.08 -0.076125
v 0.194696 0 -0.074574
v 0.194696 0.08 -0.074574
v 0.201778 0 -0.073296
v 0.201778 0.08 -0.073296
v 0.208859 0 -0.072297
v 0.208859 0.08 -0.072297
v 0.215931 0 -0.071579
v 0.215931 0.08 -0.071579
v 0.222981 0 -0.071145
v 0.222981 0.08 -0.071145
v 0.230000 0 -0.071000
v 0.230000 0.08 -0.071000
v 0.250249 0 -0.072310
v 0.250249 0.08 -0.072310
v 0.269412 0 -0.076144
v 0.269412 0.08 -0.076144
v 0.287359 0 -0.082359
v 0.287359 0.08 -0.082359
v 0.303963 0 -0.090815
v 0.303963 0.08 -0.090815
v 0.319094 0 -0.101367
v 0.319094 0.08 -0.101367
v 0.332625 0 -0.113875
v 0.332625 0.08 -0.113875
v 0.344427 0 -0.128195
v 0.344427 0.08 -0.128195
v 0.354370 0 -0.144185
v 0.354370 0.08 -0.144185
v 0.362328 0 -0.161703
v 0.362328 0.08 -0.161703
v 0.368171 0 -0.180606
v 0.368171 0.08 -0.180606
v 0.371771 0 -0.200753
v 0.371771 0.08 -0.200753
v 0.373000 0 -0.222000
v 0.373000 0.08 -0.222000
v 0.371980 0 -0.244429
v 0.371980 0.08 -0.244429
v 0.368921 0 -0.265181
v 0.368921 0.08 -0.265181
v 0.363828 0 -0.284203
v 0.363828 0.08 -0.284203
v 0.356704 0 -0.301445
v 0.356704 0.08 -0.301445
v 0.347551 0 -0.316852
v 0.347551 0.08 -0.316852
v 0.336375 0 -0.330375
v 0.336375 0.08 -0.330375
v 0.323178 0 -0.341960
v 0.323178 0.08 -0.341960
v 0.307963 0 -0.351556
v 0.307963 0.08 -0.351556
v 0.290734 0 -0.359109
v 0.290734 0.08 -0.359109
v 0.271495 0 -0.364569
v 0.271495 0.08 -0.364569
v 0.250249 0 -0.367884
v 0.250249 0.08 -0.367884
v 0.227000 0 -0.369000
v 0.227000 0.08 -0.369000
v 0.146000 0 -0.369000
v 0.146000 0.08 -0.369000
v 0.146000 0 -0.091000
v 0.146000 0.08 -0.091000
vt 0.000000 0.000000
vt 0.987013 0.000000
vt 0.012987 0.000000
vt 0.025974 0.000000
vt 0.038961 0.000000
vt 0.051948 0.000000
vt 0.064935 0.000000
vt 0.077922 0.000000
vt 0.090909 0.000000
vt 0.103896 0.000000
vt 0.116883 0.000000
vt 0.974026 0.000000
vt 0.961039 0.000000
vt 0.129870 0.000000
vt 1.000000 0.000000
vt 0.948052 0.000000
vt 0.935065 0.000000
vt 0.922078 0.000000
vt 0.909091 0.000000
vt 0.142857 0.000000
vt 0.896104 0.000000
vt 0.883117 0.000000
vt 0.155844 0.000000
vt 0.870130 0.000000
vt 0.857143 0.000000
vt 0.168831 0.000000
vt 0.844156 0.000000
vt 0.831169 0.000000
vt 0.181818 0.000000
vt 0.818182 0.000000
vt 0.805195 0.000000
vt 0.194805 0.000000
vt 0.792208 0.000000
vt 0.207792 0.000000
vt 0.779221 0.000000
vt 0.766234 0.000000
vt 0.220779 0.000000
vt 0.753247 0.000000
vt 0.740260 0.000000
vt 0.233766 0.000000
vt 0.727273 0.000000
vt 0.246753 0.000000
vt 0.714286 0.000000
vt 0.519481 0.000000
vt 0.701299 0.000000
vt 0.532468 0.000000
vt 0.545455 0.000000
vt 0.493506 0.000000
vt 0.558442 0.000000
vt 0.688312 0.000000
vt 0.571429 0.000000
vt 0.584416 0.000000
vt 0.259740 0.000000
vt 0.675325 0.000000
vt 0.597403 0.000000
vt 0.610390 0.000000
vt 0.623377 0.000000
vt 0.662338 0.000000
vt 0.636364 0.000000
vt 0.649351 0.000000
vt 0.272727 0.000000
vt 0.285714 0.000000
vt 0.298701 0.000000
vt 0.506494 0.000000
vt 0.480519 0.000000
vt 0.311688 0.000000
vt 0.467532 0.000000
vt 0.454545 0.000000
vt 0.441558 0.000000
vt 0.428571 0.000000
vt 0.324675 0.000000
vt 0.415584 0.000000
vt 0.402597 0.000000
vt 0.389610 0.000000
vt 0.376623 0.000000
vt 0.337662 0.000000
vt 0.363636 0.000000
vt 0.350649 0.000000
vt 0.000000 0.000000
vt 0.012987 0.000000
vt 0.987013 0.000000
vt 0.025974 0.000000
vt 0.038961 0.000000
vt 0.051948 0.000000
vt 0.064935 0.000000
vt 0.077922 0.000000
vt 0.090909 0.000000
vt 0.103896 0.000000
vt 0.116883 0.000000
vt 0.974026 0.000000
vt 0.961039 0.000000
vt 0.129870 0.000000
vt 1.000000 0.000000
vt 0.948052 0.000000
vt 0.935065 0.000000
vt 0.922078 0.000000
vt 0.909091 0.000000
vt 0.142857 0.000000
vt 0.896104 0.000000
vt 0.883117 0.000000
vt 0.155844 0.000000
vt 0.870130 0.000000
vt 0.857143 0.000000
vt 0.168831 0.000000
vt 0.844156 0.000000
vt 0.831169 0.000000
vt 0.181818 0.000000
vt 0.818182 0.000000
vt 0.805195 0.000000
vt 0.194805 0.000000
vt 0.792208 0.000000
vt 0.207792 0.000000
vt 0.779221 0.000000
vt 0.766234 0.000000
vt 0.220779 0.000000
vt 0.753247 0.000000
vt 0.740260 0.000000
vt 0.233766 0.000000
vt 0.727273 0.000000
vt 0.246753 0.000000
vt 0.714286 0.000000
vt 0.519481 0.000000
vt 0.701299 0.000000
vt 0.532468 0.000000
vt 0.545455 0.000000
vt 0.493506 0.000000
vt 0.558442 0.000000
vt 0.688312 0.000000
vt 0.571429 0.000000
vt 0.584416 0.000000
vt 0.259740 0.000000
vt 0.675325 0.000000
vt 0.597403 0.000000
vt 0.610390 0.000000
vt 0.623377 0.000000
vt 0.662338 0.000000
vt 0.636364 0.000000
vt 0.649351 0.000000
vt 0.272727 0.000000
vt 0.285714 0.000000
vt 0.298701 0.000000
vt 0.506494 0.000000
vt 0.480519 0.000000
vt 0.311688 0.000000
vt 0.467532 0.000000
vt 0.454545 0.000000
vt 0.441558 0.000000
vt 0.428571 0.000000
vt 0.324675 0.000000
vt 0.415584 0.000000
vt 0.402597 0.000000
vt 0.389610 0.000000
vt 0.376623 0.000000
vt 0.337662 0.000000
vt 0.363636 0.000000
vt 0.350649 0.000000
vt 0.000000 1.000000
vt 0.025000 1.000000
vt 0.025000 0.000000
vt 0.000000 0.000000
vt 0.050000 1.000000
vt 0.050000 0.000000
vt 0.075000 1.000000
vt 0.075000 0.000000
vt 0.100000 1.000000
vt 0.100000 0.000000
vt 0.125000 1.000000
vt 0.125000 0.000000
vt 0.150000 1.000000
vt 0.150000 0.000000
vt 0.175000 1.000000
vt 0.175000 0.000000
vt 0.200000 1.000000
vt 0.200000 0.000000
vt 0.225000 1.000000
vt 0.225000 0.000000
vt 0.250000 1.000000
vt 0.250000 0.000000
vt 0.275000 1.000000
vt 0.275000 0.000000
vt 0.300000 1.000000
vt 0.300000 0.000000
vt 0.325000 1.000000
vt 0.325000 0.000000
vt 0.350000 1.000000
vt 0.350000 0.000000
vt 0.375000 1.000000
vt 0.375000 0.000000
vt 0.400000 1.000000
vt 0.400000 0.000000
vt 0.425000 1.000000
vt 0.425000 0.000000
vt 0.450000 1.000000
vt 0.450000 0.000000
vt 0.475000 1.000000
vt 0.475000 0.000000
vt 0.500000 1.000000
vt 0.500000 0.000000
vt 0.525000 1.000000
vt 0.525000 0.000000
vt 0.550000 1.000000
vt 0.550000 0.000000
vt 0.575000 1.000000
vt 0.575000 0.000000
vt 0.600000 1.000000
vt 0.600000 0.000000
vt 0.625000 1.000000
vt 0.625000 0.000000
vt 0.650000 1.000000
vt 0.650000 0.000000
vt 0.675000 1.000000
vt 0.675000 0.000000
vt 0.700000 1.000000
vt 0.700000 0.000000
vt 0.725000 1.000000
vt 0.725000 0.000000
vt 0.750000 1.000000
vt 0.750000 0.000000
vt 0.775000 1.000000
vt 0.775000 0.000000
vt 0.800000 1.000000
vt 0.800000 0.000000
vt 0.825000 1.000000
vt 0.825000 0.000000
vt 0.850000 1.000000
vt 0.850000 0.000000
vt 0.875000 1.000000
vt 0.875000 0.000000
vt 0.900000 1.000000
vt 0.900000 0.000000
vt 0.925000 1.000000
vt 0.925000 0.000000
vt 0.950000 1.000000
vt 0.950000 0.000000
vt 0.975000 1.000000
vt 0.975000 0.000000
vt 1.000000 1.000000
vt 1.000000 0.000000
vt 0.000000 1.000000
vt 0.026316 1.000000
vt 0.026316 0.000000
vt 0.000000 0.000000
vt 0.052632 1.000000
vt 0.052632 0.000000
vt 0.078947 1.000000
vt 0.078947 0.000000
vt 0.105263 1.000000
vt 0.105263 0.000000
vt 0.131579 1.000000
vt 0.131579 0.000000
vt 0.157895 1.000000
vt 0.157895 0.000000
vt 0.184211 1.000000
vt 0.184211 0.000000
vt 0.210526 1.000000
vt 0.210526 0.000000
vt 0.236842 1.000000
vt 0.236842 0.000000
vt 0.263158 1.000000
vt 0.263158 0.000000
vt 0.289474 1.000000
vt 0.289474 0.000000
vt 0.315789 1.000000
vt 0.315789 0.000000
vt 0.342105 1.000000
vt 0.342105 0.000000
vt 0.368421 1.000000
vt 0.368421 0.000000
vt 0.394737 1.000000
vt 0.394737 0.000000
vt 0.421053 1.000000
vt 0.421053 0.000000
vt 0.447368 1.000000
vt 0.447368 0.000000
vt 0.473684 1.000000
vt 0.473684 0.000000
vt 0.500000 1.000000
vt 0.500000 0.000000
vt 0.526316 1.000000
vt 0.526316 0.000000
vt 0.552632 1.000000
vt 0.552632 0.000000
vt 0.578947 1.000000
vt 0.578947 0.000000
vt 0.605263 1.000000
vt 0.605263 0.000000
vt 0.631579 1.000000
vt 0.631579 0.000000
vt 0.657895 1.000000
vt 0.657895 0.000000
vt 0.684211 1.000000
vt 0.684211 0.000000
vt 0.710526 1.000000
vt 0.710526 0.000000
vt 0.736842 1.000000
vt 0.736842 0.000000
vt 0.763158 1.000000
vt 0.763158 0.000000
vt 0.789474 1.000000
vt 0.789474 0.000000
vt 0.815789 1.000000
vt 0.815789 0.000000
vt 0.842105 1.000000
vt 0.842105 0.000000
vt 0.868421 1.000000
vt 0.868421 0.000000
vt 0.894737 1.000000
vt 0.894737 0.000000
vt 0.921053 1.000000
vt 0.921053 0.000000
vt 0.947368 1.000000
vt 0.947368 0.000000
vt 0.973684 1.000000
vt 0.973684 0.000000
vt 1.000000 1.000000
vt 1.000000 0.000000
vn 0.0000 1.0000 0.0000
vn 0.0000 -1.0000 0.0000
vn -0.7071 0.0000 0.7071
vn -0.7071 0.0000 -0.7071
vn 0.0210 0.0000 -0.9998
vn 0.0888 0.0000 -0.9960
vn 0.1884 0.0000 -0.9821
vn 0.3000 0.0000 -0.9539
vn 0.4213 0.0000 -0.9069
vn 0.5472 0.0000 -0.8369
vn 0.6697 0.0000 -0.7426
vn 0.7793 0.0000 -0.6266
vn 0.8682 0.0000 -0.4962
vn 0.9326 0.0000 -0.3609
vn 0.9732 0.0000 -0.2298
vn 0.9940 0.0000 -0.1091
vn 1.0000 0.0000 0.0036
vn 0.9927 0.0000 0.1202
vn 0.9699 0.0000 0.2433
vn 0.9303 0.0000 0.3667
vn 0.8733 0.0000 0.4872
vn 0.7992 0.0000 0.6011
vn 0.7093 0.0000 0.7049
vn 0.6058 0.0000 0.7956
vn 0.4919 0.0000 0.8707
vn 0.3708 0.0000 0.9287
vn 0.2463 0.0000 0.9692
vn 0.1219 0.0000 0.9925
vn 0.0212 0.0000 0.9998
vn -0.0354 0.0000 0.9994
vn -0.0718 0.0000 0.9974
vn -0.1088 0.0000 0.9940
vn -0.1456 0.0000 0.9893
vn -0.1818 0.0000 0.9833
vn -0.2167 0.0000 0.9762
vn -0.2499 0.0000 0.9683
vn -0.2809 0.0000 0.9597
vn -0.3096 0.0000 0.9508
vn -0.3358 0.0000 0.9419
vn -0.3594 0.0000 0.9332
vn 0.5610 0.0000 0.8278
vn 0.7071 0.0000 0.7071
vn 0.4020 0.0000 -0.9156
vn 0.3696 0.0000 -0.9292
vn 0.3364 0.0000 -0.9417
vn 0.3025 0.0000 -0.9531
vn 0.2678 0.0000 -0.9634
vn 0.2323 0.0000 -0.9726
vn 0.1959 0.0000 -0.9806
vn 0.1586 0.0000 -0.9873
vn 0.1204 0.0000 -0.9927
vn 0.0812 0.0000 -0.9967
vn 0.0410 0.0000 -0.9991
vn -0.0219 0.0000 -0.9998
vn -0.1306 0.0000 -0.9914
vn -0.2623 0.0000 -0.9650
vn -0.3914 0.0000 -0.9202
vn -0.5141 0.0000 -0.8577
vn -0.6269 0.0000 -0.7791
vn -0.7269 0.0000 -0.6867
vn -0.8122 0.0000 -0.5833
vn -0.8817 0.0000 -0.4718
vn -0.9348 0.0000 -0.3551
vn -0.9717 0.0000 -0.2361
vn -0.9931 0.0000 -0.1170
vn -1.0000 0.0000 -0.0061
vn -0.9954 0.0000 0.0957
vn -0.9792 0.0000 0.2026
vn -0.9471 0.0000 0.3209
vn -0.8943 0.0000 0.4474
vn -0.8177 0.0000 0.5756
vn -0.7175 0.0000 0.6965
vn -0.5984 0.0000 0.8011
vn -0.4688 0.0000 0.8833
vn -0.3381 0.0000 0.9411
vn -0.2140 0.0000 0.9768
vn -0.1012 0.0000 0.9948
vn -0.0240 0.0000 0.9997
vn 0.8420 0.0000 -0.5394
usemtl None
s off
f 1/1/1 77/2/1 2/3/1
f 77/2/1 3/4/1 2/3/1
f 77/2/1 4/5/1 3/4/1
f 77/2/1 5/6/1 4/5/1
f 77/2/1 6/7/1 5/6/1
f 77/2/1 7/8/1 6/7/1
f 77/2/1 8/9/1 7/8/1
f 77/2/1 9/10/1 8/9/1
f 77/2/1 10/11/1 9/10/1
f 77/2/1 76/12/1 10/11/1
f 76/12/1 75/13/1 10/11/1
f 75/13/1 11/14/1 10/11/1
f 1/1/1 78/15/1 77/2/1
f 74/16/1 11/14/1 75/13/1
f 73/17/1 11/14/1 74/16/1
f 72/18/1 11/14/1 73/17/1
f 71/19/1 11/14/1 72/18/1
f 71/19/1 12/20/1 11/14/1
f 70/21/1 12/20/1 71/19/1
f 69/22/1 12/20/1 70/21/1
f 69/22/1 13/23/1 12/20/1
f 68/24/1 13/23/1 69/22/1
f 67/25/1 13/23/1 68/24/1
f 67/25/1 14/26/1 13/23/1
f 66/27/1 14/26/1 67/25/1
f 65/28/1 14/26/1 66/27/1
f 65/28/1 15/29/1 14/26/1
f 64/30/1 15/29/1 65/28/1
f 63/31/1 15/29/1 64/30/1
f 63/31/1 16/32/1 15/29/1
f 62/33/1 16/32/1 63/31/1
f 62/33/1 17/34/1 16/32/1
f 61/35/1 17/34/1 62/33/1
f 60/36/1 17/34/1 61/35/1
f 60/36/1 18/37/1 17/34/1
f 59/38/1 18/37/1 60/36/1
f 58/39/1 18/37/1 59/38/1
f 58/39/1 19/40/1 18/37/1
f 57/41/1 19/40/1 58/39/1
f 57/41/1 20/42/1 19/40/1
f 56/43/1 20/42/1 57/41/1
f 1/1/1 41/44/1 78/15/1
f 55/45/1 20/42/1 56/43/1
f 1/1/1 42/46/1 41/44/1
f 1/1/1 43/47/1 42/46/1
f 1/1/1 39/48/1 43/47/1
f 39/48/1 44/49/1 43/47/1
f 54/50/1 20/42/1 55/45/1
f 39/48/1 45/51/1 44/49/1
f 39/48/1 46/52/1 45/51/1
f 54/50/1 21/53/1 20/42/1
f 53/54/1 21/53/1 54/50/1
f 39/48/1 47/55/1 46/52/1
f 39/48/1 48/56/1 47/55/1
f 39/48/1 49/57/1 48/56/1
f 52/58/1 21/53/1 53/54/1
f 39/48/1 50/59/1 49/57/1
f 39/48/1 51/60/1 50/59/1
f 39/48/1 52/58/1 51/60/1
f 39/48/1 21/53/1 52/58/1
f 39/48/1 22/61/1 21/53/1
f 39/48/1 23/62/1 22/61/1
f 39/48/1 24/63/1 23/62/1
f 1/1/1 40/64/1 39/48/1
f 38/65/1 24/63/1 39/48/1
f 38/65/1 25/66/1 24/63/1
f 37/67/1 25/66/1 38/65/1
f 36/68/1 25/66/1 37/67/1
f 35/69/1 25/66/1 36/68/1
f 34/70/1 25/66/1 35/69/1
f 34/70/1 26/71/1 25/66/1
f 33/72/1 26/71/1 34/70/1
f 32/73/1 26/71/1 33/72/1
f 31/74/1 26/71/1 32/73/1
f 30/75/1 26/71/1 31/74/1
f 30/75/1 27/76/1 26/71/1
f 29/77/1 27/76/1 30/75/1
f 28/78/1 27/76/1 29/77/1
f 79/79/2 80/80/2 155/81/2
f 155/81/2 80/80/2 81/82/2
f 155/81/2 81/82/2 82/83/2
f 155/81/2 82/83/2 83/84/2
f 155/81/2 83/84/2 84/85/2
f 155/81/2 84/85/2 85/86/2
f 155/81/2 85/86/2 86/87/2
f 155/81/2 86/87/2 87/88/2
f 155/81/2 87/88/2 88/89/2
f 155/81/2 88/89/2 154/90/2
f 154/90/2 88/89/2 153/91/2
f 153/91/2 88/89/2 89/92/2
f 79/79/2 155/81/2 156/93/2
f 152/94/2 153/91/2 89/92/2
f 151/95/2 152/94/2 89/92/2
f 150/96/2 151/95/2 89/92/2
f 149/97/2 150/96/2 89/92/2
f 149/97/2 89/92/2 90/98/2
f 148/99/2 149/97/2 90/98/2
f 147/100/2 148/99/2 90/98/2
f 147/100/2 90/98/2 91/101/2
f 146/102/2 147/100/2 91/101/2
f 145/103/2 146/102/2 91/101/2
f 145/103/2 91/101/2 92/104/2
f 144/105/2 145/103/2 92/104/2
f 143/106/2 144/105/2 92/104/2
f 143/106/2 92/104/2 93/107/2
f 142/108/2 143/106/2 93/107/2
f 141/109/2 142/108/2 93/107/2
f 141/109/2 93/107/2 94/110/2
f 140/111/2 141/109/2 94/110/2
f 140/111/2 94/110/2 95/112/2
f 139/113/2 140/111/2 95/112/2
f 138/114/2 139/113/2 95/112/2
f 138/114/2 95/112/2 96/115/2
f 137/116/2 138/114/2 96/115/2
f 136/117/2 137/116/2 96/115/2
f 136/117/2 96/115/2 97/118/2
f 135/119/2 136/117/2 97/118/2
f 135/119/2 97/118/2 98/120/2
f 134/121/2 135/119/2 98/120/2
f 79/79/2 156/93/2 119/122/2
f 133/123/2 134/121/2 98/120/2
f 79/79/2 119/122/2 120/124/2
f 79/79/2 120/124/2 121/125/2
f 79/79/2 121/125/2 117/126/2
f 117/126/2 121/125/2 122/127/2
f 132/128/2 133/123/2 98/120/2
f 117/126/2 122/127/2 123/129/2
f 117/126/2 123/129/2 124/130/2
f 132/128/2 98/120/2 99/131/2
f 131/132/2 132/128/2 99/131/2
f 117/126/2 124/130/2 125/133/2
f 117/126/2 125/133/2 126/134/2
f 117/126/2 126/134/2 127/135/2
f 130/136/2 131/132/2 99/131/2
f 117/126/2 127/135/2 128/137/2
f 117/126/2 128/137/2 129/138/2
f 117/126/2 129/138/2 130/136/2
f 117/126/2 130/136/2 99/131/2
f 117/126/2 99/131/2 100/139/2
f 117/126/2 100/139/2 101/140/2
f 117/126/2 101/140/2 102/141/2
f 79/79/2 117/126/2 118/142/2
f 116/143/2 117/126/2 102/141/2
f 116/143/2 102/141/2 103/144/2
f 115/145/2 116/143/2 103/144/2
f 114/146/2 115/145/2 103/144/2
f 113/147/2 114/146/2 103/144/2
f 112/148/2 113/147/2 103/144/2
f 112/148/2 103/144/2 104/149/2
f 111/150/2 112/148/2 104/149/2
f 110/151/2 111/150/2 104/149/2
f 109/152/2 110/151/2 104/149/2
f 108/153/2 109/152/2 104/149/2
f 108/153/2 104/149/2 105/154/2
f 107/155/2 108/153/2 105/154/2
f 106/156/2 107/155/2 105/154/2
s 1
f 158/157/3 160/158/4 159/159/4 157/160/3
f 160/158/4 162/161/5 161/162/5 159/159/4
f 162/161/5 164/163/6 163/164/6 161/162/5
f 164/163/6 166/165/7 165/166/7 163/164/6
f 166/165/7 168/167/8 167/168/8 165/166/7
f 168/167/8 170/169/9 169/170/9 167/168/8
f 170/169/9 172/171/10 171/172/10 169/170/9
f 172/171/10 174/173/11 173/174/11 171/172/10
f 174/173/11 176/175/12 175/176/12 173/174/11
f 176/175/12 178/177/13 177/178/13 175/176/12
f 178/177/13 180/179/14 179/180/14 177/178/13
f 180/179/14 182/181/15 181/182/15 179/180/14
f 182/181/15 184/183/16 183/184/16 181/182/15
f 184/183/16 186/185/17 185/186/17 183/184/16
f 186/185/17 188/187/18 187/188/18 185/186/17
f 188/187/18 190/189/19 189/190/19 187/188/18
f 190/189/19 192/191/20 191/192/20 189/190/19
f 192/191/20 194/193/21 193/194/21 191/192/20
f 194/193/21 196/195/22 195/196/22 193/194/21
f 196/195/22 198/197/23 197/198/23 195/196/22
f 198/197/23 200/199/24 199/200/24 197/198/23
f 200/199/24 202/201/25 201/202/25 199/200/24
f 202/201/25 204/203/26 203/204/26 201/202/25
f 204/203/26 206/205/27 205/206/27 203/204/26
f 206/205/27 208/207/28 207/208/28 205/206/27
f 208/207/28 210/209/29 209/210/29 207/208/28
f 210/209/29 212/211/30 211/212/30 209/210/29
f 212/211/30 214/213/31 213/214/31 211/212/30
f 214/213/31 216/215/32 215/216/32 213/214/31
f 216/215/32 218/217/33 217/218/33 215/216/32
f 218/217/33 220/219/34 219/220/34 217/218/33
f 220/219/34 222/221/35 221/222/35 219/220/34
f 222/221/35 224/223/36 223/224/36 221/222/35
f 224/223/36 226/225/37 225/226/37 223/224/36
f 226/225/37 228/227/38 227/228/38 225/226/37
f 228/227/38 230/229/39 229/230/39 227/228/38
f 230/229/39 232/231/40 231/232/40 229/230/39
f 232/231/40 234/233/41 233/234/41 231/232/40
f 234/233/41 236/235/42 235/236/42 233/234/41
f 236/235/42 158/237/3 157/238/3 235/236/42
f 238/239/43 240/240/44 239/241/44 237/242/43
f 240/240/44 242/243/45 241/244/45 239/241/44
f 242/243/45 244/245/46 243/246/46 241/244/45
f 244/245/46 246/247/47 245/248/47 243/246/46
f 246/247/47 248/249/48 247/250/48 245/248/47
f 248/249/48 250/251/49 249/252/49 247/250/48
f 250/251/49 252/253/50 251/254/50 249/252/49
f 252/253/50 254/255/51 253/256/51 251/254/50
f 254/255/51 256/257/52 255/258/52 253/256/51
f 256/257/52 258/259/53 257/260/53 255/258/52
f 258/259/53 260/261/54 259/262/54 257/260/53
f 260/261/54 262/263/55 261/264/55 259/262/54
f 262/263/55 264/265/56 263/266/56 261/264/55
f 264/265/56 266/267/57 265/268/57 263/266/56
f 266/267/57 268/269/58 267/270/58 265/268/57
f 268/269/58 270/271/59 269/272/59 267/270/58
f 270/271/59 272/273/60 271/274/60 269/272/59
f 272/273/60 274/275/61 273/276/61 271/274/60
f 274/275/61 276/277/62 275/278/62 273/276/61
f 276/277/62 278/279/63 277/280/63 275/278/62
f 278/279/63 280/281/64 279/282/64 277/280/63
f 280/281/64 282/283/65 281/284/65 279/282/64
f 282/283/65 284/285/66 283/286/66 281/284/65
f 284/285/66 286/287/67 285/288/67 283/286/66
f 286/287/67 288/289/68 287/290/68 285/288/67
f 288/289/68 290/291/69 289/292/69 287/290/68
f 290/291/69 292/293/70 291/294/70 289/292/69
f 292/293/70 294/295/71 293/296/71 291/294/70
f 294/295/71 296/297/72 295/298/72 293/296/71
f 296/297/72 298/299/73 297/300/73 295/298/72
f 298/299/73 300/301/74 299/302/74 297/300/73
f 300/301/74 302/303/75 301/304/75 299/302/74
f 302/303/75 304/305/76 303/306/76 301/304/75
f 304/305/76 306/307/77 305/308/77 303/306/76
f 306/307/77 308/309/78 307/310/78 305/308/77
f 308/309/78 310/311/42 309/312/42 307/310/78
f 310/311/42 312/313/79 311/314/79 309/312/42
f 312/313/79 238/315/43 237/316/43 311/314/79
