# Blender v2.93.0 OBJ File: ''
# www.blender.org
mtllib capitalK.mtl
o Text
v 0.520000 0.08 0.000000
v 0.173000 0.08 -0.337000
v 0.173000 0.08 0.000000
v 0.075000 0.08 0.000000
v 0.075000 0.08 -0.682000
v 0.173000 0.08 -0.682000
v 0.173000 0.08 -0.370000
v 0.460000 0.08 -0.682000
v 0.582000 0.08 -0.682000
v 0.285000 0.08 -0.359000
v 0.655000 0.08 0.000000
v 0.520000 0 0.000000
v 0.173000 0 -0.337000
v 0.173000 0 0.000000
v 0.075000 0 0.000000
v 0.075000 0 -0.682000
v 0.173000 0 -0.682000
v 0.173000 0 -0.370000
v 0.460000 0 -0.682000
v 0.582000 0 -0.682000
v 0.285000 0 -0.359000
v 0.655000 0 0.000000
v 0.520000 0 0.000000
v 0.520000 0.08 0.000000
v 0.173000 0 -0.337000
v 0.173000 0.08 -0.337000
v 0.173000 0 0.000000
v 0.173000 0.08 0.000000
v 0.075000 0 0.000000
v 0.075000 0.08 0.000000
v 0.075000 0 -0.682000
v 0.075000 0.08 -0.682000
v 0.173000 0 -0.682000
v 0.173000 0.08 -0.682000
v 0.173000 0 -0.370000
v 0.173000 0.08 -0.370000
v 0.460000 0 -0.682000
v 0.460000 0.08 -0.682000
v 0.582000 0 -0.682000
v 0.582000 0.08 -0.682000
v 0.285000 0 -0.359000
v 0.285000 0.08 -0.359000
v 0.655000 0 0.000000
v 0.655000 0.08 0.000000
vt 0.300000 0.000000
vt 0.500000 0.000000
vt 0.400000 0.000000
vt 0.600000 0.000000
vt 0.800000 0.000000
vt 0.700000 0.000000
vt 0.900000 0.000000
vt 0.100000 0.000000
vt 1.000000 0.000000
vt 0.200000 0.000000
vt 0.000000 0.000000
vt 0.300000 0.000000
vt 0.400000 0.000000
vt 0.500000 0.000000
vt 0.600000 0.000000
vt 0.700000 0.000000
vt 0.800000 0.000000
vt 0.900000 0.000000
vt 0.100000 0.000000
vt 1.000000 0.000000
vt 0.200000 0.000000
vt 0.000000 0.000000
vt 0.000000 1.000000
vt 0.090909 1.000000
vt 0.090909 0.000000
vt 0.000000 0.000000
vt 0.181818 1.000000
vt 0.181818 0.000000
vt 0.272727 1.000000
vt 0.272727 0.000000
vt 0.363636 1.000000
vt 0.363636 0.000000
vt 0.454545 1.000000
vt 0.454545 0.000000
vt 0.545455 1.000000
vt 0.545455 0.000000
vt 0.636364 1.000000
vt 0.636364 0.000000
vt 0.727273 1.000000
vt 0.727273 0.000000
vt 0.818182 1.000000
vt 0.818182 0.000000
vt 0.909091 1.000000
vt 0.909091 0.000000
vt 1.000000 1.000000
vt 1.000000 0.000000
vn 0.0000 1.0000 0.0000
vn 0.0000 -1.0000 0.0000
vn -0.3759 0.0000 0.9266
vn 0.3894 0.0000 0.9210
vn 0.7071 0.0000 0.7071
vn -0.7071 0.0000 0.7071
vn -0.7071 0.0000 -0.7071
vn 0.7071 0.0000 -0.7071
vn 0.3633 0.0000 -0.9316
vn -0.4018 0.0000 -0.9157
vn 0.9156 0.0000 -0.4019
vn 0.9996 0.0000 -0.0285
vn 0.9267 0.0000 0.3757
usemtl None
s off
f 4/1/1 6/2/1 5/3/1
f 4/1/1 7/4/1 6/2/1
f 7/4/1 9/5/1 8/6/1
f 7/4/1 10/7/1 9/5/1
f 4/1/1 2/8/1 7/4/1
f 2/8/1 10/7/1 7/4/1
f 2/8/1 11/9/1 10/7/1
f 4/1/1 3/10/1 2/8/1
f 1/11/1 11/9/1 2/8/1
f 15/12/2 16/13/2 17/14/2
f 15/12/2 17/14/2 18/15/2
f 18/15/2 19/16/2 20/17/2
f 18/15/2 20/17/2 21/18/2
f 15/12/2 18/15/2 13/19/2
f 13/19/2 18/15/2 21/18/2
f 13/19/2 21/18/2 22/20/2
f 15/12/2 13/19/2 14/21/2
f 12/22/2 13/19/2 22/20/2
s 1
f 24/23/3 26/24/4 25/25/4 23/26/3
f 26/24/4 28/27/5 27/28/5 25/25/4
f 28/27/5 30/29/6 29/30/6 27/28/5
f 30/29/6 32/31/7 31/32/7 29/30/6
f 32/31/7 34/33/8 33/34/8 31/32/7
f 34/33/8 36/35/9 35/36/9 33/34/8
f 36/35/9 38/37/10 37/38/10 35/36/9
f 38/37/10 40/39/11 39/40/11 37/38/10
f 40/39/11 42/41/12 41/42/12 39/40/11
f 42/41/12 44/43/13 43/44/13 41/42/12
f 44/43/13 24/45/3 23/46/3 43/44/13
