# Blender v2.93.0 OBJ File: ''
# www.blender.org
mtllib capitalH.mtl
o Text
v 0.555000 0.08 0.000000
v 0.555000 0.08 -0.297000
v 0.173000 0.08 -0.297000
v 0.173000 0.08 0.000000
v 0.075000 0.08 0.000000
v 0.075000 0.08 -0.682000
v 0.173000 0.08 -0.682000
v 0.173000 0.08 -0.385000
v 0.555000 0.08 -0.385000
v 0.555000 0.08 -0.682000
v 0.653000 0.08 -0.682000
v 0.653000 0.08 0.000000
v 0.555000 0 0.000000
v 0.555000 0 -0.297000
v 0.173000 0 -0.297000
v 0.173000 0 0.000000
v 0.075000 0 0.000000
v 0.075000 0 -0.682000
v 0.173000 0 -0.682000
v 0.173000 0 -0.385000
v 0.555000 0 -0.385000
v 0.555000 0 -0.682000
v 0.653000 0 -0.682000
v 0.653000 0 0.000000
v 0.555000 0 0.000000
v 0.555000 0.08 0.000000
v 0.555000 0 -0.297000
v 0.555000 0.08 -0.297000
v 0.173000 0 -0.297000
v 0.173000 0.08 -0.297000
v 0.173000 0 0.000000
v 0.173000 0.08 0.000000
v 0.075000 0 0.000000
v 0.075000 0.08 0.000000
v 0.075000 0 -0.682000
v 0.075000 0.08 -0.682000
v 0.173000 0 -0.682000
v 0.173000 0.08 -0.682000
v 0.173000 0 -0.385000
v 0.173000 0.08 -0.385000
v 0.555000 0 -0.385000
v 0.555000 0.08 -0.385000
v 0.555000 0 -0.682000
v 0.555000 0.08 -0.682000
v 0.653000 0 -0.682000
v 0.653000 0.08 -0.682000
v 0.653000 0 0.000000
v 0.653000 0.08 0.000000
vt 0.363636 0.000000
vt 0.545455 0.000000
vt 0.454545 0.000000
vt 0.636364 0.000000
vt 0.727273 0.000000
vt 0.909091 0.000000
vt 0.818182 0.000000
vt 1.000000 0.000000
vt 0.181818 0.000000
vt 0.090909 0.000000
vt 0.272727 0.000000
vt 0.000000 0.000000
vt 0.363636 0.000000
vt 0.454545 0.000000
vt 0.545455 0.000000
vt 0.636364 0.000000
vt 0.727273 0.000000
vt 0.818182 0.000000
vt 0.909091 0.000000
vt 1.000000 0.000000
vt 0.181818 0.000000
vt 0.090909 0.000000
vt 0.272727 0.000000
vt 0.000000 0.000000
vt 0.000000 1.000000
vt 0.083333 1.000000
vt 0.083333 0.000000
vt 0.000000 0.000000
vt 0.166667 1.000000
vt 0.166667 0.000000
vt 0.250000 1.000000
vt 0.250000 0.000000
vt 0.333333 1.000000
vt 0.333333 0.000000
vt 0.416667 1.000000
vt 0.416667 0.000000
vt 0.500000 1.000000
vt 0.500000 0.000000
vt 0.583333 1.000000
vt 0.583333 0.000000
vt 0.666667 1.000000
vt 0.666667 0.000000
vt 0.750000 1.000000
vt 0.750000 0.000000
vt 0.833333 1.000000
vt 0.833333 0.000000
vt 0.916667 1.000000
vt 0.916667 0.000000
vt 1.000000 1.000000
vt 1.000000 0.000000
vn 0.0000 1.0000 0.0000
vn 0.0000 -1.0000 0.0000
vn -0.7071 0.0000 0.7071
vn 0.7071 0.0000 0.7071
vn -0.7071 0.0000 -0.7071
vn 0.7071 0.0000 -0.7071
usemtl None
s off
f 5/1/1 7/2/1 6/3/1
f 5/1/1 8/4/1 7/2/1
f 9/5/1 11/6/1 10/7/1
f 9/5/1 12/8/1 11/6/1
f 5/1/1 3/9/1 8/4/1
f 3/9/1 9/5/1 8/4/1
f 3/9/1 2/10/1 9/5/1
f 2/10/1 12/8/1 9/5/1
f 5/1/1 4/11/1 3/9/1
f 1/12/1 12/8/1 2/10/1
f 17/13/2 18/14/2 19/15/2
f 17/13/2 19/15/2 20/16/2
f 21/17/2 22/18/2 23/19/2
f 21/17/2 23/19/2 24/20/2
f 17/13/2 20/16/2 15/21/2
f 15/21/2 20/16/2 21/17/2
f 15/21/2 21/17/2 14/22/2
f 14/22/2 21/17/2 24/20/2
f 17/13/2 15/21/2 16/23/2
f 13/24/2 14/22/2 24/20/2
s 1
f 26/25/3 28/26/3 27/27/3 25/28/3
f 28/26/3 30/29/4 29/30/4 27/27/3
f 30/29/4 32/31/4 31/32/4 29/30/4
f 32/31/4 34/33/3 33/34/3 31/32/4
f 34/33/3 36/35/5 35/36/5 33/34/3
f 36/35/5 38/37/6 37/38/6 35/36/5
f 38/37/6 40/39/6 39/40/6 37/38/6
f 40/39/6 42/41/5 41/42/5 39/40/6
f 42/41/5 44/43/5 43/44/5 41/42/5
f 44/43/5 46/45/6 45/46/6 43/44/5
f 46/45/6 48/47/4 47/48/4 45/46/6
f 48/47/4 26/49/3 25/50/3 47/48/4
