# Blender v2.93.0 OBJ File: ''
# www.blender.org
mtllib lowern.mtl
o Text
v 0.152000 0.08 -0.390000
v 0.160824 0.08 -0.400371
v 0.170259 0.08 -0.409968
v 0.180250 0.08 -0.418766
v 0.190741 0.08 -0.426741
v 0.201676 0.08 -0.433869
v 0.213000 0.08 -0.440125
v 0.224657 0.08 -0.445486
v 0.236593 0.08 -0.449926
v 0.248750 0.08 -0.453422
v 0.261074 0.08 -0.455949
v 0.273509 0.08 -0.457483
v 0.286000 0.08 -0.458000
v 0.306866 0.08 -0.456788
v 0.326847 0.08 -0.453134
v 0.345766 0.08 -0.447016
v 0.363444 0.08 -0.438407
v 0.379707 0.08 -0.427285
v 0.394375 0.08 -0.413625
v 0.407273 0.08 -0.397402
v 0.418222 0.08 -0.378593
v 0.427047 0.08 -0.357172
v 0.433569 0.08 -0.333116
v 0.437613 0.08 -0.306400
v 0.439000 0.08 -0.277000
v 0.439000 0.08 0.000000
v 0.350000 0.08 0.000000
v 0.350000 0.08 -0.278000
v 0.349300 0.08 -0.294009
v 0.347232 0.08 -0.308991
v 0.343844 0.08 -0.322875
v 0.339185 0.08 -0.335593
v 0.333304 0.08 -0.347074
v 0.326250 0.08 -0.357250
v 0.318071 0.08 -0.366051
v 0.308815 0.08 -0.373407
v 0.298531 0.08 -0.379250
v 0.287269 0.08 -0.383509
v 0.275075 0.08 -0.386116
v 0.262000 0.08 -0.387000
v 0.252406 0.08 -0.386619
v 0.243079 0.08 -0.385449
v 0.233953 0.08 -0.383453
v 0.224963 0.08 -0.380593
v 0.216042 0.08 -0.376829
v 0.207125 0.08 -0.372125
v 0.198145 0.08 -0.366442
v 0.189037 0.08 -0.359741
v 0.179734 0.08 -0.351984
v 0.170171 0.08 -0.343134
v 0.160282 0.08 -0.333152
v 0.150000 0.08 -0.322000
v 0.150000 0.08 0.000000
v 0.061000 0.08 0.000000
v 0.061000 0.08 -0.449000
v 0.150000 0.08 -0.449000
v 0.150000 0.08 -0.390000
v 0.152000 0 -0.390000
v 0.160824 0 -0.400371
v 0.170259 0 -0.409968
v 0.180250 0 -0.418766
v 0.190741 0 -0.426741
v 0.201676 0 -0.433869
v 0.213000 0 -0.440125
v 0.224657 0 -0.445486
v 0.236593 0 -0.449926
v 0.248750 0 -0.453422
v 0.261074 0 -0.455949
v 0.273509 0 -0.457483
v 0.286000 0 -0.458000
v 0.306866 0 -0.456788
v 0.326847 0 -0.453134
v 0.345766 0 -0.447016
v 0.363444 0 -0.438407
v 0.379707 0 -0.427285
v 0.394375 0 -0.413625
v 0.407273 0 -0.397402
v 0.418222 0 -0.378593
v 0.427047 0 -0.357172
v 0.433569 0 -0.333116
v 0.437613 0 -0.306400
v 0.439000 0 -0.277000
v 0.439000 0 0.000000
v 0.350000 0 0.000000
v 0.350000 0 -0.278000
v 0.349300 0 -0.294009
v 0.347232 0 -0.308991
v 0.343844 0 -0.322875
v 0.339185 0 -0.335593
v 0.333304 0 -0.347074
v 0.326250 0 -0.357250
v 0.318071 0 -0.366051
v 0.308815 0 -0.373407
v 0.298531 0 -0.379250
v 0.287269 0 -0.383509
v 0.275075 0 -0.386116
v 0.262000 0 -0.387000
v 0.252406 0 -0.386619
v 0.243079 0 -0.385449
v 0.233953 0 -0.383453
v 0.224963 0 -0.380593
v 0.216042 0 -0.376829
v 0.207125 0 -0.372125
v 0.198145 0 -0.366442
v 0.189037 0 -0.359741
v 0.179734 0 -0.351984
v 0.170171 0 -0.343134
v 0.160282 0 -0.333152
v 0.150000 0 -0.322000
v 0.150000 0 0.000000
v 0.061000 0 0.000000
v 0.061000 0 -0.449000
v 0.150000 0 -0.449000
v 0.150000 0 -0.390000
v 0.152000 0 -0.390000
v 0.152000 0.08 -0.390000
v 0.160824 0 -0.400371
v 0.160824 0.08 -0.400371
v 0.170259 0 -0.409968
v 0.170259 0.08 -0.409968
v 0.180250 0 -0.418766
v 0.180250 0.08 -0.418766
v 0.190741 0 -0.426741
v 0.190741 0.08 -0.426741
v 0.201676 0 -0.433869
v 0.201676 0.08 -0.433869
v 0.213000 0 -0.440125
v 0.213000 0.08 -0.440125
v 0.224657 0 -0.445486
v 0.224657 0.08 -0.445486
v 0.236593 0 -0.449926
v 0.236593 0.08 -0.449926
v 0.248750 0 -0.453422
v 0.248750 0.08 -0.453422
v 0.261074 0 -0.455949
v 0.261074 0.08 -0.455949
v 0.273509 0 -0.457483
v 0.273509 0.08 -0.457483
v 0.286000 0 -0.458000
v 0.286000 0.08 -0.458000
v 0.306866 0 -0.456788
v 0.306866 0.08 -0.456788
v 0.326847 0 -0.453134
v 0.326847 0.08 -0.453134
v 0.345766 0 -0.447016
v 0.345766 0.08 -0.447016
v 0.363444 0 -0.438407
v 0.363444 0.08 -0.438407
v 0.379707 0 -0.427285
v 0.379707 0.08 -0.427285
v 0.394375 0 -0.413625
v 0.394375 0.08 -0.413625
v 0.407273 0 -0.397402
v 0.407273 0.08 -0.397402
v 0.418222 0 -0.378593
v 0.418222 0.08 -0.378593
v 0.427047 0 -0.357172
v 0.427047 0.08 -0.357172
v 0.433569 0 -0.333116
v 0.433569 0.08 -0.333116
v 0.437613 0 -0.306400
v 0.437613 0.08 -0.306400
v 0.439000 0 -0.277000
v 0.439000 0.08 -0.277000
v 0.439000 0 0.000000
v 0.439000 0.08 0.000000
v 0.350000 0 0.000000
v 0.350000 0.08 0.000000
v 0.350000 0 -0.278000
v 0.350000 0.08 -0.278000
v 0.349300 0 -0.294009
v 0.349300 0.08 -0.294009
v 0.347232 0 -0.308991
v 0.347232 0.08 -0.308991
v 0.343844 0 -0.322875
v 0.343844 0.08 -0.322875
v 0.339185 0 -0.335593
v 0.339185 0.08 -0.335593
v 0.333304 0 -0.347074
v 0.333304 0.08 -0.347074
v 0.326250 0 -0.357250
v 0.326250 0.08 -0.357250
v 0.318071 0 -0.366051
v 0.318071 0.08 -0.366051
v 0.308815 0 -0.373407
v 0.308815 0.08 -0.373407
v 0.298531 0 -0.379250
v 0.298531 0.08 -0.379250
v 0.287269 0 -0.383509
v 0.287269 0.08 -0.383509
v 0.275075 0 -0.386116
v 0.275075 0.08 -0.386116
v 0.262000 0 -0.387000
v 0.262000 0.08 -0.387000
v 0.252406 0 -0.386619
v 0.252406 0.08 -0.386619
v 0.243079 0 -0.385449
v 0.243079 0.08 -0.385449
v 0.233953 0 -0.383453
v 0.233953 0.08 -0.383453
v 0.224963 0 -0.380593
v 0.224963 0.08 -0.380593
v 0.216042 0 -0.376829
v 0.216042 0.08 -0.376829
v 0.207125 0 -0.372125
v 0.207125 0.08 -0.372125
v 0.198145 0 -0.366442
v 0.198145 0.08 -0.366442
v 0.189037 0 -0.359741
v 0.189037 0.08 -0.359741
v 0.179734 0 -0.351984
v 0.179734 0.08 -0.351984
v 0.170171 0 -0.343134
v 0.170171 0.08 -0.343134
v 0.160282 0 -0.333152
v 0.160282 0.08 -0.333152
v 0.150000 0 -0.322000
v 0.150000 0.08 -0.322000
v 0.150000 0 0.000000
v 0.150000 0.08 0.000000
v 0.061000 0 0.000000
v 0.061000 0.08 0.000000
v 0.061000 0 -0.449000
v 0.061000 0.08 -0.449000
v 0.150000 0 -0.449000
v 0.150000 0.08 -0.449000
v 0.150000 0 -0.390000
v 0.150000 0.08 -0.390000
vt 0.196429 0.000000
vt 0.232143 0.000000
vt 0.214286 0.000000
vt 0.178571 0.000000
vt 0.250000 0.000000
vt 0.160714 0.000000
vt 0.142857 0.000000
vt 0.267857 0.000000
vt 0.125000 0.000000
vt 0.946429 0.000000
vt 0.982143 0.000000
vt 0.964286 0.000000
vt 1.000000 0.000000
vt 0.285714 0.000000
vt 0.107143 0.000000
vt 0.089286 0.000000
vt 0.303571 0.000000
vt 0.071429 0.000000
vt 0.321429 0.000000
vt 0.053571 0.000000
vt 0.035714 0.000000
vt 0.339286 0.000000
vt 0.017857 0.000000
vt 0.000000 0.000000
vt 0.696429 0.000000
vt 0.357143 0.000000
vt 0.910714 0.000000
vt 0.892857 0.000000
vt 0.875000 0.000000
vt 0.857143 0.000000
vt 0.839286 0.000000
vt 0.821429 0.000000
vt 0.803571 0.000000
vt 0.785714 0.000000
vt 0.767857 0.000000
vt 0.750000 0.000000
vt 0.732143 0.000000
vt 0.714286 0.000000
vt 0.678571 0.000000
vt 0.660714 0.000000
vt 0.642857 0.000000
vt 0.625000 0.000000
vt 0.375000 0.000000
vt 0.607143 0.000000
vt 0.589286 0.000000
vt 0.571429 0.000000
vt 0.392857 0.000000
vt 0.553571 0.000000
vt 0.535714 0.000000
vt 0.410714 0.000000
vt 0.517857 0.000000
vt 0.928571 0.000000
vt 0.500000 0.000000
vt 0.428571 0.000000
vt 0.482143 0.000000
vt 0.464286 0.000000
vt 0.446429 0.000000
vt 0.196429 0.000000
vt 0.214286 0.000000
vt 0.232143 0.000000
vt 0.178571 0.000000
vt 0.250000 0.000000
vt 0.160714 0.000000
vt 0.142857 0.000000
vt 0.267857 0.000000
vt 0.125000 0.000000
vt 0.946429 0.000000
vt 0.964286 0.000000
vt 0.982143 0.000000
vt 1.000000 0.000000
vt 0.285714 0.000000
vt 0.107143 0.000000
vt 0.089286 0.000000
vt 0.303571 0.000000
vt 0.071429 0.000000
vt 0.321429 0.000000
vt 0.053571 0.000000
vt 0.035714 0.000000
vt 0.339286 0.000000
vt 0.017857 0.000000
vt 0.000000 0.000000
vt 0.696429 0.000000
vt 0.357143 0.000000
vt 0.910714 0.000000
vt 0.892857 0.000000
vt 0.875000 0.000000
vt 0.857143 0.000000
vt 0.839286 0.000000
vt 0.821429 0.000000
vt 0.803571 0.000000
vt 0.785714 0.000000
vt 0.767857 0.000000
vt 0.750000 0.000000
vt 0.732143 0.000000
vt 0.714286 0.000000
vt 0.678571 0.000000
vt 0.660714 0.000000
vt 0.642857 0.000000
vt 0.625000 0.000000
vt 0.375000 0.000000
vt 0.607143 0.000000
vt 0.589286 0.000000
vt 0.571429 0.000000
vt 0.392857 0.000000
vt 0.553571 0.000000
vt 0.535714 0.000000
vt 0.410714 0.000000
vt 0.517857 0.000000
vt 0.928571 0.000000
vt 0.500000 0.000000
vt 0.428571 0.000000
vt 0.482143 0.000000
vt 0.464286 0.000000
vt 0.446429 0.000000
vt 0.000000 1.000000
vt 0.017544 1.000000
vt 0.017544 0.000000
vt 0.000000 0.000000
vt 0.035088 1.000000
vt 0.035088 0.000000
vt 0.052632 1.000000
vt 0.052632 0.000000
vt 0.070175 1.000000
vt 0.070175 0.000000
vt 0.087719 1.000000
vt 0.087719 0.000000
vt 0.105263 1.000000
vt 0.105263 0.000000
vt 0.122807 1.000000
vt 0.122807 0.000000
vt 0.140351 1.000000
vt 0.140351 0.000000
vt 0.157895 1.000000
vt 0.157895 0.000000
vt 0.175439 1.000000
vt 0.175439 0.000000
vt 0.192982 1.000000
vt 0.192982 0.000000
vt 0.210526 1.000000
vt 0.210526 0.000000
vt 0.228070 1.000000
vt 0.228070 0.000000
vt 0.245614 1.000000
vt 0.245614 0.000000
vt 0.263158 1.000000
vt 0.263158 0.000000
vt 0.280702 1.000000
vt 0.280702 0.000000
vt 0.298246 1.000000
vt 0.298246 0.000000
vt 0.315789 1.000000
vt 0.315789 0.000000
vt 0.333333 1.000000
vt 0.333333 0.000000
vt 0.350877 1.000000
vt 0.350877 0.000000
vt 0.368421 1.000000
vt 0.368421 0.000000
vt 0.385965 1.000000
vt 0.385965 0.000000
vt 0.403509 1.000000
vt 0.403509 0.000000
vt 0.421053 1.000000
vt 0.421053 0.000000
vt 0.438596 1.000000
vt 0.438596 0.000000
vt 0.456140 1.000000
vt 0.456140 0.000000
vt 0.473684 1.000000
vt 0.473684 0.000000
vt 0.491228 1.000000
vt 0.491228 0.000000
vt 0.508772 1.000000
vt 0.508772 0.000000
vt 0.526316 1.000000
vt 0.526316 0.000000
vt 0.543860 1.000000
vt 0.543860 0.000000
vt 0.561404 1.000000
vt 0.561404 0.000000
vt 0.578947 1.000000
vt 0.578947 0.000000
vt 0.596491 1.000000
vt 0.596491 0.000000
vt 0.614035 1.000000
vt 0.614035 0.000000
vt 0.631579 1.000000
vt 0.631579 0.000000
vt 0.649123 1.000000
vt 0.649123 0.000000
vt 0.666667 1.000000
vt 0.666667 0.000000
vt 0.684211 1.000000
vt 0.684211 0.000000
vt 0.701754 1.000000
vt 0.701754 0.000000
vt 0.719298 1.000000
vt 0.719298 0.000000
vt 0.736842 1.000000
vt 0.736842 0.000000
vt 0.754386 1.000000
vt 0.754386 0.000000
vt 0.771930 1.000000
vt 0.771930 0.000000
vt 0.789474 1.000000
vt 0.789474 0.000000
vt 0.807018 1.000000
vt 0.807018 0.000000
vt 0.824561 1.000000
vt 0.824561 0.000000
vt 0.842105 1.000000
vt 0.842105 0.000000
vt 0.859649 1.000000
vt 0.859649 0.000000
vt 0.877193 1.000000
vt 0.877193 0.000000
vt 0.894737 1.000000
vt 0.894737 0.000000
vt 0.912281 1.000000
vt 0.912281 0.000000
vt 0.929825 1.000000
vt 0.929825 0.000000
vt 0.947368 1.000000
vt 0.947368 0.000000
vt 0.964912 1.000000
vt 0.964912 0.000000
vt 0.982456 1.000000
vt 0.982456 0.000000
vt 1.000000 1.000000
vt 1.000000 0.000000
vn 0.0000 1.0000 0.0000
vn 0.0000 -1.0000 0.0000
vn -0.4195 0.0000 -0.9077
vn -0.7378 0.0000 -0.6750
vn -0.6874 0.0000 -0.7262
vn -0.6334 0.0000 -0.7738
vn -0.5760 0.0000 -0.8174
vn -0.5152 0.0000 -0.8571
vn -0.4510 0.0000 -0.8925
vn -0.3835 0.0000 -0.9235
vn -0.3127 0.0000 -0.9498
vn -0.2388 0.0000 -0.9710
vn -0.1618 0.0000 -0.9868
vn -0.0819 0.0000 -0.9966
vn 0.0083 0.0000 -0.9999
vn 0.1191 0.0000 -0.9929
vn 0.2443 0.0000 -0.9697
vn 0.3737 0.0000 -0.9275
vn 0.5025 0.0000 -0.8646
vn 0.6247 0.0000 -0.7808
vn 0.7342 0.0000 -0.6789
vn 0.8256 0.0000 -0.5642
vn 0.8965 0.0000 -0.4430
vn 0.9467 0.0000 -0.3219
vn 0.9785 0.0000 -0.2060
vn 0.9951 0.0000 -0.0985
vn 0.9997 0.0000 -0.0236
vn 0.7071 0.0000 0.7071
vn -0.7071 0.0000 0.7071
vn -0.9998 0.0000 0.0219
vn -0.9959 0.0000 0.0903
vn -0.9823 0.0000 0.1871
vn -0.9567 0.0000 0.2909
vn -0.9162 0.0000 0.4006
vn -0.8578 0.0000 0.5139
vn -0.7791 0.0000 0.6268
vn -0.6793 0.0000 0.7339
vn -0.5598 0.0000 0.8286
vn -0.4251 0.0000 0.9051
vn -0.2822 0.0000 0.9593
vn -0.1386 0.0000 0.9903
vn -0.0139 0.0000 0.9999
vn 0.0821 0.0000 0.9966
vn 0.1692 0.0000 0.9856
vn 0.2587 0.0000 0.9659
vn 0.3463 0.0000 0.9381
vn 0.4280 0.0000 0.9037
vn 0.5011 0.0000 0.8654
vn 0.5640 0.0000 0.8257
vn 0.6167 0.0000 0.7871
vn 0.6600 0.0000 0.7512
vn 0.6950 0.0000 0.7190
vn 0.7229 0.0000 0.6909
vn 0.9314 0.0000 0.3638
vn -0.7071 0.0000 -0.7071
vn 0.7071 0.0000 -0.7071
usemtl None
s off
f 12/1/1 14/2/1 13/3/1
f 11/4/1 14/2/1 12/1/1
f 11/4/1 15/5/1 14/2/1
f 10/6/1 15/5/1 11/4/1
f 9/7/1 15/5/1 10/6/1
f 9/7/1 16/8/1 15/5/1
f 8/9/1 16/8/1 9/7/1
f 54/10/1 56/11/1 55/12/1
f 54/10/1 57/13/1 56/11/1
f 8/9/1 17/14/1 16/8/1
f 7/15/1 17/14/1 8/9/1
f 6/16/1 17/14/1 7/15/1
f 6/16/1 18/17/1 17/14/1
f 5/18/1 18/17/1 6/16/1
f 5/18/1 19/19/1 18/17/1
f 4/20/1 19/19/1 5/18/1
f 3/21/1 19/19/1 4/20/1
f 3/21/1 20/22/1 19/19/1
f 2/23/1 20/22/1 3/21/1
f 1/24/1 20/22/1 2/23/1
f 1/24/1 40/25/1 20/22/1
f 40/25/1 21/26/1 20/22/1
f 54/10/1 1/24/1 57/13/1
f 54/10/1 52/27/1 1/24/1
f 52/27/1 51/28/1 1/24/1
f 51/28/1 50/29/1 1/24/1
f 50/29/1 49/30/1 1/24/1
f 49/30/1 48/31/1 1/24/1
f 48/31/1 47/32/1 1/24/1
f 47/32/1 46/33/1 1/24/1
f 46/33/1 45/34/1 1/24/1
f 45/34/1 44/35/1 1/24/1
f 44/35/1 43/36/1 1/24/1
f 43/36/1 42/37/1 1/24/1
f 42/37/1 41/38/1 1/24/1
f 41/38/1 40/25/1 1/24/1
f 39/39/1 21/26/1 40/25/1
f 38/40/1 21/26/1 39/39/1
f 37/41/1 21/26/1 38/40/1
f 36/42/1 21/26/1 37/41/1
f 36/42/1 22/43/1 21/26/1
f 35/44/1 22/43/1 36/42/1
f 34/45/1 22/43/1 35/44/1
f 33/46/1 22/43/1 34/45/1
f 33/46/1 23/47/1 22/43/1
f 32/48/1 23/47/1 33/46/1
f 31/49/1 23/47/1 32/48/1
f 31/49/1 24/50/1 23/47/1
f 30/51/1 24/50/1 31/49/1
f 54/10/1 53/52/1 52/27/1
f 29/53/1 24/50/1 30/51/1
f 29/53/1 25/54/1 24/50/1
f 28/55/1 25/54/1 29/53/1
f 27/56/1 25/54/1 28/55/1
f 27/56/1 26/57/1 25/54/1
f 69/58/2 70/59/2 71/60/2
f 68/61/2 69/58/2 71/60/2
f 68/61/2 71/60/2 72/62/2
f 67/63/2 68/61/2 72/62/2
f 66/64/2 67/63/2 72/62/2
f 66/64/2 72/62/2 73/65/2
f 65/66/2 66/64/2 73/65/2
f 111/67/2 112/68/2 113/69/2
f 111/67/2 113/69/2 114/70/2
f 65/66/2 73/65/2 74/71/2
f 64/72/2 65/66/2 74/71/2
f 63/73/2 64/72/2 74/71/2
f 63/73/2 74/71/2 75/74/2
f 62/75/2 63/73/2 75/74/2
f 62/75/2 75/74/2 76/76/2
f 61/77/2 62/75/2 76/76/2
f 60/78/2 61/77/2 76/76/2
f 60/78/2 76/76/2 77/79/2
f 59/80/2 60/78/2 77/79/2
f 58/81/2 59/80/2 77/79/2
f 58/81/2 77/79/2 97/82/2
f 97/82/2 77/79/2 78/83/2
f 111/67/2 114/70/2 58/81/2
f 111/67/2 58/81/2 109/84/2
f 109/84/2 58/81/2 108/85/2
f 108/85/2 58/81/2 107/86/2
f 107/86/2 58/81/2 106/87/2
f 106/87/2 58/81/2 105/88/2
f 105/88/2 58/81/2 104/89/2
f 104/89/2 58/81/2 103/90/2
f 103/90/2 58/81/2 102/91/2
f 102/91/2 58/81/2 101/92/2
f 101/92/2 58/81/2 100/93/2
f 100/93/2 58/81/2 99/94/2
f 99/94/2 58/81/2 98/95/2
f 98/95/2 58/81/2 97/82/2
f 96/96/2 97/82/2 78/83/2
f 95/97/2 96/96/2 78/83/2
f 94/98/2 95/97/2 78/83/2
f 93/99/2 94/98/2 78/83/2
f 93/99/2 78/83/2 79/100/2
f 92/101/2 93/99/2 79/100/2
f 91/102/2 92/101/2 79/100/2
f 90/103/2 91/102/2 79/100/2
f 90/103/2 79/100/2 80/104/2
f 89/105/2 90/103/2 80/104/2
f 88/106/2 89/105/2 80/104/2
f 88/106/2 80/104/2 81/107/2
f 87/108/2 88/106/2 81/107/2
f 111/67/2 109/84/2 110/109/2
f 86/110/2 87/108/2 81/107/2
f 86/110/2 81/107/2 82/111/2
f 85/112/2 86/110/2 82/111/2
f 84/113/2 85/112/2 82/111/2
f 84/113/2 82/111/2 83/114/2
s 1
f 116/115/3 118/116/4 117/117/4 115/118/3
f 118/116/4 120/119/5 119/120/5 117/117/4
f 120/119/5 122/121/6 121/122/6 119/120/5
f 122/121/6 124/123/7 123/124/7 121/122/6
f 124/123/7 126/125/8 125/126/8 123/124/7
f 126/125/8 128/127/9 127/128/9 125/126/8
f 128/127/9 130/129/10 129/130/10 127/128/9
f 130/129/10 132/131/11 131/132/11 129/130/10
f 132/131/11 134/133/12 133/134/12 131/132/11
f 134/133/12 136/135/13 135/136/13 133/134/12
f 136/135/13 138/137/14 137/138/14 135/136/13
f 138/137/14 140/139/15 139/140/15 137/138/14
f 140/139/15 142/141/16 141/142/16 139/140/15
f 142/141/16 144/143/17 143/144/17 141/142/16
f 144/143/17 146/145/18 145/146/18 143/144/17
f 146/145/18 148/147/19 147/148/19 145/146/18
f 148/147/19 150/149/20 149/150/20 147/148/19
f 150/149/20 152/151/21 151/152/21 149/150/20
f 152/151/21 154/153/22 153/154/22 151/152/21
f 154/153/22 156/155/23 155/156/23 153/154/22
f 156/155/23 158/157/24 157/158/24 155/156/23
f 158/157/24 160/159/25 159/160/25 157/158/24
f 160/159/25 162/161/26 161/162/26 159/160/25
f 162/161/26 164/163/27 163/164/27 161/162/26
f 164/163/27 166/165/28 165/166/28 163/164/27
f 166/165/28 168/167/29 167/168/29 165/166/28
f 168/167/29 170/169/30 169/170/30 167/168/29
f 170/169/30 172/171/31 171/172/31 169/170/30
f 172/171/31 174/173/32 173/174/32 171/172/31
f 174/173/32 176/175/33 175/176/33 173/174/32
f 176/175/33 178/177/34 177/178/34 175/176/33
f 178/177/34 180/179/35 179/180/35 177/178/34
f 180/179/35 182/181/36 181/182/36 179/180/35
f 182/181/36 184/183/37 183/184/37 181/182/36
f 184/183/37 186/185/38 185/186/38 183/184/37
f 186/185/38 188/187/39 187/188/39 185/186/38
f 188/187/39 190/189/40 189/190/40 187/188/39
f 190/189/40 192/191/41 191/192/41 189/190/40
f 192/191/41 194/193/42 193/194/42 191/192/41
f 194/193/42 196/195/43 195/196/43 193/194/42
f 196/195/43 198/197/44 197/198/44 195/196/43
f 198/197/44 200/199/45 199/200/45 197/198/44
f 200/199/45 202/201/46 201/202/46 199/200/45
f 202/201/46 204/203/47 203/204/47 201/202/46
f 204/203/47 206/205/48 205/206/48 203/204/47
f 206/205/48 208/207/49 207/208/49 205/206/48
f 208/207/49 210/209/50 209/210/50 207/208/49
f 210/209/50 212/211/51 211/212/51 209/210/50
f 212/211/51 214/213/52 213/214/52 211/212/51
f 214/213/52 216/215/53 215/216/53 213/214/52
f 216/215/53 218/217/54 217/218/54 215/216/53
f 218/217/54 220/219/28 219/220/28 217/218/54
f 220/219/28 222/221/29 221/222/29 219/220/28
f 222/221/29 224/223/55 223/224/55 221/222/29
f 224/223/55 226/225/56 225/226/56 223/224/55
f 226/225/56 228/227/56 227/228/56 225/226/56
f 228/227/56 116/229/3 115/230/3 227/228/56
