# Blender v2.93.0 OBJ File: ''
# www.blender.org
mtllib lowerv.mtl
o Text
v 0.100000 0.08 -0.449000
v 0.221000 0.08 -0.173000
v 0.339000 0.08 -0.449000
v 0.434000 0.08 -0.449000
v 0.236000 0.08 0.009000
v 0.206000 0.08 0.009000
v 0.003000 0.08 -0.449000
v 0.100000 0 -0.449000
v 0.221000 0 -0.173000
v 0.339000 0 -0.449000
v 0.434000 0 -0.449000
v 0.236000 0 0.009000
v 0.206000 0 0.009000
v 0.003000 0 -0.449000
v 0.100000 0 -0.449000
v 0.100000 0.08 -0.449000
v 0.221000 0 -0.173000
v 0.221000 0.08 -0.173000
v 0.339000 0 -0.449000
v 0.339000 0.08 -0.449000
v 0.434000 0 -0.449000
v 0.434000 0.08 -0.449000
v 0.236000 0 0.009000
v 0.236000 0.08 0.009000
v 0.206000 0 0.009000
v 0.206000 0.08 0.009000
v 0.003000 0 -0.449000
v 0.003000 0.08 -0.449000
vt 0.833333 0.000000
vt 0.000000 0.000000
vt 1.000000 0.000000
vt 0.166667 0.000000
vt 0.500000 0.000000
vt 0.333333 0.000000
vt 0.666667 0.000000
vt 0.833333 0.000000
vt 1.000000 0.000000
vt 0.000000 0.000000
vt 0.166667 0.000000
vt 0.333333 0.000000
vt 0.500000 0.000000
vt 0.666667 0.000000
vt 0.000000 1.000000
vt 0.142857 1.000000
vt 0.142857 0.000000
vt 0.000000 0.000000
vt 0.285714 1.000000
vt 0.285714 0.000000
vt 0.428571 1.000000
vt 0.428571 0.000000
vt 0.571429 1.000000
vt 0.571429 0.000000
vt 0.714286 1.000000
vt 0.714286 0.000000
vt 0.857143 1.000000
vt 0.857143 0.000000
vt 1.000000 1.000000
vt 1.000000 0.000000
vn 0.0000 1.0000 0.0000
vn 0.0000 -1.0000 0.0000
vn 0.5470 0.0000 -0.8371
vn -0.0045 0.0000 -1.0000
vn -0.5508 0.0000 -0.8346
vn 0.8357 0.0000 -0.5492
vn 0.5492 0.0000 0.8357
vn -0.5453 0.0000 0.8382
vn -0.8382 0.0000 -0.5453
usemtl None
s off
f 6/1/1 1/2/1 7/3/1
f 6/1/1 2/4/1 1/2/1
f 2/4/1 4/5/1 3/6/1
f 2/4/1 5/7/1 4/5/1
f 6/1/1 5/7/1 2/4/1
f 13/8/2 14/9/2 8/10/2
f 13/8/2 8/10/2 9/11/2
f 9/11/2 10/12/2 11/13/2
f 9/11/2 11/13/2 12/14/2
f 13/8/2 9/11/2 12/14/2
s 1
f 16/15/3 18/16/4 17/17/4 15/18/3
f 18/16/4 20/19/5 19/20/5 17/17/4
f 20/19/5 22/21/6 21/22/6 19/20/5
f 22/21/6 24/23/7 23/24/7 21/22/6
f 24/23/7 26/25/8 25/26/8 23/24/7
f 26/25/8 28/27/9 27/28/9 25/26/8
f 28/27/9 16/29/3 15/30/3 27/28/9
