# Blender v2.93.0 OBJ File: ''
# www.blender.org
mtllib capitalJ.mtl
o Text
v 0.172917 0.08 0.039047
v 0.169588 0.08 0.068542
v 0.163891 0.08 0.096266
v 0.155704 0.08 0.122000
v 0.144906 0.08 0.145526
v 0.131375 0.08 0.166625
v 0.114990 0.08 0.185078
v 0.095630 0.08 0.200667
v 0.073172 0.08 0.213172
v 0.047495 0.08 0.222375
v 0.018479 0.08 0.228057
v -0.014000 0.08 0.230000
v -0.016920 0.08 0.229980
v -0.019694 0.08 0.229921
v -0.022344 0.08 0.229828
v -0.024889 0.08 0.229704
v -0.027351 0.08 0.229551
v -0.029750 0.08 0.229375
v -0.032108 0.08 0.229178
v -0.034444 0.08 0.228963
v -0.036781 0.08 0.228734
v -0.039139 0.08 0.228495
v -0.041538 0.08 0.228249
v -0.044000 0.08 0.228000
v -0.062000 0.08 0.137000
v -0.037000 0.08 0.137000
v -0.012929 0.08 0.135916
v 0.007481 0.08 0.132657
v 0.024531 0.08 0.127219
v 0.038519 0.08 0.119593
v 0.049742 0.08 0.109772
v 0.058500 0.08 0.097750
v 0.065091 0.08 0.083520
v 0.069815 0.08 0.067074
v 0.072969 0.08 0.048406
v 0.074852 0.08 0.027509
v 0.075763 0.08 0.004376
v 0.076000 0.08 -0.021000
v 0.076000 0.08 -0.682000
v 0.174000 0.08 -0.682000
v 0.174000 0.08 0.008000
v 0.172917 0 0.039047
v 0.169588 0 0.068542
v 0.163891 0 0.096266
v 0.155704 0 0.122000
v 0.144906 0 0.145526
v 0.131375 0 0.166625
v 0.114990 0 0.185078
v 0.095630 0 0.200667
v 0.073172 0 0.213172
v 0.047495 0 0.222375
v 0.018479 0 0.228057
v -0.014000 0 0.230000
v -0.016920 0 0.229980
v -0.019694 0 0.229921
v -0.022344 0 0.229828
v -0.024889 0 0.229704
v -0.027351 0 0.229551
v -0.029750 0 0.229375
v -0.032108 0 0.229178
v -0.034444 0 0.228963
v -0.036781 0 0.228734
v -0.039139 0 0.228495
v -0.041538 0 0.228249
v -0.044000 0 0.228000
v -0.062000 0 0.137000
v -0.037000 0 0.137000
v -0.012929 0 0.135916
v 0.007481 0 0.132657
v 0.024531 0 0.127219
v 0.038519 0 0.119593
v 0.049742 0 0.109772
v 0.058500 0 0.097750
v 0.065091 0 0.083520
v 0.069815 0 0.067074
v 0.072969 0 0.048406
v 0.074852 0 0.027509
v 0.075763 0 0.004376
v 0.076000 0 -0.021000
v 0.076000 0 -0.682000
v 0.174000 0 -0.682000
v 0.174000 0 0.008000
v 0.172917 0 0.039047
v 0.172917 0.08 0.039047
v 0.169588 0 0.068542
v 0.169588 0.08 0.068542
v 0.163891 0 0.096266
v 0.163891 0.08 0.096266
v 0.155704 0 0.122000
v 0.155704 0.08 0.122000
v 0.144906 0 0.145526
v 0.144906 0.08 0.145526
v 0.131375 0 0.166625
v 0.131375 0.08 0.166625
v 0.114990 0 0.185078
v 0.114990 0.08 0.185078
v 0.095630 0 0.200667
v 0.095630 0.08 0.200667
v 0.073172 0 0.213172
v 0.073172 0.08 0.213172
v 0.047495 0 0.222375
v 0.047495 0.08 0.222375
v 0.018479 0 0.228057
v 0.018479 0.08 0.228057
v -0.014000 0 0.230000
v -0.014000 0.08 0.230000
v -0.016920 0 0.229980
v -0.016920 0.08 0.229980
v -0.019694 0 0.229921
v -0.019694 0.08 0.229921
v -0.022344 0 0.229828
v -0.022344 0.08 0.229828
v -0.024889 0 0.229704
v -0.024889 0.08 0.229704
v -0.027351 0 0.229551
v -0.027351 0.08 0.229551
v -0.029750 0 0.229375
v -0.029750 0.08 0.229375
v -0.032108 0 0.229178
v -0.032108 0.08 0.229178
v -0.034444 0 0.228963
v -0.034444 0.08 0.228963
v -0.036781 0 0.228734
v -0.036781 0.08 0.228734
v -0.039139 0 0.228495
v -0.039139 0.08 0.228495
v -0.041538 0 0.228249
v -0.041538 0.08 0.228249
v -0.044000 0 0.228000
v -0.044000 0.08 0.228000
v -0.062000 0 0.137000
v -0.062000 0.08 0.137000
v -0.037000 0 0.137000
v -0.037000 0.08 0.137000
v -0.012929 0 0.135916
v -0.012929 0.08 0.135916
v 0.007481 0 0.132657
v 0.007481 0.08 0.132657
v 0.024531 0 0.127219
v 0.024531 0.08 0.127219
v 0.038519 0 0.119593
v 0.038519 0.08 0.119593
v 0.049742 0 0.109772
v 0.049742 0.08 0.109772
v 0.058500 0 0.097750
v 0.058500 0.08 0.097750
v 0.065091 0 0.083520
v 0.065091 0.08 0.083520
v 0.069815 0 0.067074
v 0.069815 0.08 0.067074
v 0.072969 0 0.048406
v 0.072969 0.08 0.048406
v 0.074852 0 0.027509
v 0.074852 0.08 0.027509
v 0.075763 0 0.004376
v 0.075763 0.08 0.004376
v 0.076000 0 -0.021000
v 0.076000 0.08 -0.021000
v 0.076000 0 -0.682000
v 0.076000 0.08 -0.682000
v 0.174000 0 -0.682000
v 0.174000 0.08 -0.682000
v 0.174000 0 0.008000
v 0.174000 0.08 0.008000
vt 0.925000 0.000000
vt 0.975000 0.000000
vt 0.950000 0.000000
vt 1.000000 0.000000
vt 0.900000 0.000000
vt 0.875000 0.000000
vt 0.000000 0.000000
vt 0.850000 0.000000
vt 0.025000 0.000000
vt 0.825000 0.000000
vt 0.800000 0.000000
vt 0.050000 0.000000
vt 0.775000 0.000000
vt 0.075000 0.000000
vt 0.750000 0.000000
vt 0.725000 0.000000
vt 0.700000 0.000000
vt 0.100000 0.000000
vt 0.675000 0.000000
vt 0.650000 0.000000
vt 0.625000 0.000000
vt 0.575000 0.000000
vt 0.600000 0.000000
vt 0.125000 0.000000
vt 0.150000 0.000000
vt 0.175000 0.000000
vt 0.200000 0.000000
vt 0.225000 0.000000
vt 0.250000 0.000000
vt 0.550000 0.000000
vt 0.275000 0.000000
vt 0.525000 0.000000
vt 0.500000 0.000000
vt 0.475000 0.000000
vt 0.450000 0.000000
vt 0.425000 0.000000
vt 0.400000 0.000000
vt 0.375000 0.000000
vt 0.350000 0.000000
vt 0.325000 0.000000
vt 0.300000 0.000000
vt 0.925000 0.000000
vt 0.950000 0.000000
vt 0.975000 0.000000
vt 1.000000 0.000000
vt 0.900000 0.000000
vt 0.875000 0.000000
vt 0.000000 0.000000
vt 0.850000 0.000000
vt 0.025000 0.000000
vt 0.825000 0.000000
vt 0.800000 0.000000
vt 0.050000 0.000000
vt 0.775000 0.000000
vt 0.075000 0.000000
vt 0.750000 0.000000
vt 0.725000 0.000000
vt 0.700000 0.000000
vt 0.100000 0.000000
vt 0.675000 0.000000
vt 0.650000 0.000000
vt 0.625000 0.000000
vt 0.575000 0.000000
vt 0.600000 0.000000
vt 0.125000 0.000000
vt 0.150000 0.000000
vt 0.175000 0.000000
vt 0.200000 0.000000
vt 0.225000 0.000000
vt 0.250000 0.000000
vt 0.550000 0.000000
vt 0.275000 0.000000
vt 0.525000 0.000000
vt 0.500000 0.000000
vt 0.475000 0.000000
vt 0.450000 0.000000
vt 0.425000 0.000000
vt 0.400000 0.000000
vt 0.375000 0.000000
vt 0.350000 0.000000
vt 0.325000 0.000000
vt 0.300000 0.000000
vt 0.000000 1.000000
vt 0.024390 1.000000
vt 0.024390 0.000000
vt 0.000000 0.000000
vt 0.048780 1.000000
vt 0.048780 0.000000
vt 0.073171 1.000000
vt 0.073171 0.000000
vt 0.097561 1.000000
vt 0.097561 0.000000
vt 0.121951 1.000000
vt 0.121951 0.000000
vt 0.146341 1.000000
vt 0.146341 0.000000
vt 0.170732 1.000000
vt 0.170732 0.000000
vt 0.195122 1.000000
vt 0.195122 0.000000
vt 0.219512 1.000000
vt 0.219512 0.000000
vt 0.243902 1.000000
vt 0.243902 0.000000
vt 0.268293 1.000000
vt 0.268293 0.000000
vt 0.292683 1.000000
vt 0.292683 0.000000
vt 0.317073 1.000000
vt 0.317073 0.000000
vt 0.341463 1.000000
vt 0.341463 0.000000
vt 0.365854 1.000000
vt 0.365854 0.000000
vt 0.390244 1.000000
vt 0.390244 0.000000
vt 0.414634 1.000000
vt 0.414634 0.000000
vt 0.439024 1.000000
vt 0.439024 0.000000
vt 0.463415 1.000000
vt 0.463415 0.000000
vt 0.487805 1.000000
vt 0.487805 0.000000
vt 0.512195 1.000000
vt 0.512195 0.000000
vt 0.536585 1.000000
vt 0.536585 0.000000
vt 0.560976 1.000000
vt 0.560976 0.000000
vt 0.585366 1.000000
vt 0.585366 0.000000
vt 0.609756 1.000000
vt 0.609756 0.000000
vt 0.634146 1.000000
vt 0.634146 0.000000
vt 0.658537 1.000000
vt 0.658537 0.000000
vt 0.682927 1.000000
vt 0.682927 0.000000
vt 0.707317 1.000000
vt 0.707317 0.000000
vt 0.731707 1.000000
vt 0.731707 0.000000
vt 0.756098 1.000000
vt 0.756098 0.000000
vt 0.780488 1.000000
vt 0.780488 0.000000
vt 0.804878 1.000000
vt 0.804878 0.000000
vt 0.829268 1.000000
vt 0.829268 0.000000
vt 0.853659 1.000000
vt 0.853659 0.000000
vt 0.878049 1.000000
vt 0.878049 0.000000
vt 0.902439 1.000000
vt 0.902439 0.000000
vt 0.926829 1.000000
vt 0.926829 0.000000
vt 0.951219 1.000000
vt 0.951219 0.000000
vt 0.975610 1.000000
vt 0.975610 0.000000
vt 1.000000 1.000000
vt 1.000000 0.000000
vn 0.0000 1.0000 0.0000
vn 0.0000 -1.0000 0.0000
vn 0.9973 0.0000 0.0735
vn 0.9876 0.0000 0.1569
vn 0.9676 0.0000 0.2526
vn 0.9326 0.0000 0.3608
vn 0.8774 0.0000 0.4796
vn 0.7972 0.0000 0.6037
vn 0.6898 0.0000 0.7239
vn 0.5588 0.0000 0.8292
vn 0.4133 0.0000 0.9106
vn 0.2655 0.0000 0.9641
vn 0.1262 0.0000 0.9920
vn 0.0264 0.0000 0.9996
vn -0.0140 0.0000 0.9999
vn -0.0281 0.0000 0.9996
vn -0.0420 0.0000 0.9991
vn -0.0553 0.0000 0.9984
vn -0.0675 0.0000 0.9977
vn -0.0784 0.0000 0.9969
vn -0.0874 0.0000 0.9962
vn -0.0944 0.0000 0.9955
vn -0.0991 0.0000 0.9951
vn -0.1014 0.0000 0.9948
vn -0.6730 0.0000 0.7396
vn -0.7727 0.0000 -0.6348
vn -0.0225 0.0000 -0.9997
vn -0.1015 0.0000 -0.9948
vn -0.2314 0.0000 -0.9728
vn -0.3930 0.0000 -0.9195
vn -0.5720 0.0000 -0.8202
vn -0.7379 0.0000 -0.6749
vn -0.8619 0.0000 -0.5070
vn -0.9370 0.0000 -0.3492
vn -0.9751 0.0000 -0.2217
vn -0.9917 0.0000 -0.1282
vn -0.9979 0.0000 -0.0645
vn -0.9997 0.0000 -0.0243
vn -1.0000 0.0000 -0.0047
vn -0.7071 0.0000 -0.7071
vn 0.7071 0.0000 -0.7071
vn 0.9998 0.0000 0.0174
usemtl None
s off
f 38/1/1 40/2/1 39/3/1
f 38/1/1 41/4/1 40/2/1
f 37/5/1 41/4/1 38/1/1
f 36/6/1 41/4/1 37/5/1
f 36/6/1 1/7/1 41/4/1
f 35/8/1 1/7/1 36/6/1
f 35/8/1 2/9/1 1/7/1
f 34/10/1 2/9/1 35/8/1
f 33/11/1 2/9/1 34/10/1
f 33/11/1 3/12/1 2/9/1
f 32/13/1 3/12/1 33/11/1
f 32/13/1 4/14/1 3/12/1
f 31/15/1 4/14/1 32/13/1
f 30/16/1 4/14/1 31/15/1
f 29/17/1 4/14/1 30/16/1
f 29/17/1 5/18/1 4/14/1
f 28/19/1 5/18/1 29/17/1
f 27/20/1 5/18/1 28/19/1
f 26/21/1 5/18/1 27/20/1
f 24/22/1 26/21/1 25/23/1
f 24/22/1 5/18/1 26/21/1
f 24/22/1 6/24/1 5/18/1
f 24/22/1 7/25/1 6/24/1
f 24/22/1 8/26/1 7/25/1
f 24/22/1 9/27/1 8/26/1
f 24/22/1 10/28/1 9/27/1
f 24/22/1 11/29/1 10/28/1
f 23/30/1 11/29/1 24/22/1
f 23/30/1 12/31/1 11/29/1
f 22/32/1 12/31/1 23/30/1
f 21/33/1 12/31/1 22/32/1
f 20/34/1 12/31/1 21/33/1
f 19/35/1 12/31/1 20/34/1
f 18/36/1 12/31/1 19/35/1
f 17/37/1 12/31/1 18/36/1
f 16/38/1 12/31/1 17/37/1
f 15/39/1 12/31/1 16/38/1
f 14/40/1 12/31/1 15/39/1
f 13/41/1 12/31/1 14/40/1
f 79/42/2 80/43/2 81/44/2
f 79/42/2 81/44/2 82/45/2
f 78/46/2 79/42/2 82/45/2
f 77/47/2 78/46/2 82/45/2
f 77/47/2 82/45/2 42/48/2
f 76/49/2 77/47/2 42/48/2
f 76/49/2 42/48/2 43/50/2
f 75/51/2 76/49/2 43/50/2
f 74/52/2 75/51/2 43/50/2
f 74/52/2 43/50/2 44/53/2
f 73/54/2 74/52/2 44/53/2
f 73/54/2 44/53/2 45/55/2
f 72/56/2 73/54/2 45/55/2
f 71/57/2 72/56/2 45/55/2
f 70/58/2 71/57/2 45/55/2
f 70/58/2 45/55/2 46/59/2
f 69/60/2 70/58/2 46/59/2
f 68/61/2 69/60/2 46/59/2
f 67/62/2 68/61/2 46/59/2
f 65/63/2 66/64/2 67/62/2
f 65/63/2 67/62/2 46/59/2
f 65/63/2 46/59/2 47/65/2
f 65/63/2 47/65/2 48/66/2
f 65/63/2 48/66/2 49/67/2
f 65/63/2 49/67/2 50/68/2
f 65/63/2 50/68/2 51/69/2
f 65/63/2 51/69/2 52/70/2
f 64/71/2 65/63/2 52/70/2
f 64/71/2 52/70/2 53/72/2
f 63/73/2 64/71/2 53/72/2
f 62/74/2 63/73/2 53/72/2
f 61/75/2 62/74/2 53/72/2
f 60/76/2 61/75/2 53/72/2
f 59/77/2 60/76/2 53/72/2
f 58/78/2 59/77/2 53/72/2
f 57/79/2 58/78/2 53/72/2
f 56/80/2 57/79/2 53/72/2
f 55/81/2 56/80/2 53/72/2
f 54/82/2 55/81/2 53/72/2
s 1
f 84/83/3 86/84/4 85/85/4 83/86/3
f 86/84/4 88/87/5 87/88/5 85/85/4
f 88/87/5 90/89/6 89/90/6 87/88/5
f 90/89/6 92/91/7 91/92/7 89/90/6
f 92/91/7 94/93/8 93/94/8 91/92/7
f 94/93/8 96/95/9 95/96/9 93/94/8
f 96/95/9 98/97/10 97/98/10 95/96/9
f 98/97/10 100/99/11 99/100/11 97/98/10
f 100/99/11 102/101/12 101/102/12 99/100/11
f 102/101/12 104/103/13 103/104/13 101/102/12
f 104/103/13 106/105/14 105/106/14 103/104/13
f 106/105/14 108/107/15 107/108/15 105/106/14
f 108/107/15 110/109/16 109/110/16 107/108/15
f 110/109/16 112/111/17 111/112/17 109/110/16
f 112/111/17 114/113/18 113/114/18 111/112/17
f 114/113/18 116/115/19 115/116/19 113/114/18
f 116/115/19 118/117/20 117/118/20 115/116/19
f 118/117/20 120/119/21 119/120/21 117/118/20
f 120/119/21 122/121/22 121/122/22 119/120/21
f 122/121/22 124/123/23 123/124/23 121/122/22
f 124/123/23 126/125/24 125/126/24 123/124/23
f 126/125/24 128/127/24 127/128/24 125/126/24
f 128/127/24 130/129/25 129/130/25 127/128/24
f 130/129/25 132/131/26 131/132/26 129/130/25
f 132/131/26 134/133/27 133/134/27 131/132/26
f 134/133/27 136/135/28 135/136/28 133/134/27
f 136/135/28 138/137/29 137/138/29 135/136/28
f 138/137/29 140/139/30 139/140/30 137/138/29
f 140/139/30 142/141/31 141/142/31 139/140/30
f 142/141/31 144/143/32 143/144/32 141/142/31
f 144/143/32 146/145/33 145/146/33 143/144/32
f 146/145/33 148/147/34 147/148/34 145/146/33
f 148/147/34 150/149/35 149/150/35 147/148/34
f 150/149/35 152/151/36 151/152/36 149/150/35
f 152/151/36 154/153/37 153/154/37 151/152/36
f 154/153/37 156/155/38 155/156/38 153/154/37
f 156/155/38 158/157/39 157/158/39 155/156/38
f 158/157/39 160/159/40 159/160/40 157/158/39
f 160/159/40 162/161/41 161/162/41 159/160/40
f 162/161/41 164/163/42 163/164/42 161/162/41
f 164/163/42 84/165/3 83/166/3 163/164/42
