# Blender v2.93.0 OBJ File: ''
# www.blender.org
mtllib capitalV.mtl
o Text
v 0.295000 0.08 0.006000
v 0.000000 0.08 -0.682000
v 0.098000 0.08 -0.682000
v 0.303000 0.08 -0.203000
v 0.507000 0.08 -0.682000
v 0.604000 0.08 -0.682000
v 0.315000 0.08 0.006000
v 0.295000 0 0.006000
v 0.000000 0 -0.682000
v 0.098000 0 -0.682000
v 0.303000 0 -0.203000
v 0.507000 0 -0.682000
v 0.604000 0 -0.682000
v 0.315000 0 0.006000
v 0.295000 0 0.006000
v 0.295000 0.08 0.006000
v 0.000000 0 -0.682000
v 0.000000 0.08 -0.682000
v 0.098000 0 -0.682000
v 0.098000 0.08 -0.682000
v 0.303000 0 -0.203000
v 0.303000 0.08 -0.203000
v 0.507000 0 -0.682000
v 0.507000 0.08 -0.682000
v 0.604000 0 -0.682000
v 0.604000 0.08 -0.682000
v 0.315000 0 0.006000
v 0.315000 0.08 0.006000
vt 0.000000 0.000000
vt 0.333333 0.000000
vt 0.166667 0.000000
vt 0.500000 0.000000
vt 0.833333 0.000000
vt 0.666667 0.000000
vt 1.000000 0.000000
vt 0.000000 0.000000
vt 0.166667 0.000000
vt 0.333333 0.000000
vt 0.500000 0.000000
vt 0.666667 0.000000
vt 0.833333 0.000000
vt 1.000000 0.000000
vt 0.000000 1.000000
vt 0.142857 1.000000
vt 0.142857 0.000000
vt 0.000000 0.000000
vt 0.285714 1.000000
vt 0.285714 0.000000
vt 0.428571 1.000000
vt 0.428571 0.000000
vt 0.571429 1.000000
vt 0.571429 0.000000
vt 0.714286 1.000000
vt 0.714286 0.000000
vt 0.857143 1.000000
vt 0.857143 0.000000
vt 1.000000 1.000000
vt 1.000000 0.000000
vn 0.0000 1.0000 0.0000
vn 0.0000 -1.0000 0.0000
vn -0.5504 0.0000 0.8349
vn -0.8349 0.0000 -0.5504
vn 0.5507 0.0000 -0.8347
vn -0.0009 0.0000 -1.0000
vn -0.5514 0.0000 -0.8342
vn 0.8328 0.0000 -0.5535
vn 0.5535 0.0000 0.8328
usemtl None
s off
f 1/1/1 3/2/1 2/3/1
f 1/1/1 4/4/1 3/2/1
f 4/4/1 6/5/1 5/6/1
f 4/4/1 7/7/1 6/5/1
f 1/1/1 7/7/1 4/4/1
f 8/8/2 9/9/2 10/10/2
f 8/8/2 10/10/2 11/11/2
f 11/11/2 12/12/2 13/13/2
f 11/11/2 13/13/2 14/14/2
f 8/8/2 11/11/2 14/14/2
s 1
f 16/15/3 18/16/4 17/17/4 15/18/3
f 18/16/4 20/19/5 19/20/5 17/17/4
f 20/19/5 22/21/6 21/22/6 19/20/5
f 22/21/6 24/23/7 23/24/7 21/22/6
f 24/23/7 26/25/8 25/26/8 23/24/7
f 26/25/8 28/27/9 27/28/9 25/26/8
f 28/27/9 16/29/3 15/30/3 27/28/9
