# Blender v2.93.0 OBJ File: ''
# www.blender.org
mtllib 5.mtl
o Text
v 0.190000 0.08 -0.594000
v 0.190000 0.08 -0.423000
v 0.227230 0.08 -0.423086
v 0.261843 0.08 -0.419023
v 0.293719 0.08 -0.411078
v 0.322741 0.08 -0.399519
v 0.348790 0.08 -0.384612
v 0.371750 0.08 -0.366625
v 0.391501 0.08 -0.345826
v 0.407926 0.08 -0.322481
v 0.420906 0.08 -0.296859
v 0.430324 0.08 -0.269227
v 0.436061 0.08 -0.239851
v 0.438000 0.08 -0.209000
v 0.436076 0.08 -0.178242
v 0.430440 0.08 -0.149102
v 0.421297 0.08 -0.121781
v 0.408852 0.08 -0.096481
v 0.393310 0.08 -0.073404
v 0.374875 0.08 -0.052750
v 0.353753 0.08 -0.034721
v 0.330148 0.08 -0.019519
v 0.304266 0.08 -0.007344
v 0.276310 0.08 0.001602
v 0.246487 0.08 0.007117
v 0.215000 0.08 0.009000
v 0.200486 0.08 0.008747
v 0.186389 0.08 0.007972
v 0.172625 0.08 0.006656
v 0.159111 0.08 0.004778
v 0.145764 0.08 0.002316
v 0.132500 0.08 -0.000750
v 0.119236 0.08 -0.004441
v 0.105889 0.08 -0.008778
v 0.092375 0.08 -0.013781
v 0.078611 0.08 -0.019472
v 0.064514 0.08 -0.025872
v 0.050000 0.08 -0.033000
v 0.050000 0.08 -0.134000
v 0.062270 0.08 -0.126084
v 0.074579 0.08 -0.118838
v 0.086922 0.08 -0.112266
v 0.099296 0.08 -0.106370
v 0.111698 0.08 -0.101156
v 0.124125 0.08 -0.096625
v 0.136572 0.08 -0.092782
v 0.149037 0.08 -0.089630
v 0.161516 0.08 -0.087172
v 0.174005 0.08 -0.085412
v 0.186501 0.08 -0.084354
v 0.199000 0.08 -0.084000
v 0.217950 0.08 -0.085141
v 0.236181 0.08 -0.088458
v 0.253516 0.08 -0.093797
v 0.269778 0.08 -0.101000
v 0.284790 0.08 -0.109911
v 0.298375 0.08 -0.120375
v 0.310356 0.08 -0.132234
v 0.320556 0.08 -0.145333
v 0.328797 0.08 -0.159516
v 0.334903 0.08 -0.174625
v 0.338696 0.08 -0.190505
v 0.340000 0.08 -0.207000
v 0.338162 0.08 -0.228325
v 0.332713 0.08 -0.248597
v 0.323750 0.08 -0.267516
v 0.311370 0.08 -0.284778
v 0.295671 0.08 -0.300082
v 0.276750 0.08 -0.313125
v 0.254704 0.08 -0.323606
v 0.229630 0.08 -0.331222
v 0.201625 0.08 -0.335672
v 0.170787 0.08 -0.336653
v 0.137213 0.08 -0.333863
v 0.101000 0.08 -0.327000
v 0.101000 0.08 -0.682000
v 0.404000 0.08 -0.682000
v 0.404000 0.08 -0.594000
v 0.190000 0 -0.594000
v 0.190000 0 -0.423000
v 0.227230 0 -0.423086
v 0.261843 0 -0.419023
v 0.293719 0 -0.411078
v 0.322741 0 -0.399519
v 0.348790 0 -0.384612
v 0.371750 0 -0.366625
v 0.391501 0 -0.345826
v 0.407926 0 -0.322481
v 0.420906 0 -0.296859
v 0.430324 0 -0.269227
v 0.436061 0 -0.239851
v 0.438000 0 -0.209000
v 0.436076 0 -0.178242
v 0.430440 0 -0.149102
v 0.421297 0 -0.121781
v 0.408852 0 -0.096481
v 0.393310 0 -0.073404
v 0.374875 0 -0.052750
v 0.353753 0 -0.034721
v 0.330148 0 -0.019519
v 0.304266 0 -0.007344
v 0.276310 0 0.001602
v 0.246487 0 0.007117
v 0.215000 0 0.009000
v 0.200486 0 0.008747
v 0.186389 0 0.007972
v 0.172625 0 0.006656
v 0.159111 0 0.004778
v 0.145764 0 0.002316
v 0.132500 0 -0.000750
v 0.119236 0 -0.004441
v 0.105889 0 -0.008778
v 0.092375 0 -0.013781
v 0.078611 0 -0.019472
v 0.064514 0 -0.025872
v 0.050000 0 -0.033000
v 0.050000 0 -0.134000
v 0.062270 0 -0.126084
v 0.074579 0 -0.118838
v 0.086922 0 -0.112266
v 0.099296 0 -0.106370
v 0.111698 0 -0.101156
v 0.124125 0 -0.096625
v 0.136572 0 -0.092782
v 0.149037 0 -0.089630
v 0.161516 0 -0.087172
v 0.174005 0 -0.085412
v 0.186501 0 -0.084354
v 0.199000 0 -0.084000
v 0.217950 0 -0.085141
v 0.236181 0 -0.088458
v 0.253516 0 -0.093797
v 0.269778 0 -0.101000
v 0.284790 0 -0.109911
v 0.298375 0 -0.120375
v 0.310356 0 -0.132234
v 0.320556 0 -0.145333
v 0.328797 0 -0.159516
v 0.334903 0 -0.174625
v 0.338696 0 -0.190505
v 0.340000 0 -0.207000
v 0.338162 0 -0.228325
v 0.332713 0 -0.248597
v 0.323750 0 -0.267516
v 0.311370 0 -0.284778
v 0.295671 0 -0.300082
v 0.276750 0 -0.313125
v 0.254704 0 -0.323606
v 0.229630 0 -0.331222
v 0.201625 0 -0.335672
v 0.170787 0 -0.336653
v 0.137213 0 -0.333863
v 0.101000 0 -0.327000
v 0.101000 0 -0.682000
v 0.404000 0 -0.682000
v 0.404000 0 -0.594000
v 0.190000 0 -0.594000
v 0.190000 0.08 -0.594000
v 0.190000 0 -0.423000
v 0.190000 0.08 -0.423000
v 0.227230 0 -0.423086
v 0.227230 0.08 -0.423086
v 0.261843 0 -0.419023
v 0.261843 0.08 -0.419023
v 0.293719 0 -0.411078
v 0.293719 0.08 -0.411078
v 0.322741 0 -0.399519
v 0.322741 0.08 -0.399519
v 0.348790 0 -0.384612
v 0.348790 0.08 -0.384612
v 0.371750 0 -0.366625
v 0.371750 0.08 -0.366625
v 0.391501 0 -0.345826
v 0.391501 0.08 -0.345826
v 0.407926 0 -0.322481
v 0.407926 0.08 -0.322481
v 0.420906 0 -0.296859
v 0.420906 0.08 -0.296859
v 0.430324 0 -0.269227
v 0.430324 0.08 -0.269227
v 0.436061 0 -0.239851
v 0.436061 0.08 -0.239851
v 0.438000 0 -0.209000
v 0.438000 0.08 -0.209000
v 0.436076 0 -0.178242
v 0.436076 0.08 -0.178242
v 0.430440 0 -0.149102
v 0.430440 0.08 -0.149102
v 0.421297 0 -0.121781
v 0.421297 0.08 -0.121781
v 0.408852 0 -0.096481
v 0.408852 0.08 -0.096481
v 0.393310 0 -0.073404
v 0.393310 0.08 -0.073404
v 0.374875 0 -0.052750
v 0.374875 0.08 -0.052750
v 0.353753 0 -0.034721
v 0.353753 0.08 -0.034721
v 0.330148 0 -0.019519
v 0.330148 0.08 -0.019519
v 0.304266 0 -0.007344
v 0.304266 0.08 -0.007344
v 0.276310 0 0.001602
v 0.276310 0.08 0.001602
v 0.246487 0 0.007117
v 0.246487 0.08 0.007117
v 0.215000 0 0.009000
v 0.215000 0.08 0.009000
v 0.200486 0 0.008747
v 0.200486 0.08 0.008747
v 0.186389 0 0.007972
v 0.186389 0.08 0.007972
v 0.172625 0 0.006656
v 0.172625 0.08 0.006656
v 0.159111 0 0.004778
v 0.159111 0.08 0.004778
v 0.145764 0 0.002316
v 0.145764 0.08 0.002316
v 0.132500 0 -0.000750
v 0.132500 0.08 -0.000750
v 0.119236 0 -0.004441
v 0.119236 0.08 -0.004441
v 0.105889 0 -0.008778
v 0.105889 0.08 -0.008778
v 0.092375 0 -0.013781
v 0.092375 0.08 -0.013781
v 0.078611 0 -0.019472
v 0.078611 0.08 -0.019472
v 0.064514 0 -0.025872
v 0.064514 0.08 -0.025872
v 0.050000 0 -0.033000
v 0.050000 0.08 -0.033000
v 0.050000 0 -0.134000
v 0.050000 0.08 -0.134000
v 0.062270 0 -0.126084
v 0.062270 0.08 -0.126084
v 0.074579 0 -0.118838
v 0.074579 0.08 -0.118838
v 0.086922 0 -0.112266
v 0.086922 0.08 -0.112266
v 0.099296 0 -0.106370
v 0.099296 0.08 -0.106370
v 0.111698 0 -0.101156
v 0.111698 0.08 -0.101156
v 0.124125 0 -0.096625
v 0.124125 0.08 -0.096625
v 0.136572 0 -0.092782
v 0.136572 0.08 -0.092782
v 0.149037 0 -0.089630
v 0.149037 0.08 -0.089630
v 0.161516 0 -0.087172
v 0.161516 0.08 -0.087172
v 0.174005 0 -0.085412
v 0.174005 0.08 -0.085412
v 0.186501 0 -0.084354
v 0.186501 0.08 -0.084354
v 0.199000 0 -0.084000
v 0.199000 0.08 -0.084000
v 0.217950 0 -0.085141
v 0.217950 0.08 -0.085141
v 0.236181 0 -0.088458
v 0.236181 0.08 -0.088458
v 0.253516 0 -0.093797
v 0.253516 0.08 -0.093797
v 0.269778 0 -0.101000
v 0.269778 0.08 -0.101000
v 0.284790 0 -0.109911
v 0.284790 0.08 -0.109911
v 0.298375 0 -0.120375
v 0.298375 0.08 -0.120375
v 0.310356 0 -0.132234
v 0.310356 0.08 -0.132234
v 0.320556 0 -0.145333
v 0.320556 0.08 -0.145333
v 0.328797 0 -0.159516
v 0.328797 0.08 -0.159516
v 0.334903 0 -0.174625
v 0.334903 0.08 -0.174625
v 0.338696 0 -0.190505
v 0.338696 0.08 -0.190505
v 0.340000 0 -0.207000
v 0.340000 0.08 -0.207000
v 0.338162 0 -0.228325
v 0.338162 0.08 -0.228325
v 0.332713 0 -0.248597
v 0.332713 0.08 -0.248597
v 0.323750 0 -0.267516
v 0.323750 0.08 -0.267516
v 0.311370 0 -0.284778
v 0.311370 0.08 -0.284778
v 0.295671 0 -0.300082
v 0.295671 0.08 -0.300082
v 0.276750 0 -0.313125
v 0.276750 0.08 -0.313125
v 0.254704 0 -0.323606
v 0.254704 0.08 -0.323606
v 0.229630 0 -0.331222
v 0.229630 0.08 -0.331222
v 0.201625 0 -0.335672
v 0.201625 0.08 -0.335672
v 0.170787 0 -0.336653
v 0.170787 0.08 -0.336653
v 0.137213 0 -0.333863
v 0.137213 0.08 -0.333863
v 0.101000 0 -0.327000
v 0.101000 0.08 -0.327000
v 0.101000 0 -0.682000
v 0.101000 0.08 -0.682000
v 0.404000 0 -0.682000
v 0.404000 0.08 -0.682000
v 0.404000 0 -0.594000
v 0.404000 0.08 -0.594000
vt 0.961039 0.000000
vt 0.000000 0.000000
vt 0.974026 0.000000
vt 0.987013 0.000000
vt 1.000000 0.000000
vt 0.012987 0.000000
vt 0.038961 0.000000
vt 0.025974 0.000000
vt 0.051948 0.000000
vt 0.064935 0.000000
vt 0.077922 0.000000
vt 0.948052 0.000000
vt 0.090909 0.000000
vt 0.935065 0.000000
vt 0.103896 0.000000
vt 0.922078 0.000000
vt 0.116883 0.000000
vt 0.909091 0.000000
vt 0.896104 0.000000
vt 0.883117 0.000000
vt 0.129870 0.000000
vt 0.870130 0.000000
vt 0.857143 0.000000
vt 0.142857 0.000000
vt 0.844156 0.000000
vt 0.155844 0.000000
vt 0.831169 0.000000
vt 0.818182 0.000000
vt 0.168831 0.000000
vt 0.805195 0.000000
vt 0.181818 0.000000
vt 0.792208 0.000000
vt 0.779221 0.000000
vt 0.194805 0.000000
vt 0.766234 0.000000
vt 0.753247 0.000000
vt 0.207792 0.000000
vt 0.740260 0.000000
vt 0.480519 0.000000
vt 0.506494 0.000000
vt 0.493506 0.000000
vt 0.727273 0.000000
vt 0.519481 0.000000
vt 0.220779 0.000000
vt 0.714286 0.000000
vt 0.532468 0.000000
vt 0.545455 0.000000
vt 0.701299 0.000000
vt 0.558442 0.000000
vt 0.571429 0.000000
vt 0.688312 0.000000
vt 0.584416 0.000000
vt 0.233766 0.000000
vt 0.675325 0.000000
vt 0.597403 0.000000
vt 0.610390 0.000000
vt 0.662338 0.000000
vt 0.623377 0.000000
vt 0.636364 0.000000
vt 0.649351 0.000000
vt 0.246753 0.000000
vt 0.259740 0.000000
vt 0.272727 0.000000
vt 0.467532 0.000000
vt 0.454545 0.000000
vt 0.285714 0.000000
vt 0.441558 0.000000
vt 0.428571 0.000000
vt 0.415584 0.000000
vt 0.298701 0.000000
vt 0.402597 0.000000
vt 0.389610 0.000000
vt 0.311688 0.000000
vt 0.376623 0.000000
vt 0.363636 0.000000
vt 0.350649 0.000000
vt 0.324675 0.000000
vt 0.337662 0.000000
vt 0.961039 0.000000
vt 0.974026 0.000000
vt 0.000000 0.000000
vt 0.987013 0.000000
vt 1.000000 0.000000
vt 0.012987 0.000000
vt 0.025974 0.000000
vt 0.038961 0.000000
vt 0.051948 0.000000
vt 0.064935 0.000000
vt 0.077922 0.000000
vt 0.948052 0.000000
vt 0.090909 0.000000
vt 0.935065 0.000000
vt 0.103896 0.000000
vt 0.922078 0.000000
vt 0.116883 0.000000
vt 0.909091 0.000000
vt 0.896104 0.000000
vt 0.883117 0.000000
vt 0.129870 0.000000
vt 0.870130 0.000000
vt 0.857143 0.000000
vt 0.142857 0.000000
vt 0.844156 0.000000
vt 0.155844 0.000000
vt 0.831169 0.000000
vt 0.818182 0.000000
vt 0.168831 0.000000
vt 0.805195 0.000000
vt 0.181818 0.000000
vt 0.792208 0.000000
vt 0.779221 0.000000
vt 0.194805 0.000000
vt 0.766234 0.000000
vt 0.753247 0.000000
vt 0.207792 0.000000
vt 0.740260 0.000000
vt 0.480519 0.000000
vt 0.493506 0.000000
vt 0.506494 0.000000
vt 0.727273 0.000000
vt 0.519481 0.000000
vt 0.220779 0.000000
vt 0.714286 0.000000
vt 0.532468 0.000000
vt 0.545455 0.000000
vt 0.701299 0.000000
vt 0.558442 0.000000
vt 0.571429 0.000000
vt 0.688312 0.000000
vt 0.584416 0.000000
vt 0.233766 0.000000
vt 0.675325 0.000000
vt 0.597403 0.000000
vt 0.610390 0.000000
vt 0.662338 0.000000
vt 0.623377 0.000000
vt 0.636364 0.000000
vt 0.649351 0.000000
vt 0.246753 0.000000
vt 0.259740 0.000000
vt 0.272727 0.000000
vt 0.467532 0.000000
vt 0.454545 0.000000
vt 0.285714 0.000000
vt 0.441558 0.000000
vt 0.428571 0.000000
vt 0.415584 0.000000
vt 0.298701 0.000000
vt 0.402597 0.000000
vt 0.389610 0.000000
vt 0.311688 0.000000
vt 0.376623 0.000000
vt 0.363636 0.000000
vt 0.350649 0.000000
vt 0.324675 0.000000
vt 0.337662 0.000000
vt 0.000000 1.000000
vt 0.012821 1.000000
vt 0.012821 0.000000
vt 0.000000 0.000000
vt 0.025641 1.000000
vt 0.025641 0.000000
vt 0.038462 1.000000
vt 0.038462 0.000000
vt 0.051282 1.000000
vt 0.051282 0.000000
vt 0.064103 1.000000
vt 0.064103 0.000000
vt 0.076923 1.000000
vt 0.076923 0.000000
vt 0.089744 1.000000
vt 0.089744 0.000000
vt 0.102564 1.000000
vt 0.102564 0.000000
vt 0.115385 1.000000
vt 0.115385 0.000000
vt 0.128205 1.000000
vt 0.128205 0.000000
vt 0.141026 1.000000
vt 0.141026 0.000000
vt 0.153846 1.000000
vt 0.153846 0.000000
vt 0.166667 1.000000
vt 0.166667 0.000000
vt 0.179487 1.000000
vt 0.179487 0.000000
vt 0.192308 1.000000
vt 0.192308 0.000000
vt 0.205128 1.000000
vt 0.205128 0.000000
vt 0.217949 1.000000
vt 0.217949 0.000000
vt 0.230769 1.000000
vt 0.230769 0.000000
vt 0.243590 1.000000
vt 0.243590 0.000000
vt 0.256410 1.000000
vt 0.256410 0.000000
vt 0.269231 1.000000
vt 0.269231 0.000000
vt 0.282051 1.000000
vt 0.282051 0.000000
vt 0.294872 1.000000
vt 0.294872 0.000000
vt 0.307692 1.000000
vt 0.307692 0.000000
vt 0.320513 1.000000
vt 0.320513 0.000000
vt 0.333333 1.000000
vt 0.333333 0.000000
vt 0.346154 1.000000
vt 0.346154 0.000000
vt 0.358974 1.000000
vt 0.358974 0.000000
vt 0.371795 1.000000
vt 0.371795 0.000000
vt 0.384615 1.000000
vt 0.384615 0.000000
vt 0.397436 1.000000
vt 0.397436 0.000000
vt 0.410256 1.000000
vt 0.410256 0.000000
vt 0.423077 1.000000
vt 0.423077 0.000000
vt 0.435897 1.000000
vt 0.435897 0.000000
vt 0.448718 1.000000
vt 0.448718 0.000000
vt 0.461538 1.000000
vt 0.461538 0.000000
vt 0.474359 1.000000
vt 0.474359 0.000000
vt 0.487179 1.000000
vt 0.487179 0.000000
vt 0.500000 1.000000
vt 0.500000 0.000000
vt 0.512821 1.000000
vt 0.512821 0.000000
vt 0.525641 1.000000
vt 0.525641 0.000000
vt 0.538462 1.000000
vt 0.538462 0.000000
vt 0.551282 1.000000
vt 0.551282 0.000000
vt 0.564103 1.000000
vt 0.564103 0.000000
vt 0.576923 1.000000
vt 0.576923 0.000000
vt 0.589744 1.000000
vt 0.589744 0.000000
vt 0.602564 1.000000
vt 0.602564 0.000000
vt 0.615385 1.000000
vt 0.615385 0.000000
vt 0.628205 1.000000
vt 0.628205 0.000000
vt 0.641026 1.000000
vt 0.641026 0.000000
vt 0.653846 1.000000
vt 0.653846 0.000000
vt 0.666667 1.000000
vt 0.666667 0.000000
vt 0.679487 1.000000
vt 0.679487 0.000000
vt 0.692308 1.000000
vt 0.692308 0.000000
vt 0.705128 1.000000
vt 0.705128 0.000000
vt 0.717949 1.000000
vt 0.717949 0.000000
vt 0.730769 1.000000
vt 0.730769 0.000000
vt 0.743590 1.000000
vt 0.743590 0.000000
vt 0.756410 1.000000
vt 0.756410 0.000000
vt 0.769231 1.000000
vt 0.769231 0.000000
vt 0.782051 1.000000
vt 0.782051 0.000000
vt 0.794872 1.000000
vt 0.794872 0.000000
vt 0.807692 1.000000
vt 0.807692 0.000000
vt 0.820513 1.000000
vt 0.820513 0.000000
vt 0.833333 1.000000
vt 0.833333 0.000000
vt 0.846154 1.000000
vt 0.846154 0.000000
vt 0.858974 1.000000
vt 0.858974 0.000000
vt 0.871795 1.000000
vt 0.871795 0.000000
vt 0.884615 1.000000
vt 0.884615 0.000000
vt 0.897436 1.000000
vt 0.897436 0.000000
vt 0.910256 1.000000
vt 0.910256 0.000000
vt 0.923077 1.000000
vt 0.923077 0.000000
vt 0.935897 1.000000
vt 0.935897 0.000000
vt 0.948718 1.000000
vt 0.948718 0.000000
vt 0.961538 1.000000
vt 0.961538 0.000000
vt 0.974359 1.000000
vt 0.974359 0.000000
vt 0.987179 1.000000
vt 0.987179 0.000000
vt 1.000000 1.000000
vt 1.000000 0.000000
vn 0.0000 1.0000 0.0000
vn 0.0000 -1.0000 0.0000
vn 0.7071 0.0000 0.7071
vn 0.7063 0.0000 -0.7079
vn 0.0572 0.0000 -0.9984
vn 0.1796 0.0000 -0.9837
vn 0.3066 0.0000 -0.9518
vn 0.4344 0.0000 -0.9007
vn 0.5581 0.0000 -0.8297
vn 0.6727 0.0000 -0.7399
vn 0.7736 0.0000 -0.6337
vn 0.8572 0.0000 -0.5150
vn 0.9215 0.0000 -0.3882
vn 0.9662 0.0000 -0.2577
vn 0.9918 0.0000 -0.1274
vn 1.0000 0.0000 -0.0001
vn 0.9920 0.0000 0.1264
vn 0.9671 0.0000 0.2542
vn 0.9249 0.0000 0.3802
vn 0.8654 0.0000 0.5011
vn 0.7895 0.0000 0.6136
vn 0.6992 0.0000 0.7149
vn 0.5967 0.0000 0.8025
vn 0.4846 0.0000 0.8747
vn 0.3660 0.0000 0.9306
vn 0.2438 0.0000 0.9698
vn 0.1210 0.0000 0.9926
vn 0.0211 0.0000 0.9998
vn -0.0361 0.0000 0.9993
vn -0.0750 0.0000 0.9972
vn -0.1164 0.0000 0.9932
vn -0.1596 0.0000 0.9872
vn -0.2033 0.0000 0.9791
vn -0.2467 0.0000 0.9691
vn -0.2886 0.0000 0.9574
vn -0.3282 0.0000 0.9446
vn -0.3647 0.0000 0.9311
vn -0.3978 0.0000 0.9175
vn -0.4271 0.0000 0.9042
vn -0.8488 0.0000 0.5287
vn -0.4785 0.0000 -0.8781
vn 0.5248 0.0000 -0.8512
vn 0.4888 0.0000 -0.8724
vn 0.4501 0.0000 -0.8929
vn 0.4089 0.0000 -0.9125
vn 0.3652 0.0000 -0.9309
vn 0.3189 0.0000 -0.9478
vn 0.2702 0.0000 -0.9628
vn 0.2193 0.0000 -0.9756
vn 0.1664 0.0000 -0.9860
vn 0.1120 0.0000 -0.9937
vn 0.0563 0.0000 -0.9984
vn -0.0159 0.0000 -0.9998
vn -0.1198 0.0000 -0.9928
vn -0.2371 0.0000 -0.9715
vn -0.3503 0.0000 -0.9366
vn -0.4585 0.0000 -0.8887
vn -0.5613 0.0000 -0.8276
vn -0.6581 0.0000 -0.7529
vn -0.7478 0.0000 -0.6639
vn -0.8287 0.0000 -0.5597
vn -0.8982 0.0000 -0.4396
vn -0.9525 0.0000 -0.3043
vn -0.9877 0.0000 -0.1560
vn -1.0000 0.0000 0.0035
vn -0.9848 0.0000 0.1734
vn -0.9385 0.0000 0.3453
vn -0.8616 0.0000 0.5075
vn -0.7583 0.0000 0.6519
vn -0.6351 0.0000 0.7725
vn -0.5000 0.0000 0.8660
vn -0.3610 0.0000 0.9326
vn -0.2243 0.0000 0.9745
vn -0.0945 0.0000 0.9955
vn 0.0255 0.0000 0.9997
vn 0.1347 0.0000 0.9909
vn -0.6379 0.0000 0.7701
vn -0.7071 0.0000 -0.7071
vn 0.7071 0.0000 -0.7071
usemtl None
s off
f 75/1/1 1/2/1 76/3/1
f 1/2/1 77/4/1 76/3/1
f 1/2/1 78/5/1 77/4/1
f 75/1/1 2/6/1 1/2/1
f 2/6/1 4/7/1 3/8/1
f 75/1/1 4/7/1 2/6/1
f 75/1/1 5/9/1 4/7/1
f 75/1/1 6/10/1 5/9/1
f 75/1/1 7/11/1 6/10/1
f 75/1/1 74/12/1 7/11/1
f 74/12/1 8/13/1 7/11/1
f 74/12/1 73/14/1 8/13/1
f 73/14/1 9/15/1 8/13/1
f 73/14/1 72/16/1 9/15/1
f 72/16/1 10/17/1 9/15/1
f 71/18/1 10/17/1 72/16/1
f 70/19/1 10/17/1 71/18/1
f 69/20/1 10/17/1 70/19/1
f 69/20/1 11/21/1 10/17/1
f 68/22/1 11/21/1 69/20/1
f 67/23/1 11/21/1 68/22/1
f 67/23/1 12/24/1 11/21/1
f 66/25/1 12/24/1 67/23/1
f 66/25/1 13/26/1 12/24/1
f 65/27/1 13/26/1 66/25/1
f 64/28/1 13/26/1 65/27/1
f 64/28/1 14/29/1 13/26/1
f 63/30/1 14/29/1 64/28/1
f 63/30/1 15/31/1 14/29/1
f 62/32/1 15/31/1 63/30/1
f 61/33/1 15/31/1 62/32/1
f 61/33/1 16/34/1 15/31/1
f 60/35/1 16/34/1 61/33/1
f 59/36/1 16/34/1 60/35/1
f 59/36/1 17/37/1 16/34/1
f 58/38/1 17/37/1 59/36/1
f 38/39/1 40/40/1 39/41/1
f 57/42/1 17/37/1 58/38/1
f 38/39/1 41/43/1 40/40/1
f 57/42/1 18/44/1 17/37/1
f 56/45/1 18/44/1 57/42/1
f 38/39/1 42/46/1 41/43/1
f 38/39/1 43/47/1 42/46/1
f 55/48/1 18/44/1 56/45/1
f 38/39/1 44/49/1 43/47/1
f 38/39/1 45/50/1 44/49/1
f 54/51/1 18/44/1 55/48/1
f 38/39/1 46/52/1 45/50/1
f 54/51/1 19/53/1 18/44/1
f 53/54/1 19/53/1 54/51/1
f 38/39/1 47/55/1 46/52/1
f 38/39/1 48/56/1 47/55/1
f 52/57/1 19/53/1 53/54/1
f 38/39/1 49/58/1 48/56/1
f 38/39/1 50/59/1 49/58/1
f 51/60/1 19/53/1 52/57/1
f 38/39/1 51/60/1 50/59/1
f 38/39/1 19/53/1 51/60/1
f 38/39/1 20/61/1 19/53/1
f 38/39/1 21/62/1 20/61/1
f 38/39/1 22/63/1 21/62/1
f 37/64/1 22/63/1 38/39/1
f 36/65/1 22/63/1 37/64/1
f 36/65/1 23/66/1 22/63/1
f 35/67/1 23/66/1 36/65/1
f 34/68/1 23/66/1 35/67/1
f 33/69/1 23/66/1 34/68/1
f 33/69/1 24/70/1 23/66/1
f 32/71/1 24/70/1 33/69/1
f 31/72/1 24/70/1 32/71/1
f 31/72/1 25/73/1 24/70/1
f 30/74/1 25/73/1 31/72/1
f 29/75/1 25/73/1 30/74/1
f 28/76/1 25/73/1 29/75/1
f 28/76/1 26/77/1 25/73/1
f 27/78/1 26/77/1 28/76/1
f 153/79/2 154/80/2 79/81/2
f 79/81/2 154/80/2 155/82/2
f 79/81/2 155/82/2 156/83/2
f 153/79/2 79/81/2 80/84/2
f 80/84/2 81/85/2 82/86/2
f 153/79/2 80/84/2 82/86/2
f 153/79/2 82/86/2 83/87/2
f 153/79/2 83/87/2 84/88/2
f 153/79/2 84/88/2 85/89/2
f 153/79/2 85/89/2 152/90/2
f 152/90/2 85/89/2 86/91/2
f 152/90/2 86/91/2 151/92/2
f 151/92/2 86/91/2 87/93/2
f 151/92/2 87/93/2 150/94/2
f 150/94/2 87/93/2 88/95/2
f 149/96/2 150/94/2 88/95/2
f 148/97/2 149/96/2 88/95/2
f 147/98/2 148/97/2 88/95/2
f 147/98/2 88/95/2 89/99/2
f 146/100/2 147/98/2 89/99/2
f 145/101/2 146/100/2 89/99/2
f 145/101/2 89/99/2 90/102/2
f 144/103/2 145/101/2 90/102/2
f 144/103/2 90/102/2 91/104/2
f 143/105/2 144/103/2 91/104/2
f 142/106/2 143/105/2 91/104/2
f 142/106/2 91/104/2 92/107/2
f 141/108/2 142/106/2 92/107/2
f 141/108/2 92/107/2 93/109/2
f 140/110/2 141/108/2 93/109/2
f 139/111/2 140/110/2 93/109/2
f 139/111/2 93/109/2 94/112/2
f 138/113/2 139/111/2 94/112/2
f 137/114/2 138/113/2 94/112/2
f 137/114/2 94/112/2 95/115/2
f 136/116/2 137/114/2 95/115/2
f 116/117/2 117/118/2 118/119/2
f 135/120/2 136/116/2 95/115/2
f 116/117/2 118/119/2 119/121/2
f 135/120/2 95/115/2 96/122/2
f 134/123/2 135/120/2 96/122/2
f 116/117/2 119/121/2 120/124/2
f 116/117/2 120/124/2 121/125/2
f 133/126/2 134/123/2 96/122/2
f 116/117/2 121/125/2 122/127/2
f 116/117/2 122/127/2 123/128/2
f 132/129/2 133/126/2 96/122/2
f 116/117/2 123/128/2 124/130/2
f 132/129/2 96/122/2 97/131/2
f 131/132/2 132/129/2 97/131/2
f 116/117/2 124/130/2 125/133/2
f 116/117/2 125/133/2 126/134/2
f 130/135/2 131/132/2 97/131/2
f 116/117/2 126/134/2 127/136/2
f 116/117/2 127/136/2 128/137/2
f 129/138/2 130/135/2 97/131/2
f 116/117/2 128/137/2 129/138/2
f 116/117/2 129/138/2 97/131/2
f 116/117/2 97/131/2 98/139/2
f 116/117/2 98/139/2 99/140/2
f 116/117/2 99/140/2 100/141/2
f 115/142/2 116/117/2 100/141/2
f 114/143/2 115/142/2 100/141/2
f 114/143/2 100/141/2 101/144/2
f 113/145/2 114/143/2 101/144/2
f 112/146/2 113/145/2 101/144/2
f 111/147/2 112/146/2 101/144/2
f 111/147/2 101/144/2 102/148/2
f 110/149/2 111/147/2 102/148/2
f 109/150/2 110/149/2 102/148/2
f 109/150/2 102/148/2 103/151/2
f 108/152/2 109/150/2 103/151/2
f 107/153/2 108/152/2 103/151/2
f 106/154/2 107/153/2 103/151/2
f 106/154/2 103/151/2 104/155/2
f 105/156/2 106/154/2 104/155/2
s 1
f 158/157/3 160/158/4 159/159/4 157/160/3
f 160/158/4 162/161/5 161/162/5 159/159/4
f 162/161/5 164/163/6 163/164/6 161/162/5
f 164/163/6 166/165/7 165/166/7 163/164/6
f 166/165/7 168/167/8 167/168/8 165/166/7
f 168/167/8 170/169/9 169/170/9 167/168/8
f 170/169/9 172/171/10 171/172/10 169/170/9
f 172/171/10 174/173/11 173/174/11 171/172/10
f 174/173/11 176/175/12 175/176/12 173/174/11
f 176/175/12 178/177/13 177/178/13 175/176/12
f 178/177/13 180/179/14 179/180/14 177/178/13
f 180/179/14 182/181/15 181/182/15 179/180/14
f 182/181/15 184/183/16 183/184/16 181/182/15
f 184/183/16 186/185/17 185/186/17 183/184/16
f 186/185/17 188/187/18 187/188/18 185/186/17
f 188/187/18 190/189/19 189/190/19 187/188/18
f 190/189/19 192/191/20 191/192/20 189/190/19
f 192/191/20 194/193/21 193/194/21 191/192/20
f 194/193/21 196/195/22 195/196/22 193/194/21
f 196/195/22 198/197/23 197/198/23 195/196/22
f 198/197/23 200/199/24 199/200/24 197/198/23
f 200/199/24 202/201/25 201/202/25 199/200/24
f 202/201/25 204/203/26 203/204/26 201/202/25
f 204/203/26 206/205/27 205/206/27 203/204/26
f 206/205/27 208/207/28 207/208/28 205/206/27
f 208/207/28 210/209/29 209/210/29 207/208/28
f 210/209/29 212/211/30 211/212/30 209/210/29
f 212/211/30 214/213/31 213/214/31 211/212/30
f 214/213/31 216/215/32 215/216/32 213/214/31
f 216/215/32 218/217/33 217/218/33 215/216/32
f 218/217/33 220/219/34 219/220/34 217/218/33
f 220/219/34 222/221/35 221/222/35 219/220/34
f 222/221/35 224/223/36 223/224/36 221/222/35
f 224/223/36 226/225/37 225/226/37 223/224/36
f 226/225/37 228/227/38 227/228/38 225/226/37
f 228/227/38 230/229/39 229/230/39 227/228/38
f 230/229/39 232/231/40 231/232/40 229/230/39
f 232/231/40 234/233/41 233/234/41 231/232/40
f 234/233/41 236/235/42 235/236/42 233/234/41
f 236/235/42 238/237/43 237/238/43 235/236/42
f 238/237/43 240/239/44 239/240/44 237/238/43
f 240/239/44 242/241/45 241/242/45 239/240/44
f 242/241/45 244/243/46 243/244/46 241/242/45
f 244/243/46 246/245/47 245/246/47 243/244/46
f 246/245/47 248/247/48 247/248/48 245/246/47
f 248/247/48 250/249/49 249/250/49 247/248/48
f 250/249/49 252/251/50 251/252/50 249/250/49
f 252/251/50 254/253/51 253/254/51 251/252/50
f 254/253/51 256/255/52 255/256/52 253/254/51
f 256/255/52 258/257/53 257/258/53 255/256/52
f 258/257/53 260/259/54 259/260/54 257/258/53
f 260/259/54 262/261/55 261/262/55 259/260/54
f 262/261/55 264/263/56 263/264/56 261/262/55
f 264/263/56 266/265/57 265/266/57 263/264/56
f 266/265/57 268/267/58 267/268/58 265/266/57
f 268/267/58 270/269/59 269/270/59 267/268/58
f 270/269/59 272/271/60 271/272/60 269/270/59
f 272/271/60 274/273/61 273/274/61 271/272/60
f 274/273/61 276/275/62 275/276/62 273/274/61
f 276/275/62 278/277/63 277/278/63 275/276/62
f 278/277/63 280/279/64 279/280/64 277/278/63
f 280/279/64 282/281/65 281/282/65 279/280/64
f 282/281/65 284/283/66 283/284/66 281/282/65
f 284/283/66 286/285/67 285/286/67 283/284/66
f 286/285/67 288/287/68 287/288/68 285/286/67
f 288/287/68 290/289/69 289/290/69 287/288/68
f 290/289/69 292/291/70 291/292/70 289/290/69
f 292/291/70 294/293/71 293/294/71 291/292/70
f 294/293/71 296/295/72 295/296/72 293/294/71
f 296/295/72 298/297/73 297/298/73 295/296/72
f 298/297/73 300/299/74 299/300/74 297/298/73
f 300/299/74 302/301/75 301/302/75 299/300/74
f 302/301/75 304/303/76 303/304/76 301/302/75
f 304/303/76 306/305/77 305/306/77 303/304/76
f 306/305/77 308/307/78 307/308/78 305/306/77
f 308/307/78 310/309/79 309/310/79 307/308/78
f 310/309/79 312/311/3 311/312/3 309/310/79
f 312/311/3 158/313/3 157/314/3 311/312/3
