# Blender v2.93.0 OBJ File: ''
# www.blender.org
mtllib lowerx.mtl
o Text
v 0.500000 0.08 0.000000
v 0.386000 0.08 0.000000
v 0.245000 0.08 -0.161000
v 0.112000 0.08 0.000000
v 0.000000 0.08 0.000000
v 0.189000 0.08 -0.228000
v 0.000000 0.08 -0.449000
v 0.112000 0.08 -0.449000
v 0.245000 0.08 -0.295000
v 0.373000 0.08 -0.449000
v 0.487000 0.08 -0.449000
v 0.302000 0.08 -0.228000
v 0.500000 0 0.000000
v 0.386000 0 0.000000
v 0.245000 0 -0.161000
v 0.112000 0 0.000000
v 0.000000 0 0.000000
v 0.189000 0 -0.228000
v 0.000000 0 -0.449000
v 0.112000 0 -0.449000
v 0.245000 0 -0.295000
v 0.373000 0 -0.449000
v 0.487000 0 -0.449000
v 0.302000 0 -0.228000
v 0.500000 0 0.000000
v 0.500000 0.08 0.000000
v 0.386000 0 0.000000
v 0.386000 0.08 0.000000
v 0.245000 0 -0.161000
v 0.245000 0.08 -0.161000
v 0.112000 0 0.000000
v 0.112000 0.08 0.000000
v 0.000000 0 0.000000
v 0.000000 0.08 0.000000
v 0.189000 0 -0.228000
v 0.189000 0.08 -0.228000
v 0.000000 0 -0.449000
v 0.000000 0.08 -0.449000
v 0.112000 0 -0.449000
v 0.112000 0.08 -0.449000
v 0.245000 0 -0.295000
v 0.245000 0.08 -0.295000
v 0.373000 0 -0.449000
v 0.373000 0.08 -0.449000
v 0.487000 0 -0.449000
v 0.487000 0.08 -0.449000
v 0.302000 0 -0.228000
v 0.302000 0.08 -0.228000
vt 0.454545 0.000000
vt 0.636364 0.000000
vt 0.545455 0.000000
vt 0.727273 0.000000
vt 0.909091 0.000000
vt 0.818182 0.000000
vt 1.000000 0.000000
vt 0.363636 0.000000
vt 0.181818 0.000000
vt 0.000000 0.000000
vt 0.272727 0.000000
vt 0.090909 0.000000
vt 0.454545 0.000000
vt 0.545455 0.000000
vt 0.636364 0.000000
vt 0.727273 0.000000
vt 0.818182 0.000000
vt 0.909091 0.000000
vt 1.000000 0.000000
vt 0.363636 0.000000
vt 0.181818 0.000000
vt 0.000000 0.000000
vt 0.272727 0.000000
vt 0.090909 0.000000
vt 0.000000 1.000000
vt 0.083333 1.000000
vt 0.083333 0.000000
vt 0.000000 0.000000
vt 0.166667 1.000000
vt 0.166667 0.000000
vt 0.250000 1.000000
vt 0.250000 0.000000
vt 0.333333 1.000000
vt 0.333333 0.000000
vt 0.416667 1.000000
vt 0.416667 0.000000
vt 0.500000 1.000000
vt 0.500000 0.000000
vt 0.583333 1.000000
vt 0.583333 0.000000
vt 0.666667 1.000000
vt 0.666667 0.000000
vt 0.750000 1.000000
vt 0.750000 0.000000
vt 0.833333 1.000000
vt 0.833333 0.000000
vt 0.916667 1.000000
vt 0.916667 0.000000
vt 1.000000 1.000000
vt 1.000000 0.000000
vn 0.0000 1.0000 0.0000
vn 0.0000 -1.0000 0.0000
vn 0.9098 0.0000 0.4149
vn -0.4130 0.0000 0.9107
vn 0.0144 0.0000 0.9999
vn 0.4261 0.0000 0.9047
vn -0.9050 0.0000 0.4253
vn -1.0000 0.0000 0.0077
vn -0.9083 0.0000 -0.4183
vn 0.4162 0.0000 -0.9093
vn -0.0094 0.0000 -0.9999
vn -0.4247 0.0000 -0.9053
vn 0.9060 0.0000 -0.4231
vn 0.9999 0.0000 -0.0091
usemtl None
s off
f 6/1/1 8/2/1 7/3/1
f 6/1/1 9/4/1 8/2/1
f 9/4/1 11/5/1 10/6/1
f 9/4/1 12/7/1 11/5/1
f 6/1/1 12/7/1 9/4/1
f 5/8/1 12/7/1 6/1/1
f 5/8/1 3/9/1 12/7/1
f 3/9/1 1/10/1 12/7/1
f 5/8/1 4/11/1 3/9/1
f 2/12/1 1/10/1 3/9/1
f 18/13/2 19/14/2 20/15/2
f 18/13/2 20/15/2 21/16/2
f 21/16/2 22/17/2 23/18/2
f 21/16/2 23/18/2 24/19/2
f 18/13/2 21/16/2 24/19/2
f 17/20/2 18/13/2 24/19/2
f 17/20/2 24/19/2 15/21/2
f 15/21/2 24/19/2 13/22/2
f 17/20/2 15/21/2 16/23/2
f 14/24/2 15/21/2 13/22/2
s 1
f 26/25/3 28/26/4 27/27/4 25/28/3
f 28/26/4 30/29/5 29/30/5 27/27/4
f 30/29/5 32/31/6 31/32/6 29/30/5
f 32/31/6 34/33/7 33/34/7 31/32/6
f 34/33/7 36/35/8 35/36/8 33/34/7
f 36/35/8 38/37/9 37/38/9 35/36/8
f 38/37/9 40/39/10 39/40/10 37/38/9
f 40/39/10 42/41/11 41/42/11 39/40/10
f 42/41/11 44/43/12 43/44/12 41/42/11
f 44/43/12 46/45/13 45/46/13 43/44/12
f 46/45/13 48/47/14 47/48/14 45/46/13
f 48/47/14 26/49/3 25/50/3 47/48/14
