# Blender v2.93.0 OBJ File: ''
# www.blender.org
mtllib lowerw.mtl
o Text
v 0.624000 0.08 -0.449000
v 0.719000 0.08 -0.449000
v 0.521000 0.08 0.009000
v 0.493000 0.08 0.009000
v 0.360000 0.08 -0.305000
v 0.228000 0.08 0.009000
v 0.200000 0.08 0.009000
v 0.000000 0.08 -0.449000
v 0.095000 0.08 -0.449000
v 0.213000 0.08 -0.177000
v 0.327000 0.08 -0.449000
v 0.393000 0.08 -0.449000
v 0.507000 0.08 -0.177000
v 0.624000 0 -0.449000
v 0.719000 0 -0.449000
v 0.521000 0 0.009000
v 0.493000 0 0.009000
v 0.360000 0 -0.305000
v 0.228000 0 0.009000
v 0.200000 0 0.009000
v 0.000000 0 -0.449000
v 0.095000 0 -0.449000
v 0.213000 0 -0.177000
v 0.327000 0 -0.449000
v 0.393000 0 -0.449000
v 0.507000 0 -0.177000
v 0.624000 0 -0.449000
v 0.624000 0.08 -0.449000
v 0.719000 0 -0.449000
v 0.719000 0.08 -0.449000
v 0.521000 0 0.009000
v 0.521000 0.08 0.009000
v 0.493000 0 0.009000
v 0.493000 0.08 0.009000
v 0.360000 0 -0.305000
v 0.360000 0.08 -0.305000
v 0.228000 0 0.009000
v 0.228000 0.08 0.009000
v 0.200000 0 0.009000
v 0.200000 0.08 0.009000
v 0.000000 0 -0.449000
v 0.000000 0.08 -0.449000
v 0.095000 0 -0.449000
v 0.095000 0.08 -0.449000
v 0.213000 0 -0.177000
v 0.213000 0.08 -0.177000
v 0.327000 0 -0.449000
v 0.327000 0.08 -0.449000
v 0.393000 0 -0.449000
v 0.393000 0.08 -0.449000
v 0.507000 0 -0.177000
v 0.507000 0.08 -0.177000
vt 0.500000 0.000000
vt 0.666667 0.000000
vt 0.583333 0.000000
vt 0.750000 0.000000
vt 0.916667 0.000000
vt 0.833333 0.000000
vt 0.333333 0.000000
vt 1.000000 0.000000
vt 0.083333 0.000000
vt 0.000000 0.000000
vt 0.166667 0.000000
vt 0.416667 0.000000
vt 0.250000 0.000000
vt 0.500000 0.000000
vt 0.583333 0.000000
vt 0.666667 0.000000
vt 0.750000 0.000000
vt 0.833333 0.000000
vt 0.916667 0.000000
vt 0.333333 0.000000
vt 1.000000 0.000000
vt 0.000000 0.000000
vt 0.083333 0.000000
vt 0.166667 0.000000
vt 0.416667 0.000000
vt 0.250000 0.000000
vt 0.000000 1.000000
vt 0.076923 1.000000
vt 0.076923 0.000000
vt 0.000000 0.000000
vt 0.153846 1.000000
vt 0.153846 0.000000
vt 0.230769 1.000000
vt 0.230769 0.000000
vt 0.307692 1.000000
vt 0.307692 0.000000
vt 0.384615 1.000000
vt 0.384615 0.000000
vt 0.461538 1.000000
vt 0.461538 0.000000
vt 0.538462 1.000000
vt 0.538462 0.000000
vt 0.615385 1.000000
vt 0.615385 0.000000
vt 0.692308 1.000000
vt 0.692308 0.000000
vt 0.769231 1.000000
vt 0.769231 0.000000
vt 0.846154 1.000000
vt 0.846154 0.000000
vt 0.923077 1.000000
vt 0.923077 0.000000
vt 1.000000 1.000000
vt 1.000000 0.000000
vn 0.0000 1.0000 -0.0000
vn 0.0000 -1.0000 -0.0000
vn -0.5499 0.0000 -0.8352
vn 0.8357 0.0000 -0.5492
vn 0.5492 0.0000 0.8357
vn -0.5522 0.0000 0.8336
vn 0.0013 0.0000 1.0000
vn 0.5534 0.0000 0.8329
vn -0.5476 0.0000 0.8367
vn -0.8367 0.0000 -0.5476
vn 0.5486 0.0000 -0.8361
vn -0.0062 0.0000 -1.0000
vn -0.5538 0.0000 -0.8326
vn 0.5538 0.0000 -0.8326
vn 0.0047 0.0000 -1.0000
usemtl None
s off
f 7/1/1 9/2/1 8/3/1
f 7/1/1 10/4/1 9/2/1
f 10/4/1 12/5/1 11/6/1
f 10/4/1 5/7/1 12/5/1
f 5/7/1 13/8/1 12/5/1
f 13/8/1 2/9/1 1/10/1
f 13/8/1 3/11/1 2/9/1
f 10/4/1 6/12/1 5/7/1
f 4/13/1 13/8/1 5/7/1
f 7/1/1 6/12/1 10/4/1
f 4/13/1 3/11/1 13/8/1
f 20/14/2 21/15/2 22/16/2
f 20/14/2 22/16/2 23/17/2
f 23/17/2 24/18/2 25/19/2
f 23/17/2 25/19/2 18/20/2
f 18/20/2 25/19/2 26/21/2
f 26/21/2 14/22/2 15/23/2
f 26/21/2 15/23/2 16/24/2
f 23/17/2 18/20/2 19/25/2
f 17/26/2 18/20/2 26/21/2
f 20/14/2 23/17/2 19/25/2
f 17/26/2 26/21/2 16/24/2
s 1
f 28/27/3 30/28/4 29/29/4 27/30/3
f 30/28/4 32/31/5 31/32/5 29/29/4
f 32/31/5 34/33/6 33/34/6 31/32/5
f 34/33/6 36/35/7 35/36/7 33/34/6
f 36/35/7 38/37/8 37/38/8 35/36/7
f 38/37/8 40/39/9 39/40/9 37/38/8
f 40/39/9 42/41/10 41/42/10 39/40/9
f 42/41/10 44/43/11 43/44/11 41/42/10
f 44/43/11 46/45/12 45/46/12 43/44/11
f 46/45/12 48/47/13 47/48/13 45/46/12
f 48/47/13 50/49/14 49/50/14 47/48/13
f 50/49/14 52/51/15 51/52/15 49/50/14
f 52/51/15 28/53/3 27/54/3 51/52/15
