# Blender v2.93.0 OBJ File: ''
# www.blender.org
mtllib capitalE.mtl
o Text
v 0.173000 0.08 -0.594000
v 0.173000 0.08 -0.388000
v 0.452000 0.08 -0.388000
v 0.452000 0.08 -0.300000
v 0.173000 0.08 -0.300000
v 0.173000 0.08 -0.088000
v 0.471000 0.08 -0.088000
v 0.471000 0.08 0.000000
v 0.075000 0.08 0.000000
v 0.075000 0.08 -0.682000
v 0.462000 0.08 -0.682000
v 0.462000 0.08 -0.594000
v 0.173000 0 -0.594000
v 0.173000 0 -0.388000
v 0.452000 0 -0.388000
v 0.452000 0 -0.300000
v 0.173000 0 -0.300000
v 0.173000 0 -0.088000
v 0.471000 0 -0.088000
v 0.471000 0 0.000000
v 0.075000 0 0.000000
v 0.075000 0 -0.682000
v 0.462000 0 -0.682000
v 0.462000 0 -0.594000
v 0.173000 0 -0.594000
v 0.173000 0.08 -0.594000
v 0.173000 0 -0.388000
v 0.173000 0.08 -0.388000
v 0.452000 0 -0.388000
v 0.452000 0.08 -0.388000
v 0.452000 0 -0.300000
v 0.452000 0.08 -0.300000
v 0.173000 0 -0.300000
v 0.173000 0.08 -0.300000
v 0.173000 0 -0.088000
v 0.173000 0.08 -0.088000
v 0.471000 0 -0.088000
v 0.471000 0.08 -0.088000
v 0.471000 0 0.000000
v 0.471000 0.08 0.000000
v 0.075000 0 0.000000
v 0.075000 0.08 0.000000
v 0.075000 0 -0.682000
v 0.075000 0.08 -0.682000
v 0.462000 0 -0.682000
v 0.462000 0.08 -0.682000
v 0.462000 0 -0.594000
v 0.462000 0.08 -0.594000
vt 0.727273 0.000000
vt 0.000000 0.000000
vt 0.818182 0.000000
vt 0.909091 0.000000
vt 1.000000 0.000000
vt 0.090909 0.000000
vt 0.363636 0.000000
vt 0.181818 0.000000
vt 0.272727 0.000000
vt 0.454545 0.000000
vt 0.545455 0.000000
vt 0.636364 0.000000
vt 0.727273 0.000000
vt 0.818182 0.000000
vt 0.000000 0.000000
vt 0.909091 0.000000
vt 1.000000 0.000000
vt 0.090909 0.000000
vt 0.363636 0.000000
vt 0.181818 0.000000
vt 0.272727 0.000000
vt 0.454545 0.000000
vt 0.545455 0.000000
vt 0.636364 0.000000
vt 0.000000 1.000000
vt 0.083333 1.000000
vt 0.083333 0.000000
vt 0.000000 0.000000
vt 0.166667 1.000000
vt 0.166667 0.000000
vt 0.250000 1.000000
vt 0.250000 0.000000
vt 0.333333 1.000000
vt 0.333333 0.000000
vt 0.416667 1.000000
vt 0.416667 0.000000
vt 0.500000 1.000000
vt 0.500000 0.000000
vt 0.583333 1.000000
vt 0.583333 0.000000
vt 0.666667 1.000000
vt 0.666667 0.000000
vt 0.750000 1.000000
vt 0.750000 0.000000
vt 0.833333 1.000000
vt 0.833333 0.000000
vt 0.916667 1.000000
vt 0.916667 0.000000
vt 1.000000 1.000000
vt 1.000000 0.000000
vn 0.0000 1.0000 0.0000
vn 0.0000 -1.0000 0.0000
vn 0.7071 0.0000 0.7071
vn 0.7071 0.0000 -0.7071
vn -0.7071 0.0000 0.7071
vn -0.7071 0.0000 -0.7071
usemtl None
s off
f 9/1/1 1/2/1 10/3/1
f 1/2/1 11/4/1 10/3/1
f 1/2/1 12/5/1 11/4/1
f 9/1/1 2/6/1 1/2/1
f 9/1/1 5/7/1 2/6/1
f 5/7/1 3/8/1 2/6/1
f 5/7/1 4/9/1 3/8/1
f 9/1/1 6/10/1 5/7/1
f 9/1/1 7/11/1 6/10/1
f 9/1/1 8/12/1 7/11/1
f 21/13/2 22/14/2 13/15/2
f 13/15/2 22/14/2 23/16/2
f 13/15/2 23/16/2 24/17/2
f 21/13/2 13/15/2 14/18/2
f 21/13/2 14/18/2 17/19/2
f 17/19/2 14/18/2 15/20/2
f 17/19/2 15/20/2 16/21/2
f 21/13/2 17/19/2 18/22/2
f 21/13/2 18/22/2 19/23/2
f 21/13/2 19/23/2 20/24/2
s 1
f 26/25/3 28/26/4 27/27/4 25/28/3
f 28/26/4 30/29/4 29/30/4 27/27/4
f 30/29/4 32/31/3 31/32/3 29/30/4
f 32/31/3 34/33/3 33/34/3 31/32/3
f 34/33/3 36/35/4 35/36/4 33/34/3
f 36/35/4 38/37/4 37/38/4 35/36/4
f 38/37/4 40/39/3 39/40/3 37/38/4
f 40/39/3 42/41/5 41/42/5 39/40/3
f 42/41/5 44/43/6 43/44/6 41/42/5
f 44/43/6 46/45/4 45/46/4 43/44/6
f 46/45/4 48/47/3 47/48/3 45/46/4
f 48/47/3 26/49/3 25/50/3 47/48/3
